M48
; DRILL file {KiCad 5.1.10} date Mon Jan 31 09:35:29 2022
; FORMAT={-:-/ absolute / inch / decimal}
; #@! TF.CreationDate,2022-01-31T09:35:29+01:00
; #@! TF.GenerationSoftware,Kicad,Pcbnew,5.1.10
; #@! TF.FileFunction,Plated,1,2,PTH
FMAT,2
INCH
T1C0.0157
T2C0.0236
T3C0.0315
T4C0.0393
%
G90
G05
T1
X4.3492Y-3.4811
X4.3504Y-4.0807
X4.9504Y-3.7394
X5.9921Y-3.576
X6.5461Y-3.3854
X7.0197Y-3.3831
X7.0205Y-3.6157
X7.239Y-4.2512
X7.2886Y-4.0567
X7.3118Y-4.4661
T2
X7.4039Y-4.2496
X7.4039Y-4.3496
X7.5039Y-4.2496
X7.5039Y-4.3496
X7.6039Y-4.2496
X7.6039Y-4.3496
T3
X5.1224Y-3.7319
X5.1224Y-4.3319
X5.2224Y-3.7319
X5.2224Y-4.3319
X5.3224Y-3.7319
X5.3224Y-4.3319
X5.4224Y-3.7319
X5.4224Y-4.3319
X5.5224Y-3.7319
X5.5224Y-4.3319
X5.6224Y-3.7319
X5.6224Y-4.3319
X5.7224Y-3.7319
X5.7224Y-4.3319
X5.8224Y-3.7319
X5.8224Y-4.3319
X5.9224Y-3.7319
X5.9224Y-4.3319
X6.0224Y-3.7319
X6.0224Y-4.3319
X6.1224Y-3.7319
X6.1224Y-4.3319
X6.2224Y-3.7319
X6.2224Y-4.3319
X6.3224Y-3.7319
X6.3224Y-4.3319
X6.4224Y-3.7319
X6.4224Y-4.3319
X6.5224Y-3.7319
X6.5224Y-4.3319
X6.6224Y-3.7319
X6.6224Y-4.3319
X6.7224Y-3.7319
X6.7224Y-4.3319
X6.8224Y-3.7319
X6.8224Y-4.3319
X6.9224Y-3.7319
X6.9224Y-4.3319
X7.0224Y-3.7319
X7.0224Y-4.3319
X7.3598Y-3.4425
X7.3598Y-3.5425
X7.3598Y-3.6425
X7.6598Y-3.4425
X7.6598Y-3.5425
X7.6598Y-3.6425
T4
X4.6465Y-3.484
X4.6465Y-4.084
X4.7465Y-3.484
X4.7465Y-4.084
X4.8465Y-3.484
X4.8465Y-4.084
X4.9465Y-3.484
X4.9465Y-4.084
X5.0465Y-3.484
X5.0465Y-4.084
X5.1465Y-3.484
X5.1465Y-4.084
X5.2465Y-3.484
X5.2465Y-4.084
X5.3465Y-3.484
X5.3465Y-4.084
X5.4465Y-3.484
X5.4465Y-4.084
X5.5465Y-3.484
X5.5465Y-4.084
X5.6465Y-3.484
X5.6465Y-4.084
X5.7465Y-3.484
X5.7465Y-4.084
X5.8465Y-3.484
X5.8465Y-4.084
X5.9465Y-3.484
X5.9465Y-4.084
X6.0465Y-3.484
X6.0465Y-4.084
X6.1465Y-3.484
X6.1465Y-4.084
X6.2465Y-3.484
X6.2465Y-4.084
X6.3465Y-3.484
X6.3465Y-4.084
X6.4465Y-3.484
X6.4465Y-4.084
X6.5465Y-3.484
X6.5465Y-4.084
X6.6465Y-3.484
X6.6465Y-4.084
X6.7465Y-3.484
X6.7465Y-4.084
X6.8465Y-3.484
X6.8465Y-4.084
X6.9465Y-3.484
X6.9465Y-4.084
T0
M30
