%TF.GenerationSoftware,KiCad,Pcbnew,5.1.10*%
%TF.CreationDate,2022-01-31T09:35:24+01:00*%
%TF.ProjectId,27C160_Adapter,32374331-3630-45f4-9164-61707465722e,1.1SMD*%
%TF.SameCoordinates,Original*%
%TF.FileFunction,Copper,L1,Top*%
%TF.FilePolarity,Positive*%
%FSLAX46Y46*%
G04 Gerber Fmt 4.6, Leading zero omitted, Abs format (unit mm)*
G04 Created by KiCad (PCBNEW 5.1.10) date 2022-01-31 09:35:24*
%MOMM*%
%LPD*%
G01*
G04 APERTURE LIST*
%TA.AperFunction,ComponentPad*%
%ADD10O,1.506220X3.014980*%
%TD*%
%TA.AperFunction,ComponentPad*%
%ADD11O,1.600000X2.400000*%
%TD*%
%TA.AperFunction,ComponentPad*%
%ADD12R,1.600000X2.400000*%
%TD*%
%TA.AperFunction,ComponentPad*%
%ADD13C,1.200000*%
%TD*%
%TA.AperFunction,ComponentPad*%
%ADD14R,1.200000X1.200000*%
%TD*%
%TA.AperFunction,ComponentPad*%
%ADD15O,1.600000X1.600000*%
%TD*%
%TA.AperFunction,ComponentPad*%
%ADD16R,1.600000X1.600000*%
%TD*%
%TA.AperFunction,ViaPad*%
%ADD17C,0.600000*%
%TD*%
%TA.AperFunction,Conductor*%
%ADD18C,0.250000*%
%TD*%
%TA.AperFunction,Conductor*%
%ADD19C,0.254000*%
%TD*%
%TA.AperFunction,Conductor*%
%ADD20C,0.100000*%
%TD*%
G04 APERTURE END LIST*
D10*
%TO.P,ZX1,48*%
%TO.N,N/C*%
X118021100Y-88493600D03*
%TO.P,ZX1,47*%
X120561100Y-88493600D03*
%TO.P,ZX1,46*%
X123101100Y-88493600D03*
%TO.P,ZX1,45*%
%TO.N,/A19*%
X125641100Y-88493600D03*
%TO.P,ZX1,44*%
%TO.N,/A8*%
X128181100Y-88493600D03*
%TO.P,ZX1,43*%
%TO.N,/A9*%
X130721100Y-88493600D03*
%TO.P,ZX1,42*%
%TO.N,/A10*%
X133261100Y-88493600D03*
%TO.P,ZX1,41*%
%TO.N,/A11*%
X135801100Y-88493600D03*
%TO.P,ZX1,40*%
%TO.N,/A12*%
X138341100Y-88493600D03*
%TO.P,ZX1,39*%
%TO.N,/A13*%
X140881100Y-88493600D03*
%TO.P,ZX1,38*%
%TO.N,/A14*%
X143421100Y-88493600D03*
%TO.P,ZX1,37*%
%TO.N,/A15*%
X145961100Y-88493600D03*
%TO.P,ZX1,36*%
%TO.N,/A16*%
X148501100Y-88493600D03*
%TO.P,ZX1,35*%
%TO.N,/N$2*%
X151041100Y-88493600D03*
%TO.P,ZX1,34*%
%TO.N,GND*%
X153581100Y-88493600D03*
%TO.P,ZX1,33*%
%TO.N,/D15*%
X156121100Y-88493600D03*
%TO.P,ZX1,32*%
%TO.N,/D7*%
X158661100Y-88493600D03*
%TO.P,ZX1,31*%
%TO.N,/D14*%
X161201100Y-88493600D03*
%TO.P,ZX1,30*%
%TO.N,/D6*%
X163741100Y-88493600D03*
%TO.P,ZX1,29*%
%TO.N,/D13*%
X166281100Y-88493600D03*
%TO.P,ZX1,28*%
%TO.N,/D5*%
X168821100Y-88493600D03*
%TO.P,ZX1,27*%
%TO.N,/D12*%
X171361100Y-88493600D03*
%TO.P,ZX1,26*%
%TO.N,/D4*%
X173901100Y-88493600D03*
%TO.P,ZX1,25*%
%TO.N,VCC*%
X176441100Y-88493600D03*
%TO.P,ZX1,24*%
%TO.N,/D11*%
X176441100Y-103733600D03*
%TO.P,ZX1,23*%
%TO.N,/D3*%
X173901100Y-103733600D03*
%TO.P,ZX1,22*%
%TO.N,/D10*%
X171361100Y-103733600D03*
%TO.P,ZX1,21*%
%TO.N,/D2*%
X168821100Y-103733600D03*
%TO.P,ZX1,20*%
%TO.N,/D9*%
X166281100Y-103733600D03*
%TO.P,ZX1,19*%
%TO.N,/D1*%
X163741100Y-103733600D03*
%TO.P,ZX1,18*%
%TO.N,/D8*%
X161201100Y-103733600D03*
%TO.P,ZX1,17*%
%TO.N,/D0*%
X158661100Y-103733600D03*
%TO.P,ZX1,16*%
%TO.N,/N$6*%
X156121100Y-103733600D03*
%TO.P,ZX1,15*%
%TO.N,GND*%
X153581100Y-103733600D03*
%TO.P,ZX1,14*%
%TO.N,/E*%
X151041100Y-103733600D03*
%TO.P,ZX1,13*%
%TO.N,/A0*%
X148501100Y-103733600D03*
%TO.P,ZX1,12*%
%TO.N,/A1*%
X145961100Y-103733600D03*
%TO.P,ZX1,11*%
%TO.N,/A2*%
X143421100Y-103733600D03*
%TO.P,ZX1,10*%
%TO.N,/A3*%
X140881100Y-103733600D03*
%TO.P,ZX1,9*%
%TO.N,/A4*%
X138341100Y-103733600D03*
%TO.P,ZX1,8*%
%TO.N,/A5*%
X135801100Y-103733600D03*
%TO.P,ZX1,7*%
%TO.N,/A6*%
X133261100Y-103733600D03*
%TO.P,ZX1,6*%
%TO.N,/A7*%
X130721100Y-103733600D03*
%TO.P,ZX1,5*%
%TO.N,/A17*%
X128181100Y-103733600D03*
%TO.P,ZX1,4*%
%TO.N,/A18*%
X125641100Y-103733600D03*
%TO.P,ZX1,3*%
%TO.N,N/C*%
X123101100Y-103733600D03*
%TO.P,ZX1,2*%
X120561100Y-103733600D03*
%TO.P,ZX1,1*%
X118021100Y-103733600D03*
%TD*%
D11*
%TO.P,U1,40*%
%TO.N,VCC*%
X130110000Y-94790000D03*
%TO.P,U1,20*%
%TO.N,/N$5*%
X178370000Y-110030000D03*
%TO.P,U1,39*%
%TO.N,/A17*%
X132650000Y-94790000D03*
%TO.P,U1,19*%
%TO.N,/D0*%
X175830000Y-110030000D03*
%TO.P,U1,38*%
%TO.N,/A16*%
X135190000Y-94790000D03*
%TO.P,U1,18*%
%TO.N,/D1*%
X173290000Y-110030000D03*
%TO.P,U1,37*%
%TO.N,/A15*%
X137730000Y-94790000D03*
%TO.P,U1,17*%
%TO.N,/D2*%
X170750000Y-110030000D03*
%TO.P,U1,36*%
%TO.N,/A14*%
X140270000Y-94790000D03*
%TO.P,U1,16*%
%TO.N,/D3*%
X168210000Y-110030000D03*
%TO.P,U1,35*%
%TO.N,/A13*%
X142810000Y-94790000D03*
%TO.P,U1,15*%
%TO.N,/D4*%
X165670000Y-110030000D03*
%TO.P,U1,34*%
%TO.N,/A12*%
X145350000Y-94790000D03*
%TO.P,U1,14*%
%TO.N,/D5*%
X163130000Y-110030000D03*
%TO.P,U1,33*%
%TO.N,/A11*%
X147890000Y-94790000D03*
%TO.P,U1,13*%
%TO.N,/D6*%
X160590000Y-110030000D03*
%TO.P,U1,32*%
%TO.N,/A10*%
X150430000Y-94790000D03*
%TO.P,U1,12*%
%TO.N,/D7*%
X158050000Y-110030000D03*
%TO.P,U1,31*%
%TO.N,/A9*%
X152970000Y-94790000D03*
%TO.P,U1,11*%
%TO.N,GND*%
X155510000Y-110030000D03*
%TO.P,U1,30*%
X155510000Y-94790000D03*
%TO.P,U1,10*%
%TO.N,/D8*%
X152970000Y-110030000D03*
%TO.P,U1,29*%
%TO.N,/A8*%
X158050000Y-94790000D03*
%TO.P,U1,9*%
%TO.N,/D9*%
X150430000Y-110030000D03*
%TO.P,U1,28*%
%TO.N,/A7*%
X160590000Y-94790000D03*
%TO.P,U1,8*%
%TO.N,/D10*%
X147890000Y-110030000D03*
%TO.P,U1,27*%
%TO.N,/A6*%
X163130000Y-94790000D03*
%TO.P,U1,7*%
%TO.N,/D11*%
X145350000Y-110030000D03*
%TO.P,U1,26*%
%TO.N,/A5*%
X165670000Y-94790000D03*
%TO.P,U1,6*%
%TO.N,/D12*%
X142810000Y-110030000D03*
%TO.P,U1,25*%
%TO.N,/A4*%
X168210000Y-94790000D03*
%TO.P,U1,5*%
%TO.N,/D13*%
X140270000Y-110030000D03*
%TO.P,U1,24*%
%TO.N,/A3*%
X170750000Y-94790000D03*
%TO.P,U1,4*%
%TO.N,/D14*%
X137730000Y-110030000D03*
%TO.P,U1,23*%
%TO.N,/A2*%
X173290000Y-94790000D03*
%TO.P,U1,3*%
%TO.N,/D15*%
X135190000Y-110030000D03*
%TO.P,U1,22*%
%TO.N,/A1*%
X175830000Y-94790000D03*
%TO.P,U1,2*%
%TO.N,/E*%
X132650000Y-110030000D03*
%TO.P,U1,21*%
%TO.N,/A0*%
X178370000Y-94790000D03*
D12*
%TO.P,U1,1*%
%TO.N,/VPP*%
X130110000Y-110030000D03*
%TD*%
D13*
%TO.P,SW1,6*%
%TO.N,/N$4*%
X188060000Y-107940000D03*
%TO.P,SW1,3*%
%TO.N,/A20*%
X188060000Y-110480000D03*
%TO.P,SW1,5*%
%TO.N,/N$6*%
X190600000Y-107940000D03*
%TO.P,SW1,2*%
%TO.N,/N$2*%
X190600000Y-110480000D03*
%TO.P,SW1,4*%
%TO.N,/N$5*%
X193140000Y-107940000D03*
D14*
%TO.P,SW1,1*%
%TO.N,/VPP*%
X193140000Y-110480000D03*
%TD*%
D15*
%TO.P,SW2,6*%
%TO.N,GND*%
X194560000Y-87440000D03*
%TO.P,SW2,3*%
%TO.N,/A18*%
X186940000Y-92520000D03*
%TO.P,SW2,5*%
%TO.N,GND*%
X194560000Y-89980000D03*
%TO.P,SW2,2*%
%TO.N,/A19*%
X186940000Y-89980000D03*
%TO.P,SW2,4*%
%TO.N,GND*%
X194560000Y-92520000D03*
D16*
%TO.P,SW2,1*%
%TO.N,/A20*%
X186940000Y-87440000D03*
%TD*%
D17*
%TO.N,GND*%
X110470000Y-88420000D03*
X110500000Y-103650000D03*
X178320000Y-91840000D03*
%TO.N,VCC*%
X166270000Y-85990000D03*
X125740000Y-94980000D03*
%TO.N,/N$4*%
X183870000Y-107980000D03*
%TO.N,/VPP*%
X185720000Y-113440000D03*
X185130000Y-103040000D03*
%TO.N,/A19*%
X178300000Y-85930000D03*
%TO.N,/N$2*%
X152200000Y-90830000D03*
%TD*%
D18*
%TO.N,VCC*%
X166270000Y-85990000D02*
X165080000Y-84800000D01*
X165080000Y-84800000D02*
X125530000Y-84800000D01*
X125530000Y-84800000D02*
X124400000Y-85930000D01*
X124400000Y-93640000D02*
X125740000Y-94980000D01*
X124400000Y-85930000D02*
X124400000Y-93640000D01*
%TO.N,/N$4*%
X188040000Y-107980000D02*
X188070000Y-107950000D01*
X183870000Y-107980000D02*
X188040000Y-107980000D01*
%TO.N,/VPP*%
X185720000Y-113440000D02*
X131030000Y-113440000D01*
X130086100Y-112496100D02*
X130086100Y-109958600D01*
X131030000Y-113440000D02*
X130086100Y-112496100D01*
X185130000Y-103040000D02*
X192060000Y-103040000D01*
X192060000Y-103040000D02*
X194740000Y-105720000D01*
X194740000Y-108900000D02*
X193150000Y-110490000D01*
X194740000Y-105720000D02*
X194740000Y-108900000D01*
%TO.N,/A19*%
X186940000Y-89980000D02*
X182250000Y-89980000D01*
X178300000Y-86030000D02*
X178300000Y-85930000D01*
X182250000Y-89980000D02*
X178300000Y-86030000D01*
%TO.N,/N$2*%
X190610000Y-112160000D02*
X190610000Y-110490000D01*
X167550000Y-90410000D02*
X167550000Y-86820000D01*
X152870000Y-91500000D02*
X166460000Y-91500000D01*
X167550000Y-86820000D02*
X169627401Y-84742599D01*
X195800000Y-105010000D02*
X195800000Y-111550000D01*
X193960000Y-113390000D02*
X191840000Y-113390000D01*
X169627401Y-84742599D02*
X187872599Y-84742599D01*
X152200000Y-90830000D02*
X152870000Y-91500000D01*
X187872599Y-84742599D02*
X189320000Y-86190000D01*
X189320000Y-86190000D02*
X189320000Y-98530000D01*
X189320000Y-98530000D02*
X195800000Y-105010000D01*
X195800000Y-111550000D02*
X193960000Y-113390000D01*
X166460000Y-91500000D02*
X167550000Y-90410000D01*
X191840000Y-113390000D02*
X190610000Y-112160000D01*
%TO.N,/N$6*%
X189350000Y-109210000D02*
X190610000Y-107950000D01*
X145620000Y-112870000D02*
X181570000Y-112870000D01*
X185230000Y-109210000D02*
X189350000Y-109210000D01*
X148260000Y-107480000D02*
X144480000Y-107480000D01*
X144010000Y-111260000D02*
X145620000Y-112870000D01*
X149670000Y-106070000D02*
X148260000Y-107480000D01*
X181570000Y-112870000D02*
X185230000Y-109210000D01*
X155100000Y-106070000D02*
X149670000Y-106070000D01*
X144010000Y-107950000D02*
X144010000Y-111260000D01*
X156121100Y-105048900D02*
X155100000Y-106070000D01*
X144480000Y-107480000D02*
X144010000Y-107950000D01*
X156121100Y-103733600D02*
X156121100Y-105048900D01*
%TO.N,/N$5*%
X193150000Y-107950000D02*
X193150000Y-105320000D01*
X193150000Y-105320000D02*
X192190000Y-104360000D01*
X183944700Y-104360000D02*
X178346100Y-109958600D01*
X192190000Y-104360000D02*
X183944700Y-104360000D01*
%TO.N,/E*%
X151041100Y-103733600D02*
X148223600Y-106551100D01*
X148223600Y-106551100D02*
X136033600Y-106551100D01*
X136033600Y-106551100D02*
X132626100Y-109958600D01*
%TO.N,/D13*%
X166281100Y-88493600D02*
X166281100Y-87858600D01*
X166281100Y-87858600D02*
X163912500Y-85490000D01*
X128327200Y-85490000D02*
X126911100Y-86906100D01*
X126911100Y-86906100D02*
X126911100Y-105638600D01*
X126911100Y-105638600D02*
X128181100Y-106908600D01*
X128181100Y-106908600D02*
X130086100Y-106908600D01*
X130086100Y-106908600D02*
X131356100Y-108178600D01*
X131356100Y-108178600D02*
X131356100Y-111671100D01*
X131356100Y-111671100D02*
X131991100Y-112306100D01*
X131991100Y-112306100D02*
X139293600Y-112306100D01*
X139293600Y-112306100D02*
X140246100Y-111353600D01*
X140246100Y-111353600D02*
X140246100Y-109958600D01*
X163912500Y-85490000D02*
X128327200Y-85490000D01*
%TO.N,/D11*%
X176441100Y-103733600D02*
X176441100Y-106908600D01*
X176441100Y-106908600D02*
X177076100Y-107543600D01*
X177076100Y-107543600D02*
X177076100Y-111353600D01*
X145326100Y-111036100D02*
X145326100Y-109958600D01*
X146650000Y-112360000D02*
X145326100Y-111036100D01*
X176069700Y-112360000D02*
X146650000Y-112360000D01*
X177076100Y-111353600D02*
X176069700Y-112360000D01*
%TO.N,/D10*%
X147866100Y-108813600D02*
X147866100Y-109958600D01*
X150058600Y-106621100D02*
X147866100Y-108813600D01*
X155971500Y-106621100D02*
X150058600Y-106621100D01*
X157481700Y-105110900D02*
X155971500Y-106621100D01*
X157481700Y-102642300D02*
X157481700Y-105110900D01*
X159054000Y-101070000D02*
X157481700Y-102642300D01*
X168697500Y-101070000D02*
X159054000Y-101070000D01*
X171361100Y-103733600D02*
X168697500Y-101070000D01*
%TO.N,/D9*%
X157440700Y-107280500D02*
X153084200Y-107280500D01*
X159950000Y-104771200D02*
X157440700Y-107280500D01*
X159950000Y-102640100D02*
X159950000Y-104771200D01*
X160680100Y-101910000D02*
X159950000Y-102640100D01*
X164457500Y-101910000D02*
X160680100Y-101910000D01*
X153084200Y-107280500D02*
X150406100Y-109958600D01*
X166281100Y-103733600D02*
X164457500Y-101910000D01*
%TO.N,/D8*%
X158938600Y-107901100D02*
X155003600Y-107901100D01*
X155003600Y-107901100D02*
X152946100Y-109958600D01*
X158938600Y-107901100D02*
X161201100Y-105638600D01*
X161201100Y-105638600D02*
X161201100Y-103733600D01*
%TO.N,/D1*%
X163741100Y-103733600D02*
X167400800Y-107393300D01*
X167400800Y-107393300D02*
X170700800Y-107393300D01*
X170700800Y-107393300D02*
X173266100Y-109958600D01*
%TO.N,/D0*%
X168374500Y-105629900D02*
X171477400Y-105629900D01*
X167551100Y-104806500D02*
X168374500Y-105629900D01*
X167551100Y-102377300D02*
X167551100Y-104806500D01*
X166673800Y-101500000D02*
X167551100Y-102377300D01*
X159624700Y-101500000D02*
X166673800Y-101500000D01*
X171477400Y-105629900D02*
X175806100Y-109958600D01*
X158661100Y-102463600D02*
X159624700Y-101500000D01*
X158661100Y-103733600D02*
X158661100Y-102463600D01*
%TO.N,/A0*%
X178346100Y-96753900D02*
X178346100Y-94968600D01*
X174440000Y-100660000D02*
X178346100Y-96753900D01*
X151574700Y-100660000D02*
X174440000Y-100660000D01*
X148501100Y-103733600D02*
X151574700Y-100660000D01*
%TO.N,/A1*%
X145961100Y-103733600D02*
X145961100Y-103428900D01*
X170534700Y-100240000D02*
X175806100Y-94968600D01*
X145961100Y-103733600D02*
X145961100Y-102888900D01*
X148610000Y-100240000D02*
X149990000Y-100240000D01*
X145961100Y-102888900D02*
X148610000Y-100240000D01*
X149990000Y-100240000D02*
X170534700Y-100240000D01*
X149810000Y-100240000D02*
X149990000Y-100240000D01*
%TO.N,/A2*%
X168504700Y-99730000D02*
X173266100Y-94968600D01*
X147424700Y-99730000D02*
X168504700Y-99730000D01*
X143421100Y-103733600D02*
X147424700Y-99730000D01*
%TO.N,/A3*%
X145314700Y-99300000D02*
X166394700Y-99300000D01*
X166394700Y-99300000D02*
X170726100Y-94968600D01*
X140881100Y-103733600D02*
X145314700Y-99300000D01*
%TO.N,/A4*%
X164262289Y-98892411D02*
X168186100Y-94968600D01*
X138341100Y-103733600D02*
X143182289Y-98892411D01*
X143182289Y-98892411D02*
X164262289Y-98892411D01*
%TO.N,/A5*%
X162124700Y-98490000D02*
X165646100Y-94968600D01*
X141044700Y-98490000D02*
X162124700Y-98490000D01*
X135801100Y-103733600D02*
X141044700Y-98490000D01*
%TO.N,/A6*%
X160004700Y-98070000D02*
X138924700Y-98070000D01*
X138924700Y-98070000D02*
X133261100Y-103733600D01*
X163106100Y-94968600D02*
X160004700Y-98070000D01*
%TO.N,/A7*%
X159654700Y-97630000D02*
X136824700Y-97630000D01*
X160566100Y-96718600D02*
X159654700Y-97630000D01*
X136824700Y-97630000D02*
X130721100Y-103733600D01*
X160566100Y-94968600D02*
X160566100Y-96718600D01*
%TO.N,/A8*%
X157532289Y-97212411D02*
X158026100Y-96718600D01*
X140116100Y-97200000D02*
X148718973Y-97200000D01*
X158026100Y-96718600D02*
X158026100Y-94968600D01*
X148718973Y-97200000D02*
X148731384Y-97212411D01*
X138976100Y-93766100D02*
X138976100Y-96066100D01*
X128181100Y-88493600D02*
X132783300Y-93095800D01*
X138976100Y-96066100D02*
X138982200Y-96066100D01*
X148731384Y-97212411D02*
X157532289Y-97212411D01*
X132783300Y-93095800D02*
X138305800Y-93095800D01*
X138982200Y-96066100D02*
X140116100Y-97200000D01*
X138305800Y-93095800D02*
X138976100Y-93766100D01*
%TO.N,/A9*%
X148457500Y-90480000D02*
X152946100Y-94968600D01*
X143060000Y-90480000D02*
X148457500Y-90480000D01*
X142220000Y-89640000D02*
X143060000Y-90480000D01*
X142220000Y-87533700D02*
X142220000Y-89640000D01*
X140616300Y-85930000D02*
X142220000Y-87533700D01*
X133284700Y-85930000D02*
X140616300Y-85930000D01*
X130721100Y-88493600D02*
X133284700Y-85930000D01*
%TO.N,/A10*%
X148577111Y-96797589D02*
X150406100Y-94968600D01*
X144807589Y-96797589D02*
X148577111Y-96797589D01*
X133261100Y-88493600D02*
X137267100Y-92499600D01*
X144056100Y-93836100D02*
X144056100Y-96046100D01*
X142719600Y-92499600D02*
X144056100Y-93836100D01*
X137267100Y-92499600D02*
X142719600Y-92499600D01*
X144056100Y-96046100D02*
X144807589Y-96797589D01*
%TO.N,/A11*%
X143957500Y-91060000D02*
X147866100Y-94968600D01*
X141162100Y-91060000D02*
X143957500Y-91060000D01*
X139620000Y-89517900D02*
X141162100Y-91060000D01*
X139620000Y-87260000D02*
X139620000Y-89517900D01*
X138820000Y-86460000D02*
X139620000Y-87260000D01*
X137834700Y-86460000D02*
X138820000Y-86460000D01*
X135801100Y-88493600D02*
X137834700Y-86460000D01*
%TO.N,/A12*%
X145326100Y-94936200D02*
X145326100Y-94968600D01*
X145326100Y-93218600D02*
X145326100Y-94968600D01*
X144007500Y-91900000D02*
X145326100Y-93218600D01*
X138341100Y-90081100D02*
X140160000Y-91900000D01*
X140160000Y-91900000D02*
X144007500Y-91900000D01*
X138341100Y-88493600D02*
X138341100Y-90081100D01*
%TD*%
D19*
%TO.N,GND*%
X197116704Y-83957988D02*
X197259744Y-84001175D01*
X197391672Y-84071321D01*
X197507463Y-84165758D01*
X197602704Y-84280884D01*
X197673773Y-84412323D01*
X197717956Y-84555056D01*
X197736000Y-84726737D01*
X197736001Y-114124440D01*
X197721431Y-114273036D01*
X197685408Y-114392350D01*
X197626898Y-114502391D01*
X197548127Y-114598974D01*
X197452094Y-114678419D01*
X197342467Y-114737694D01*
X197223405Y-114774550D01*
X197076407Y-114790000D01*
X128802549Y-114790000D01*
X128653964Y-114775431D01*
X128534650Y-114739408D01*
X128424609Y-114680898D01*
X128328026Y-114602127D01*
X128248581Y-114506094D01*
X128189306Y-114396467D01*
X128152450Y-114277405D01*
X128136967Y-114130089D01*
X128131955Y-111294460D01*
X128129766Y-111272630D01*
X128129874Y-111257188D01*
X128129190Y-111250212D01*
X128078597Y-110768854D01*
X128069454Y-110724315D01*
X128060923Y-110679592D01*
X128058897Y-110672882D01*
X127915771Y-110210516D01*
X127898154Y-110168607D01*
X127881095Y-110126386D01*
X127877804Y-110120197D01*
X127647596Y-109694438D01*
X127622165Y-109656736D01*
X127597241Y-109618647D01*
X127592811Y-109613215D01*
X127284291Y-109240278D01*
X127252004Y-109208216D01*
X127220173Y-109175711D01*
X127214772Y-109171243D01*
X126839690Y-108865333D01*
X126801819Y-108840172D01*
X126764252Y-108814449D01*
X126758086Y-108811115D01*
X126330730Y-108583886D01*
X126288695Y-108566561D01*
X126246845Y-108548624D01*
X126240149Y-108546552D01*
X125776795Y-108406657D01*
X125732175Y-108397822D01*
X125687658Y-108388360D01*
X125680687Y-108387627D01*
X125198986Y-108340396D01*
X125198977Y-108340396D01*
X125174683Y-108338002D01*
X108482569Y-108337002D01*
X108333964Y-108322431D01*
X108214650Y-108286408D01*
X108104609Y-108227898D01*
X108008026Y-108149127D01*
X107928581Y-108053094D01*
X107869306Y-107943467D01*
X107832450Y-107824405D01*
X107817000Y-107677407D01*
X107817000Y-102921245D01*
X116840990Y-102921245D01*
X116840990Y-104545954D01*
X116858065Y-104719321D01*
X116925545Y-104941773D01*
X117035127Y-105146785D01*
X117182599Y-105326481D01*
X117362294Y-105473953D01*
X117567306Y-105583535D01*
X117789758Y-105651015D01*
X118021100Y-105673800D01*
X118252441Y-105651015D01*
X118474893Y-105583535D01*
X118679905Y-105473953D01*
X118859601Y-105326481D01*
X119007073Y-105146786D01*
X119116655Y-104941774D01*
X119184135Y-104719322D01*
X119201210Y-104545955D01*
X119201210Y-102921245D01*
X119380990Y-102921245D01*
X119380990Y-104545954D01*
X119398065Y-104719321D01*
X119465545Y-104941773D01*
X119575127Y-105146785D01*
X119722599Y-105326481D01*
X119902294Y-105473953D01*
X120107306Y-105583535D01*
X120329758Y-105651015D01*
X120561100Y-105673800D01*
X120792441Y-105651015D01*
X121014893Y-105583535D01*
X121219905Y-105473953D01*
X121399601Y-105326481D01*
X121547073Y-105146786D01*
X121656655Y-104941774D01*
X121724135Y-104719322D01*
X121741210Y-104545955D01*
X121741210Y-102921245D01*
X121920990Y-102921245D01*
X121920990Y-104545954D01*
X121938065Y-104719321D01*
X122005545Y-104941773D01*
X122115127Y-105146785D01*
X122262599Y-105326481D01*
X122442294Y-105473953D01*
X122647306Y-105583535D01*
X122869758Y-105651015D01*
X123101100Y-105673800D01*
X123332441Y-105651015D01*
X123554893Y-105583535D01*
X123759905Y-105473953D01*
X123939601Y-105326481D01*
X124087073Y-105146786D01*
X124196655Y-104941774D01*
X124264135Y-104719322D01*
X124281210Y-104545955D01*
X124281210Y-102921245D01*
X124264135Y-102747878D01*
X124196655Y-102525426D01*
X124087073Y-102320414D01*
X123939601Y-102140719D01*
X123759906Y-101993247D01*
X123554894Y-101883665D01*
X123332442Y-101816185D01*
X123101100Y-101793400D01*
X122869759Y-101816185D01*
X122647307Y-101883665D01*
X122442295Y-101993247D01*
X122262600Y-102140719D01*
X122115128Y-102320414D01*
X122005546Y-102525426D01*
X121938065Y-102747878D01*
X121920990Y-102921245D01*
X121741210Y-102921245D01*
X121724135Y-102747878D01*
X121656655Y-102525426D01*
X121547073Y-102320414D01*
X121399601Y-102140719D01*
X121219906Y-101993247D01*
X121014894Y-101883665D01*
X120792442Y-101816185D01*
X120561100Y-101793400D01*
X120329759Y-101816185D01*
X120107307Y-101883665D01*
X119902295Y-101993247D01*
X119722600Y-102140719D01*
X119575128Y-102320414D01*
X119465546Y-102525426D01*
X119398065Y-102747878D01*
X119380990Y-102921245D01*
X119201210Y-102921245D01*
X119184135Y-102747878D01*
X119116655Y-102525426D01*
X119007073Y-102320414D01*
X118859601Y-102140719D01*
X118679906Y-101993247D01*
X118474894Y-101883665D01*
X118252442Y-101816185D01*
X118021100Y-101793400D01*
X117789759Y-101816185D01*
X117567307Y-101883665D01*
X117362295Y-101993247D01*
X117182600Y-102140719D01*
X117035128Y-102320414D01*
X116925546Y-102525426D01*
X116858065Y-102747878D01*
X116840990Y-102921245D01*
X107817000Y-102921245D01*
X107817000Y-87681245D01*
X116840990Y-87681245D01*
X116840990Y-89305954D01*
X116858065Y-89479321D01*
X116925545Y-89701773D01*
X117035127Y-89906785D01*
X117182599Y-90086481D01*
X117362294Y-90233953D01*
X117567306Y-90343535D01*
X117789758Y-90411015D01*
X118021100Y-90433800D01*
X118252441Y-90411015D01*
X118474893Y-90343535D01*
X118679905Y-90233953D01*
X118859601Y-90086481D01*
X119007073Y-89906786D01*
X119116655Y-89701774D01*
X119184135Y-89479322D01*
X119201210Y-89305955D01*
X119201210Y-87681245D01*
X119380990Y-87681245D01*
X119380990Y-89305954D01*
X119398065Y-89479321D01*
X119465545Y-89701773D01*
X119575127Y-89906785D01*
X119722599Y-90086481D01*
X119902294Y-90233953D01*
X120107306Y-90343535D01*
X120329758Y-90411015D01*
X120561100Y-90433800D01*
X120792441Y-90411015D01*
X121014893Y-90343535D01*
X121219905Y-90233953D01*
X121399601Y-90086481D01*
X121547073Y-89906786D01*
X121656655Y-89701774D01*
X121724135Y-89479322D01*
X121741210Y-89305955D01*
X121741210Y-87681245D01*
X121920990Y-87681245D01*
X121920990Y-89305954D01*
X121938065Y-89479321D01*
X122005545Y-89701773D01*
X122115127Y-89906785D01*
X122262599Y-90086481D01*
X122442294Y-90233953D01*
X122647306Y-90343535D01*
X122869758Y-90411015D01*
X123101100Y-90433800D01*
X123332441Y-90411015D01*
X123554893Y-90343535D01*
X123759905Y-90233953D01*
X123848001Y-90161655D01*
X123848001Y-93612884D01*
X123845330Y-93640000D01*
X123855989Y-93748210D01*
X123887552Y-93852262D01*
X123936753Y-93944310D01*
X123938810Y-93948158D01*
X124007790Y-94032211D01*
X124028852Y-94049496D01*
X125013000Y-95033645D01*
X125013000Y-95051603D01*
X125040938Y-95192058D01*
X125095741Y-95324364D01*
X125175302Y-95443436D01*
X125276564Y-95544698D01*
X125395636Y-95624259D01*
X125527942Y-95679062D01*
X125668397Y-95707000D01*
X125811603Y-95707000D01*
X125952058Y-95679062D01*
X126084364Y-95624259D01*
X126203436Y-95544698D01*
X126304698Y-95443436D01*
X126359100Y-95362017D01*
X126359101Y-102041827D01*
X126299906Y-101993247D01*
X126094894Y-101883665D01*
X125872442Y-101816185D01*
X125641100Y-101793400D01*
X125409759Y-101816185D01*
X125187307Y-101883665D01*
X124982295Y-101993247D01*
X124802600Y-102140719D01*
X124655128Y-102320414D01*
X124545546Y-102525426D01*
X124478065Y-102747878D01*
X124460990Y-102921245D01*
X124460990Y-104545954D01*
X124478065Y-104719321D01*
X124545545Y-104941773D01*
X124655127Y-105146785D01*
X124802599Y-105326481D01*
X124982294Y-105473953D01*
X125187306Y-105583535D01*
X125409758Y-105651015D01*
X125641100Y-105673800D01*
X125872441Y-105651015D01*
X126094893Y-105583535D01*
X126299905Y-105473953D01*
X126359101Y-105425372D01*
X126359101Y-105611484D01*
X126356430Y-105638600D01*
X126367089Y-105746810D01*
X126398652Y-105850862D01*
X126449909Y-105946757D01*
X126449910Y-105946758D01*
X126518890Y-106030811D01*
X126539952Y-106048096D01*
X127771607Y-107279753D01*
X127788889Y-107300811D01*
X127809945Y-107318091D01*
X127872941Y-107369791D01*
X127916922Y-107393299D01*
X127968837Y-107421048D01*
X128072889Y-107452612D01*
X128153991Y-107460600D01*
X128154001Y-107460600D01*
X128181099Y-107463269D01*
X128208197Y-107460600D01*
X129857456Y-107460600D01*
X130797788Y-108400934D01*
X129310000Y-108400934D01*
X129226293Y-108409178D01*
X129145804Y-108433595D01*
X129071624Y-108473245D01*
X129006605Y-108526605D01*
X128953245Y-108591624D01*
X128913595Y-108665804D01*
X128889178Y-108746293D01*
X128880934Y-108830000D01*
X128880934Y-111230000D01*
X128889178Y-111313707D01*
X128913595Y-111394196D01*
X128953245Y-111468376D01*
X129006605Y-111533395D01*
X129071624Y-111586755D01*
X129145804Y-111626405D01*
X129226293Y-111650822D01*
X129310000Y-111659066D01*
X129534100Y-111659066D01*
X129534100Y-112468994D01*
X129531430Y-112496100D01*
X129534100Y-112523206D01*
X129534100Y-112523208D01*
X129542088Y-112604310D01*
X129573652Y-112708362D01*
X129624909Y-112804258D01*
X129693889Y-112888311D01*
X129714956Y-112905600D01*
X130620508Y-113811154D01*
X130637789Y-113832211D01*
X130721842Y-113901191D01*
X130817737Y-113952448D01*
X130921789Y-113984012D01*
X131002891Y-113992000D01*
X131002901Y-113992000D01*
X131029999Y-113994669D01*
X131057097Y-113992000D01*
X185243866Y-113992000D01*
X185256564Y-114004698D01*
X185375636Y-114084259D01*
X185507942Y-114139062D01*
X185648397Y-114167000D01*
X185791603Y-114167000D01*
X185932058Y-114139062D01*
X186064364Y-114084259D01*
X186183436Y-114004698D01*
X186284698Y-113903436D01*
X186364259Y-113784364D01*
X186419062Y-113652058D01*
X186447000Y-113511603D01*
X186447000Y-113368397D01*
X186419062Y-113227942D01*
X186364259Y-113095636D01*
X186284698Y-112976564D01*
X186183436Y-112875302D01*
X186064364Y-112795741D01*
X185932058Y-112740938D01*
X185791603Y-112713000D01*
X185648397Y-112713000D01*
X185507942Y-112740938D01*
X185375636Y-112795741D01*
X185256564Y-112875302D01*
X185243866Y-112888000D01*
X182332644Y-112888000D01*
X185458646Y-109762000D01*
X187325603Y-109762000D01*
X187262277Y-109825326D01*
X187149885Y-109993533D01*
X187072467Y-110180435D01*
X187033000Y-110378849D01*
X187033000Y-110581151D01*
X187072467Y-110779565D01*
X187149885Y-110966467D01*
X187262277Y-111134674D01*
X187405326Y-111277723D01*
X187573533Y-111390115D01*
X187760435Y-111467533D01*
X187958849Y-111507000D01*
X188161151Y-111507000D01*
X188359565Y-111467533D01*
X188546467Y-111390115D01*
X188714674Y-111277723D01*
X188857723Y-111134674D01*
X188970115Y-110966467D01*
X189047533Y-110779565D01*
X189087000Y-110581151D01*
X189087000Y-110378849D01*
X189047533Y-110180435D01*
X188970115Y-109993533D01*
X188857723Y-109825326D01*
X188794397Y-109762000D01*
X189322894Y-109762000D01*
X189350000Y-109764670D01*
X189377106Y-109762000D01*
X189377109Y-109762000D01*
X189458211Y-109754012D01*
X189562263Y-109722448D01*
X189658158Y-109671191D01*
X189742211Y-109602211D01*
X189759500Y-109581144D01*
X190394418Y-108946227D01*
X190498849Y-108967000D01*
X190701151Y-108967000D01*
X190899565Y-108927533D01*
X191086467Y-108850115D01*
X191254674Y-108737723D01*
X191397723Y-108594674D01*
X191510115Y-108426467D01*
X191587533Y-108239565D01*
X191627000Y-108041151D01*
X191627000Y-107838849D01*
X191587533Y-107640435D01*
X191510115Y-107453533D01*
X191397723Y-107285326D01*
X191254674Y-107142277D01*
X191086467Y-107029885D01*
X190899565Y-106952467D01*
X190701151Y-106913000D01*
X190498849Y-106913000D01*
X190300435Y-106952467D01*
X190113533Y-107029885D01*
X189945326Y-107142277D01*
X189802277Y-107285326D01*
X189689885Y-107453533D01*
X189612467Y-107640435D01*
X189573000Y-107838849D01*
X189573000Y-108041151D01*
X189600409Y-108178946D01*
X189121356Y-108658000D01*
X188794397Y-108658000D01*
X188857723Y-108594674D01*
X188970115Y-108426467D01*
X189047533Y-108239565D01*
X189087000Y-108041151D01*
X189087000Y-107838849D01*
X189047533Y-107640435D01*
X188970115Y-107453533D01*
X188857723Y-107285326D01*
X188714674Y-107142277D01*
X188546467Y-107029885D01*
X188359565Y-106952467D01*
X188161151Y-106913000D01*
X187958849Y-106913000D01*
X187760435Y-106952467D01*
X187573533Y-107029885D01*
X187405326Y-107142277D01*
X187262277Y-107285326D01*
X187166946Y-107428000D01*
X184346134Y-107428000D01*
X184333436Y-107415302D01*
X184214364Y-107335741D01*
X184082058Y-107280938D01*
X183941603Y-107253000D01*
X183798397Y-107253000D01*
X183657942Y-107280938D01*
X183525636Y-107335741D01*
X183406564Y-107415302D01*
X183305302Y-107516564D01*
X183225741Y-107635636D01*
X183170938Y-107767942D01*
X183143000Y-107908397D01*
X183143000Y-108051603D01*
X183170938Y-108192058D01*
X183225741Y-108324364D01*
X183305302Y-108443436D01*
X183406564Y-108544698D01*
X183525636Y-108624259D01*
X183657942Y-108679062D01*
X183798397Y-108707000D01*
X183941603Y-108707000D01*
X184082058Y-108679062D01*
X184214364Y-108624259D01*
X184333436Y-108544698D01*
X184346134Y-108532000D01*
X187220400Y-108532000D01*
X187262277Y-108594674D01*
X187325603Y-108658000D01*
X185257108Y-108658000D01*
X185230000Y-108655330D01*
X185121789Y-108665988D01*
X185017737Y-108697552D01*
X184921842Y-108748809D01*
X184891415Y-108773780D01*
X184837789Y-108817789D01*
X184820508Y-108838846D01*
X181341356Y-112318000D01*
X176892345Y-112318000D01*
X177447254Y-111763092D01*
X177468311Y-111745811D01*
X177537291Y-111661758D01*
X177588548Y-111565863D01*
X177620112Y-111461811D01*
X177625573Y-111406364D01*
X177685018Y-111455149D01*
X177898177Y-111569084D01*
X178129467Y-111639245D01*
X178370000Y-111662936D01*
X178610534Y-111639245D01*
X178841824Y-111569084D01*
X179054983Y-111455149D01*
X179241817Y-111301817D01*
X179395149Y-111114983D01*
X179509084Y-110901824D01*
X179579245Y-110670533D01*
X179597000Y-110490267D01*
X179597000Y-109569732D01*
X179589703Y-109495642D01*
X184173346Y-104912000D01*
X191961356Y-104912000D01*
X192598001Y-105548646D01*
X192598000Y-107066991D01*
X192485326Y-107142277D01*
X192342277Y-107285326D01*
X192229885Y-107453533D01*
X192152467Y-107640435D01*
X192113000Y-107838849D01*
X192113000Y-108041151D01*
X192152467Y-108239565D01*
X192229885Y-108426467D01*
X192342277Y-108594674D01*
X192485326Y-108737723D01*
X192653533Y-108850115D01*
X192840435Y-108927533D01*
X193038849Y-108967000D01*
X193241151Y-108967000D01*
X193439565Y-108927533D01*
X193626467Y-108850115D01*
X193794674Y-108737723D01*
X193937723Y-108594674D01*
X194050115Y-108426467D01*
X194127533Y-108239565D01*
X194167000Y-108041151D01*
X194167000Y-107838849D01*
X194127533Y-107640435D01*
X194050115Y-107453533D01*
X193937723Y-107285326D01*
X193794674Y-107142277D01*
X193702000Y-107080354D01*
X193702000Y-105462646D01*
X194188000Y-105948646D01*
X194188001Y-108671353D01*
X193408421Y-109450934D01*
X192540000Y-109450934D01*
X192456293Y-109459178D01*
X192375804Y-109483595D01*
X192301624Y-109523245D01*
X192236605Y-109576605D01*
X192183245Y-109641624D01*
X192143595Y-109715804D01*
X192119178Y-109796293D01*
X192110934Y-109880000D01*
X192110934Y-111080000D01*
X192119178Y-111163707D01*
X192143595Y-111244196D01*
X192183245Y-111318376D01*
X192236605Y-111383395D01*
X192301624Y-111436755D01*
X192375804Y-111476405D01*
X192456293Y-111500822D01*
X192540000Y-111509066D01*
X193740000Y-111509066D01*
X193823707Y-111500822D01*
X193904196Y-111476405D01*
X193978376Y-111436755D01*
X194043395Y-111383395D01*
X194096755Y-111318376D01*
X194136405Y-111244196D01*
X194160822Y-111163707D01*
X194169066Y-111080000D01*
X194169066Y-110251579D01*
X195111154Y-109309492D01*
X195132211Y-109292211D01*
X195160995Y-109257138D01*
X195201191Y-109208158D01*
X195248001Y-109120583D01*
X195248001Y-111321354D01*
X193731356Y-112838000D01*
X192068646Y-112838000D01*
X191162000Y-111931356D01*
X191162000Y-111339646D01*
X191254674Y-111277723D01*
X191397723Y-111134674D01*
X191510115Y-110966467D01*
X191587533Y-110779565D01*
X191627000Y-110581151D01*
X191627000Y-110378849D01*
X191587533Y-110180435D01*
X191510115Y-109993533D01*
X191397723Y-109825326D01*
X191254674Y-109682277D01*
X191086467Y-109569885D01*
X190899565Y-109492467D01*
X190701151Y-109453000D01*
X190498849Y-109453000D01*
X190300435Y-109492467D01*
X190113533Y-109569885D01*
X189945326Y-109682277D01*
X189802277Y-109825326D01*
X189689885Y-109993533D01*
X189612467Y-110180435D01*
X189573000Y-110378849D01*
X189573000Y-110581151D01*
X189612467Y-110779565D01*
X189689885Y-110966467D01*
X189802277Y-111134674D01*
X189945326Y-111277723D01*
X190058000Y-111353009D01*
X190058000Y-112132894D01*
X190055330Y-112160000D01*
X190058000Y-112187106D01*
X190058000Y-112187108D01*
X190065988Y-112268210D01*
X190097552Y-112372262D01*
X190148809Y-112468158D01*
X190217789Y-112552211D01*
X190238856Y-112569500D01*
X191430508Y-113761154D01*
X191447789Y-113782211D01*
X191468845Y-113799491D01*
X191468846Y-113799492D01*
X191531842Y-113851191D01*
X191627737Y-113902448D01*
X191731789Y-113934012D01*
X191840000Y-113944670D01*
X191867108Y-113942000D01*
X193932894Y-113942000D01*
X193960000Y-113944670D01*
X193987106Y-113942000D01*
X193987109Y-113942000D01*
X194068211Y-113934012D01*
X194172263Y-113902448D01*
X194268158Y-113851191D01*
X194352211Y-113782211D01*
X194369501Y-113761143D01*
X196171149Y-111959496D01*
X196192211Y-111942211D01*
X196261191Y-111858158D01*
X196312448Y-111762263D01*
X196344012Y-111658211D01*
X196352000Y-111577109D01*
X196352000Y-111577106D01*
X196354670Y-111550000D01*
X196352000Y-111522894D01*
X196352000Y-105037106D01*
X196354670Y-105010000D01*
X196352000Y-104982891D01*
X196344012Y-104901789D01*
X196312448Y-104797737D01*
X196261191Y-104701842D01*
X196192211Y-104617789D01*
X196171149Y-104600504D01*
X189872000Y-98301356D01*
X189872000Y-92869039D01*
X193168096Y-92869039D01*
X193208754Y-93003087D01*
X193328963Y-93257420D01*
X193496481Y-93483414D01*
X193704869Y-93672385D01*
X193946119Y-93817070D01*
X194210960Y-93911909D01*
X194433000Y-93790624D01*
X194433000Y-92647000D01*
X194687000Y-92647000D01*
X194687000Y-93790624D01*
X194909040Y-93911909D01*
X195173881Y-93817070D01*
X195415131Y-93672385D01*
X195623519Y-93483414D01*
X195791037Y-93257420D01*
X195911246Y-93003087D01*
X195951904Y-92869039D01*
X195829915Y-92647000D01*
X194687000Y-92647000D01*
X194433000Y-92647000D01*
X193290085Y-92647000D01*
X193168096Y-92869039D01*
X189872000Y-92869039D01*
X189872000Y-90329039D01*
X193168096Y-90329039D01*
X193208754Y-90463087D01*
X193328963Y-90717420D01*
X193496481Y-90943414D01*
X193704869Y-91132385D01*
X193900982Y-91250000D01*
X193704869Y-91367615D01*
X193496481Y-91556586D01*
X193328963Y-91782580D01*
X193208754Y-92036913D01*
X193168096Y-92170961D01*
X193290085Y-92393000D01*
X194433000Y-92393000D01*
X194433000Y-90107000D01*
X194687000Y-90107000D01*
X194687000Y-92393000D01*
X195829915Y-92393000D01*
X195951904Y-92170961D01*
X195911246Y-92036913D01*
X195791037Y-91782580D01*
X195623519Y-91556586D01*
X195415131Y-91367615D01*
X195219018Y-91250000D01*
X195415131Y-91132385D01*
X195623519Y-90943414D01*
X195791037Y-90717420D01*
X195911246Y-90463087D01*
X195951904Y-90329039D01*
X195829915Y-90107000D01*
X194687000Y-90107000D01*
X194433000Y-90107000D01*
X193290085Y-90107000D01*
X193168096Y-90329039D01*
X189872000Y-90329039D01*
X189872000Y-87789039D01*
X193168096Y-87789039D01*
X193208754Y-87923087D01*
X193328963Y-88177420D01*
X193496481Y-88403414D01*
X193704869Y-88592385D01*
X193900982Y-88710000D01*
X193704869Y-88827615D01*
X193496481Y-89016586D01*
X193328963Y-89242580D01*
X193208754Y-89496913D01*
X193168096Y-89630961D01*
X193290085Y-89853000D01*
X194433000Y-89853000D01*
X194433000Y-87567000D01*
X194687000Y-87567000D01*
X194687000Y-89853000D01*
X195829915Y-89853000D01*
X195951904Y-89630961D01*
X195911246Y-89496913D01*
X195791037Y-89242580D01*
X195623519Y-89016586D01*
X195415131Y-88827615D01*
X195219018Y-88710000D01*
X195415131Y-88592385D01*
X195623519Y-88403414D01*
X195791037Y-88177420D01*
X195911246Y-87923087D01*
X195951904Y-87789039D01*
X195829915Y-87567000D01*
X194687000Y-87567000D01*
X194433000Y-87567000D01*
X193290085Y-87567000D01*
X193168096Y-87789039D01*
X189872000Y-87789039D01*
X189872000Y-87090961D01*
X193168096Y-87090961D01*
X193290085Y-87313000D01*
X194433000Y-87313000D01*
X194433000Y-86169376D01*
X194687000Y-86169376D01*
X194687000Y-87313000D01*
X195829915Y-87313000D01*
X195951904Y-87090961D01*
X195911246Y-86956913D01*
X195791037Y-86702580D01*
X195623519Y-86476586D01*
X195415131Y-86287615D01*
X195173881Y-86142930D01*
X194909040Y-86048091D01*
X194687000Y-86169376D01*
X194433000Y-86169376D01*
X194210960Y-86048091D01*
X193946119Y-86142930D01*
X193704869Y-86287615D01*
X193496481Y-86476586D01*
X193328963Y-86702580D01*
X193208754Y-86956913D01*
X193168096Y-87090961D01*
X189872000Y-87090961D01*
X189872000Y-86217105D01*
X189874670Y-86189999D01*
X189870912Y-86151843D01*
X189864012Y-86081789D01*
X189832448Y-85977737D01*
X189781191Y-85881842D01*
X189712211Y-85797789D01*
X189691154Y-85780508D01*
X188282099Y-84371455D01*
X188264810Y-84350388D01*
X188180757Y-84281408D01*
X188084862Y-84230151D01*
X187980810Y-84198587D01*
X187899708Y-84190599D01*
X187899705Y-84190599D01*
X187872599Y-84187929D01*
X187845493Y-84190599D01*
X169654509Y-84190599D01*
X169627401Y-84187929D01*
X169519190Y-84198587D01*
X169415138Y-84230151D01*
X169319243Y-84281408D01*
X169261408Y-84328872D01*
X169235190Y-84350388D01*
X169217909Y-84371445D01*
X167178852Y-86410504D01*
X167157790Y-86427789D01*
X167105758Y-86491191D01*
X167088809Y-86511843D01*
X167037552Y-86607738D01*
X167027766Y-86640000D01*
X167007949Y-86705330D01*
X167005989Y-86711790D01*
X166997268Y-86800323D01*
X166939906Y-86753247D01*
X166734894Y-86643665D01*
X166642316Y-86615582D01*
X166733436Y-86554698D01*
X166834698Y-86453436D01*
X166914259Y-86334364D01*
X166969062Y-86202058D01*
X166997000Y-86061603D01*
X166997000Y-85918397D01*
X166969062Y-85777942D01*
X166914259Y-85645636D01*
X166834698Y-85526564D01*
X166733436Y-85425302D01*
X166614364Y-85345741D01*
X166482058Y-85290938D01*
X166341603Y-85263000D01*
X166323645Y-85263000D01*
X165489500Y-84428856D01*
X165472211Y-84407789D01*
X165388158Y-84338809D01*
X165292263Y-84287552D01*
X165188211Y-84255988D01*
X165107109Y-84248000D01*
X165107106Y-84248000D01*
X165080000Y-84245330D01*
X165052894Y-84248000D01*
X125557097Y-84248000D01*
X125529999Y-84245331D01*
X125502901Y-84248000D01*
X125502891Y-84248000D01*
X125421789Y-84255988D01*
X125317737Y-84287552D01*
X125273098Y-84311412D01*
X125221841Y-84338809D01*
X125164679Y-84385721D01*
X125137789Y-84407789D01*
X125120508Y-84428846D01*
X124028856Y-85520500D01*
X124007789Y-85537789D01*
X123938809Y-85621842D01*
X123887552Y-85717738D01*
X123855988Y-85821790D01*
X123850037Y-85882211D01*
X123845330Y-85930000D01*
X123848000Y-85957106D01*
X123848000Y-86825544D01*
X123759906Y-86753247D01*
X123554894Y-86643665D01*
X123332442Y-86576185D01*
X123101100Y-86553400D01*
X122869759Y-86576185D01*
X122647307Y-86643665D01*
X122442295Y-86753247D01*
X122262600Y-86900719D01*
X122115128Y-87080414D01*
X122005546Y-87285426D01*
X121938065Y-87507878D01*
X121920990Y-87681245D01*
X121741210Y-87681245D01*
X121724135Y-87507878D01*
X121656655Y-87285426D01*
X121547073Y-87080414D01*
X121399601Y-86900719D01*
X121219906Y-86753247D01*
X121014894Y-86643665D01*
X120792442Y-86576185D01*
X120561100Y-86553400D01*
X120329759Y-86576185D01*
X120107307Y-86643665D01*
X119902295Y-86753247D01*
X119722600Y-86900719D01*
X119575128Y-87080414D01*
X119465546Y-87285426D01*
X119398065Y-87507878D01*
X119380990Y-87681245D01*
X119201210Y-87681245D01*
X119184135Y-87507878D01*
X119116655Y-87285426D01*
X119007073Y-87080414D01*
X118859601Y-86900719D01*
X118679906Y-86753247D01*
X118474894Y-86643665D01*
X118252442Y-86576185D01*
X118021100Y-86553400D01*
X117789759Y-86576185D01*
X117567307Y-86643665D01*
X117362295Y-86753247D01*
X117182600Y-86900719D01*
X117035128Y-87080414D01*
X116925546Y-87285426D01*
X116858065Y-87507878D01*
X116840990Y-87681245D01*
X107817000Y-87681245D01*
X107817000Y-84733551D01*
X107833988Y-84560296D01*
X107877175Y-84417256D01*
X107947321Y-84285328D01*
X108041758Y-84169537D01*
X108156884Y-84074296D01*
X108288323Y-84003227D01*
X108431056Y-83959044D01*
X108602737Y-83941000D01*
X196943449Y-83941000D01*
X197116704Y-83957988D01*
%TA.AperFunction,Conductor*%
D20*
G36*
X197116704Y-83957988D02*
G01*
X197259744Y-84001175D01*
X197391672Y-84071321D01*
X197507463Y-84165758D01*
X197602704Y-84280884D01*
X197673773Y-84412323D01*
X197717956Y-84555056D01*
X197736000Y-84726737D01*
X197736001Y-114124440D01*
X197721431Y-114273036D01*
X197685408Y-114392350D01*
X197626898Y-114502391D01*
X197548127Y-114598974D01*
X197452094Y-114678419D01*
X197342467Y-114737694D01*
X197223405Y-114774550D01*
X197076407Y-114790000D01*
X128802549Y-114790000D01*
X128653964Y-114775431D01*
X128534650Y-114739408D01*
X128424609Y-114680898D01*
X128328026Y-114602127D01*
X128248581Y-114506094D01*
X128189306Y-114396467D01*
X128152450Y-114277405D01*
X128136967Y-114130089D01*
X128131955Y-111294460D01*
X128129766Y-111272630D01*
X128129874Y-111257188D01*
X128129190Y-111250212D01*
X128078597Y-110768854D01*
X128069454Y-110724315D01*
X128060923Y-110679592D01*
X128058897Y-110672882D01*
X127915771Y-110210516D01*
X127898154Y-110168607D01*
X127881095Y-110126386D01*
X127877804Y-110120197D01*
X127647596Y-109694438D01*
X127622165Y-109656736D01*
X127597241Y-109618647D01*
X127592811Y-109613215D01*
X127284291Y-109240278D01*
X127252004Y-109208216D01*
X127220173Y-109175711D01*
X127214772Y-109171243D01*
X126839690Y-108865333D01*
X126801819Y-108840172D01*
X126764252Y-108814449D01*
X126758086Y-108811115D01*
X126330730Y-108583886D01*
X126288695Y-108566561D01*
X126246845Y-108548624D01*
X126240149Y-108546552D01*
X125776795Y-108406657D01*
X125732175Y-108397822D01*
X125687658Y-108388360D01*
X125680687Y-108387627D01*
X125198986Y-108340396D01*
X125198977Y-108340396D01*
X125174683Y-108338002D01*
X108482569Y-108337002D01*
X108333964Y-108322431D01*
X108214650Y-108286408D01*
X108104609Y-108227898D01*
X108008026Y-108149127D01*
X107928581Y-108053094D01*
X107869306Y-107943467D01*
X107832450Y-107824405D01*
X107817000Y-107677407D01*
X107817000Y-102921245D01*
X116840990Y-102921245D01*
X116840990Y-104545954D01*
X116858065Y-104719321D01*
X116925545Y-104941773D01*
X117035127Y-105146785D01*
X117182599Y-105326481D01*
X117362294Y-105473953D01*
X117567306Y-105583535D01*
X117789758Y-105651015D01*
X118021100Y-105673800D01*
X118252441Y-105651015D01*
X118474893Y-105583535D01*
X118679905Y-105473953D01*
X118859601Y-105326481D01*
X119007073Y-105146786D01*
X119116655Y-104941774D01*
X119184135Y-104719322D01*
X119201210Y-104545955D01*
X119201210Y-102921245D01*
X119380990Y-102921245D01*
X119380990Y-104545954D01*
X119398065Y-104719321D01*
X119465545Y-104941773D01*
X119575127Y-105146785D01*
X119722599Y-105326481D01*
X119902294Y-105473953D01*
X120107306Y-105583535D01*
X120329758Y-105651015D01*
X120561100Y-105673800D01*
X120792441Y-105651015D01*
X121014893Y-105583535D01*
X121219905Y-105473953D01*
X121399601Y-105326481D01*
X121547073Y-105146786D01*
X121656655Y-104941774D01*
X121724135Y-104719322D01*
X121741210Y-104545955D01*
X121741210Y-102921245D01*
X121920990Y-102921245D01*
X121920990Y-104545954D01*
X121938065Y-104719321D01*
X122005545Y-104941773D01*
X122115127Y-105146785D01*
X122262599Y-105326481D01*
X122442294Y-105473953D01*
X122647306Y-105583535D01*
X122869758Y-105651015D01*
X123101100Y-105673800D01*
X123332441Y-105651015D01*
X123554893Y-105583535D01*
X123759905Y-105473953D01*
X123939601Y-105326481D01*
X124087073Y-105146786D01*
X124196655Y-104941774D01*
X124264135Y-104719322D01*
X124281210Y-104545955D01*
X124281210Y-102921245D01*
X124264135Y-102747878D01*
X124196655Y-102525426D01*
X124087073Y-102320414D01*
X123939601Y-102140719D01*
X123759906Y-101993247D01*
X123554894Y-101883665D01*
X123332442Y-101816185D01*
X123101100Y-101793400D01*
X122869759Y-101816185D01*
X122647307Y-101883665D01*
X122442295Y-101993247D01*
X122262600Y-102140719D01*
X122115128Y-102320414D01*
X122005546Y-102525426D01*
X121938065Y-102747878D01*
X121920990Y-102921245D01*
X121741210Y-102921245D01*
X121724135Y-102747878D01*
X121656655Y-102525426D01*
X121547073Y-102320414D01*
X121399601Y-102140719D01*
X121219906Y-101993247D01*
X121014894Y-101883665D01*
X120792442Y-101816185D01*
X120561100Y-101793400D01*
X120329759Y-101816185D01*
X120107307Y-101883665D01*
X119902295Y-101993247D01*
X119722600Y-102140719D01*
X119575128Y-102320414D01*
X119465546Y-102525426D01*
X119398065Y-102747878D01*
X119380990Y-102921245D01*
X119201210Y-102921245D01*
X119184135Y-102747878D01*
X119116655Y-102525426D01*
X119007073Y-102320414D01*
X118859601Y-102140719D01*
X118679906Y-101993247D01*
X118474894Y-101883665D01*
X118252442Y-101816185D01*
X118021100Y-101793400D01*
X117789759Y-101816185D01*
X117567307Y-101883665D01*
X117362295Y-101993247D01*
X117182600Y-102140719D01*
X117035128Y-102320414D01*
X116925546Y-102525426D01*
X116858065Y-102747878D01*
X116840990Y-102921245D01*
X107817000Y-102921245D01*
X107817000Y-87681245D01*
X116840990Y-87681245D01*
X116840990Y-89305954D01*
X116858065Y-89479321D01*
X116925545Y-89701773D01*
X117035127Y-89906785D01*
X117182599Y-90086481D01*
X117362294Y-90233953D01*
X117567306Y-90343535D01*
X117789758Y-90411015D01*
X118021100Y-90433800D01*
X118252441Y-90411015D01*
X118474893Y-90343535D01*
X118679905Y-90233953D01*
X118859601Y-90086481D01*
X119007073Y-89906786D01*
X119116655Y-89701774D01*
X119184135Y-89479322D01*
X119201210Y-89305955D01*
X119201210Y-87681245D01*
X119380990Y-87681245D01*
X119380990Y-89305954D01*
X119398065Y-89479321D01*
X119465545Y-89701773D01*
X119575127Y-89906785D01*
X119722599Y-90086481D01*
X119902294Y-90233953D01*
X120107306Y-90343535D01*
X120329758Y-90411015D01*
X120561100Y-90433800D01*
X120792441Y-90411015D01*
X121014893Y-90343535D01*
X121219905Y-90233953D01*
X121399601Y-90086481D01*
X121547073Y-89906786D01*
X121656655Y-89701774D01*
X121724135Y-89479322D01*
X121741210Y-89305955D01*
X121741210Y-87681245D01*
X121920990Y-87681245D01*
X121920990Y-89305954D01*
X121938065Y-89479321D01*
X122005545Y-89701773D01*
X122115127Y-89906785D01*
X122262599Y-90086481D01*
X122442294Y-90233953D01*
X122647306Y-90343535D01*
X122869758Y-90411015D01*
X123101100Y-90433800D01*
X123332441Y-90411015D01*
X123554893Y-90343535D01*
X123759905Y-90233953D01*
X123848001Y-90161655D01*
X123848001Y-93612884D01*
X123845330Y-93640000D01*
X123855989Y-93748210D01*
X123887552Y-93852262D01*
X123936753Y-93944310D01*
X123938810Y-93948158D01*
X124007790Y-94032211D01*
X124028852Y-94049496D01*
X125013000Y-95033645D01*
X125013000Y-95051603D01*
X125040938Y-95192058D01*
X125095741Y-95324364D01*
X125175302Y-95443436D01*
X125276564Y-95544698D01*
X125395636Y-95624259D01*
X125527942Y-95679062D01*
X125668397Y-95707000D01*
X125811603Y-95707000D01*
X125952058Y-95679062D01*
X126084364Y-95624259D01*
X126203436Y-95544698D01*
X126304698Y-95443436D01*
X126359100Y-95362017D01*
X126359101Y-102041827D01*
X126299906Y-101993247D01*
X126094894Y-101883665D01*
X125872442Y-101816185D01*
X125641100Y-101793400D01*
X125409759Y-101816185D01*
X125187307Y-101883665D01*
X124982295Y-101993247D01*
X124802600Y-102140719D01*
X124655128Y-102320414D01*
X124545546Y-102525426D01*
X124478065Y-102747878D01*
X124460990Y-102921245D01*
X124460990Y-104545954D01*
X124478065Y-104719321D01*
X124545545Y-104941773D01*
X124655127Y-105146785D01*
X124802599Y-105326481D01*
X124982294Y-105473953D01*
X125187306Y-105583535D01*
X125409758Y-105651015D01*
X125641100Y-105673800D01*
X125872441Y-105651015D01*
X126094893Y-105583535D01*
X126299905Y-105473953D01*
X126359101Y-105425372D01*
X126359101Y-105611484D01*
X126356430Y-105638600D01*
X126367089Y-105746810D01*
X126398652Y-105850862D01*
X126449909Y-105946757D01*
X126449910Y-105946758D01*
X126518890Y-106030811D01*
X126539952Y-106048096D01*
X127771607Y-107279753D01*
X127788889Y-107300811D01*
X127809945Y-107318091D01*
X127872941Y-107369791D01*
X127916922Y-107393299D01*
X127968837Y-107421048D01*
X128072889Y-107452612D01*
X128153991Y-107460600D01*
X128154001Y-107460600D01*
X128181099Y-107463269D01*
X128208197Y-107460600D01*
X129857456Y-107460600D01*
X130797788Y-108400934D01*
X129310000Y-108400934D01*
X129226293Y-108409178D01*
X129145804Y-108433595D01*
X129071624Y-108473245D01*
X129006605Y-108526605D01*
X128953245Y-108591624D01*
X128913595Y-108665804D01*
X128889178Y-108746293D01*
X128880934Y-108830000D01*
X128880934Y-111230000D01*
X128889178Y-111313707D01*
X128913595Y-111394196D01*
X128953245Y-111468376D01*
X129006605Y-111533395D01*
X129071624Y-111586755D01*
X129145804Y-111626405D01*
X129226293Y-111650822D01*
X129310000Y-111659066D01*
X129534100Y-111659066D01*
X129534100Y-112468994D01*
X129531430Y-112496100D01*
X129534100Y-112523206D01*
X129534100Y-112523208D01*
X129542088Y-112604310D01*
X129573652Y-112708362D01*
X129624909Y-112804258D01*
X129693889Y-112888311D01*
X129714956Y-112905600D01*
X130620508Y-113811154D01*
X130637789Y-113832211D01*
X130721842Y-113901191D01*
X130817737Y-113952448D01*
X130921789Y-113984012D01*
X131002891Y-113992000D01*
X131002901Y-113992000D01*
X131029999Y-113994669D01*
X131057097Y-113992000D01*
X185243866Y-113992000D01*
X185256564Y-114004698D01*
X185375636Y-114084259D01*
X185507942Y-114139062D01*
X185648397Y-114167000D01*
X185791603Y-114167000D01*
X185932058Y-114139062D01*
X186064364Y-114084259D01*
X186183436Y-114004698D01*
X186284698Y-113903436D01*
X186364259Y-113784364D01*
X186419062Y-113652058D01*
X186447000Y-113511603D01*
X186447000Y-113368397D01*
X186419062Y-113227942D01*
X186364259Y-113095636D01*
X186284698Y-112976564D01*
X186183436Y-112875302D01*
X186064364Y-112795741D01*
X185932058Y-112740938D01*
X185791603Y-112713000D01*
X185648397Y-112713000D01*
X185507942Y-112740938D01*
X185375636Y-112795741D01*
X185256564Y-112875302D01*
X185243866Y-112888000D01*
X182332644Y-112888000D01*
X185458646Y-109762000D01*
X187325603Y-109762000D01*
X187262277Y-109825326D01*
X187149885Y-109993533D01*
X187072467Y-110180435D01*
X187033000Y-110378849D01*
X187033000Y-110581151D01*
X187072467Y-110779565D01*
X187149885Y-110966467D01*
X187262277Y-111134674D01*
X187405326Y-111277723D01*
X187573533Y-111390115D01*
X187760435Y-111467533D01*
X187958849Y-111507000D01*
X188161151Y-111507000D01*
X188359565Y-111467533D01*
X188546467Y-111390115D01*
X188714674Y-111277723D01*
X188857723Y-111134674D01*
X188970115Y-110966467D01*
X189047533Y-110779565D01*
X189087000Y-110581151D01*
X189087000Y-110378849D01*
X189047533Y-110180435D01*
X188970115Y-109993533D01*
X188857723Y-109825326D01*
X188794397Y-109762000D01*
X189322894Y-109762000D01*
X189350000Y-109764670D01*
X189377106Y-109762000D01*
X189377109Y-109762000D01*
X189458211Y-109754012D01*
X189562263Y-109722448D01*
X189658158Y-109671191D01*
X189742211Y-109602211D01*
X189759500Y-109581144D01*
X190394418Y-108946227D01*
X190498849Y-108967000D01*
X190701151Y-108967000D01*
X190899565Y-108927533D01*
X191086467Y-108850115D01*
X191254674Y-108737723D01*
X191397723Y-108594674D01*
X191510115Y-108426467D01*
X191587533Y-108239565D01*
X191627000Y-108041151D01*
X191627000Y-107838849D01*
X191587533Y-107640435D01*
X191510115Y-107453533D01*
X191397723Y-107285326D01*
X191254674Y-107142277D01*
X191086467Y-107029885D01*
X190899565Y-106952467D01*
X190701151Y-106913000D01*
X190498849Y-106913000D01*
X190300435Y-106952467D01*
X190113533Y-107029885D01*
X189945326Y-107142277D01*
X189802277Y-107285326D01*
X189689885Y-107453533D01*
X189612467Y-107640435D01*
X189573000Y-107838849D01*
X189573000Y-108041151D01*
X189600409Y-108178946D01*
X189121356Y-108658000D01*
X188794397Y-108658000D01*
X188857723Y-108594674D01*
X188970115Y-108426467D01*
X189047533Y-108239565D01*
X189087000Y-108041151D01*
X189087000Y-107838849D01*
X189047533Y-107640435D01*
X188970115Y-107453533D01*
X188857723Y-107285326D01*
X188714674Y-107142277D01*
X188546467Y-107029885D01*
X188359565Y-106952467D01*
X188161151Y-106913000D01*
X187958849Y-106913000D01*
X187760435Y-106952467D01*
X187573533Y-107029885D01*
X187405326Y-107142277D01*
X187262277Y-107285326D01*
X187166946Y-107428000D01*
X184346134Y-107428000D01*
X184333436Y-107415302D01*
X184214364Y-107335741D01*
X184082058Y-107280938D01*
X183941603Y-107253000D01*
X183798397Y-107253000D01*
X183657942Y-107280938D01*
X183525636Y-107335741D01*
X183406564Y-107415302D01*
X183305302Y-107516564D01*
X183225741Y-107635636D01*
X183170938Y-107767942D01*
X183143000Y-107908397D01*
X183143000Y-108051603D01*
X183170938Y-108192058D01*
X183225741Y-108324364D01*
X183305302Y-108443436D01*
X183406564Y-108544698D01*
X183525636Y-108624259D01*
X183657942Y-108679062D01*
X183798397Y-108707000D01*
X183941603Y-108707000D01*
X184082058Y-108679062D01*
X184214364Y-108624259D01*
X184333436Y-108544698D01*
X184346134Y-108532000D01*
X187220400Y-108532000D01*
X187262277Y-108594674D01*
X187325603Y-108658000D01*
X185257108Y-108658000D01*
X185230000Y-108655330D01*
X185121789Y-108665988D01*
X185017737Y-108697552D01*
X184921842Y-108748809D01*
X184891415Y-108773780D01*
X184837789Y-108817789D01*
X184820508Y-108838846D01*
X181341356Y-112318000D01*
X176892345Y-112318000D01*
X177447254Y-111763092D01*
X177468311Y-111745811D01*
X177537291Y-111661758D01*
X177588548Y-111565863D01*
X177620112Y-111461811D01*
X177625573Y-111406364D01*
X177685018Y-111455149D01*
X177898177Y-111569084D01*
X178129467Y-111639245D01*
X178370000Y-111662936D01*
X178610534Y-111639245D01*
X178841824Y-111569084D01*
X179054983Y-111455149D01*
X179241817Y-111301817D01*
X179395149Y-111114983D01*
X179509084Y-110901824D01*
X179579245Y-110670533D01*
X179597000Y-110490267D01*
X179597000Y-109569732D01*
X179589703Y-109495642D01*
X184173346Y-104912000D01*
X191961356Y-104912000D01*
X192598001Y-105548646D01*
X192598000Y-107066991D01*
X192485326Y-107142277D01*
X192342277Y-107285326D01*
X192229885Y-107453533D01*
X192152467Y-107640435D01*
X192113000Y-107838849D01*
X192113000Y-108041151D01*
X192152467Y-108239565D01*
X192229885Y-108426467D01*
X192342277Y-108594674D01*
X192485326Y-108737723D01*
X192653533Y-108850115D01*
X192840435Y-108927533D01*
X193038849Y-108967000D01*
X193241151Y-108967000D01*
X193439565Y-108927533D01*
X193626467Y-108850115D01*
X193794674Y-108737723D01*
X193937723Y-108594674D01*
X194050115Y-108426467D01*
X194127533Y-108239565D01*
X194167000Y-108041151D01*
X194167000Y-107838849D01*
X194127533Y-107640435D01*
X194050115Y-107453533D01*
X193937723Y-107285326D01*
X193794674Y-107142277D01*
X193702000Y-107080354D01*
X193702000Y-105462646D01*
X194188000Y-105948646D01*
X194188001Y-108671353D01*
X193408421Y-109450934D01*
X192540000Y-109450934D01*
X192456293Y-109459178D01*
X192375804Y-109483595D01*
X192301624Y-109523245D01*
X192236605Y-109576605D01*
X192183245Y-109641624D01*
X192143595Y-109715804D01*
X192119178Y-109796293D01*
X192110934Y-109880000D01*
X192110934Y-111080000D01*
X192119178Y-111163707D01*
X192143595Y-111244196D01*
X192183245Y-111318376D01*
X192236605Y-111383395D01*
X192301624Y-111436755D01*
X192375804Y-111476405D01*
X192456293Y-111500822D01*
X192540000Y-111509066D01*
X193740000Y-111509066D01*
X193823707Y-111500822D01*
X193904196Y-111476405D01*
X193978376Y-111436755D01*
X194043395Y-111383395D01*
X194096755Y-111318376D01*
X194136405Y-111244196D01*
X194160822Y-111163707D01*
X194169066Y-111080000D01*
X194169066Y-110251579D01*
X195111154Y-109309492D01*
X195132211Y-109292211D01*
X195160995Y-109257138D01*
X195201191Y-109208158D01*
X195248001Y-109120583D01*
X195248001Y-111321354D01*
X193731356Y-112838000D01*
X192068646Y-112838000D01*
X191162000Y-111931356D01*
X191162000Y-111339646D01*
X191254674Y-111277723D01*
X191397723Y-111134674D01*
X191510115Y-110966467D01*
X191587533Y-110779565D01*
X191627000Y-110581151D01*
X191627000Y-110378849D01*
X191587533Y-110180435D01*
X191510115Y-109993533D01*
X191397723Y-109825326D01*
X191254674Y-109682277D01*
X191086467Y-109569885D01*
X190899565Y-109492467D01*
X190701151Y-109453000D01*
X190498849Y-109453000D01*
X190300435Y-109492467D01*
X190113533Y-109569885D01*
X189945326Y-109682277D01*
X189802277Y-109825326D01*
X189689885Y-109993533D01*
X189612467Y-110180435D01*
X189573000Y-110378849D01*
X189573000Y-110581151D01*
X189612467Y-110779565D01*
X189689885Y-110966467D01*
X189802277Y-111134674D01*
X189945326Y-111277723D01*
X190058000Y-111353009D01*
X190058000Y-112132894D01*
X190055330Y-112160000D01*
X190058000Y-112187106D01*
X190058000Y-112187108D01*
X190065988Y-112268210D01*
X190097552Y-112372262D01*
X190148809Y-112468158D01*
X190217789Y-112552211D01*
X190238856Y-112569500D01*
X191430508Y-113761154D01*
X191447789Y-113782211D01*
X191468845Y-113799491D01*
X191468846Y-113799492D01*
X191531842Y-113851191D01*
X191627737Y-113902448D01*
X191731789Y-113934012D01*
X191840000Y-113944670D01*
X191867108Y-113942000D01*
X193932894Y-113942000D01*
X193960000Y-113944670D01*
X193987106Y-113942000D01*
X193987109Y-113942000D01*
X194068211Y-113934012D01*
X194172263Y-113902448D01*
X194268158Y-113851191D01*
X194352211Y-113782211D01*
X194369501Y-113761143D01*
X196171149Y-111959496D01*
X196192211Y-111942211D01*
X196261191Y-111858158D01*
X196312448Y-111762263D01*
X196344012Y-111658211D01*
X196352000Y-111577109D01*
X196352000Y-111577106D01*
X196354670Y-111550000D01*
X196352000Y-111522894D01*
X196352000Y-105037106D01*
X196354670Y-105010000D01*
X196352000Y-104982891D01*
X196344012Y-104901789D01*
X196312448Y-104797737D01*
X196261191Y-104701842D01*
X196192211Y-104617789D01*
X196171149Y-104600504D01*
X189872000Y-98301356D01*
X189872000Y-92869039D01*
X193168096Y-92869039D01*
X193208754Y-93003087D01*
X193328963Y-93257420D01*
X193496481Y-93483414D01*
X193704869Y-93672385D01*
X193946119Y-93817070D01*
X194210960Y-93911909D01*
X194433000Y-93790624D01*
X194433000Y-92647000D01*
X194687000Y-92647000D01*
X194687000Y-93790624D01*
X194909040Y-93911909D01*
X195173881Y-93817070D01*
X195415131Y-93672385D01*
X195623519Y-93483414D01*
X195791037Y-93257420D01*
X195911246Y-93003087D01*
X195951904Y-92869039D01*
X195829915Y-92647000D01*
X194687000Y-92647000D01*
X194433000Y-92647000D01*
X193290085Y-92647000D01*
X193168096Y-92869039D01*
X189872000Y-92869039D01*
X189872000Y-90329039D01*
X193168096Y-90329039D01*
X193208754Y-90463087D01*
X193328963Y-90717420D01*
X193496481Y-90943414D01*
X193704869Y-91132385D01*
X193900982Y-91250000D01*
X193704869Y-91367615D01*
X193496481Y-91556586D01*
X193328963Y-91782580D01*
X193208754Y-92036913D01*
X193168096Y-92170961D01*
X193290085Y-92393000D01*
X194433000Y-92393000D01*
X194433000Y-90107000D01*
X194687000Y-90107000D01*
X194687000Y-92393000D01*
X195829915Y-92393000D01*
X195951904Y-92170961D01*
X195911246Y-92036913D01*
X195791037Y-91782580D01*
X195623519Y-91556586D01*
X195415131Y-91367615D01*
X195219018Y-91250000D01*
X195415131Y-91132385D01*
X195623519Y-90943414D01*
X195791037Y-90717420D01*
X195911246Y-90463087D01*
X195951904Y-90329039D01*
X195829915Y-90107000D01*
X194687000Y-90107000D01*
X194433000Y-90107000D01*
X193290085Y-90107000D01*
X193168096Y-90329039D01*
X189872000Y-90329039D01*
X189872000Y-87789039D01*
X193168096Y-87789039D01*
X193208754Y-87923087D01*
X193328963Y-88177420D01*
X193496481Y-88403414D01*
X193704869Y-88592385D01*
X193900982Y-88710000D01*
X193704869Y-88827615D01*
X193496481Y-89016586D01*
X193328963Y-89242580D01*
X193208754Y-89496913D01*
X193168096Y-89630961D01*
X193290085Y-89853000D01*
X194433000Y-89853000D01*
X194433000Y-87567000D01*
X194687000Y-87567000D01*
X194687000Y-89853000D01*
X195829915Y-89853000D01*
X195951904Y-89630961D01*
X195911246Y-89496913D01*
X195791037Y-89242580D01*
X195623519Y-89016586D01*
X195415131Y-88827615D01*
X195219018Y-88710000D01*
X195415131Y-88592385D01*
X195623519Y-88403414D01*
X195791037Y-88177420D01*
X195911246Y-87923087D01*
X195951904Y-87789039D01*
X195829915Y-87567000D01*
X194687000Y-87567000D01*
X194433000Y-87567000D01*
X193290085Y-87567000D01*
X193168096Y-87789039D01*
X189872000Y-87789039D01*
X189872000Y-87090961D01*
X193168096Y-87090961D01*
X193290085Y-87313000D01*
X194433000Y-87313000D01*
X194433000Y-86169376D01*
X194687000Y-86169376D01*
X194687000Y-87313000D01*
X195829915Y-87313000D01*
X195951904Y-87090961D01*
X195911246Y-86956913D01*
X195791037Y-86702580D01*
X195623519Y-86476586D01*
X195415131Y-86287615D01*
X195173881Y-86142930D01*
X194909040Y-86048091D01*
X194687000Y-86169376D01*
X194433000Y-86169376D01*
X194210960Y-86048091D01*
X193946119Y-86142930D01*
X193704869Y-86287615D01*
X193496481Y-86476586D01*
X193328963Y-86702580D01*
X193208754Y-86956913D01*
X193168096Y-87090961D01*
X189872000Y-87090961D01*
X189872000Y-86217105D01*
X189874670Y-86189999D01*
X189870912Y-86151843D01*
X189864012Y-86081789D01*
X189832448Y-85977737D01*
X189781191Y-85881842D01*
X189712211Y-85797789D01*
X189691154Y-85780508D01*
X188282099Y-84371455D01*
X188264810Y-84350388D01*
X188180757Y-84281408D01*
X188084862Y-84230151D01*
X187980810Y-84198587D01*
X187899708Y-84190599D01*
X187899705Y-84190599D01*
X187872599Y-84187929D01*
X187845493Y-84190599D01*
X169654509Y-84190599D01*
X169627401Y-84187929D01*
X169519190Y-84198587D01*
X169415138Y-84230151D01*
X169319243Y-84281408D01*
X169261408Y-84328872D01*
X169235190Y-84350388D01*
X169217909Y-84371445D01*
X167178852Y-86410504D01*
X167157790Y-86427789D01*
X167105758Y-86491191D01*
X167088809Y-86511843D01*
X167037552Y-86607738D01*
X167027766Y-86640000D01*
X167007949Y-86705330D01*
X167005989Y-86711790D01*
X166997268Y-86800323D01*
X166939906Y-86753247D01*
X166734894Y-86643665D01*
X166642316Y-86615582D01*
X166733436Y-86554698D01*
X166834698Y-86453436D01*
X166914259Y-86334364D01*
X166969062Y-86202058D01*
X166997000Y-86061603D01*
X166997000Y-85918397D01*
X166969062Y-85777942D01*
X166914259Y-85645636D01*
X166834698Y-85526564D01*
X166733436Y-85425302D01*
X166614364Y-85345741D01*
X166482058Y-85290938D01*
X166341603Y-85263000D01*
X166323645Y-85263000D01*
X165489500Y-84428856D01*
X165472211Y-84407789D01*
X165388158Y-84338809D01*
X165292263Y-84287552D01*
X165188211Y-84255988D01*
X165107109Y-84248000D01*
X165107106Y-84248000D01*
X165080000Y-84245330D01*
X165052894Y-84248000D01*
X125557097Y-84248000D01*
X125529999Y-84245331D01*
X125502901Y-84248000D01*
X125502891Y-84248000D01*
X125421789Y-84255988D01*
X125317737Y-84287552D01*
X125273098Y-84311412D01*
X125221841Y-84338809D01*
X125164679Y-84385721D01*
X125137789Y-84407789D01*
X125120508Y-84428846D01*
X124028856Y-85520500D01*
X124007789Y-85537789D01*
X123938809Y-85621842D01*
X123887552Y-85717738D01*
X123855988Y-85821790D01*
X123850037Y-85882211D01*
X123845330Y-85930000D01*
X123848000Y-85957106D01*
X123848000Y-86825544D01*
X123759906Y-86753247D01*
X123554894Y-86643665D01*
X123332442Y-86576185D01*
X123101100Y-86553400D01*
X122869759Y-86576185D01*
X122647307Y-86643665D01*
X122442295Y-86753247D01*
X122262600Y-86900719D01*
X122115128Y-87080414D01*
X122005546Y-87285426D01*
X121938065Y-87507878D01*
X121920990Y-87681245D01*
X121741210Y-87681245D01*
X121724135Y-87507878D01*
X121656655Y-87285426D01*
X121547073Y-87080414D01*
X121399601Y-86900719D01*
X121219906Y-86753247D01*
X121014894Y-86643665D01*
X120792442Y-86576185D01*
X120561100Y-86553400D01*
X120329759Y-86576185D01*
X120107307Y-86643665D01*
X119902295Y-86753247D01*
X119722600Y-86900719D01*
X119575128Y-87080414D01*
X119465546Y-87285426D01*
X119398065Y-87507878D01*
X119380990Y-87681245D01*
X119201210Y-87681245D01*
X119184135Y-87507878D01*
X119116655Y-87285426D01*
X119007073Y-87080414D01*
X118859601Y-86900719D01*
X118679906Y-86753247D01*
X118474894Y-86643665D01*
X118252442Y-86576185D01*
X118021100Y-86553400D01*
X117789759Y-86576185D01*
X117567307Y-86643665D01*
X117362295Y-86753247D01*
X117182600Y-86900719D01*
X117035128Y-87080414D01*
X116925546Y-87285426D01*
X116858065Y-87507878D01*
X116840990Y-87681245D01*
X107817000Y-87681245D01*
X107817000Y-84733551D01*
X107833988Y-84560296D01*
X107877175Y-84417256D01*
X107947321Y-84285328D01*
X108041758Y-84169537D01*
X108156884Y-84074296D01*
X108288323Y-84003227D01*
X108431056Y-83959044D01*
X108602737Y-83941000D01*
X196943449Y-83941000D01*
X197116704Y-83957988D01*
G37*
%TD.AperFunction*%
D19*
X155637000Y-109903000D02*
X155657000Y-109903000D01*
X155657000Y-110157000D01*
X155637000Y-110157000D01*
X155637000Y-110177000D01*
X155383000Y-110177000D01*
X155383000Y-110157000D01*
X155363000Y-110157000D01*
X155363000Y-109903000D01*
X155383000Y-109903000D01*
X155383000Y-109883000D01*
X155637000Y-109883000D01*
X155637000Y-109903000D01*
%TA.AperFunction,Conductor*%
D20*
G36*
X155637000Y-109903000D02*
G01*
X155657000Y-109903000D01*
X155657000Y-110157000D01*
X155637000Y-110157000D01*
X155637000Y-110177000D01*
X155383000Y-110177000D01*
X155383000Y-110157000D01*
X155363000Y-110157000D01*
X155363000Y-109903000D01*
X155383000Y-109903000D01*
X155383000Y-109883000D01*
X155637000Y-109883000D01*
X155637000Y-109903000D01*
G37*
%TD.AperFunction*%
D19*
X177836564Y-85365302D02*
X177735302Y-85466564D01*
X177655741Y-85585636D01*
X177600938Y-85717942D01*
X177573000Y-85858397D01*
X177573000Y-86001603D01*
X177600938Y-86142058D01*
X177655741Y-86274364D01*
X177735302Y-86393436D01*
X177836564Y-86494698D01*
X177955636Y-86574259D01*
X178087942Y-86629062D01*
X178125985Y-86636629D01*
X181840508Y-90351154D01*
X181857789Y-90372211D01*
X181878845Y-90389491D01*
X181878846Y-90389492D01*
X181941842Y-90441191D01*
X182037737Y-90492448D01*
X182141789Y-90524012D01*
X182250000Y-90534670D01*
X182277108Y-90532000D01*
X185840551Y-90532000D01*
X185852647Y-90561202D01*
X185986927Y-90762167D01*
X186157833Y-90933073D01*
X186358798Y-91067353D01*
X186582097Y-91159847D01*
X186819151Y-91207000D01*
X187060849Y-91207000D01*
X187297903Y-91159847D01*
X187521202Y-91067353D01*
X187722167Y-90933073D01*
X187893073Y-90762167D01*
X188027353Y-90561202D01*
X188119847Y-90337903D01*
X188167000Y-90100849D01*
X188167000Y-89859151D01*
X188119847Y-89622097D01*
X188027353Y-89398798D01*
X187893073Y-89197833D01*
X187722167Y-89026927D01*
X187521202Y-88892647D01*
X187297903Y-88800153D01*
X187060849Y-88753000D01*
X186819151Y-88753000D01*
X186582097Y-88800153D01*
X186358798Y-88892647D01*
X186157833Y-89026927D01*
X185986927Y-89197833D01*
X185852647Y-89398798D01*
X185840551Y-89428000D01*
X182478646Y-89428000D01*
X179690645Y-86640000D01*
X185710934Y-86640000D01*
X185710934Y-88240000D01*
X185719178Y-88323707D01*
X185743595Y-88404196D01*
X185783245Y-88478376D01*
X185836605Y-88543395D01*
X185901624Y-88596755D01*
X185975804Y-88636405D01*
X186056293Y-88660822D01*
X186140000Y-88669066D01*
X187740000Y-88669066D01*
X187823707Y-88660822D01*
X187904196Y-88636405D01*
X187978376Y-88596755D01*
X188043395Y-88543395D01*
X188096755Y-88478376D01*
X188136405Y-88404196D01*
X188160822Y-88323707D01*
X188169066Y-88240000D01*
X188169066Y-86640000D01*
X188160822Y-86556293D01*
X188136405Y-86475804D01*
X188096755Y-86401624D01*
X188043395Y-86336605D01*
X187978376Y-86283245D01*
X187904196Y-86243595D01*
X187823707Y-86219178D01*
X187740000Y-86210934D01*
X186140000Y-86210934D01*
X186056293Y-86219178D01*
X185975804Y-86243595D01*
X185901624Y-86283245D01*
X185836605Y-86336605D01*
X185783245Y-86401624D01*
X185743595Y-86475804D01*
X185719178Y-86556293D01*
X185710934Y-86640000D01*
X179690645Y-86640000D01*
X179027000Y-85976356D01*
X179027000Y-85858397D01*
X178999062Y-85717942D01*
X178944259Y-85585636D01*
X178864698Y-85466564D01*
X178763436Y-85365302D01*
X178657621Y-85294599D01*
X187643955Y-85294599D01*
X188768000Y-86418646D01*
X188768001Y-98502884D01*
X188765330Y-98530000D01*
X188775989Y-98638210D01*
X188807552Y-98742262D01*
X188837430Y-98798159D01*
X188858810Y-98838158D01*
X188927790Y-98922211D01*
X188948852Y-98939496D01*
X195248000Y-105238645D01*
X195248000Y-105499416D01*
X195209940Y-105428210D01*
X195201191Y-105411841D01*
X195149491Y-105348845D01*
X195132211Y-105327789D01*
X195111154Y-105310508D01*
X192469500Y-102668856D01*
X192452211Y-102647789D01*
X192368158Y-102578809D01*
X192272263Y-102527552D01*
X192168211Y-102495988D01*
X192087109Y-102488000D01*
X192087106Y-102488000D01*
X192060000Y-102485330D01*
X192032894Y-102488000D01*
X185606134Y-102488000D01*
X185593436Y-102475302D01*
X185474364Y-102395741D01*
X185342058Y-102340938D01*
X185201603Y-102313000D01*
X185058397Y-102313000D01*
X184917942Y-102340938D01*
X184785636Y-102395741D01*
X184666564Y-102475302D01*
X184565302Y-102576564D01*
X184485741Y-102695636D01*
X184430938Y-102827942D01*
X184403000Y-102968397D01*
X184403000Y-103111603D01*
X184430938Y-103252058D01*
X184485741Y-103384364D01*
X184565302Y-103503436D01*
X184666564Y-103604698D01*
X184785636Y-103684259D01*
X184917942Y-103739062D01*
X185058397Y-103767000D01*
X185201603Y-103767000D01*
X185342058Y-103739062D01*
X185474364Y-103684259D01*
X185593436Y-103604698D01*
X185606134Y-103592000D01*
X191831356Y-103592000D01*
X192047356Y-103808000D01*
X183971805Y-103808000D01*
X183944699Y-103805330D01*
X183917593Y-103808000D01*
X183917591Y-103808000D01*
X183836489Y-103815988D01*
X183732437Y-103847552D01*
X183636542Y-103898809D01*
X183552489Y-103967789D01*
X183535208Y-103988846D01*
X178966499Y-108557556D01*
X178841823Y-108490916D01*
X178610533Y-108420755D01*
X178370000Y-108397064D01*
X178129466Y-108420755D01*
X177898176Y-108490916D01*
X177685017Y-108604851D01*
X177628100Y-108651562D01*
X177628100Y-107570708D01*
X177630770Y-107543600D01*
X177625374Y-107488809D01*
X177620112Y-107435389D01*
X177588548Y-107331337D01*
X177537291Y-107235442D01*
X177492642Y-107181037D01*
X177485592Y-107172446D01*
X177485591Y-107172445D01*
X177468311Y-107151389D01*
X177447254Y-107134108D01*
X176993100Y-106679955D01*
X176993100Y-105531042D01*
X177099905Y-105473953D01*
X177279601Y-105326481D01*
X177427073Y-105146786D01*
X177536655Y-104941774D01*
X177604135Y-104719322D01*
X177621210Y-104545955D01*
X177621210Y-102921245D01*
X177604135Y-102747878D01*
X177536655Y-102525426D01*
X177427073Y-102320414D01*
X177279601Y-102140719D01*
X177099906Y-101993247D01*
X176894894Y-101883665D01*
X176672442Y-101816185D01*
X176441100Y-101793400D01*
X176209759Y-101816185D01*
X175987307Y-101883665D01*
X175782295Y-101993247D01*
X175602600Y-102140719D01*
X175455128Y-102320414D01*
X175345546Y-102525426D01*
X175278065Y-102747878D01*
X175260990Y-102921245D01*
X175260990Y-104545954D01*
X175278065Y-104719321D01*
X175345545Y-104941773D01*
X175455127Y-105146785D01*
X175602599Y-105326481D01*
X175782294Y-105473953D01*
X175889101Y-105531043D01*
X175889101Y-106881484D01*
X175886430Y-106908600D01*
X175897089Y-107016810D01*
X175928652Y-107120862D01*
X175979909Y-107216757D01*
X175979910Y-107216758D01*
X176048890Y-107300811D01*
X176069951Y-107318096D01*
X176524100Y-107772246D01*
X176524100Y-108612334D01*
X176514982Y-108604851D01*
X176301823Y-108490916D01*
X176070533Y-108420755D01*
X175830000Y-108397064D01*
X175589466Y-108420755D01*
X175358176Y-108490916D01*
X175202351Y-108574206D01*
X172065049Y-105436905D01*
X172199601Y-105326481D01*
X172347073Y-105146786D01*
X172456655Y-104941774D01*
X172524135Y-104719322D01*
X172541210Y-104545955D01*
X172541210Y-102921245D01*
X172720990Y-102921245D01*
X172720990Y-104545954D01*
X172738065Y-104719321D01*
X172805545Y-104941773D01*
X172915127Y-105146785D01*
X173062599Y-105326481D01*
X173242294Y-105473953D01*
X173447306Y-105583535D01*
X173669758Y-105651015D01*
X173901100Y-105673800D01*
X174132441Y-105651015D01*
X174354893Y-105583535D01*
X174559905Y-105473953D01*
X174739601Y-105326481D01*
X174887073Y-105146786D01*
X174996655Y-104941774D01*
X175064135Y-104719322D01*
X175081210Y-104545955D01*
X175081210Y-102921245D01*
X175064135Y-102747878D01*
X174996655Y-102525426D01*
X174887073Y-102320414D01*
X174739601Y-102140719D01*
X174559906Y-101993247D01*
X174354894Y-101883665D01*
X174132442Y-101816185D01*
X173901100Y-101793400D01*
X173669759Y-101816185D01*
X173447307Y-101883665D01*
X173242295Y-101993247D01*
X173062600Y-102140719D01*
X172915128Y-102320414D01*
X172805546Y-102525426D01*
X172738065Y-102747878D01*
X172720990Y-102921245D01*
X172541210Y-102921245D01*
X172524135Y-102747878D01*
X172456655Y-102525426D01*
X172347073Y-102320414D01*
X172199601Y-102140719D01*
X172019906Y-101993247D01*
X171814894Y-101883665D01*
X171592442Y-101816185D01*
X171361100Y-101793400D01*
X171129759Y-101816185D01*
X170907307Y-101883665D01*
X170702295Y-101993247D01*
X170537025Y-102128880D01*
X169620144Y-101212000D01*
X174412894Y-101212000D01*
X174440000Y-101214670D01*
X174467106Y-101212000D01*
X174467109Y-101212000D01*
X174548211Y-101204012D01*
X174652263Y-101172448D01*
X174748158Y-101121191D01*
X174832211Y-101052211D01*
X174849501Y-101031143D01*
X178717254Y-97163392D01*
X178738311Y-97146111D01*
X178771438Y-97105746D01*
X178807291Y-97062058D01*
X178858548Y-96966163D01*
X178890112Y-96862111D01*
X178900770Y-96753900D01*
X178898100Y-96726792D01*
X178898100Y-96299004D01*
X179054983Y-96215149D01*
X179241817Y-96061817D01*
X179395149Y-95874983D01*
X179509084Y-95661824D01*
X179579245Y-95430533D01*
X179597000Y-95250267D01*
X179597000Y-94329732D01*
X179579245Y-94149466D01*
X179509084Y-93918176D01*
X179395149Y-93705017D01*
X179241817Y-93518183D01*
X179054982Y-93364851D01*
X178841823Y-93250916D01*
X178610533Y-93180755D01*
X178370000Y-93157064D01*
X178129466Y-93180755D01*
X177898176Y-93250916D01*
X177685017Y-93364851D01*
X177498183Y-93518183D01*
X177344851Y-93705018D01*
X177230916Y-93918177D01*
X177160755Y-94149467D01*
X177143000Y-94329733D01*
X177143000Y-95250268D01*
X177160755Y-95430534D01*
X177230916Y-95661824D01*
X177344852Y-95874983D01*
X177498184Y-96061817D01*
X177685018Y-96215149D01*
X177794100Y-96273454D01*
X177794100Y-96525254D01*
X174211356Y-100108000D01*
X171447344Y-100108000D01*
X175272211Y-96283135D01*
X175358177Y-96329084D01*
X175589467Y-96399245D01*
X175830000Y-96422936D01*
X176070534Y-96399245D01*
X176301824Y-96329084D01*
X176514983Y-96215149D01*
X176701817Y-96061817D01*
X176855149Y-95874983D01*
X176969084Y-95661824D01*
X177039245Y-95430533D01*
X177057000Y-95250267D01*
X177057000Y-94329732D01*
X177039245Y-94149466D01*
X176969084Y-93918176D01*
X176855149Y-93705017D01*
X176701817Y-93518183D01*
X176514982Y-93364851D01*
X176301823Y-93250916D01*
X176070533Y-93180755D01*
X175830000Y-93157064D01*
X175589466Y-93180755D01*
X175358176Y-93250916D01*
X175145017Y-93364851D01*
X174958183Y-93518183D01*
X174804851Y-93705018D01*
X174690916Y-93918177D01*
X174620755Y-94149467D01*
X174603000Y-94329733D01*
X174603000Y-95250268D01*
X174615623Y-95378431D01*
X174471257Y-95522797D01*
X174499245Y-95430533D01*
X174517000Y-95250267D01*
X174517000Y-94329732D01*
X174499245Y-94149466D01*
X174429084Y-93918176D01*
X174315149Y-93705017D01*
X174161817Y-93518183D01*
X173974982Y-93364851D01*
X173761823Y-93250916D01*
X173530533Y-93180755D01*
X173290000Y-93157064D01*
X173049466Y-93180755D01*
X172818176Y-93250916D01*
X172605017Y-93364851D01*
X172418183Y-93518183D01*
X172264851Y-93705018D01*
X172150916Y-93918177D01*
X172080755Y-94149467D01*
X172063000Y-94329733D01*
X172063000Y-95250268D01*
X172075623Y-95378431D01*
X171931257Y-95522797D01*
X171959245Y-95430533D01*
X171977000Y-95250267D01*
X171977000Y-94329732D01*
X171959245Y-94149466D01*
X171889084Y-93918176D01*
X171775149Y-93705017D01*
X171621817Y-93518183D01*
X171434982Y-93364851D01*
X171221823Y-93250916D01*
X170990533Y-93180755D01*
X170750000Y-93157064D01*
X170509466Y-93180755D01*
X170278176Y-93250916D01*
X170065017Y-93364851D01*
X169878183Y-93518183D01*
X169724851Y-93705018D01*
X169610916Y-93918177D01*
X169540755Y-94149467D01*
X169523000Y-94329733D01*
X169523000Y-95250268D01*
X169535623Y-95378431D01*
X169391257Y-95522797D01*
X169419245Y-95430533D01*
X169437000Y-95250267D01*
X169437000Y-94329732D01*
X169419245Y-94149466D01*
X169349084Y-93918176D01*
X169235149Y-93705017D01*
X169081817Y-93518183D01*
X168894982Y-93364851D01*
X168681823Y-93250916D01*
X168450533Y-93180755D01*
X168210000Y-93157064D01*
X167969466Y-93180755D01*
X167738176Y-93250916D01*
X167525017Y-93364851D01*
X167338183Y-93518183D01*
X167184851Y-93705018D01*
X167070916Y-93918177D01*
X167000755Y-94149467D01*
X166983000Y-94329733D01*
X166983000Y-95250268D01*
X166995623Y-95378431D01*
X166851257Y-95522797D01*
X166879245Y-95430533D01*
X166897000Y-95250267D01*
X166897000Y-94329732D01*
X166879245Y-94149466D01*
X166809084Y-93918176D01*
X166695149Y-93705017D01*
X166541817Y-93518183D01*
X166354982Y-93364851D01*
X166141823Y-93250916D01*
X165910533Y-93180755D01*
X165670000Y-93157064D01*
X165429466Y-93180755D01*
X165198176Y-93250916D01*
X164985017Y-93364851D01*
X164798183Y-93518183D01*
X164644851Y-93705018D01*
X164530916Y-93918177D01*
X164460755Y-94149467D01*
X164443000Y-94329733D01*
X164443000Y-95250268D01*
X164455623Y-95378431D01*
X164311257Y-95522798D01*
X164339245Y-95430533D01*
X164357000Y-95250267D01*
X164357000Y-94329732D01*
X164339245Y-94149466D01*
X164269084Y-93918176D01*
X164155149Y-93705017D01*
X164001817Y-93518183D01*
X163814982Y-93364851D01*
X163601823Y-93250916D01*
X163370533Y-93180755D01*
X163130000Y-93157064D01*
X162889466Y-93180755D01*
X162658176Y-93250916D01*
X162445017Y-93364851D01*
X162258183Y-93518183D01*
X162104851Y-93705018D01*
X161990916Y-93918177D01*
X161920755Y-94149467D01*
X161903000Y-94329733D01*
X161903000Y-95250268D01*
X161915623Y-95378432D01*
X161771257Y-95522799D01*
X161799245Y-95430533D01*
X161817000Y-95250267D01*
X161817000Y-94329732D01*
X161799245Y-94149466D01*
X161729084Y-93918176D01*
X161615149Y-93705017D01*
X161461817Y-93518183D01*
X161274982Y-93364851D01*
X161061823Y-93250916D01*
X160830533Y-93180755D01*
X160590000Y-93157064D01*
X160349466Y-93180755D01*
X160118176Y-93250916D01*
X159905017Y-93364851D01*
X159718183Y-93518183D01*
X159564851Y-93705018D01*
X159450916Y-93918177D01*
X159380755Y-94149467D01*
X159363000Y-94329733D01*
X159363000Y-95250268D01*
X159380755Y-95430534D01*
X159450916Y-95661824D01*
X159564852Y-95874983D01*
X159718184Y-96061817D01*
X159905018Y-96215149D01*
X160014101Y-96273454D01*
X160014101Y-96489954D01*
X159426056Y-97078000D01*
X158445238Y-97078000D01*
X158487291Y-97026758D01*
X158538548Y-96930863D01*
X158570112Y-96826811D01*
X158578100Y-96745709D01*
X158578100Y-96745699D01*
X158580769Y-96718601D01*
X158578100Y-96691503D01*
X158578100Y-96299004D01*
X158734983Y-96215149D01*
X158921817Y-96061817D01*
X159075149Y-95874983D01*
X159189084Y-95661824D01*
X159259245Y-95430533D01*
X159277000Y-95250267D01*
X159277000Y-94329732D01*
X159259245Y-94149466D01*
X159189084Y-93918176D01*
X159075149Y-93705017D01*
X158921817Y-93518183D01*
X158734982Y-93364851D01*
X158521823Y-93250916D01*
X158290533Y-93180755D01*
X158050000Y-93157064D01*
X157809466Y-93180755D01*
X157578176Y-93250916D01*
X157365017Y-93364851D01*
X157178183Y-93518183D01*
X157024851Y-93705018D01*
X156910916Y-93918177D01*
X156891423Y-93982438D01*
X156787166Y-93723517D01*
X156632601Y-93487161D01*
X156434895Y-93285500D01*
X156201646Y-93126285D01*
X155941818Y-93015633D01*
X155859039Y-92998096D01*
X155637000Y-93120085D01*
X155637000Y-94663000D01*
X155657000Y-94663000D01*
X155657000Y-94917000D01*
X155637000Y-94917000D01*
X155637000Y-96459915D01*
X155859039Y-96581904D01*
X155941818Y-96564367D01*
X156201646Y-96453715D01*
X156434895Y-96294500D01*
X156632601Y-96092839D01*
X156787166Y-95856483D01*
X156891422Y-95597562D01*
X156910916Y-95661824D01*
X157024852Y-95874983D01*
X157178184Y-96061817D01*
X157365018Y-96215149D01*
X157474100Y-96273454D01*
X157474100Y-96489955D01*
X157303644Y-96660411D01*
X149494934Y-96660411D01*
X149872211Y-96283134D01*
X149958177Y-96329084D01*
X150189467Y-96399245D01*
X150430000Y-96422936D01*
X150670534Y-96399245D01*
X150901824Y-96329084D01*
X151114983Y-96215149D01*
X151301817Y-96061817D01*
X151455149Y-95874983D01*
X151569084Y-95661824D01*
X151639245Y-95430533D01*
X151657000Y-95250267D01*
X151657000Y-94460145D01*
X151743000Y-94546145D01*
X151743000Y-95250268D01*
X151760755Y-95430534D01*
X151830916Y-95661824D01*
X151944852Y-95874983D01*
X152098184Y-96061817D01*
X152285018Y-96215149D01*
X152498177Y-96329084D01*
X152729467Y-96399245D01*
X152970000Y-96422936D01*
X153210534Y-96399245D01*
X153441824Y-96329084D01*
X153654983Y-96215149D01*
X153841817Y-96061817D01*
X153995149Y-95874983D01*
X154109084Y-95661824D01*
X154128577Y-95597562D01*
X154232834Y-95856483D01*
X154387399Y-96092839D01*
X154585105Y-96294500D01*
X154818354Y-96453715D01*
X155078182Y-96564367D01*
X155160961Y-96581904D01*
X155383000Y-96459915D01*
X155383000Y-94917000D01*
X155363000Y-94917000D01*
X155363000Y-94663000D01*
X155383000Y-94663000D01*
X155383000Y-93120085D01*
X155160961Y-92998096D01*
X155078182Y-93015633D01*
X154818354Y-93126285D01*
X154585105Y-93285500D01*
X154387399Y-93487161D01*
X154232834Y-93723517D01*
X154128578Y-93982438D01*
X154109084Y-93918176D01*
X153995149Y-93705017D01*
X153841817Y-93518183D01*
X153654982Y-93364851D01*
X153441823Y-93250916D01*
X153210533Y-93180755D01*
X152970000Y-93157064D01*
X152729466Y-93180755D01*
X152498176Y-93250916D01*
X152285017Y-93364851D01*
X152196028Y-93437883D01*
X151157296Y-92399151D01*
X185713000Y-92399151D01*
X185713000Y-92640849D01*
X185760153Y-92877903D01*
X185852647Y-93101202D01*
X185986927Y-93302167D01*
X186157833Y-93473073D01*
X186358798Y-93607353D01*
X186582097Y-93699847D01*
X186819151Y-93747000D01*
X187060849Y-93747000D01*
X187297903Y-93699847D01*
X187521202Y-93607353D01*
X187722167Y-93473073D01*
X187893073Y-93302167D01*
X188027353Y-93101202D01*
X188119847Y-92877903D01*
X188167000Y-92640849D01*
X188167000Y-92399151D01*
X188119847Y-92162097D01*
X188027353Y-91938798D01*
X187893073Y-91737833D01*
X187722167Y-91566927D01*
X187521202Y-91432647D01*
X187297903Y-91340153D01*
X187060849Y-91293000D01*
X186819151Y-91293000D01*
X186582097Y-91340153D01*
X186358798Y-91432647D01*
X186157833Y-91566927D01*
X185986927Y-91737833D01*
X185852647Y-91938798D01*
X185760153Y-92162097D01*
X185713000Y-92399151D01*
X151157296Y-92399151D01*
X149050549Y-90292405D01*
X149159905Y-90233953D01*
X149339601Y-90086481D01*
X149487073Y-89906786D01*
X149596655Y-89701774D01*
X149664135Y-89479322D01*
X149681210Y-89305955D01*
X149681210Y-87681245D01*
X149664135Y-87507878D01*
X149596655Y-87285426D01*
X149487073Y-87080414D01*
X149339601Y-86900719D01*
X149159906Y-86753247D01*
X148954894Y-86643665D01*
X148732442Y-86576185D01*
X148501100Y-86553400D01*
X148269759Y-86576185D01*
X148047307Y-86643665D01*
X147842295Y-86753247D01*
X147662600Y-86900719D01*
X147515128Y-87080414D01*
X147405546Y-87285426D01*
X147338065Y-87507878D01*
X147320990Y-87681245D01*
X147320990Y-89305954D01*
X147338065Y-89479321D01*
X147405545Y-89701773D01*
X147515127Y-89906785D01*
X147532538Y-89928000D01*
X146929663Y-89928000D01*
X146947073Y-89906786D01*
X147056655Y-89701774D01*
X147124135Y-89479322D01*
X147141210Y-89305955D01*
X147141210Y-87681245D01*
X147124135Y-87507878D01*
X147056655Y-87285426D01*
X146947073Y-87080414D01*
X146799601Y-86900719D01*
X146619906Y-86753247D01*
X146414894Y-86643665D01*
X146192442Y-86576185D01*
X145961100Y-86553400D01*
X145729759Y-86576185D01*
X145507307Y-86643665D01*
X145302295Y-86753247D01*
X145122600Y-86900719D01*
X144975128Y-87080414D01*
X144865546Y-87285426D01*
X144798065Y-87507878D01*
X144780990Y-87681245D01*
X144780990Y-89305954D01*
X144798065Y-89479321D01*
X144865545Y-89701773D01*
X144975127Y-89906785D01*
X144992538Y-89928000D01*
X144389663Y-89928000D01*
X144407073Y-89906786D01*
X144516655Y-89701774D01*
X144584135Y-89479322D01*
X144601210Y-89305955D01*
X144601210Y-87681245D01*
X144584135Y-87507878D01*
X144516655Y-87285426D01*
X144407073Y-87080414D01*
X144259601Y-86900719D01*
X144079906Y-86753247D01*
X143874894Y-86643665D01*
X143652442Y-86576185D01*
X143421100Y-86553400D01*
X143189759Y-86576185D01*
X142967307Y-86643665D01*
X142762295Y-86753247D01*
X142582600Y-86900719D01*
X142485717Y-87018771D01*
X141508945Y-86042000D01*
X163683856Y-86042000D01*
X164389586Y-86747731D01*
X164194894Y-86643665D01*
X163972442Y-86576185D01*
X163741100Y-86553400D01*
X163509759Y-86576185D01*
X163287307Y-86643665D01*
X163082295Y-86753247D01*
X162902600Y-86900719D01*
X162755128Y-87080414D01*
X162645546Y-87285426D01*
X162578065Y-87507878D01*
X162560990Y-87681245D01*
X162560990Y-89305954D01*
X162578065Y-89479321D01*
X162645545Y-89701773D01*
X162755127Y-89906785D01*
X162902599Y-90086481D01*
X163082294Y-90233953D01*
X163287306Y-90343535D01*
X163509758Y-90411015D01*
X163741100Y-90433800D01*
X163972441Y-90411015D01*
X164194893Y-90343535D01*
X164399905Y-90233953D01*
X164579601Y-90086481D01*
X164727073Y-89906786D01*
X164836655Y-89701774D01*
X164904135Y-89479322D01*
X164921210Y-89305955D01*
X164921210Y-87681245D01*
X164904135Y-87507878D01*
X164836655Y-87285426D01*
X164732589Y-87090734D01*
X165125436Y-87483581D01*
X165118065Y-87507878D01*
X165100990Y-87681245D01*
X165100990Y-89305954D01*
X165118065Y-89479321D01*
X165185545Y-89701773D01*
X165295127Y-89906785D01*
X165442599Y-90086481D01*
X165622294Y-90233953D01*
X165827306Y-90343535D01*
X166049758Y-90411015D01*
X166281100Y-90433800D01*
X166512441Y-90411015D01*
X166734893Y-90343535D01*
X166939905Y-90233953D01*
X166970555Y-90208799D01*
X166231356Y-90948000D01*
X153098645Y-90948000D01*
X152927000Y-90776355D01*
X152927000Y-90758397D01*
X152899062Y-90617942D01*
X152844259Y-90485636D01*
X152769413Y-90373620D01*
X152915506Y-90472709D01*
X153167228Y-90579027D01*
X153239426Y-90593383D01*
X153454100Y-90470762D01*
X153454100Y-88620600D01*
X153434100Y-88620600D01*
X153434100Y-88366600D01*
X153454100Y-88366600D01*
X153454100Y-86516438D01*
X153708100Y-86516438D01*
X153708100Y-88366600D01*
X153728100Y-88366600D01*
X153728100Y-88620600D01*
X153708100Y-88620600D01*
X153708100Y-90470762D01*
X153922774Y-90593383D01*
X153994972Y-90579027D01*
X154246694Y-90472709D01*
X154472838Y-90319325D01*
X154664713Y-90124770D01*
X154814945Y-89896520D01*
X154917761Y-89643347D01*
X154955059Y-89448797D01*
X154958065Y-89479321D01*
X155025545Y-89701773D01*
X155135127Y-89906785D01*
X155282599Y-90086481D01*
X155462294Y-90233953D01*
X155667306Y-90343535D01*
X155889758Y-90411015D01*
X156121100Y-90433800D01*
X156352441Y-90411015D01*
X156574893Y-90343535D01*
X156779905Y-90233953D01*
X156959601Y-90086481D01*
X157107073Y-89906786D01*
X157216655Y-89701774D01*
X157284135Y-89479322D01*
X157301210Y-89305955D01*
X157301210Y-87681245D01*
X157480990Y-87681245D01*
X157480990Y-89305954D01*
X157498065Y-89479321D01*
X157565545Y-89701773D01*
X157675127Y-89906785D01*
X157822599Y-90086481D01*
X158002294Y-90233953D01*
X158207306Y-90343535D01*
X158429758Y-90411015D01*
X158661100Y-90433800D01*
X158892441Y-90411015D01*
X159114893Y-90343535D01*
X159319905Y-90233953D01*
X159499601Y-90086481D01*
X159647073Y-89906786D01*
X159756655Y-89701774D01*
X159824135Y-89479322D01*
X159841210Y-89305955D01*
X159841210Y-87681245D01*
X160020990Y-87681245D01*
X160020990Y-89305954D01*
X160038065Y-89479321D01*
X160105545Y-89701773D01*
X160215127Y-89906785D01*
X160362599Y-90086481D01*
X160542294Y-90233953D01*
X160747306Y-90343535D01*
X160969758Y-90411015D01*
X161201100Y-90433800D01*
X161432441Y-90411015D01*
X161654893Y-90343535D01*
X161859905Y-90233953D01*
X162039601Y-90086481D01*
X162187073Y-89906786D01*
X162296655Y-89701774D01*
X162364135Y-89479322D01*
X162381210Y-89305955D01*
X162381210Y-87681245D01*
X162364135Y-87507878D01*
X162296655Y-87285426D01*
X162187073Y-87080414D01*
X162039601Y-86900719D01*
X161859906Y-86753247D01*
X161654894Y-86643665D01*
X161432442Y-86576185D01*
X161201100Y-86553400D01*
X160969759Y-86576185D01*
X160747307Y-86643665D01*
X160542295Y-86753247D01*
X160362600Y-86900719D01*
X160215128Y-87080414D01*
X160105546Y-87285426D01*
X160038065Y-87507878D01*
X160020990Y-87681245D01*
X159841210Y-87681245D01*
X159824135Y-87507878D01*
X159756655Y-87285426D01*
X159647073Y-87080414D01*
X159499601Y-86900719D01*
X159319906Y-86753247D01*
X159114894Y-86643665D01*
X158892442Y-86576185D01*
X158661100Y-86553400D01*
X158429759Y-86576185D01*
X158207307Y-86643665D01*
X158002295Y-86753247D01*
X157822600Y-86900719D01*
X157675128Y-87080414D01*
X157565546Y-87285426D01*
X157498065Y-87507878D01*
X157480990Y-87681245D01*
X157301210Y-87681245D01*
X157284135Y-87507878D01*
X157216655Y-87285426D01*
X157107073Y-87080414D01*
X156959601Y-86900719D01*
X156779906Y-86753247D01*
X156574894Y-86643665D01*
X156352442Y-86576185D01*
X156121100Y-86553400D01*
X155889759Y-86576185D01*
X155667307Y-86643665D01*
X155462295Y-86753247D01*
X155282600Y-86900719D01*
X155135128Y-87080414D01*
X155025546Y-87285426D01*
X154958065Y-87507878D01*
X154955059Y-87538403D01*
X154917761Y-87343853D01*
X154814945Y-87090680D01*
X154664713Y-86862430D01*
X154472838Y-86667875D01*
X154246694Y-86514491D01*
X153994972Y-86408173D01*
X153922774Y-86393817D01*
X153708100Y-86516438D01*
X153454100Y-86516438D01*
X153239426Y-86393817D01*
X153167228Y-86408173D01*
X152915506Y-86514491D01*
X152689362Y-86667875D01*
X152497487Y-86862430D01*
X152347255Y-87090680D01*
X152244439Y-87343853D01*
X152207141Y-87538403D01*
X152204135Y-87507878D01*
X152136655Y-87285426D01*
X152027073Y-87080414D01*
X151879601Y-86900719D01*
X151699906Y-86753247D01*
X151494894Y-86643665D01*
X151272442Y-86576185D01*
X151041100Y-86553400D01*
X150809759Y-86576185D01*
X150587307Y-86643665D01*
X150382295Y-86753247D01*
X150202600Y-86900719D01*
X150055128Y-87080414D01*
X149945546Y-87285426D01*
X149878065Y-87507878D01*
X149860990Y-87681245D01*
X149860990Y-89305954D01*
X149878065Y-89479321D01*
X149945545Y-89701773D01*
X150055127Y-89906785D01*
X150202599Y-90086481D01*
X150382294Y-90233953D01*
X150587306Y-90343535D01*
X150809758Y-90411015D01*
X151041100Y-90433800D01*
X151272441Y-90411015D01*
X151494893Y-90343535D01*
X151699905Y-90233953D01*
X151879601Y-90086481D01*
X152027073Y-89906786D01*
X152136655Y-89701774D01*
X152204135Y-89479322D01*
X152207141Y-89448797D01*
X152244439Y-89643347D01*
X152347255Y-89896520D01*
X152497487Y-90124770D01*
X152583229Y-90211710D01*
X152544364Y-90185741D01*
X152412058Y-90130938D01*
X152271603Y-90103000D01*
X152128397Y-90103000D01*
X151987942Y-90130938D01*
X151855636Y-90185741D01*
X151736564Y-90265302D01*
X151635302Y-90366564D01*
X151555741Y-90485636D01*
X151500938Y-90617942D01*
X151473000Y-90758397D01*
X151473000Y-90901603D01*
X151500938Y-91042058D01*
X151555741Y-91174364D01*
X151635302Y-91293436D01*
X151736564Y-91394698D01*
X151855636Y-91474259D01*
X151987942Y-91529062D01*
X152128397Y-91557000D01*
X152146355Y-91557000D01*
X152460508Y-91871154D01*
X152477789Y-91892211D01*
X152561842Y-91961191D01*
X152657737Y-92012448D01*
X152761789Y-92044012D01*
X152842891Y-92052000D01*
X152842893Y-92052000D01*
X152869999Y-92054670D01*
X152897105Y-92052000D01*
X166432894Y-92052000D01*
X166460000Y-92054670D01*
X166487106Y-92052000D01*
X166487109Y-92052000D01*
X166568211Y-92044012D01*
X166672263Y-92012448D01*
X166768158Y-91961191D01*
X166852211Y-91892211D01*
X166869500Y-91871144D01*
X167921154Y-90819492D01*
X167942211Y-90802211D01*
X167983548Y-90751842D01*
X168011191Y-90718158D01*
X168062448Y-90622263D01*
X168094012Y-90518211D01*
X168104670Y-90410000D01*
X168102000Y-90382892D01*
X168102000Y-90184471D01*
X168162294Y-90233953D01*
X168367306Y-90343535D01*
X168589758Y-90411015D01*
X168821100Y-90433800D01*
X169052441Y-90411015D01*
X169274893Y-90343535D01*
X169479905Y-90233953D01*
X169659601Y-90086481D01*
X169807073Y-89906786D01*
X169916655Y-89701774D01*
X169984135Y-89479322D01*
X170001210Y-89305955D01*
X170001210Y-87681245D01*
X170180990Y-87681245D01*
X170180990Y-89305954D01*
X170198065Y-89479321D01*
X170265545Y-89701773D01*
X170375127Y-89906785D01*
X170522599Y-90086481D01*
X170702294Y-90233953D01*
X170907306Y-90343535D01*
X171129758Y-90411015D01*
X171361100Y-90433800D01*
X171592441Y-90411015D01*
X171814893Y-90343535D01*
X172019905Y-90233953D01*
X172199601Y-90086481D01*
X172347073Y-89906786D01*
X172456655Y-89701774D01*
X172524135Y-89479322D01*
X172541210Y-89305955D01*
X172541210Y-87681245D01*
X172720990Y-87681245D01*
X172720990Y-89305954D01*
X172738065Y-89479321D01*
X172805545Y-89701773D01*
X172915127Y-89906785D01*
X173062599Y-90086481D01*
X173242294Y-90233953D01*
X173447306Y-90343535D01*
X173669758Y-90411015D01*
X173901100Y-90433800D01*
X174132441Y-90411015D01*
X174354893Y-90343535D01*
X174559905Y-90233953D01*
X174739601Y-90086481D01*
X174887073Y-89906786D01*
X174996655Y-89701774D01*
X175064135Y-89479322D01*
X175081210Y-89305955D01*
X175081210Y-87681245D01*
X175260990Y-87681245D01*
X175260990Y-89305954D01*
X175278065Y-89479321D01*
X175345545Y-89701773D01*
X175455127Y-89906785D01*
X175602599Y-90086481D01*
X175782294Y-90233953D01*
X175987306Y-90343535D01*
X176209758Y-90411015D01*
X176441100Y-90433800D01*
X176672441Y-90411015D01*
X176894893Y-90343535D01*
X177099905Y-90233953D01*
X177279601Y-90086481D01*
X177427073Y-89906786D01*
X177536655Y-89701774D01*
X177604135Y-89479322D01*
X177621210Y-89305955D01*
X177621210Y-87681245D01*
X177604135Y-87507878D01*
X177536655Y-87285426D01*
X177427073Y-87080414D01*
X177279601Y-86900719D01*
X177099906Y-86753247D01*
X176894894Y-86643665D01*
X176672442Y-86576185D01*
X176441100Y-86553400D01*
X176209759Y-86576185D01*
X175987307Y-86643665D01*
X175782295Y-86753247D01*
X175602600Y-86900719D01*
X175455128Y-87080414D01*
X175345546Y-87285426D01*
X175278065Y-87507878D01*
X175260990Y-87681245D01*
X175081210Y-87681245D01*
X175064135Y-87507878D01*
X174996655Y-87285426D01*
X174887073Y-87080414D01*
X174739601Y-86900719D01*
X174559906Y-86753247D01*
X174354894Y-86643665D01*
X174132442Y-86576185D01*
X173901100Y-86553400D01*
X173669759Y-86576185D01*
X173447307Y-86643665D01*
X173242295Y-86753247D01*
X173062600Y-86900719D01*
X172915128Y-87080414D01*
X172805546Y-87285426D01*
X172738065Y-87507878D01*
X172720990Y-87681245D01*
X172541210Y-87681245D01*
X172524135Y-87507878D01*
X172456655Y-87285426D01*
X172347073Y-87080414D01*
X172199601Y-86900719D01*
X172019906Y-86753247D01*
X171814894Y-86643665D01*
X171592442Y-86576185D01*
X171361100Y-86553400D01*
X171129759Y-86576185D01*
X170907307Y-86643665D01*
X170702295Y-86753247D01*
X170522600Y-86900719D01*
X170375128Y-87080414D01*
X170265546Y-87285426D01*
X170198065Y-87507878D01*
X170180990Y-87681245D01*
X170001210Y-87681245D01*
X169984135Y-87507878D01*
X169916655Y-87285426D01*
X169807073Y-87080414D01*
X169659601Y-86900719D01*
X169479906Y-86753247D01*
X169274894Y-86643665D01*
X169052442Y-86576185D01*
X168821100Y-86553400D01*
X168589759Y-86576185D01*
X168567798Y-86582847D01*
X169856047Y-85294599D01*
X177942379Y-85294599D01*
X177836564Y-85365302D01*
%TA.AperFunction,Conductor*%
D20*
G36*
X177836564Y-85365302D02*
G01*
X177735302Y-85466564D01*
X177655741Y-85585636D01*
X177600938Y-85717942D01*
X177573000Y-85858397D01*
X177573000Y-86001603D01*
X177600938Y-86142058D01*
X177655741Y-86274364D01*
X177735302Y-86393436D01*
X177836564Y-86494698D01*
X177955636Y-86574259D01*
X178087942Y-86629062D01*
X178125985Y-86636629D01*
X181840508Y-90351154D01*
X181857789Y-90372211D01*
X181878845Y-90389491D01*
X181878846Y-90389492D01*
X181941842Y-90441191D01*
X182037737Y-90492448D01*
X182141789Y-90524012D01*
X182250000Y-90534670D01*
X182277108Y-90532000D01*
X185840551Y-90532000D01*
X185852647Y-90561202D01*
X185986927Y-90762167D01*
X186157833Y-90933073D01*
X186358798Y-91067353D01*
X186582097Y-91159847D01*
X186819151Y-91207000D01*
X187060849Y-91207000D01*
X187297903Y-91159847D01*
X187521202Y-91067353D01*
X187722167Y-90933073D01*
X187893073Y-90762167D01*
X188027353Y-90561202D01*
X188119847Y-90337903D01*
X188167000Y-90100849D01*
X188167000Y-89859151D01*
X188119847Y-89622097D01*
X188027353Y-89398798D01*
X187893073Y-89197833D01*
X187722167Y-89026927D01*
X187521202Y-88892647D01*
X187297903Y-88800153D01*
X187060849Y-88753000D01*
X186819151Y-88753000D01*
X186582097Y-88800153D01*
X186358798Y-88892647D01*
X186157833Y-89026927D01*
X185986927Y-89197833D01*
X185852647Y-89398798D01*
X185840551Y-89428000D01*
X182478646Y-89428000D01*
X179690645Y-86640000D01*
X185710934Y-86640000D01*
X185710934Y-88240000D01*
X185719178Y-88323707D01*
X185743595Y-88404196D01*
X185783245Y-88478376D01*
X185836605Y-88543395D01*
X185901624Y-88596755D01*
X185975804Y-88636405D01*
X186056293Y-88660822D01*
X186140000Y-88669066D01*
X187740000Y-88669066D01*
X187823707Y-88660822D01*
X187904196Y-88636405D01*
X187978376Y-88596755D01*
X188043395Y-88543395D01*
X188096755Y-88478376D01*
X188136405Y-88404196D01*
X188160822Y-88323707D01*
X188169066Y-88240000D01*
X188169066Y-86640000D01*
X188160822Y-86556293D01*
X188136405Y-86475804D01*
X188096755Y-86401624D01*
X188043395Y-86336605D01*
X187978376Y-86283245D01*
X187904196Y-86243595D01*
X187823707Y-86219178D01*
X187740000Y-86210934D01*
X186140000Y-86210934D01*
X186056293Y-86219178D01*
X185975804Y-86243595D01*
X185901624Y-86283245D01*
X185836605Y-86336605D01*
X185783245Y-86401624D01*
X185743595Y-86475804D01*
X185719178Y-86556293D01*
X185710934Y-86640000D01*
X179690645Y-86640000D01*
X179027000Y-85976356D01*
X179027000Y-85858397D01*
X178999062Y-85717942D01*
X178944259Y-85585636D01*
X178864698Y-85466564D01*
X178763436Y-85365302D01*
X178657621Y-85294599D01*
X187643955Y-85294599D01*
X188768000Y-86418646D01*
X188768001Y-98502884D01*
X188765330Y-98530000D01*
X188775989Y-98638210D01*
X188807552Y-98742262D01*
X188837430Y-98798159D01*
X188858810Y-98838158D01*
X188927790Y-98922211D01*
X188948852Y-98939496D01*
X195248000Y-105238645D01*
X195248000Y-105499416D01*
X195209940Y-105428210D01*
X195201191Y-105411841D01*
X195149491Y-105348845D01*
X195132211Y-105327789D01*
X195111154Y-105310508D01*
X192469500Y-102668856D01*
X192452211Y-102647789D01*
X192368158Y-102578809D01*
X192272263Y-102527552D01*
X192168211Y-102495988D01*
X192087109Y-102488000D01*
X192087106Y-102488000D01*
X192060000Y-102485330D01*
X192032894Y-102488000D01*
X185606134Y-102488000D01*
X185593436Y-102475302D01*
X185474364Y-102395741D01*
X185342058Y-102340938D01*
X185201603Y-102313000D01*
X185058397Y-102313000D01*
X184917942Y-102340938D01*
X184785636Y-102395741D01*
X184666564Y-102475302D01*
X184565302Y-102576564D01*
X184485741Y-102695636D01*
X184430938Y-102827942D01*
X184403000Y-102968397D01*
X184403000Y-103111603D01*
X184430938Y-103252058D01*
X184485741Y-103384364D01*
X184565302Y-103503436D01*
X184666564Y-103604698D01*
X184785636Y-103684259D01*
X184917942Y-103739062D01*
X185058397Y-103767000D01*
X185201603Y-103767000D01*
X185342058Y-103739062D01*
X185474364Y-103684259D01*
X185593436Y-103604698D01*
X185606134Y-103592000D01*
X191831356Y-103592000D01*
X192047356Y-103808000D01*
X183971805Y-103808000D01*
X183944699Y-103805330D01*
X183917593Y-103808000D01*
X183917591Y-103808000D01*
X183836489Y-103815988D01*
X183732437Y-103847552D01*
X183636542Y-103898809D01*
X183552489Y-103967789D01*
X183535208Y-103988846D01*
X178966499Y-108557556D01*
X178841823Y-108490916D01*
X178610533Y-108420755D01*
X178370000Y-108397064D01*
X178129466Y-108420755D01*
X177898176Y-108490916D01*
X177685017Y-108604851D01*
X177628100Y-108651562D01*
X177628100Y-107570708D01*
X177630770Y-107543600D01*
X177625374Y-107488809D01*
X177620112Y-107435389D01*
X177588548Y-107331337D01*
X177537291Y-107235442D01*
X177492642Y-107181037D01*
X177485592Y-107172446D01*
X177485591Y-107172445D01*
X177468311Y-107151389D01*
X177447254Y-107134108D01*
X176993100Y-106679955D01*
X176993100Y-105531042D01*
X177099905Y-105473953D01*
X177279601Y-105326481D01*
X177427073Y-105146786D01*
X177536655Y-104941774D01*
X177604135Y-104719322D01*
X177621210Y-104545955D01*
X177621210Y-102921245D01*
X177604135Y-102747878D01*
X177536655Y-102525426D01*
X177427073Y-102320414D01*
X177279601Y-102140719D01*
X177099906Y-101993247D01*
X176894894Y-101883665D01*
X176672442Y-101816185D01*
X176441100Y-101793400D01*
X176209759Y-101816185D01*
X175987307Y-101883665D01*
X175782295Y-101993247D01*
X175602600Y-102140719D01*
X175455128Y-102320414D01*
X175345546Y-102525426D01*
X175278065Y-102747878D01*
X175260990Y-102921245D01*
X175260990Y-104545954D01*
X175278065Y-104719321D01*
X175345545Y-104941773D01*
X175455127Y-105146785D01*
X175602599Y-105326481D01*
X175782294Y-105473953D01*
X175889101Y-105531043D01*
X175889101Y-106881484D01*
X175886430Y-106908600D01*
X175897089Y-107016810D01*
X175928652Y-107120862D01*
X175979909Y-107216757D01*
X175979910Y-107216758D01*
X176048890Y-107300811D01*
X176069951Y-107318096D01*
X176524100Y-107772246D01*
X176524100Y-108612334D01*
X176514982Y-108604851D01*
X176301823Y-108490916D01*
X176070533Y-108420755D01*
X175830000Y-108397064D01*
X175589466Y-108420755D01*
X175358176Y-108490916D01*
X175202351Y-108574206D01*
X172065049Y-105436905D01*
X172199601Y-105326481D01*
X172347073Y-105146786D01*
X172456655Y-104941774D01*
X172524135Y-104719322D01*
X172541210Y-104545955D01*
X172541210Y-102921245D01*
X172720990Y-102921245D01*
X172720990Y-104545954D01*
X172738065Y-104719321D01*
X172805545Y-104941773D01*
X172915127Y-105146785D01*
X173062599Y-105326481D01*
X173242294Y-105473953D01*
X173447306Y-105583535D01*
X173669758Y-105651015D01*
X173901100Y-105673800D01*
X174132441Y-105651015D01*
X174354893Y-105583535D01*
X174559905Y-105473953D01*
X174739601Y-105326481D01*
X174887073Y-105146786D01*
X174996655Y-104941774D01*
X175064135Y-104719322D01*
X175081210Y-104545955D01*
X175081210Y-102921245D01*
X175064135Y-102747878D01*
X174996655Y-102525426D01*
X174887073Y-102320414D01*
X174739601Y-102140719D01*
X174559906Y-101993247D01*
X174354894Y-101883665D01*
X174132442Y-101816185D01*
X173901100Y-101793400D01*
X173669759Y-101816185D01*
X173447307Y-101883665D01*
X173242295Y-101993247D01*
X173062600Y-102140719D01*
X172915128Y-102320414D01*
X172805546Y-102525426D01*
X172738065Y-102747878D01*
X172720990Y-102921245D01*
X172541210Y-102921245D01*
X172524135Y-102747878D01*
X172456655Y-102525426D01*
X172347073Y-102320414D01*
X172199601Y-102140719D01*
X172019906Y-101993247D01*
X171814894Y-101883665D01*
X171592442Y-101816185D01*
X171361100Y-101793400D01*
X171129759Y-101816185D01*
X170907307Y-101883665D01*
X170702295Y-101993247D01*
X170537025Y-102128880D01*
X169620144Y-101212000D01*
X174412894Y-101212000D01*
X174440000Y-101214670D01*
X174467106Y-101212000D01*
X174467109Y-101212000D01*
X174548211Y-101204012D01*
X174652263Y-101172448D01*
X174748158Y-101121191D01*
X174832211Y-101052211D01*
X174849501Y-101031143D01*
X178717254Y-97163392D01*
X178738311Y-97146111D01*
X178771438Y-97105746D01*
X178807291Y-97062058D01*
X178858548Y-96966163D01*
X178890112Y-96862111D01*
X178900770Y-96753900D01*
X178898100Y-96726792D01*
X178898100Y-96299004D01*
X179054983Y-96215149D01*
X179241817Y-96061817D01*
X179395149Y-95874983D01*
X179509084Y-95661824D01*
X179579245Y-95430533D01*
X179597000Y-95250267D01*
X179597000Y-94329732D01*
X179579245Y-94149466D01*
X179509084Y-93918176D01*
X179395149Y-93705017D01*
X179241817Y-93518183D01*
X179054982Y-93364851D01*
X178841823Y-93250916D01*
X178610533Y-93180755D01*
X178370000Y-93157064D01*
X178129466Y-93180755D01*
X177898176Y-93250916D01*
X177685017Y-93364851D01*
X177498183Y-93518183D01*
X177344851Y-93705018D01*
X177230916Y-93918177D01*
X177160755Y-94149467D01*
X177143000Y-94329733D01*
X177143000Y-95250268D01*
X177160755Y-95430534D01*
X177230916Y-95661824D01*
X177344852Y-95874983D01*
X177498184Y-96061817D01*
X177685018Y-96215149D01*
X177794100Y-96273454D01*
X177794100Y-96525254D01*
X174211356Y-100108000D01*
X171447344Y-100108000D01*
X175272211Y-96283135D01*
X175358177Y-96329084D01*
X175589467Y-96399245D01*
X175830000Y-96422936D01*
X176070534Y-96399245D01*
X176301824Y-96329084D01*
X176514983Y-96215149D01*
X176701817Y-96061817D01*
X176855149Y-95874983D01*
X176969084Y-95661824D01*
X177039245Y-95430533D01*
X177057000Y-95250267D01*
X177057000Y-94329732D01*
X177039245Y-94149466D01*
X176969084Y-93918176D01*
X176855149Y-93705017D01*
X176701817Y-93518183D01*
X176514982Y-93364851D01*
X176301823Y-93250916D01*
X176070533Y-93180755D01*
X175830000Y-93157064D01*
X175589466Y-93180755D01*
X175358176Y-93250916D01*
X175145017Y-93364851D01*
X174958183Y-93518183D01*
X174804851Y-93705018D01*
X174690916Y-93918177D01*
X174620755Y-94149467D01*
X174603000Y-94329733D01*
X174603000Y-95250268D01*
X174615623Y-95378431D01*
X174471257Y-95522797D01*
X174499245Y-95430533D01*
X174517000Y-95250267D01*
X174517000Y-94329732D01*
X174499245Y-94149466D01*
X174429084Y-93918176D01*
X174315149Y-93705017D01*
X174161817Y-93518183D01*
X173974982Y-93364851D01*
X173761823Y-93250916D01*
X173530533Y-93180755D01*
X173290000Y-93157064D01*
X173049466Y-93180755D01*
X172818176Y-93250916D01*
X172605017Y-93364851D01*
X172418183Y-93518183D01*
X172264851Y-93705018D01*
X172150916Y-93918177D01*
X172080755Y-94149467D01*
X172063000Y-94329733D01*
X172063000Y-95250268D01*
X172075623Y-95378431D01*
X171931257Y-95522797D01*
X171959245Y-95430533D01*
X171977000Y-95250267D01*
X171977000Y-94329732D01*
X171959245Y-94149466D01*
X171889084Y-93918176D01*
X171775149Y-93705017D01*
X171621817Y-93518183D01*
X171434982Y-93364851D01*
X171221823Y-93250916D01*
X170990533Y-93180755D01*
X170750000Y-93157064D01*
X170509466Y-93180755D01*
X170278176Y-93250916D01*
X170065017Y-93364851D01*
X169878183Y-93518183D01*
X169724851Y-93705018D01*
X169610916Y-93918177D01*
X169540755Y-94149467D01*
X169523000Y-94329733D01*
X169523000Y-95250268D01*
X169535623Y-95378431D01*
X169391257Y-95522797D01*
X169419245Y-95430533D01*
X169437000Y-95250267D01*
X169437000Y-94329732D01*
X169419245Y-94149466D01*
X169349084Y-93918176D01*
X169235149Y-93705017D01*
X169081817Y-93518183D01*
X168894982Y-93364851D01*
X168681823Y-93250916D01*
X168450533Y-93180755D01*
X168210000Y-93157064D01*
X167969466Y-93180755D01*
X167738176Y-93250916D01*
X167525017Y-93364851D01*
X167338183Y-93518183D01*
X167184851Y-93705018D01*
X167070916Y-93918177D01*
X167000755Y-94149467D01*
X166983000Y-94329733D01*
X166983000Y-95250268D01*
X166995623Y-95378431D01*
X166851257Y-95522797D01*
X166879245Y-95430533D01*
X166897000Y-95250267D01*
X166897000Y-94329732D01*
X166879245Y-94149466D01*
X166809084Y-93918176D01*
X166695149Y-93705017D01*
X166541817Y-93518183D01*
X166354982Y-93364851D01*
X166141823Y-93250916D01*
X165910533Y-93180755D01*
X165670000Y-93157064D01*
X165429466Y-93180755D01*
X165198176Y-93250916D01*
X164985017Y-93364851D01*
X164798183Y-93518183D01*
X164644851Y-93705018D01*
X164530916Y-93918177D01*
X164460755Y-94149467D01*
X164443000Y-94329733D01*
X164443000Y-95250268D01*
X164455623Y-95378431D01*
X164311257Y-95522798D01*
X164339245Y-95430533D01*
X164357000Y-95250267D01*
X164357000Y-94329732D01*
X164339245Y-94149466D01*
X164269084Y-93918176D01*
X164155149Y-93705017D01*
X164001817Y-93518183D01*
X163814982Y-93364851D01*
X163601823Y-93250916D01*
X163370533Y-93180755D01*
X163130000Y-93157064D01*
X162889466Y-93180755D01*
X162658176Y-93250916D01*
X162445017Y-93364851D01*
X162258183Y-93518183D01*
X162104851Y-93705018D01*
X161990916Y-93918177D01*
X161920755Y-94149467D01*
X161903000Y-94329733D01*
X161903000Y-95250268D01*
X161915623Y-95378432D01*
X161771257Y-95522799D01*
X161799245Y-95430533D01*
X161817000Y-95250267D01*
X161817000Y-94329732D01*
X161799245Y-94149466D01*
X161729084Y-93918176D01*
X161615149Y-93705017D01*
X161461817Y-93518183D01*
X161274982Y-93364851D01*
X161061823Y-93250916D01*
X160830533Y-93180755D01*
X160590000Y-93157064D01*
X160349466Y-93180755D01*
X160118176Y-93250916D01*
X159905017Y-93364851D01*
X159718183Y-93518183D01*
X159564851Y-93705018D01*
X159450916Y-93918177D01*
X159380755Y-94149467D01*
X159363000Y-94329733D01*
X159363000Y-95250268D01*
X159380755Y-95430534D01*
X159450916Y-95661824D01*
X159564852Y-95874983D01*
X159718184Y-96061817D01*
X159905018Y-96215149D01*
X160014101Y-96273454D01*
X160014101Y-96489954D01*
X159426056Y-97078000D01*
X158445238Y-97078000D01*
X158487291Y-97026758D01*
X158538548Y-96930863D01*
X158570112Y-96826811D01*
X158578100Y-96745709D01*
X158578100Y-96745699D01*
X158580769Y-96718601D01*
X158578100Y-96691503D01*
X158578100Y-96299004D01*
X158734983Y-96215149D01*
X158921817Y-96061817D01*
X159075149Y-95874983D01*
X159189084Y-95661824D01*
X159259245Y-95430533D01*
X159277000Y-95250267D01*
X159277000Y-94329732D01*
X159259245Y-94149466D01*
X159189084Y-93918176D01*
X159075149Y-93705017D01*
X158921817Y-93518183D01*
X158734982Y-93364851D01*
X158521823Y-93250916D01*
X158290533Y-93180755D01*
X158050000Y-93157064D01*
X157809466Y-93180755D01*
X157578176Y-93250916D01*
X157365017Y-93364851D01*
X157178183Y-93518183D01*
X157024851Y-93705018D01*
X156910916Y-93918177D01*
X156891423Y-93982438D01*
X156787166Y-93723517D01*
X156632601Y-93487161D01*
X156434895Y-93285500D01*
X156201646Y-93126285D01*
X155941818Y-93015633D01*
X155859039Y-92998096D01*
X155637000Y-93120085D01*
X155637000Y-94663000D01*
X155657000Y-94663000D01*
X155657000Y-94917000D01*
X155637000Y-94917000D01*
X155637000Y-96459915D01*
X155859039Y-96581904D01*
X155941818Y-96564367D01*
X156201646Y-96453715D01*
X156434895Y-96294500D01*
X156632601Y-96092839D01*
X156787166Y-95856483D01*
X156891422Y-95597562D01*
X156910916Y-95661824D01*
X157024852Y-95874983D01*
X157178184Y-96061817D01*
X157365018Y-96215149D01*
X157474100Y-96273454D01*
X157474100Y-96489955D01*
X157303644Y-96660411D01*
X149494934Y-96660411D01*
X149872211Y-96283134D01*
X149958177Y-96329084D01*
X150189467Y-96399245D01*
X150430000Y-96422936D01*
X150670534Y-96399245D01*
X150901824Y-96329084D01*
X151114983Y-96215149D01*
X151301817Y-96061817D01*
X151455149Y-95874983D01*
X151569084Y-95661824D01*
X151639245Y-95430533D01*
X151657000Y-95250267D01*
X151657000Y-94460145D01*
X151743000Y-94546145D01*
X151743000Y-95250268D01*
X151760755Y-95430534D01*
X151830916Y-95661824D01*
X151944852Y-95874983D01*
X152098184Y-96061817D01*
X152285018Y-96215149D01*
X152498177Y-96329084D01*
X152729467Y-96399245D01*
X152970000Y-96422936D01*
X153210534Y-96399245D01*
X153441824Y-96329084D01*
X153654983Y-96215149D01*
X153841817Y-96061817D01*
X153995149Y-95874983D01*
X154109084Y-95661824D01*
X154128577Y-95597562D01*
X154232834Y-95856483D01*
X154387399Y-96092839D01*
X154585105Y-96294500D01*
X154818354Y-96453715D01*
X155078182Y-96564367D01*
X155160961Y-96581904D01*
X155383000Y-96459915D01*
X155383000Y-94917000D01*
X155363000Y-94917000D01*
X155363000Y-94663000D01*
X155383000Y-94663000D01*
X155383000Y-93120085D01*
X155160961Y-92998096D01*
X155078182Y-93015633D01*
X154818354Y-93126285D01*
X154585105Y-93285500D01*
X154387399Y-93487161D01*
X154232834Y-93723517D01*
X154128578Y-93982438D01*
X154109084Y-93918176D01*
X153995149Y-93705017D01*
X153841817Y-93518183D01*
X153654982Y-93364851D01*
X153441823Y-93250916D01*
X153210533Y-93180755D01*
X152970000Y-93157064D01*
X152729466Y-93180755D01*
X152498176Y-93250916D01*
X152285017Y-93364851D01*
X152196028Y-93437883D01*
X151157296Y-92399151D01*
X185713000Y-92399151D01*
X185713000Y-92640849D01*
X185760153Y-92877903D01*
X185852647Y-93101202D01*
X185986927Y-93302167D01*
X186157833Y-93473073D01*
X186358798Y-93607353D01*
X186582097Y-93699847D01*
X186819151Y-93747000D01*
X187060849Y-93747000D01*
X187297903Y-93699847D01*
X187521202Y-93607353D01*
X187722167Y-93473073D01*
X187893073Y-93302167D01*
X188027353Y-93101202D01*
X188119847Y-92877903D01*
X188167000Y-92640849D01*
X188167000Y-92399151D01*
X188119847Y-92162097D01*
X188027353Y-91938798D01*
X187893073Y-91737833D01*
X187722167Y-91566927D01*
X187521202Y-91432647D01*
X187297903Y-91340153D01*
X187060849Y-91293000D01*
X186819151Y-91293000D01*
X186582097Y-91340153D01*
X186358798Y-91432647D01*
X186157833Y-91566927D01*
X185986927Y-91737833D01*
X185852647Y-91938798D01*
X185760153Y-92162097D01*
X185713000Y-92399151D01*
X151157296Y-92399151D01*
X149050549Y-90292405D01*
X149159905Y-90233953D01*
X149339601Y-90086481D01*
X149487073Y-89906786D01*
X149596655Y-89701774D01*
X149664135Y-89479322D01*
X149681210Y-89305955D01*
X149681210Y-87681245D01*
X149664135Y-87507878D01*
X149596655Y-87285426D01*
X149487073Y-87080414D01*
X149339601Y-86900719D01*
X149159906Y-86753247D01*
X148954894Y-86643665D01*
X148732442Y-86576185D01*
X148501100Y-86553400D01*
X148269759Y-86576185D01*
X148047307Y-86643665D01*
X147842295Y-86753247D01*
X147662600Y-86900719D01*
X147515128Y-87080414D01*
X147405546Y-87285426D01*
X147338065Y-87507878D01*
X147320990Y-87681245D01*
X147320990Y-89305954D01*
X147338065Y-89479321D01*
X147405545Y-89701773D01*
X147515127Y-89906785D01*
X147532538Y-89928000D01*
X146929663Y-89928000D01*
X146947073Y-89906786D01*
X147056655Y-89701774D01*
X147124135Y-89479322D01*
X147141210Y-89305955D01*
X147141210Y-87681245D01*
X147124135Y-87507878D01*
X147056655Y-87285426D01*
X146947073Y-87080414D01*
X146799601Y-86900719D01*
X146619906Y-86753247D01*
X146414894Y-86643665D01*
X146192442Y-86576185D01*
X145961100Y-86553400D01*
X145729759Y-86576185D01*
X145507307Y-86643665D01*
X145302295Y-86753247D01*
X145122600Y-86900719D01*
X144975128Y-87080414D01*
X144865546Y-87285426D01*
X144798065Y-87507878D01*
X144780990Y-87681245D01*
X144780990Y-89305954D01*
X144798065Y-89479321D01*
X144865545Y-89701773D01*
X144975127Y-89906785D01*
X144992538Y-89928000D01*
X144389663Y-89928000D01*
X144407073Y-89906786D01*
X144516655Y-89701774D01*
X144584135Y-89479322D01*
X144601210Y-89305955D01*
X144601210Y-87681245D01*
X144584135Y-87507878D01*
X144516655Y-87285426D01*
X144407073Y-87080414D01*
X144259601Y-86900719D01*
X144079906Y-86753247D01*
X143874894Y-86643665D01*
X143652442Y-86576185D01*
X143421100Y-86553400D01*
X143189759Y-86576185D01*
X142967307Y-86643665D01*
X142762295Y-86753247D01*
X142582600Y-86900719D01*
X142485717Y-87018771D01*
X141508945Y-86042000D01*
X163683856Y-86042000D01*
X164389586Y-86747731D01*
X164194894Y-86643665D01*
X163972442Y-86576185D01*
X163741100Y-86553400D01*
X163509759Y-86576185D01*
X163287307Y-86643665D01*
X163082295Y-86753247D01*
X162902600Y-86900719D01*
X162755128Y-87080414D01*
X162645546Y-87285426D01*
X162578065Y-87507878D01*
X162560990Y-87681245D01*
X162560990Y-89305954D01*
X162578065Y-89479321D01*
X162645545Y-89701773D01*
X162755127Y-89906785D01*
X162902599Y-90086481D01*
X163082294Y-90233953D01*
X163287306Y-90343535D01*
X163509758Y-90411015D01*
X163741100Y-90433800D01*
X163972441Y-90411015D01*
X164194893Y-90343535D01*
X164399905Y-90233953D01*
X164579601Y-90086481D01*
X164727073Y-89906786D01*
X164836655Y-89701774D01*
X164904135Y-89479322D01*
X164921210Y-89305955D01*
X164921210Y-87681245D01*
X164904135Y-87507878D01*
X164836655Y-87285426D01*
X164732589Y-87090734D01*
X165125436Y-87483581D01*
X165118065Y-87507878D01*
X165100990Y-87681245D01*
X165100990Y-89305954D01*
X165118065Y-89479321D01*
X165185545Y-89701773D01*
X165295127Y-89906785D01*
X165442599Y-90086481D01*
X165622294Y-90233953D01*
X165827306Y-90343535D01*
X166049758Y-90411015D01*
X166281100Y-90433800D01*
X166512441Y-90411015D01*
X166734893Y-90343535D01*
X166939905Y-90233953D01*
X166970555Y-90208799D01*
X166231356Y-90948000D01*
X153098645Y-90948000D01*
X152927000Y-90776355D01*
X152927000Y-90758397D01*
X152899062Y-90617942D01*
X152844259Y-90485636D01*
X152769413Y-90373620D01*
X152915506Y-90472709D01*
X153167228Y-90579027D01*
X153239426Y-90593383D01*
X153454100Y-90470762D01*
X153454100Y-88620600D01*
X153434100Y-88620600D01*
X153434100Y-88366600D01*
X153454100Y-88366600D01*
X153454100Y-86516438D01*
X153708100Y-86516438D01*
X153708100Y-88366600D01*
X153728100Y-88366600D01*
X153728100Y-88620600D01*
X153708100Y-88620600D01*
X153708100Y-90470762D01*
X153922774Y-90593383D01*
X153994972Y-90579027D01*
X154246694Y-90472709D01*
X154472838Y-90319325D01*
X154664713Y-90124770D01*
X154814945Y-89896520D01*
X154917761Y-89643347D01*
X154955059Y-89448797D01*
X154958065Y-89479321D01*
X155025545Y-89701773D01*
X155135127Y-89906785D01*
X155282599Y-90086481D01*
X155462294Y-90233953D01*
X155667306Y-90343535D01*
X155889758Y-90411015D01*
X156121100Y-90433800D01*
X156352441Y-90411015D01*
X156574893Y-90343535D01*
X156779905Y-90233953D01*
X156959601Y-90086481D01*
X157107073Y-89906786D01*
X157216655Y-89701774D01*
X157284135Y-89479322D01*
X157301210Y-89305955D01*
X157301210Y-87681245D01*
X157480990Y-87681245D01*
X157480990Y-89305954D01*
X157498065Y-89479321D01*
X157565545Y-89701773D01*
X157675127Y-89906785D01*
X157822599Y-90086481D01*
X158002294Y-90233953D01*
X158207306Y-90343535D01*
X158429758Y-90411015D01*
X158661100Y-90433800D01*
X158892441Y-90411015D01*
X159114893Y-90343535D01*
X159319905Y-90233953D01*
X159499601Y-90086481D01*
X159647073Y-89906786D01*
X159756655Y-89701774D01*
X159824135Y-89479322D01*
X159841210Y-89305955D01*
X159841210Y-87681245D01*
X160020990Y-87681245D01*
X160020990Y-89305954D01*
X160038065Y-89479321D01*
X160105545Y-89701773D01*
X160215127Y-89906785D01*
X160362599Y-90086481D01*
X160542294Y-90233953D01*
X160747306Y-90343535D01*
X160969758Y-90411015D01*
X161201100Y-90433800D01*
X161432441Y-90411015D01*
X161654893Y-90343535D01*
X161859905Y-90233953D01*
X162039601Y-90086481D01*
X162187073Y-89906786D01*
X162296655Y-89701774D01*
X162364135Y-89479322D01*
X162381210Y-89305955D01*
X162381210Y-87681245D01*
X162364135Y-87507878D01*
X162296655Y-87285426D01*
X162187073Y-87080414D01*
X162039601Y-86900719D01*
X161859906Y-86753247D01*
X161654894Y-86643665D01*
X161432442Y-86576185D01*
X161201100Y-86553400D01*
X160969759Y-86576185D01*
X160747307Y-86643665D01*
X160542295Y-86753247D01*
X160362600Y-86900719D01*
X160215128Y-87080414D01*
X160105546Y-87285426D01*
X160038065Y-87507878D01*
X160020990Y-87681245D01*
X159841210Y-87681245D01*
X159824135Y-87507878D01*
X159756655Y-87285426D01*
X159647073Y-87080414D01*
X159499601Y-86900719D01*
X159319906Y-86753247D01*
X159114894Y-86643665D01*
X158892442Y-86576185D01*
X158661100Y-86553400D01*
X158429759Y-86576185D01*
X158207307Y-86643665D01*
X158002295Y-86753247D01*
X157822600Y-86900719D01*
X157675128Y-87080414D01*
X157565546Y-87285426D01*
X157498065Y-87507878D01*
X157480990Y-87681245D01*
X157301210Y-87681245D01*
X157284135Y-87507878D01*
X157216655Y-87285426D01*
X157107073Y-87080414D01*
X156959601Y-86900719D01*
X156779906Y-86753247D01*
X156574894Y-86643665D01*
X156352442Y-86576185D01*
X156121100Y-86553400D01*
X155889759Y-86576185D01*
X155667307Y-86643665D01*
X155462295Y-86753247D01*
X155282600Y-86900719D01*
X155135128Y-87080414D01*
X155025546Y-87285426D01*
X154958065Y-87507878D01*
X154955059Y-87538403D01*
X154917761Y-87343853D01*
X154814945Y-87090680D01*
X154664713Y-86862430D01*
X154472838Y-86667875D01*
X154246694Y-86514491D01*
X153994972Y-86408173D01*
X153922774Y-86393817D01*
X153708100Y-86516438D01*
X153454100Y-86516438D01*
X153239426Y-86393817D01*
X153167228Y-86408173D01*
X152915506Y-86514491D01*
X152689362Y-86667875D01*
X152497487Y-86862430D01*
X152347255Y-87090680D01*
X152244439Y-87343853D01*
X152207141Y-87538403D01*
X152204135Y-87507878D01*
X152136655Y-87285426D01*
X152027073Y-87080414D01*
X151879601Y-86900719D01*
X151699906Y-86753247D01*
X151494894Y-86643665D01*
X151272442Y-86576185D01*
X151041100Y-86553400D01*
X150809759Y-86576185D01*
X150587307Y-86643665D01*
X150382295Y-86753247D01*
X150202600Y-86900719D01*
X150055128Y-87080414D01*
X149945546Y-87285426D01*
X149878065Y-87507878D01*
X149860990Y-87681245D01*
X149860990Y-89305954D01*
X149878065Y-89479321D01*
X149945545Y-89701773D01*
X150055127Y-89906785D01*
X150202599Y-90086481D01*
X150382294Y-90233953D01*
X150587306Y-90343535D01*
X150809758Y-90411015D01*
X151041100Y-90433800D01*
X151272441Y-90411015D01*
X151494893Y-90343535D01*
X151699905Y-90233953D01*
X151879601Y-90086481D01*
X152027073Y-89906786D01*
X152136655Y-89701774D01*
X152204135Y-89479322D01*
X152207141Y-89448797D01*
X152244439Y-89643347D01*
X152347255Y-89896520D01*
X152497487Y-90124770D01*
X152583229Y-90211710D01*
X152544364Y-90185741D01*
X152412058Y-90130938D01*
X152271603Y-90103000D01*
X152128397Y-90103000D01*
X151987942Y-90130938D01*
X151855636Y-90185741D01*
X151736564Y-90265302D01*
X151635302Y-90366564D01*
X151555741Y-90485636D01*
X151500938Y-90617942D01*
X151473000Y-90758397D01*
X151473000Y-90901603D01*
X151500938Y-91042058D01*
X151555741Y-91174364D01*
X151635302Y-91293436D01*
X151736564Y-91394698D01*
X151855636Y-91474259D01*
X151987942Y-91529062D01*
X152128397Y-91557000D01*
X152146355Y-91557000D01*
X152460508Y-91871154D01*
X152477789Y-91892211D01*
X152561842Y-91961191D01*
X152657737Y-92012448D01*
X152761789Y-92044012D01*
X152842891Y-92052000D01*
X152842893Y-92052000D01*
X152869999Y-92054670D01*
X152897105Y-92052000D01*
X166432894Y-92052000D01*
X166460000Y-92054670D01*
X166487106Y-92052000D01*
X166487109Y-92052000D01*
X166568211Y-92044012D01*
X166672263Y-92012448D01*
X166768158Y-91961191D01*
X166852211Y-91892211D01*
X166869500Y-91871144D01*
X167921154Y-90819492D01*
X167942211Y-90802211D01*
X167983548Y-90751842D01*
X168011191Y-90718158D01*
X168062448Y-90622263D01*
X168094012Y-90518211D01*
X168104670Y-90410000D01*
X168102000Y-90382892D01*
X168102000Y-90184471D01*
X168162294Y-90233953D01*
X168367306Y-90343535D01*
X168589758Y-90411015D01*
X168821100Y-90433800D01*
X169052441Y-90411015D01*
X169274893Y-90343535D01*
X169479905Y-90233953D01*
X169659601Y-90086481D01*
X169807073Y-89906786D01*
X169916655Y-89701774D01*
X169984135Y-89479322D01*
X170001210Y-89305955D01*
X170001210Y-87681245D01*
X170180990Y-87681245D01*
X170180990Y-89305954D01*
X170198065Y-89479321D01*
X170265545Y-89701773D01*
X170375127Y-89906785D01*
X170522599Y-90086481D01*
X170702294Y-90233953D01*
X170907306Y-90343535D01*
X171129758Y-90411015D01*
X171361100Y-90433800D01*
X171592441Y-90411015D01*
X171814893Y-90343535D01*
X172019905Y-90233953D01*
X172199601Y-90086481D01*
X172347073Y-89906786D01*
X172456655Y-89701774D01*
X172524135Y-89479322D01*
X172541210Y-89305955D01*
X172541210Y-87681245D01*
X172720990Y-87681245D01*
X172720990Y-89305954D01*
X172738065Y-89479321D01*
X172805545Y-89701773D01*
X172915127Y-89906785D01*
X173062599Y-90086481D01*
X173242294Y-90233953D01*
X173447306Y-90343535D01*
X173669758Y-90411015D01*
X173901100Y-90433800D01*
X174132441Y-90411015D01*
X174354893Y-90343535D01*
X174559905Y-90233953D01*
X174739601Y-90086481D01*
X174887073Y-89906786D01*
X174996655Y-89701774D01*
X175064135Y-89479322D01*
X175081210Y-89305955D01*
X175081210Y-87681245D01*
X175260990Y-87681245D01*
X175260990Y-89305954D01*
X175278065Y-89479321D01*
X175345545Y-89701773D01*
X175455127Y-89906785D01*
X175602599Y-90086481D01*
X175782294Y-90233953D01*
X175987306Y-90343535D01*
X176209758Y-90411015D01*
X176441100Y-90433800D01*
X176672441Y-90411015D01*
X176894893Y-90343535D01*
X177099905Y-90233953D01*
X177279601Y-90086481D01*
X177427073Y-89906786D01*
X177536655Y-89701774D01*
X177604135Y-89479322D01*
X177621210Y-89305955D01*
X177621210Y-87681245D01*
X177604135Y-87507878D01*
X177536655Y-87285426D01*
X177427073Y-87080414D01*
X177279601Y-86900719D01*
X177099906Y-86753247D01*
X176894894Y-86643665D01*
X176672442Y-86576185D01*
X176441100Y-86553400D01*
X176209759Y-86576185D01*
X175987307Y-86643665D01*
X175782295Y-86753247D01*
X175602600Y-86900719D01*
X175455128Y-87080414D01*
X175345546Y-87285426D01*
X175278065Y-87507878D01*
X175260990Y-87681245D01*
X175081210Y-87681245D01*
X175064135Y-87507878D01*
X174996655Y-87285426D01*
X174887073Y-87080414D01*
X174739601Y-86900719D01*
X174559906Y-86753247D01*
X174354894Y-86643665D01*
X174132442Y-86576185D01*
X173901100Y-86553400D01*
X173669759Y-86576185D01*
X173447307Y-86643665D01*
X173242295Y-86753247D01*
X173062600Y-86900719D01*
X172915128Y-87080414D01*
X172805546Y-87285426D01*
X172738065Y-87507878D01*
X172720990Y-87681245D01*
X172541210Y-87681245D01*
X172524135Y-87507878D01*
X172456655Y-87285426D01*
X172347073Y-87080414D01*
X172199601Y-86900719D01*
X172019906Y-86753247D01*
X171814894Y-86643665D01*
X171592442Y-86576185D01*
X171361100Y-86553400D01*
X171129759Y-86576185D01*
X170907307Y-86643665D01*
X170702295Y-86753247D01*
X170522600Y-86900719D01*
X170375128Y-87080414D01*
X170265546Y-87285426D01*
X170198065Y-87507878D01*
X170180990Y-87681245D01*
X170001210Y-87681245D01*
X169984135Y-87507878D01*
X169916655Y-87285426D01*
X169807073Y-87080414D01*
X169659601Y-86900719D01*
X169479906Y-86753247D01*
X169274894Y-86643665D01*
X169052442Y-86576185D01*
X168821100Y-86553400D01*
X168589759Y-86576185D01*
X168567798Y-86582847D01*
X169856047Y-85294599D01*
X177942379Y-85294599D01*
X177836564Y-85365302D01*
G37*
%TD.AperFunction*%
D19*
X157110556Y-102232799D02*
X157089489Y-102250089D01*
X157069424Y-102274539D01*
X156959601Y-102140719D01*
X156779906Y-101993247D01*
X156574894Y-101883665D01*
X156352442Y-101816185D01*
X156121100Y-101793400D01*
X155889759Y-101816185D01*
X155667307Y-101883665D01*
X155462295Y-101993247D01*
X155282600Y-102140719D01*
X155135128Y-102320414D01*
X155025546Y-102525426D01*
X154958065Y-102747878D01*
X154955059Y-102778403D01*
X154917761Y-102583853D01*
X154814945Y-102330680D01*
X154664713Y-102102430D01*
X154472838Y-101907875D01*
X154246694Y-101754491D01*
X153994972Y-101648173D01*
X153922774Y-101633817D01*
X153708100Y-101756438D01*
X153708100Y-103606600D01*
X153728100Y-103606600D01*
X153728100Y-103860600D01*
X153708100Y-103860600D01*
X153708100Y-103880600D01*
X153454100Y-103880600D01*
X153454100Y-103860600D01*
X153434100Y-103860600D01*
X153434100Y-103606600D01*
X153454100Y-103606600D01*
X153454100Y-101756438D01*
X153239426Y-101633817D01*
X153167228Y-101648173D01*
X152915506Y-101754491D01*
X152689362Y-101907875D01*
X152497487Y-102102430D01*
X152347255Y-102330680D01*
X152244439Y-102583853D01*
X152207141Y-102778403D01*
X152204135Y-102747878D01*
X152136655Y-102525426D01*
X152027073Y-102320414D01*
X151879601Y-102140719D01*
X151699906Y-101993247D01*
X151494894Y-101883665D01*
X151272442Y-101816185D01*
X151205731Y-101809615D01*
X151803346Y-101212000D01*
X158131355Y-101212000D01*
X157110556Y-102232799D01*
%TA.AperFunction,Conductor*%
D20*
G36*
X157110556Y-102232799D02*
G01*
X157089489Y-102250089D01*
X157069424Y-102274539D01*
X156959601Y-102140719D01*
X156779906Y-101993247D01*
X156574894Y-101883665D01*
X156352442Y-101816185D01*
X156121100Y-101793400D01*
X155889759Y-101816185D01*
X155667307Y-101883665D01*
X155462295Y-101993247D01*
X155282600Y-102140719D01*
X155135128Y-102320414D01*
X155025546Y-102525426D01*
X154958065Y-102747878D01*
X154955059Y-102778403D01*
X154917761Y-102583853D01*
X154814945Y-102330680D01*
X154664713Y-102102430D01*
X154472838Y-101907875D01*
X154246694Y-101754491D01*
X153994972Y-101648173D01*
X153922774Y-101633817D01*
X153708100Y-101756438D01*
X153708100Y-103606600D01*
X153728100Y-103606600D01*
X153728100Y-103860600D01*
X153708100Y-103860600D01*
X153708100Y-103880600D01*
X153454100Y-103880600D01*
X153454100Y-103860600D01*
X153434100Y-103860600D01*
X153434100Y-103606600D01*
X153454100Y-103606600D01*
X153454100Y-101756438D01*
X153239426Y-101633817D01*
X153167228Y-101648173D01*
X152915506Y-101754491D01*
X152689362Y-101907875D01*
X152497487Y-102102430D01*
X152347255Y-102330680D01*
X152244439Y-102583853D01*
X152207141Y-102778403D01*
X152204135Y-102747878D01*
X152136655Y-102525426D01*
X152027073Y-102320414D01*
X151879601Y-102140719D01*
X151699906Y-101993247D01*
X151494894Y-101883665D01*
X151272442Y-101816185D01*
X151205731Y-101809615D01*
X151803346Y-101212000D01*
X158131355Y-101212000D01*
X157110556Y-102232799D01*
G37*
%TD.AperFunction*%
%TD*%
M02*
