G04 #@! TF.GenerationSoftware,KiCad,Pcbnew,6.0.1*
G04 #@! TF.CreationDate,2022-02-11T11:10:19+01:00*
G04 #@! TF.ProjectId,27C160_Adapter,32374331-3630-45f4-9164-61707465722e,1.1SMD*
G04 #@! TF.SameCoordinates,Original*
G04 #@! TF.FileFunction,Copper,L2,Bot*
G04 #@! TF.FilePolarity,Positive*
%FSLAX46Y46*%
G04 Gerber Fmt 4.6, Leading zero omitted, Abs format (unit mm)*
G04 Created by KiCad (PCBNEW 6.0.1) date 2022-02-11 11:10:19*
%MOMM*%
%LPD*%
G01*
G04 APERTURE LIST*
G04 Aperture macros list*
%AMRoundRect*
0 Rectangle with rounded corners*
0 $1 Rounding radius*
0 $2 $3 $4 $5 $6 $7 $8 $9 X,Y pos of 4 corners*
0 Add a 4 corners polygon primitive as box body*
4,1,4,$2,$3,$4,$5,$6,$7,$8,$9,$2,$3,0*
0 Add four circle primitives for the rounded corners*
1,1,$1+$1,$2,$3*
1,1,$1+$1,$4,$5*
1,1,$1+$1,$6,$7*
1,1,$1+$1,$8,$9*
0 Add four rect primitives between the rounded corners*
20,1,$1+$1,$2,$3,$4,$5,0*
20,1,$1+$1,$4,$5,$6,$7,0*
20,1,$1+$1,$6,$7,$8,$9,0*
20,1,$1+$1,$8,$9,$2,$3,0*%
G04 Aperture macros list end*
G04 #@! TA.AperFunction,ComponentPad*
%ADD10C,1.676400*%
G04 #@! TD*
G04 #@! TA.AperFunction,ComponentPad*
%ADD11O,1.600000X2.600000*%
G04 #@! TD*
G04 #@! TA.AperFunction,ComponentPad*
%ADD12O,1.500000X3.000000*%
G04 #@! TD*
G04 #@! TA.AperFunction,ComponentPad*
%ADD13R,1.600000X1.600000*%
G04 #@! TD*
G04 #@! TA.AperFunction,ComponentPad*
%ADD14O,1.600000X1.600000*%
G04 #@! TD*
G04 #@! TA.AperFunction,SMDPad,CuDef*
%ADD15RoundRect,0.250000X0.262500X0.450000X-0.262500X0.450000X-0.262500X-0.450000X0.262500X-0.450000X0*%
G04 #@! TD*
G04 #@! TA.AperFunction,SMDPad,CuDef*
%ADD16RoundRect,0.250000X-0.262500X-0.450000X0.262500X-0.450000X0.262500X0.450000X-0.262500X0.450000X0*%
G04 #@! TD*
G04 #@! TA.AperFunction,SMDPad,CuDef*
%ADD17RoundRect,0.150000X0.587500X0.150000X-0.587500X0.150000X-0.587500X-0.150000X0.587500X-0.150000X0*%
G04 #@! TD*
G04 #@! TA.AperFunction,ViaPad*
%ADD18C,0.600000*%
G04 #@! TD*
G04 #@! TA.AperFunction,Conductor*
%ADD19C,0.250000*%
G04 #@! TD*
G04 APERTURE END LIST*
D10*
X193140000Y-110490000D03*
X190600000Y-110490000D03*
X188060000Y-110490000D03*
X193140000Y-107950000D03*
X190600000Y-107950000D03*
X188060000Y-107950000D03*
D11*
X130110000Y-110023000D03*
X132650000Y-110023000D03*
X135190000Y-110023000D03*
X137730000Y-110023000D03*
X140270000Y-110023000D03*
X142810000Y-110023000D03*
X145350000Y-110023000D03*
X147890000Y-110023000D03*
X150430000Y-110023000D03*
X152970000Y-110023000D03*
X155510000Y-110023000D03*
X158050000Y-110023000D03*
X160590000Y-110023000D03*
X163130000Y-110023000D03*
X165670000Y-110023000D03*
X168210000Y-110023000D03*
X170750000Y-110023000D03*
X173290000Y-110023000D03*
X175830000Y-110023000D03*
X178370000Y-110023000D03*
X178370000Y-95037000D03*
X175830000Y-95037000D03*
X173290000Y-95037000D03*
X170750000Y-95037000D03*
X168210000Y-95037000D03*
X165670000Y-95037000D03*
X163130000Y-95037000D03*
X160590000Y-95037000D03*
X158050000Y-95037000D03*
X155510000Y-95037000D03*
X152970000Y-95037000D03*
X150430000Y-95037000D03*
X147890000Y-95037000D03*
X145350000Y-95037000D03*
X142810000Y-95037000D03*
X140270000Y-95037000D03*
X137730000Y-95037000D03*
X135190000Y-95037000D03*
X132650000Y-95037000D03*
X130110000Y-95037000D03*
D12*
X118021100Y-103733600D03*
X120561100Y-103733600D03*
X123101100Y-103733600D03*
X125641100Y-103733600D03*
X128181100Y-103733600D03*
X130721100Y-103733600D03*
X133261100Y-103733600D03*
X135801100Y-103733600D03*
X138341100Y-103733600D03*
X140881100Y-103733600D03*
X143421100Y-103733600D03*
X145961100Y-103733600D03*
X148501100Y-103733600D03*
X151041100Y-103733600D03*
X153581100Y-103733600D03*
X156121100Y-103733600D03*
X158661100Y-103733600D03*
X161201100Y-103733600D03*
X163741100Y-103733600D03*
X166281100Y-103733600D03*
X168821100Y-103733600D03*
X171361100Y-103733600D03*
X173901100Y-103733600D03*
X176441100Y-103733600D03*
X176441100Y-88493600D03*
X173901100Y-88493600D03*
X171361100Y-88493600D03*
X168821100Y-88493600D03*
X166281100Y-88493600D03*
X163741100Y-88493600D03*
X161201100Y-88493600D03*
X158661100Y-88493600D03*
X156121100Y-88493600D03*
X153581100Y-88493600D03*
X151041100Y-88493600D03*
X148501100Y-88493600D03*
X145961100Y-88493600D03*
X143421100Y-88493600D03*
X140881100Y-88493600D03*
X138341100Y-88493600D03*
X135801100Y-88493600D03*
X133261100Y-88493600D03*
X130721100Y-88493600D03*
X128181100Y-88493600D03*
X125641100Y-88493600D03*
X123101100Y-88493600D03*
X120561100Y-88493600D03*
X118021100Y-88493600D03*
D13*
X186940000Y-87440000D03*
D14*
X186940000Y-89980000D03*
X186940000Y-92520000D03*
X194560000Y-92520000D03*
X194560000Y-89980000D03*
X194560000Y-87440000D03*
D15*
X182968900Y-85443900D03*
X181143900Y-85443900D03*
X182968900Y-87990000D03*
X181143900Y-87990000D03*
X182968900Y-90530000D03*
X181143900Y-90530000D03*
D16*
X181143900Y-93120000D03*
X182968900Y-93120000D03*
D17*
X180407500Y-98690000D03*
X180407500Y-100590000D03*
X178532500Y-99640000D03*
D16*
X181143900Y-95790000D03*
X182968900Y-95790000D03*
D18*
X110540000Y-88540000D03*
X150930000Y-91460000D03*
X110500000Y-103670000D03*
X157580000Y-92690000D03*
X129550000Y-107970000D03*
X178320000Y-91840000D03*
X166270000Y-85990000D03*
X125740000Y-94980000D03*
X183870000Y-107980000D03*
X185130000Y-103040000D03*
X185720000Y-113440000D03*
X178300000Y-85930000D03*
X152200000Y-90830000D03*
D19*
X178450000Y-98180000D02*
X175420000Y-98180000D01*
X175490000Y-85990000D02*
X166270000Y-85990000D01*
X181143900Y-95790000D02*
X180840000Y-95790000D01*
X176441100Y-88493600D02*
X178726400Y-88493600D01*
X125740000Y-94980000D02*
X130074700Y-94980000D01*
X180840000Y-95790000D02*
X178450000Y-98180000D01*
X179230000Y-87990000D02*
X181143900Y-87990000D01*
X175420000Y-98180000D02*
X174550000Y-97310000D01*
X178726400Y-88493600D02*
X179230000Y-87990000D01*
X174550000Y-92110000D02*
X176441100Y-90218900D01*
X181143900Y-85443900D02*
X181143900Y-90530000D01*
X174550000Y-97310000D02*
X174550000Y-92110000D01*
X176441100Y-88493600D02*
X176441100Y-86941100D01*
X176441100Y-90218900D02*
X176441100Y-88493600D01*
X176441100Y-86941100D02*
X175490000Y-85990000D01*
X178470000Y-99640000D02*
X178470000Y-105180000D01*
X186460000Y-103440000D02*
X183870000Y-106030000D01*
X186460000Y-95380000D02*
X186460000Y-103440000D01*
X184200000Y-93120000D02*
X186460000Y-95380000D01*
X178470000Y-105180000D02*
X181270000Y-107980000D01*
X182968900Y-93120000D02*
X184200000Y-93120000D01*
X181270000Y-107980000D02*
X183870000Y-107980000D01*
X183870000Y-106030000D02*
X183870000Y-107980000D01*
X182680000Y-100590000D02*
X185130000Y-103040000D01*
X193150000Y-110490000D02*
X190200000Y-113440000D01*
X180470000Y-100590000D02*
X182680000Y-100590000D01*
X190200000Y-113440000D02*
X185720000Y-113440000D01*
X181880000Y-98690000D02*
X182968900Y-97601100D01*
X182968900Y-97601100D02*
X182968900Y-95790000D01*
X180470000Y-98690000D02*
X181880000Y-98690000D01*
X188980000Y-88010000D02*
X188410000Y-87440000D01*
X188410000Y-87440000D02*
X186940000Y-87440000D01*
X187190000Y-110490000D02*
X185790000Y-109090000D01*
X185790000Y-105359092D02*
X188980000Y-102169092D01*
X183513900Y-85443900D02*
X185510000Y-87440000D01*
X182968900Y-85443900D02*
X183513900Y-85443900D01*
X188980000Y-102169092D02*
X188980000Y-88010000D01*
X185790000Y-109090000D02*
X185790000Y-105359092D01*
X188070000Y-110490000D02*
X187190000Y-110490000D01*
X185510000Y-87440000D02*
X186940000Y-87440000D01*
X183400000Y-87990000D02*
X185390000Y-89980000D01*
X185390000Y-89980000D02*
X186940000Y-89980000D01*
X177580000Y-85210000D02*
X178300000Y-85930000D01*
X182968900Y-87990000D02*
X183400000Y-87990000D01*
X128340000Y-85210000D02*
X177580000Y-85210000D01*
X125641100Y-88493600D02*
X125641100Y-87908900D01*
X125641100Y-87908900D02*
X128340000Y-85210000D01*
X128510000Y-108100000D02*
X128510000Y-111480000D01*
X125641100Y-105231100D02*
X128510000Y-108100000D01*
X130350000Y-113320000D02*
X183650000Y-113320000D01*
X182968900Y-90530000D02*
X183680000Y-90530000D01*
X183650000Y-113320000D02*
X184870000Y-112100000D01*
X186940000Y-103640000D02*
X184870000Y-105710000D01*
X183680000Y-90530000D02*
X185670000Y-92520000D01*
X185670000Y-92520000D02*
X186940000Y-92520000D01*
X128510000Y-111480000D02*
X130350000Y-113320000D01*
X186940000Y-92520000D02*
X186940000Y-103640000D01*
X125641100Y-103733600D02*
X125641100Y-105231100D01*
X184870000Y-105710000D02*
X184870000Y-109870000D01*
X184870000Y-112100000D02*
X184870000Y-109870000D01*
X151041100Y-89671100D02*
X152200000Y-90830000D01*
X151041100Y-88493600D02*
X151041100Y-89671100D01*
X156121100Y-88493600D02*
X153987500Y-86360000D01*
X150370000Y-86360000D02*
X149700000Y-87030000D01*
X146596100Y-96748600D02*
X144373600Y-98971100D01*
X149700000Y-90152200D02*
X146596100Y-93256100D01*
X144373600Y-98971100D02*
X142151100Y-98971100D01*
X142151100Y-98971100D02*
X139611100Y-101511100D01*
X146596100Y-93256100D02*
X146596100Y-96748600D01*
X139611100Y-101511100D02*
X139611100Y-105288900D01*
X139611100Y-105288900D02*
X135166100Y-109733900D01*
X149700000Y-87030000D02*
X149700000Y-90152200D01*
X153987500Y-86360000D02*
X150370000Y-86360000D01*
X135166100Y-109733900D02*
X135166100Y-109958600D01*
X145961100Y-101193600D02*
X146913600Y-101193600D01*
X157435100Y-86944900D02*
X158000000Y-86380000D01*
X137706100Y-109958600D02*
X137706100Y-109553900D01*
X152290000Y-92780000D02*
X154422800Y-92780000D01*
X158000000Y-86380000D02*
X160357500Y-86380000D01*
X137706100Y-109553900D02*
X139520800Y-107739200D01*
X144691100Y-105268900D02*
X144691100Y-102463600D01*
X160357500Y-86380000D02*
X161201100Y-87223600D01*
X144691100Y-102463600D02*
X145961100Y-101193600D01*
X142220800Y-107739200D02*
X144691100Y-105268900D01*
X151676100Y-96431100D02*
X151676100Y-93393900D01*
X151676100Y-93393900D02*
X152290000Y-92780000D01*
X161201100Y-87223600D02*
X161201100Y-88493600D01*
X157435100Y-89767700D02*
X157435100Y-86944900D01*
X139520800Y-107739200D02*
X142220800Y-107739200D01*
X146913600Y-101193600D02*
X151676100Y-96431100D01*
X154422800Y-92780000D02*
X157435100Y-89767700D01*
X171361100Y-88493600D02*
X171361100Y-90716100D01*
X142786100Y-111687300D02*
X142786100Y-109958600D01*
X165011100Y-102008900D02*
X165011100Y-105638600D01*
X165011100Y-105638600D02*
X164376100Y-106273600D01*
X163269700Y-112460000D02*
X143558800Y-112460000D01*
X164376100Y-111353600D02*
X163269700Y-112460000D01*
X169456100Y-97563900D02*
X165011100Y-102008900D01*
X171361100Y-90716100D02*
X169456100Y-92621100D01*
X143558800Y-112460000D02*
X142786100Y-111687300D01*
X164376100Y-106273600D02*
X164376100Y-111353600D01*
X169456100Y-92621100D02*
X169456100Y-97563900D01*
X157391100Y-107912400D02*
X158026100Y-108547400D01*
X158661100Y-90072300D02*
X159340000Y-90751200D01*
X159340000Y-90751200D02*
X159340000Y-99832600D01*
X158026100Y-109958600D02*
X158026100Y-108547400D01*
X157391100Y-101781500D02*
X157391100Y-107912400D01*
X159340000Y-99832600D02*
X157391100Y-101781500D01*
X158661100Y-88493600D02*
X158661100Y-90072300D01*
X160566100Y-108229900D02*
X159931100Y-107594900D01*
X159931100Y-99923600D02*
X161836100Y-98018600D01*
X160566100Y-109958600D02*
X160566100Y-108229900D01*
X163741100Y-89128600D02*
X163741100Y-88493600D01*
X161836100Y-98018600D02*
X161836100Y-91033600D01*
X161836100Y-91033600D02*
X163741100Y-89128600D01*
X159931100Y-107594900D02*
X159931100Y-99923600D01*
X163106100Y-109958600D02*
X163106100Y-108178600D01*
X162471100Y-107543600D02*
X162471100Y-99923600D01*
X162471100Y-99923600D02*
X164376100Y-98018600D01*
X163106100Y-108178600D02*
X162471100Y-107543600D01*
X165011100Y-92303600D02*
X168821100Y-88493600D01*
X164376100Y-98018600D02*
X164376100Y-92938600D01*
X164376100Y-92938600D02*
X165011100Y-92303600D01*
X171996100Y-91986100D02*
X173901100Y-90081100D01*
X167551100Y-101511100D02*
X171996100Y-97066100D01*
X173901100Y-90081100D02*
X173901100Y-88493600D01*
X171996100Y-97066100D02*
X171996100Y-91986100D01*
X165646100Y-109958600D02*
X165646100Y-107226100D01*
X165646100Y-107226100D02*
X167551100Y-105321100D01*
X167551100Y-105321100D02*
X167551100Y-101511100D01*
X171550000Y-112050000D02*
X170277500Y-112050000D01*
X173901100Y-103733600D02*
X172110000Y-105524700D01*
X172110000Y-105524700D02*
X172110000Y-111490000D01*
X172110000Y-111490000D02*
X171550000Y-112050000D01*
X170277500Y-112050000D02*
X169758750Y-111531250D01*
X168186100Y-109958600D02*
X169758750Y-111531250D01*
X168821100Y-108053600D02*
X170726100Y-109958600D01*
X168821100Y-103733600D02*
X168821100Y-108053600D01*
X142786100Y-90398600D02*
X142786100Y-94968600D01*
X140881100Y-88493600D02*
X142786100Y-90398600D01*
X140370000Y-86310000D02*
X139611100Y-87068900D01*
X143421100Y-88493600D02*
X143421100Y-88131100D01*
X139611100Y-92604900D02*
X140246100Y-93239900D01*
X143421100Y-88131100D02*
X141600000Y-86310000D01*
X139611100Y-87068900D02*
X139611100Y-92604900D01*
X140246100Y-93239900D02*
X140246100Y-94968600D01*
X141600000Y-86310000D02*
X140370000Y-86310000D01*
X145961100Y-88493600D02*
X145961100Y-87541100D01*
X144170000Y-85750000D02*
X138544700Y-85750000D01*
X145961100Y-87541100D02*
X144170000Y-85750000D01*
X137706100Y-91351100D02*
X137706100Y-94968600D01*
X137071100Y-90716100D02*
X137706100Y-91351100D01*
X138544700Y-85750000D02*
X137071100Y-87223600D01*
X137071100Y-87223600D02*
X137071100Y-90716100D01*
X135166100Y-95986100D02*
X136610000Y-97430000D01*
X148501100Y-88493600D02*
X143985000Y-93009700D01*
X143985000Y-95949100D02*
X143985000Y-96425000D01*
X135166100Y-94968600D02*
X135166100Y-95986100D01*
X142504100Y-97430000D02*
X137610000Y-97430000D01*
X136610000Y-97430000D02*
X137610000Y-97430000D01*
X142980000Y-97430000D02*
X142504100Y-97430000D01*
X143985000Y-93009700D02*
X143985000Y-95949100D01*
X143985000Y-96425000D02*
X142980000Y-97430000D01*
X128181100Y-103733600D02*
X132626100Y-99288600D01*
X132626100Y-99288600D02*
X132626100Y-94968600D01*
G04 #@! TA.AperFunction,Conductor*
G36*
X196952608Y-83740914D02*
G01*
X196957145Y-83741714D01*
X196968000Y-83743628D01*
X196978856Y-83741714D01*
X196989878Y-83741714D01*
X196989878Y-83742514D01*
X197002062Y-83741980D01*
X197125462Y-83752776D01*
X197147089Y-83756590D01*
X197289113Y-83794646D01*
X197309751Y-83802157D01*
X197443010Y-83864297D01*
X197462031Y-83875279D01*
X197582478Y-83959617D01*
X197599302Y-83973735D01*
X197703265Y-84077698D01*
X197717383Y-84094522D01*
X197801721Y-84214969D01*
X197812703Y-84233990D01*
X197874843Y-84367249D01*
X197882354Y-84387887D01*
X197920410Y-84529911D01*
X197924224Y-84551538D01*
X197929148Y-84607813D01*
X197935020Y-84674935D01*
X197934486Y-84687122D01*
X197935286Y-84687122D01*
X197935286Y-84698144D01*
X197933372Y-84709000D01*
X197935286Y-84719855D01*
X197936086Y-84724392D01*
X197938000Y-84746271D01*
X197938000Y-114111729D01*
X197936086Y-114133608D01*
X197933372Y-114149000D01*
X197935286Y-114159856D01*
X197935286Y-114170365D01*
X197934679Y-114182715D01*
X197923018Y-114301111D01*
X197918201Y-114325331D01*
X197877430Y-114459735D01*
X197867981Y-114482545D01*
X197801779Y-114606401D01*
X197788056Y-114626939D01*
X197698963Y-114735498D01*
X197681498Y-114752963D01*
X197572939Y-114842056D01*
X197552401Y-114855779D01*
X197428545Y-114921981D01*
X197405735Y-114931430D01*
X197271331Y-114972201D01*
X197247111Y-114977018D01*
X197128715Y-114988679D01*
X197116365Y-114989286D01*
X197105856Y-114989286D01*
X197095000Y-114987372D01*
X197084145Y-114989286D01*
X197079608Y-114990086D01*
X197057729Y-114992000D01*
X128815271Y-114992000D01*
X128793392Y-114990086D01*
X128788855Y-114989286D01*
X128778000Y-114987372D01*
X128767144Y-114989286D01*
X128756635Y-114989286D01*
X128744285Y-114988679D01*
X128625889Y-114977018D01*
X128601669Y-114972201D01*
X128467265Y-114931430D01*
X128444455Y-114921981D01*
X128320599Y-114855779D01*
X128300061Y-114842056D01*
X128191502Y-114752963D01*
X128174037Y-114735498D01*
X128084944Y-114626939D01*
X128071221Y-114606401D01*
X128005019Y-114482545D01*
X127995570Y-114459735D01*
X127954799Y-114325331D01*
X127949982Y-114301111D01*
X127938321Y-114182715D01*
X127937714Y-114170368D01*
X127937714Y-114159858D01*
X127939628Y-114149000D01*
X127936848Y-114133233D01*
X127934934Y-114111581D01*
X127932718Y-112858116D01*
X127930850Y-111801166D01*
X127950732Y-111733012D01*
X128004305Y-111686424D01*
X128074561Y-111676196D01*
X128139194Y-111705575D01*
X128157570Y-111725561D01*
X128161472Y-111733220D01*
X130096780Y-113668528D01*
X130118163Y-113679423D01*
X130135009Y-113689747D01*
X130154419Y-113703849D01*
X130163850Y-113706913D01*
X130163853Y-113706915D01*
X130177237Y-113711264D01*
X130195498Y-113718828D01*
X130208036Y-113725216D01*
X130216874Y-113729719D01*
X130240571Y-113733472D01*
X130259790Y-113738086D01*
X130282607Y-113745500D01*
X183717393Y-113745500D01*
X183740210Y-113738086D01*
X183759429Y-113733472D01*
X183783126Y-113729719D01*
X183791964Y-113725216D01*
X183804502Y-113718828D01*
X183822763Y-113711264D01*
X183836147Y-113706915D01*
X183836150Y-113706913D01*
X183845581Y-113703849D01*
X183864991Y-113689747D01*
X183881837Y-113679423D01*
X183903220Y-113668528D01*
X184131748Y-113440000D01*
X185114318Y-113440000D01*
X185134956Y-113596762D01*
X185195464Y-113742841D01*
X185291718Y-113868282D01*
X185417159Y-113964536D01*
X185563238Y-114025044D01*
X185720000Y-114045682D01*
X185728188Y-114044604D01*
X185868574Y-114026122D01*
X185876762Y-114025044D01*
X186022841Y-113964536D01*
X186029394Y-113959508D01*
X186029397Y-113959506D01*
X186117975Y-113891538D01*
X186184195Y-113865937D01*
X186194679Y-113865500D01*
X190267393Y-113865500D01*
X190290210Y-113858086D01*
X190309429Y-113853472D01*
X190333126Y-113849719D01*
X190341964Y-113845216D01*
X190354502Y-113838828D01*
X190372763Y-113831264D01*
X190386147Y-113826915D01*
X190386150Y-113826913D01*
X190395581Y-113823849D01*
X190414991Y-113809747D01*
X190431837Y-113799423D01*
X190453220Y-113788528D01*
X192640568Y-111601180D01*
X192702880Y-111567154D01*
X192775614Y-111574146D01*
X192775811Y-111573541D01*
X192778539Y-111574427D01*
X192779409Y-111574511D01*
X192781307Y-111575327D01*
X192781312Y-111575329D01*
X192786615Y-111577607D01*
X192876676Y-111597986D01*
X192985097Y-111622520D01*
X192985100Y-111622520D01*
X192990733Y-111623795D01*
X192996504Y-111624022D01*
X192996506Y-111624022D01*
X193060979Y-111626555D01*
X193199850Y-111632011D01*
X193321674Y-111614347D01*
X193401241Y-111602811D01*
X193401245Y-111602810D01*
X193406963Y-111601981D01*
X193412435Y-111600123D01*
X193412437Y-111600123D01*
X193599671Y-111536565D01*
X193599673Y-111536564D01*
X193605135Y-111534710D01*
X193787730Y-111432453D01*
X193803811Y-111419079D01*
X193891696Y-111345985D01*
X193948632Y-111298632D01*
X194082453Y-111137730D01*
X194184710Y-110955135D01*
X194188741Y-110943262D01*
X194250123Y-110762437D01*
X194250123Y-110762435D01*
X194251981Y-110756963D01*
X194256461Y-110726069D01*
X194281478Y-110553524D01*
X194282011Y-110549850D01*
X194283578Y-110490000D01*
X194264429Y-110281599D01*
X194217491Y-110115171D01*
X194209190Y-110085737D01*
X194209189Y-110085735D01*
X194207622Y-110080178D01*
X194191386Y-110047253D01*
X194117616Y-109897663D01*
X194115061Y-109892482D01*
X194101553Y-109874392D01*
X193993297Y-109729421D01*
X193993297Y-109729420D01*
X193989844Y-109724797D01*
X193982266Y-109717792D01*
X193840407Y-109586659D01*
X193840405Y-109586657D01*
X193836166Y-109582739D01*
X193659174Y-109471065D01*
X193653814Y-109468927D01*
X193653811Y-109468925D01*
X193536681Y-109422195D01*
X193464794Y-109393515D01*
X193459134Y-109392389D01*
X193459130Y-109392388D01*
X193265204Y-109353814D01*
X193265199Y-109353814D01*
X193259536Y-109352687D01*
X193253761Y-109352611D01*
X193253757Y-109352611D01*
X193148675Y-109351235D01*
X193050276Y-109349947D01*
X193044579Y-109350926D01*
X193044578Y-109350926D01*
X192894465Y-109376720D01*
X192844020Y-109385388D01*
X192647677Y-109457823D01*
X192642716Y-109460775D01*
X192642715Y-109460775D01*
X192472790Y-109561870D01*
X192472787Y-109561872D01*
X192467822Y-109564826D01*
X192310478Y-109702813D01*
X192306903Y-109707348D01*
X192306902Y-109707349D01*
X192298670Y-109717792D01*
X192180915Y-109867163D01*
X192178224Y-109872279D01*
X192178222Y-109872281D01*
X192170028Y-109887855D01*
X192083472Y-110052372D01*
X192074838Y-110080178D01*
X192031695Y-110219121D01*
X192021412Y-110252237D01*
X191996814Y-110460065D01*
X192010501Y-110668895D01*
X192011922Y-110674491D01*
X192011923Y-110674496D01*
X192057492Y-110853921D01*
X192062016Y-110871734D01*
X192063271Y-110874457D01*
X192067104Y-110944448D01*
X192033543Y-111004709D01*
X191716384Y-111321868D01*
X191654072Y-111355894D01*
X191583257Y-111350829D01*
X191526421Y-111308282D01*
X191501610Y-111241762D01*
X191516701Y-111172388D01*
X191530411Y-111152209D01*
X191542453Y-111137730D01*
X191644710Y-110955135D01*
X191648741Y-110943262D01*
X191710123Y-110762437D01*
X191710123Y-110762435D01*
X191711981Y-110756963D01*
X191716461Y-110726069D01*
X191741478Y-110553524D01*
X191742011Y-110549850D01*
X191743578Y-110490000D01*
X191724429Y-110281599D01*
X191677491Y-110115171D01*
X191669190Y-110085737D01*
X191669189Y-110085735D01*
X191667622Y-110080178D01*
X191651386Y-110047253D01*
X191577616Y-109897663D01*
X191575061Y-109892482D01*
X191561553Y-109874392D01*
X191453297Y-109729421D01*
X191453297Y-109729420D01*
X191449844Y-109724797D01*
X191442266Y-109717792D01*
X191300407Y-109586659D01*
X191300405Y-109586657D01*
X191296166Y-109582739D01*
X191119174Y-109471065D01*
X191113814Y-109468927D01*
X191113811Y-109468925D01*
X190996681Y-109422195D01*
X190924794Y-109393515D01*
X190919134Y-109392389D01*
X190919130Y-109392388D01*
X190725204Y-109353814D01*
X190725199Y-109353814D01*
X190719536Y-109352687D01*
X190713761Y-109352611D01*
X190713757Y-109352611D01*
X190608675Y-109351235D01*
X190510276Y-109349947D01*
X190504579Y-109350926D01*
X190504578Y-109350926D01*
X190354465Y-109376720D01*
X190304020Y-109385388D01*
X190107677Y-109457823D01*
X190102716Y-109460775D01*
X190102715Y-109460775D01*
X189932790Y-109561870D01*
X189932787Y-109561872D01*
X189927822Y-109564826D01*
X189770478Y-109702813D01*
X189766903Y-109707348D01*
X189766902Y-109707349D01*
X189758670Y-109717792D01*
X189640915Y-109867163D01*
X189638224Y-109872279D01*
X189638222Y-109872281D01*
X189630028Y-109887855D01*
X189543472Y-110052372D01*
X189534838Y-110080178D01*
X189491695Y-110219121D01*
X189481412Y-110252237D01*
X189456814Y-110460065D01*
X189470501Y-110668895D01*
X189471922Y-110674491D01*
X189471923Y-110674496D01*
X189511695Y-110831095D01*
X189522016Y-110871734D01*
X189524433Y-110876977D01*
X189607214Y-111056544D01*
X189609632Y-111061789D01*
X189612965Y-111066505D01*
X189706628Y-111199035D01*
X189730416Y-111232695D01*
X189734558Y-111236730D01*
X189808009Y-111308282D01*
X189880323Y-111378727D01*
X190054332Y-111494996D01*
X190059635Y-111497274D01*
X190059638Y-111497276D01*
X190228169Y-111569682D01*
X190246615Y-111577607D01*
X190336676Y-111597986D01*
X190445097Y-111622520D01*
X190445100Y-111622520D01*
X190450733Y-111623795D01*
X190456504Y-111624022D01*
X190456506Y-111624022D01*
X190520979Y-111626555D01*
X190659850Y-111632011D01*
X190781674Y-111614347D01*
X190861241Y-111602811D01*
X190861245Y-111602810D01*
X190866963Y-111601981D01*
X190872435Y-111600123D01*
X190872437Y-111600123D01*
X191059671Y-111536565D01*
X191059673Y-111536564D01*
X191065135Y-111534710D01*
X191247730Y-111432453D01*
X191262205Y-111420414D01*
X191327367Y-111392234D01*
X191397423Y-111403757D01*
X191450127Y-111451326D01*
X191468747Y-111519837D01*
X191447372Y-111587540D01*
X191431868Y-111606384D01*
X190060657Y-112977595D01*
X189998345Y-113011621D01*
X189971562Y-113014500D01*
X186194679Y-113014500D01*
X186126558Y-112994498D01*
X186117975Y-112988462D01*
X186029397Y-112920494D01*
X186029392Y-112920491D01*
X186022841Y-112915464D01*
X185876762Y-112854956D01*
X185720000Y-112834318D01*
X185563238Y-112854956D01*
X185417159Y-112915464D01*
X185291718Y-113011718D01*
X185195464Y-113137159D01*
X185134956Y-113283238D01*
X185114318Y-113440000D01*
X184131748Y-113440000D01*
X185218528Y-112353220D01*
X185229418Y-112331846D01*
X185239744Y-112314994D01*
X185253850Y-112295580D01*
X185256915Y-112286148D01*
X185261265Y-112272761D01*
X185268831Y-112254494D01*
X185275219Y-112241957D01*
X185279719Y-112233126D01*
X185281270Y-112223334D01*
X185281271Y-112223331D01*
X185283473Y-112209431D01*
X185288087Y-112190212D01*
X185292436Y-112176827D01*
X185292437Y-112176820D01*
X185295500Y-112167393D01*
X185295500Y-109501438D01*
X185315502Y-109433317D01*
X185369158Y-109386824D01*
X185439432Y-109376720D01*
X185504012Y-109406214D01*
X185510595Y-109412343D01*
X186936780Y-110838528D01*
X186945619Y-110843032D01*
X186953638Y-110848858D01*
X186951253Y-110852140D01*
X186988509Y-110887247D01*
X186994187Y-110898135D01*
X187069632Y-111061789D01*
X187072965Y-111066505D01*
X187166628Y-111199035D01*
X187190416Y-111232695D01*
X187194558Y-111236730D01*
X187268009Y-111308282D01*
X187340323Y-111378727D01*
X187514332Y-111494996D01*
X187519635Y-111497274D01*
X187519638Y-111497276D01*
X187688169Y-111569682D01*
X187706615Y-111577607D01*
X187796676Y-111597986D01*
X187905097Y-111622520D01*
X187905100Y-111622520D01*
X187910733Y-111623795D01*
X187916504Y-111624022D01*
X187916506Y-111624022D01*
X187980979Y-111626555D01*
X188119850Y-111632011D01*
X188241674Y-111614347D01*
X188321241Y-111602811D01*
X188321245Y-111602810D01*
X188326963Y-111601981D01*
X188332435Y-111600123D01*
X188332437Y-111600123D01*
X188519671Y-111536565D01*
X188519673Y-111536564D01*
X188525135Y-111534710D01*
X188707730Y-111432453D01*
X188723811Y-111419079D01*
X188811696Y-111345985D01*
X188868632Y-111298632D01*
X189002453Y-111137730D01*
X189104710Y-110955135D01*
X189108741Y-110943262D01*
X189170123Y-110762437D01*
X189170123Y-110762435D01*
X189171981Y-110756963D01*
X189176461Y-110726069D01*
X189201478Y-110553524D01*
X189202011Y-110549850D01*
X189203578Y-110490000D01*
X189184429Y-110281599D01*
X189137491Y-110115171D01*
X189129190Y-110085737D01*
X189129189Y-110085735D01*
X189127622Y-110080178D01*
X189111386Y-110047253D01*
X189037616Y-109897663D01*
X189035061Y-109892482D01*
X189021553Y-109874392D01*
X188913297Y-109729421D01*
X188913297Y-109729420D01*
X188909844Y-109724797D01*
X188902266Y-109717792D01*
X188760407Y-109586659D01*
X188760405Y-109586657D01*
X188756166Y-109582739D01*
X188579174Y-109471065D01*
X188573814Y-109468927D01*
X188573811Y-109468925D01*
X188456681Y-109422195D01*
X188384794Y-109393515D01*
X188379134Y-109392389D01*
X188379130Y-109392388D01*
X188185204Y-109353814D01*
X188185199Y-109353814D01*
X188179536Y-109352687D01*
X188173761Y-109352611D01*
X188173757Y-109352611D01*
X188068675Y-109351235D01*
X187970276Y-109349947D01*
X187964579Y-109350926D01*
X187964578Y-109350926D01*
X187814465Y-109376720D01*
X187764020Y-109385388D01*
X187567677Y-109457823D01*
X187562716Y-109460775D01*
X187562715Y-109460775D01*
X187392790Y-109561870D01*
X187392787Y-109561872D01*
X187387822Y-109564826D01*
X187230478Y-109702813D01*
X187226904Y-109707347D01*
X187226897Y-109707354D01*
X187218668Y-109717792D01*
X187160786Y-109758904D01*
X187089865Y-109762195D01*
X187030626Y-109728878D01*
X186252405Y-108950657D01*
X186218379Y-108888345D01*
X186215500Y-108861562D01*
X186215500Y-107920065D01*
X186916814Y-107920065D01*
X186930501Y-108128895D01*
X186931922Y-108134491D01*
X186931923Y-108134496D01*
X186979420Y-108321514D01*
X186982016Y-108331734D01*
X186984433Y-108336977D01*
X187058427Y-108497484D01*
X187069632Y-108521789D01*
X187091779Y-108553127D01*
X187177749Y-108674771D01*
X187190416Y-108692695D01*
X187194558Y-108696730D01*
X187218149Y-108719711D01*
X187340323Y-108838727D01*
X187514332Y-108954996D01*
X187519635Y-108957274D01*
X187519638Y-108957276D01*
X187683223Y-109027557D01*
X187706615Y-109037607D01*
X187806120Y-109060123D01*
X187905097Y-109082520D01*
X187905100Y-109082520D01*
X187910733Y-109083795D01*
X187916504Y-109084022D01*
X187916506Y-109084022D01*
X187980979Y-109086555D01*
X188119850Y-109092011D01*
X188253601Y-109072618D01*
X188321241Y-109062811D01*
X188321245Y-109062810D01*
X188326963Y-109061981D01*
X188332435Y-109060123D01*
X188332437Y-109060123D01*
X188519671Y-108996565D01*
X188519673Y-108996564D01*
X188525135Y-108994710D01*
X188707730Y-108892453D01*
X188715790Y-108885750D01*
X188864194Y-108762323D01*
X188868632Y-108758632D01*
X188996049Y-108605430D01*
X188998762Y-108602168D01*
X189002453Y-108597730D01*
X189104710Y-108415135D01*
X189107037Y-108408282D01*
X189170123Y-108222437D01*
X189170123Y-108222435D01*
X189171981Y-108216963D01*
X189178409Y-108172634D01*
X189190067Y-108092228D01*
X189202011Y-108009850D01*
X189203578Y-107950000D01*
X189200827Y-107920065D01*
X189456814Y-107920065D01*
X189470501Y-108128895D01*
X189471922Y-108134491D01*
X189471923Y-108134496D01*
X189519420Y-108321514D01*
X189522016Y-108331734D01*
X189524433Y-108336977D01*
X189598427Y-108497484D01*
X189609632Y-108521789D01*
X189631779Y-108553127D01*
X189717749Y-108674771D01*
X189730416Y-108692695D01*
X189734558Y-108696730D01*
X189758149Y-108719711D01*
X189880323Y-108838727D01*
X190054332Y-108954996D01*
X190059635Y-108957274D01*
X190059638Y-108957276D01*
X190223223Y-109027557D01*
X190246615Y-109037607D01*
X190346120Y-109060123D01*
X190445097Y-109082520D01*
X190445100Y-109082520D01*
X190450733Y-109083795D01*
X190456504Y-109084022D01*
X190456506Y-109084022D01*
X190520979Y-109086555D01*
X190659850Y-109092011D01*
X190793601Y-109072618D01*
X190861241Y-109062811D01*
X190861245Y-109062810D01*
X190866963Y-109061981D01*
X190872435Y-109060123D01*
X190872437Y-109060123D01*
X191059671Y-108996565D01*
X191059673Y-108996564D01*
X191065135Y-108994710D01*
X191247730Y-108892453D01*
X191255790Y-108885750D01*
X191404194Y-108762323D01*
X191408632Y-108758632D01*
X191536049Y-108605430D01*
X191538762Y-108602168D01*
X191542453Y-108597730D01*
X191644710Y-108415135D01*
X191647037Y-108408282D01*
X191710123Y-108222437D01*
X191710123Y-108222435D01*
X191711981Y-108216963D01*
X191718409Y-108172634D01*
X191730067Y-108092228D01*
X191742011Y-108009850D01*
X191743578Y-107950000D01*
X191740827Y-107920065D01*
X191996814Y-107920065D01*
X192010501Y-108128895D01*
X192011922Y-108134491D01*
X192011923Y-108134496D01*
X192059420Y-108321514D01*
X192062016Y-108331734D01*
X192064433Y-108336977D01*
X192138427Y-108497484D01*
X192149632Y-108521789D01*
X192171779Y-108553127D01*
X192257749Y-108674771D01*
X192270416Y-108692695D01*
X192274558Y-108696730D01*
X192298149Y-108719711D01*
X192420323Y-108838727D01*
X192594332Y-108954996D01*
X192599635Y-108957274D01*
X192599638Y-108957276D01*
X192763223Y-109027557D01*
X192786615Y-109037607D01*
X192886120Y-109060123D01*
X192985097Y-109082520D01*
X192985100Y-109082520D01*
X192990733Y-109083795D01*
X192996504Y-109084022D01*
X192996506Y-109084022D01*
X193060979Y-109086555D01*
X193199850Y-109092011D01*
X193333601Y-109072618D01*
X193401241Y-109062811D01*
X193401245Y-109062810D01*
X193406963Y-109061981D01*
X193412435Y-109060123D01*
X193412437Y-109060123D01*
X193599671Y-108996565D01*
X193599673Y-108996564D01*
X193605135Y-108994710D01*
X193787730Y-108892453D01*
X193795790Y-108885750D01*
X193944194Y-108762323D01*
X193948632Y-108758632D01*
X194076049Y-108605430D01*
X194078762Y-108602168D01*
X194082453Y-108597730D01*
X194184710Y-108415135D01*
X194187037Y-108408282D01*
X194250123Y-108222437D01*
X194250123Y-108222435D01*
X194251981Y-108216963D01*
X194258409Y-108172634D01*
X194270067Y-108092228D01*
X194282011Y-108009850D01*
X194283578Y-107950000D01*
X194270704Y-107809891D01*
X194264958Y-107747353D01*
X194264957Y-107747350D01*
X194264429Y-107741599D01*
X194253918Y-107704330D01*
X194209190Y-107545737D01*
X194209189Y-107545735D01*
X194207622Y-107540178D01*
X194196486Y-107517595D01*
X194117616Y-107357663D01*
X194115061Y-107352482D01*
X193989844Y-107184797D01*
X193985608Y-107180881D01*
X193840407Y-107046659D01*
X193840405Y-107046657D01*
X193836166Y-107042739D01*
X193773326Y-107003090D01*
X193664054Y-106934144D01*
X193664053Y-106934144D01*
X193659174Y-106931065D01*
X193653814Y-106928927D01*
X193653811Y-106928925D01*
X193561984Y-106892290D01*
X193464794Y-106853515D01*
X193459134Y-106852389D01*
X193459130Y-106852388D01*
X193265204Y-106813814D01*
X193265199Y-106813814D01*
X193259536Y-106812687D01*
X193253761Y-106812611D01*
X193253757Y-106812611D01*
X193148675Y-106811235D01*
X193050276Y-106809947D01*
X193044579Y-106810926D01*
X193044578Y-106810926D01*
X193034772Y-106812611D01*
X192844020Y-106845388D01*
X192647677Y-106917823D01*
X192642716Y-106920775D01*
X192642715Y-106920775D01*
X192472790Y-107021870D01*
X192472787Y-107021872D01*
X192467822Y-107024826D01*
X192310478Y-107162813D01*
X192180915Y-107327163D01*
X192178224Y-107332279D01*
X192178222Y-107332281D01*
X192143811Y-107397686D01*
X192083472Y-107512372D01*
X192074838Y-107540178D01*
X192025926Y-107697700D01*
X192021412Y-107712237D01*
X191996814Y-107920065D01*
X191740827Y-107920065D01*
X191730704Y-107809891D01*
X191724958Y-107747353D01*
X191724957Y-107747350D01*
X191724429Y-107741599D01*
X191713918Y-107704330D01*
X191669190Y-107545737D01*
X191669189Y-107545735D01*
X191667622Y-107540178D01*
X191656486Y-107517595D01*
X191577616Y-107357663D01*
X191575061Y-107352482D01*
X191449844Y-107184797D01*
X191445608Y-107180881D01*
X191300407Y-107046659D01*
X191300405Y-107046657D01*
X191296166Y-107042739D01*
X191233326Y-107003090D01*
X191124054Y-106934144D01*
X191124053Y-106934144D01*
X191119174Y-106931065D01*
X191113814Y-106928927D01*
X191113811Y-106928925D01*
X191021984Y-106892290D01*
X190924794Y-106853515D01*
X190919134Y-106852389D01*
X190919130Y-106852388D01*
X190725204Y-106813814D01*
X190725199Y-106813814D01*
X190719536Y-106812687D01*
X190713761Y-106812611D01*
X190713757Y-106812611D01*
X190608675Y-106811235D01*
X190510276Y-106809947D01*
X190504579Y-106810926D01*
X190504578Y-106810926D01*
X190494772Y-106812611D01*
X190304020Y-106845388D01*
X190107677Y-106917823D01*
X190102716Y-106920775D01*
X190102715Y-106920775D01*
X189932790Y-107021870D01*
X189932787Y-107021872D01*
X189927822Y-107024826D01*
X189770478Y-107162813D01*
X189640915Y-107327163D01*
X189638224Y-107332279D01*
X189638222Y-107332281D01*
X189603811Y-107397686D01*
X189543472Y-107512372D01*
X189534838Y-107540178D01*
X189485926Y-107697700D01*
X189481412Y-107712237D01*
X189456814Y-107920065D01*
X189200827Y-107920065D01*
X189190704Y-107809891D01*
X189184958Y-107747353D01*
X189184957Y-107747350D01*
X189184429Y-107741599D01*
X189173918Y-107704330D01*
X189129190Y-107545737D01*
X189129189Y-107545735D01*
X189127622Y-107540178D01*
X189116486Y-107517595D01*
X189037616Y-107357663D01*
X189035061Y-107352482D01*
X188909844Y-107184797D01*
X188905608Y-107180881D01*
X188760407Y-107046659D01*
X188760405Y-107046657D01*
X188756166Y-107042739D01*
X188693326Y-107003090D01*
X188584054Y-106934144D01*
X188584053Y-106934144D01*
X188579174Y-106931065D01*
X188573814Y-106928927D01*
X188573811Y-106928925D01*
X188481984Y-106892290D01*
X188384794Y-106853515D01*
X188379134Y-106852389D01*
X188379130Y-106852388D01*
X188185204Y-106813814D01*
X188185199Y-106813814D01*
X188179536Y-106812687D01*
X188173761Y-106812611D01*
X188173757Y-106812611D01*
X188068675Y-106811235D01*
X187970276Y-106809947D01*
X187964579Y-106810926D01*
X187964578Y-106810926D01*
X187954772Y-106812611D01*
X187764020Y-106845388D01*
X187567677Y-106917823D01*
X187562716Y-106920775D01*
X187562715Y-106920775D01*
X187392790Y-107021870D01*
X187392787Y-107021872D01*
X187387822Y-107024826D01*
X187230478Y-107162813D01*
X187100915Y-107327163D01*
X187098224Y-107332279D01*
X187098222Y-107332281D01*
X187063811Y-107397686D01*
X187003472Y-107512372D01*
X186994838Y-107540178D01*
X186945926Y-107697700D01*
X186941412Y-107712237D01*
X186916814Y-107920065D01*
X186215500Y-107920065D01*
X186215500Y-105587530D01*
X186235502Y-105519409D01*
X186252405Y-105498435D01*
X189328528Y-102422312D01*
X189339423Y-102400929D01*
X189349747Y-102384083D01*
X189358020Y-102372696D01*
X189363849Y-102364673D01*
X189366913Y-102355242D01*
X189366915Y-102355239D01*
X189371264Y-102341855D01*
X189378828Y-102323594D01*
X189385216Y-102311056D01*
X189385216Y-102311055D01*
X189389719Y-102302218D01*
X189393472Y-102278521D01*
X189398086Y-102259302D01*
X189405500Y-102236485D01*
X189405500Y-92786522D01*
X193277273Y-92786522D01*
X193324764Y-92963761D01*
X193328510Y-92974053D01*
X193420586Y-93171511D01*
X193426069Y-93181007D01*
X193551028Y-93359467D01*
X193558084Y-93367875D01*
X193712125Y-93521916D01*
X193720533Y-93528972D01*
X193898993Y-93653931D01*
X193908489Y-93659414D01*
X194105947Y-93751490D01*
X194116239Y-93755236D01*
X194288503Y-93801394D01*
X194302599Y-93801058D01*
X194306000Y-93793116D01*
X194306000Y-93787967D01*
X194814000Y-93787967D01*
X194817973Y-93801498D01*
X194826522Y-93802727D01*
X195003761Y-93755236D01*
X195014053Y-93751490D01*
X195211511Y-93659414D01*
X195221007Y-93653931D01*
X195399467Y-93528972D01*
X195407875Y-93521916D01*
X195561916Y-93367875D01*
X195568972Y-93359467D01*
X195693931Y-93181007D01*
X195699414Y-93171511D01*
X195791490Y-92974053D01*
X195795236Y-92963761D01*
X195841394Y-92791497D01*
X195841058Y-92777401D01*
X195833116Y-92774000D01*
X194832115Y-92774000D01*
X194816876Y-92778475D01*
X194815671Y-92779865D01*
X194814000Y-92787548D01*
X194814000Y-93787967D01*
X194306000Y-93787967D01*
X194306000Y-92792115D01*
X194301525Y-92776876D01*
X194300135Y-92775671D01*
X194292452Y-92774000D01*
X193292033Y-92774000D01*
X193278502Y-92777973D01*
X193277273Y-92786522D01*
X189405500Y-92786522D01*
X189405500Y-90246522D01*
X193277273Y-90246522D01*
X193324764Y-90423761D01*
X193328510Y-90434053D01*
X193420586Y-90631511D01*
X193426069Y-90641007D01*
X193551028Y-90819467D01*
X193558084Y-90827875D01*
X193712125Y-90981916D01*
X193720533Y-90988972D01*
X193898993Y-91113931D01*
X193908489Y-91119414D01*
X193943641Y-91135805D01*
X193996926Y-91182722D01*
X194016387Y-91250999D01*
X193995845Y-91318959D01*
X193943641Y-91364195D01*
X193908489Y-91380586D01*
X193898993Y-91386069D01*
X193720533Y-91511028D01*
X193712125Y-91518084D01*
X193558084Y-91672125D01*
X193551028Y-91680533D01*
X193426069Y-91858993D01*
X193420586Y-91868489D01*
X193328510Y-92065947D01*
X193324764Y-92076239D01*
X193278606Y-92248503D01*
X193278942Y-92262599D01*
X193286884Y-92266000D01*
X194287885Y-92266000D01*
X194303124Y-92261525D01*
X194304329Y-92260135D01*
X194306000Y-92252452D01*
X194306000Y-92247885D01*
X194814000Y-92247885D01*
X194818475Y-92263124D01*
X194819865Y-92264329D01*
X194827548Y-92266000D01*
X195827967Y-92266000D01*
X195841498Y-92262027D01*
X195842727Y-92253478D01*
X195795236Y-92076239D01*
X195791490Y-92065947D01*
X195699414Y-91868489D01*
X195693931Y-91858993D01*
X195568972Y-91680533D01*
X195561916Y-91672125D01*
X195407875Y-91518084D01*
X195399467Y-91511028D01*
X195221007Y-91386069D01*
X195211511Y-91380586D01*
X195176359Y-91364195D01*
X195123074Y-91317278D01*
X195103613Y-91249001D01*
X195124155Y-91181041D01*
X195176359Y-91135805D01*
X195211511Y-91119414D01*
X195221007Y-91113931D01*
X195399467Y-90988972D01*
X195407875Y-90981916D01*
X195561916Y-90827875D01*
X195568972Y-90819467D01*
X195693931Y-90641007D01*
X195699414Y-90631511D01*
X195791490Y-90434053D01*
X195795236Y-90423761D01*
X195841394Y-90251497D01*
X195841058Y-90237401D01*
X195833116Y-90234000D01*
X194832115Y-90234000D01*
X194816876Y-90238475D01*
X194815671Y-90239865D01*
X194814000Y-90247548D01*
X194814000Y-92247885D01*
X194306000Y-92247885D01*
X194306000Y-90252115D01*
X194301525Y-90236876D01*
X194300135Y-90235671D01*
X194292452Y-90234000D01*
X193292033Y-90234000D01*
X193278502Y-90237973D01*
X193277273Y-90246522D01*
X189405500Y-90246522D01*
X189405500Y-87942607D01*
X189402437Y-87933180D01*
X189402436Y-87933173D01*
X189398087Y-87919788D01*
X189393473Y-87900569D01*
X189391272Y-87886672D01*
X189391270Y-87886665D01*
X189389719Y-87876874D01*
X189378827Y-87855498D01*
X189371264Y-87837237D01*
X189366914Y-87823850D01*
X189363850Y-87814419D01*
X189349749Y-87795011D01*
X189339417Y-87778152D01*
X189333031Y-87765618D01*
X189328528Y-87756780D01*
X189278270Y-87706522D01*
X193277273Y-87706522D01*
X193324764Y-87883761D01*
X193328510Y-87894053D01*
X193420586Y-88091511D01*
X193426069Y-88101007D01*
X193551028Y-88279467D01*
X193558084Y-88287875D01*
X193712125Y-88441916D01*
X193720533Y-88448972D01*
X193898993Y-88573931D01*
X193908489Y-88579414D01*
X193943641Y-88595805D01*
X193996926Y-88642722D01*
X194016387Y-88710999D01*
X193995845Y-88778959D01*
X193943641Y-88824195D01*
X193908489Y-88840586D01*
X193898993Y-88846069D01*
X193720533Y-88971028D01*
X193712125Y-88978084D01*
X193558084Y-89132125D01*
X193551028Y-89140533D01*
X193426069Y-89318993D01*
X193420586Y-89328489D01*
X193328510Y-89525947D01*
X193324764Y-89536239D01*
X193278606Y-89708503D01*
X193278942Y-89722599D01*
X193286884Y-89726000D01*
X194287885Y-89726000D01*
X194303124Y-89721525D01*
X194304329Y-89720135D01*
X194306000Y-89712452D01*
X194306000Y-89707885D01*
X194814000Y-89707885D01*
X194818475Y-89723124D01*
X194819865Y-89724329D01*
X194827548Y-89726000D01*
X195827967Y-89726000D01*
X195841498Y-89722027D01*
X195842727Y-89713478D01*
X195795236Y-89536239D01*
X195791490Y-89525947D01*
X195699414Y-89328489D01*
X195693931Y-89318993D01*
X195568972Y-89140533D01*
X195561916Y-89132125D01*
X195407875Y-88978084D01*
X195399467Y-88971028D01*
X195221007Y-88846069D01*
X195211511Y-88840586D01*
X195176359Y-88824195D01*
X195123074Y-88777278D01*
X195103613Y-88709001D01*
X195124155Y-88641041D01*
X195176359Y-88595805D01*
X195211511Y-88579414D01*
X195221007Y-88573931D01*
X195399467Y-88448972D01*
X195407875Y-88441916D01*
X195561916Y-88287875D01*
X195568972Y-88279467D01*
X195693931Y-88101007D01*
X195699414Y-88091511D01*
X195791490Y-87894053D01*
X195795236Y-87883761D01*
X195841394Y-87711497D01*
X195841058Y-87697401D01*
X195833116Y-87694000D01*
X194832115Y-87694000D01*
X194816876Y-87698475D01*
X194815671Y-87699865D01*
X194814000Y-87707548D01*
X194814000Y-89707885D01*
X194306000Y-89707885D01*
X194306000Y-87712115D01*
X194301525Y-87696876D01*
X194300135Y-87695671D01*
X194292452Y-87694000D01*
X193292033Y-87694000D01*
X193278502Y-87697973D01*
X193277273Y-87706522D01*
X189278270Y-87706522D01*
X188740251Y-87168503D01*
X193278606Y-87168503D01*
X193278942Y-87182599D01*
X193286884Y-87186000D01*
X194287885Y-87186000D01*
X194303124Y-87181525D01*
X194304329Y-87180135D01*
X194306000Y-87172452D01*
X194306000Y-87167885D01*
X194814000Y-87167885D01*
X194818475Y-87183124D01*
X194819865Y-87184329D01*
X194827548Y-87186000D01*
X195827967Y-87186000D01*
X195841498Y-87182027D01*
X195842727Y-87173478D01*
X195795236Y-86996239D01*
X195791490Y-86985947D01*
X195699414Y-86788489D01*
X195693931Y-86778993D01*
X195568972Y-86600533D01*
X195561916Y-86592125D01*
X195407875Y-86438084D01*
X195399467Y-86431028D01*
X195221007Y-86306069D01*
X195211511Y-86300586D01*
X195014053Y-86208510D01*
X195003761Y-86204764D01*
X194831497Y-86158606D01*
X194817401Y-86158942D01*
X194814000Y-86166884D01*
X194814000Y-87167885D01*
X194306000Y-87167885D01*
X194306000Y-86172033D01*
X194302027Y-86158502D01*
X194293478Y-86157273D01*
X194116239Y-86204764D01*
X194105947Y-86208510D01*
X193908489Y-86300586D01*
X193898993Y-86306069D01*
X193720533Y-86431028D01*
X193712125Y-86438084D01*
X193558084Y-86592125D01*
X193551028Y-86600533D01*
X193426069Y-86778993D01*
X193420586Y-86788489D01*
X193328510Y-86985947D01*
X193324764Y-86996239D01*
X193278606Y-87168503D01*
X188740251Y-87168503D01*
X188663220Y-87091472D01*
X188641837Y-87080577D01*
X188624991Y-87070253D01*
X188613604Y-87061980D01*
X188605581Y-87056151D01*
X188596150Y-87053087D01*
X188596147Y-87053085D01*
X188582763Y-87048736D01*
X188564502Y-87041172D01*
X188551964Y-87034784D01*
X188551963Y-87034784D01*
X188543126Y-87030281D01*
X188519429Y-87026528D01*
X188500210Y-87021914D01*
X188477393Y-87014500D01*
X188166500Y-87014500D01*
X188098379Y-86994498D01*
X188051886Y-86940842D01*
X188040500Y-86888500D01*
X188040500Y-86595354D01*
X188037382Y-86569154D01*
X188022036Y-86534604D01*
X187996663Y-86477482D01*
X187991939Y-86466847D01*
X187964032Y-86438988D01*
X187920945Y-86395977D01*
X187912713Y-86387759D01*
X187902076Y-86383056D01*
X187902074Y-86383055D01*
X187842538Y-86356735D01*
X187810327Y-86342494D01*
X187784646Y-86339500D01*
X186095354Y-86339500D01*
X186091650Y-86339941D01*
X186091647Y-86339941D01*
X186084254Y-86340821D01*
X186069154Y-86342618D01*
X186060514Y-86346456D01*
X186060513Y-86346456D01*
X185978117Y-86383055D01*
X185966847Y-86388061D01*
X185958628Y-86396294D01*
X185958627Y-86396295D01*
X185936679Y-86418282D01*
X185887759Y-86467287D01*
X185883056Y-86477924D01*
X185883055Y-86477926D01*
X185857998Y-86534604D01*
X185842494Y-86569673D01*
X185839500Y-86595354D01*
X185839500Y-86863562D01*
X185819498Y-86931683D01*
X185765842Y-86978176D01*
X185695568Y-86988280D01*
X185630988Y-86958786D01*
X185624405Y-86952657D01*
X183818805Y-85147057D01*
X183784779Y-85084745D01*
X183781900Y-85057962D01*
X183781900Y-84951128D01*
X183771036Y-84861353D01*
X183766773Y-84850584D01*
X183718675Y-84729104D01*
X183715513Y-84721117D01*
X183624322Y-84600978D01*
X183504183Y-84509787D01*
X183440568Y-84484600D01*
X183371477Y-84457245D01*
X183371475Y-84457244D01*
X183363947Y-84454264D01*
X183274172Y-84443400D01*
X182663628Y-84443400D01*
X182573853Y-84454264D01*
X182566325Y-84457244D01*
X182566323Y-84457245D01*
X182497232Y-84484600D01*
X182433617Y-84509787D01*
X182313478Y-84600978D01*
X182222287Y-84721117D01*
X182180702Y-84826151D01*
X182173552Y-84844209D01*
X182129878Y-84900182D01*
X182062875Y-84923659D01*
X181993816Y-84907183D01*
X181944627Y-84855988D01*
X181939248Y-84844209D01*
X181932099Y-84826151D01*
X181890513Y-84721117D01*
X181799322Y-84600978D01*
X181679183Y-84509787D01*
X181615568Y-84484600D01*
X181546477Y-84457245D01*
X181546475Y-84457244D01*
X181538947Y-84454264D01*
X181449172Y-84443400D01*
X180838628Y-84443400D01*
X180748853Y-84454264D01*
X180741325Y-84457244D01*
X180741323Y-84457245D01*
X180672232Y-84484600D01*
X180608617Y-84509787D01*
X180488478Y-84600978D01*
X180397287Y-84721117D01*
X180394125Y-84729104D01*
X180346028Y-84850584D01*
X180341764Y-84861353D01*
X180330900Y-84951128D01*
X180330900Y-85936672D01*
X180341764Y-86026447D01*
X180344744Y-86033975D01*
X180344745Y-86033977D01*
X180362402Y-86078573D01*
X180397287Y-86166683D01*
X180488478Y-86286822D01*
X180608617Y-86378013D01*
X180621352Y-86383055D01*
X180638784Y-86389957D01*
X180694758Y-86433632D01*
X180718400Y-86507109D01*
X180718400Y-86926791D01*
X180698398Y-86994912D01*
X180638784Y-87043943D01*
X180608617Y-87055887D01*
X180488478Y-87147078D01*
X180397287Y-87267217D01*
X180394125Y-87275204D01*
X180348552Y-87390309D01*
X180341764Y-87407453D01*
X180340791Y-87415494D01*
X180336175Y-87453638D01*
X180308134Y-87518862D01*
X180249282Y-87558572D01*
X180211088Y-87564500D01*
X179162607Y-87564500D01*
X179139790Y-87571914D01*
X179120571Y-87576528D01*
X179096874Y-87580281D01*
X179088037Y-87584784D01*
X179088036Y-87584784D01*
X179075498Y-87591172D01*
X179057237Y-87598736D01*
X179043853Y-87603085D01*
X179043850Y-87603087D01*
X179034419Y-87606151D01*
X179026396Y-87611980D01*
X179015009Y-87620253D01*
X178998163Y-87630577D01*
X178976780Y-87641472D01*
X178587057Y-88031195D01*
X178524745Y-88065221D01*
X178497962Y-88068100D01*
X177617600Y-88068100D01*
X177549479Y-88048098D01*
X177502986Y-87994442D01*
X177491600Y-87942100D01*
X177491600Y-87691759D01*
X177476580Y-87538570D01*
X177417035Y-87341349D01*
X177320318Y-87159449D01*
X177240089Y-87061079D01*
X177194006Y-87004575D01*
X177194001Y-87004570D01*
X177190111Y-86999800D01*
X177185362Y-86995871D01*
X177036125Y-86872411D01*
X177036121Y-86872409D01*
X177031375Y-86868482D01*
X176938650Y-86818346D01*
X176863710Y-86777826D01*
X176821705Y-86741054D01*
X176810844Y-86726106D01*
X176800516Y-86709250D01*
X176800355Y-86708933D01*
X176789628Y-86687880D01*
X175952343Y-85850595D01*
X175918317Y-85788283D01*
X175923382Y-85717468D01*
X175965929Y-85660632D01*
X176032449Y-85635821D01*
X176041438Y-85635500D01*
X177351562Y-85635500D01*
X177419683Y-85655502D01*
X177440657Y-85672405D01*
X177663477Y-85895225D01*
X177697503Y-85957537D01*
X177699304Y-85967874D01*
X177707015Y-86026447D01*
X177714956Y-86086762D01*
X177775464Y-86232841D01*
X177824585Y-86296857D01*
X177858842Y-86341501D01*
X177871718Y-86358282D01*
X177997159Y-86454536D01*
X178143238Y-86515044D01*
X178300000Y-86535682D01*
X178308188Y-86534604D01*
X178448574Y-86516122D01*
X178456762Y-86515044D01*
X178602841Y-86454536D01*
X178728282Y-86358282D01*
X178741159Y-86341501D01*
X178775415Y-86296857D01*
X178824536Y-86232841D01*
X178885044Y-86086762D01*
X178905682Y-85930000D01*
X178885044Y-85773238D01*
X178824536Y-85627159D01*
X178728282Y-85501718D01*
X178602841Y-85405464D01*
X178456762Y-85344956D01*
X178409964Y-85338795D01*
X178337874Y-85329304D01*
X178272946Y-85300582D01*
X178265225Y-85293477D01*
X177833220Y-84861472D01*
X177811837Y-84850577D01*
X177794991Y-84840253D01*
X177783604Y-84831980D01*
X177775581Y-84826151D01*
X177766150Y-84823087D01*
X177766147Y-84823085D01*
X177752763Y-84818736D01*
X177734502Y-84811172D01*
X177721964Y-84804784D01*
X177721963Y-84804784D01*
X177713126Y-84800281D01*
X177689429Y-84796528D01*
X177670210Y-84791914D01*
X177647393Y-84784500D01*
X128272607Y-84784500D01*
X128249790Y-84791914D01*
X128230571Y-84796528D01*
X128206874Y-84800281D01*
X128198037Y-84804784D01*
X128198036Y-84804784D01*
X128185498Y-84811172D01*
X128167237Y-84818736D01*
X128153853Y-84823085D01*
X128153850Y-84823087D01*
X128144419Y-84826151D01*
X128136396Y-84831980D01*
X128125009Y-84840253D01*
X128108163Y-84850577D01*
X128086780Y-84861472D01*
X126199384Y-86748868D01*
X126137072Y-86782894D01*
X126066257Y-86777829D01*
X126061350Y-86775594D01*
X126061257Y-86775816D01*
X126055574Y-86773427D01*
X126050155Y-86770497D01*
X125853354Y-86709577D01*
X125847229Y-86708933D01*
X125847228Y-86708933D01*
X125654598Y-86688687D01*
X125654596Y-86688687D01*
X125648469Y-86688043D01*
X125572561Y-86694951D01*
X125449442Y-86706155D01*
X125449439Y-86706156D01*
X125443303Y-86706714D01*
X125245672Y-86764880D01*
X125240207Y-86767737D01*
X125213761Y-86781563D01*
X125063102Y-86860326D01*
X125058301Y-86864186D01*
X125058298Y-86864188D01*
X124910828Y-86982757D01*
X124902547Y-86989415D01*
X124770124Y-87147230D01*
X124767159Y-87152624D01*
X124767153Y-87152633D01*
X124699770Y-87275204D01*
X124670876Y-87327762D01*
X124669013Y-87333635D01*
X124634183Y-87443435D01*
X124608584Y-87524132D01*
X124607898Y-87530249D01*
X124607897Y-87530253D01*
X124603040Y-87573554D01*
X124590600Y-87684464D01*
X124590600Y-89295441D01*
X124605620Y-89448630D01*
X124665165Y-89645851D01*
X124761882Y-89827751D01*
X124828400Y-89909310D01*
X124888194Y-89982625D01*
X124888197Y-89982628D01*
X124892089Y-89987400D01*
X124896836Y-89991327D01*
X124896838Y-89991329D01*
X125046075Y-90114789D01*
X125046079Y-90114791D01*
X125050825Y-90118718D01*
X125147974Y-90171246D01*
X125215600Y-90207811D01*
X125232045Y-90216703D01*
X125428846Y-90277623D01*
X125434971Y-90278267D01*
X125434972Y-90278267D01*
X125627602Y-90298513D01*
X125627604Y-90298513D01*
X125633731Y-90299157D01*
X125720571Y-90291254D01*
X125832758Y-90281045D01*
X125832761Y-90281044D01*
X125838897Y-90280486D01*
X126036528Y-90222320D01*
X126219098Y-90126874D01*
X126223899Y-90123014D01*
X126223902Y-90123012D01*
X126374846Y-90001650D01*
X126374847Y-90001650D01*
X126379653Y-89997785D01*
X126512076Y-89839970D01*
X126515044Y-89834572D01*
X126515047Y-89834567D01*
X126608357Y-89664835D01*
X126611324Y-89659438D01*
X126673616Y-89463068D01*
X126674574Y-89454532D01*
X126686363Y-89349426D01*
X126691600Y-89302736D01*
X126691600Y-87691759D01*
X126691300Y-87688694D01*
X126683206Y-87606151D01*
X126676730Y-87540103D01*
X126689989Y-87470357D01*
X126713034Y-87438714D01*
X127057256Y-87094492D01*
X127119568Y-87060466D01*
X127190383Y-87065531D01*
X127247219Y-87108078D01*
X127272030Y-87174598D01*
X127256766Y-87244288D01*
X127210876Y-87327762D01*
X127209013Y-87333635D01*
X127174183Y-87443435D01*
X127148584Y-87524132D01*
X127147898Y-87530249D01*
X127147897Y-87530253D01*
X127143040Y-87573554D01*
X127130600Y-87684464D01*
X127130600Y-89295441D01*
X127145620Y-89448630D01*
X127205165Y-89645851D01*
X127301882Y-89827751D01*
X127368400Y-89909310D01*
X127428194Y-89982625D01*
X127428197Y-89982628D01*
X127432089Y-89987400D01*
X127436836Y-89991327D01*
X127436838Y-89991329D01*
X127586075Y-90114789D01*
X127586079Y-90114791D01*
X127590825Y-90118718D01*
X127687974Y-90171246D01*
X127755600Y-90207811D01*
X127772045Y-90216703D01*
X127968846Y-90277623D01*
X127974971Y-90278267D01*
X127974972Y-90278267D01*
X128167602Y-90298513D01*
X128167604Y-90298513D01*
X128173731Y-90299157D01*
X128260571Y-90291254D01*
X128372758Y-90281045D01*
X128372761Y-90281044D01*
X128378897Y-90280486D01*
X128576528Y-90222320D01*
X128759098Y-90126874D01*
X128763899Y-90123014D01*
X128763902Y-90123012D01*
X128914846Y-90001650D01*
X128914847Y-90001650D01*
X128919653Y-89997785D01*
X129052076Y-89839970D01*
X129055044Y-89834572D01*
X129055047Y-89834567D01*
X129148357Y-89664835D01*
X129151324Y-89659438D01*
X129213616Y-89463068D01*
X129214574Y-89454532D01*
X129226363Y-89349426D01*
X129231600Y-89302736D01*
X129231600Y-89295441D01*
X129670600Y-89295441D01*
X129685620Y-89448630D01*
X129745165Y-89645851D01*
X129841882Y-89827751D01*
X129908400Y-89909310D01*
X129968194Y-89982625D01*
X129968197Y-89982628D01*
X129972089Y-89987400D01*
X129976836Y-89991327D01*
X129976838Y-89991329D01*
X130126075Y-90114789D01*
X130126079Y-90114791D01*
X130130825Y-90118718D01*
X130227974Y-90171246D01*
X130295600Y-90207811D01*
X130312045Y-90216703D01*
X130508846Y-90277623D01*
X130514971Y-90278267D01*
X130514972Y-90278267D01*
X130707602Y-90298513D01*
X130707604Y-90298513D01*
X130713731Y-90299157D01*
X130800571Y-90291254D01*
X130912758Y-90281045D01*
X130912761Y-90281044D01*
X130918897Y-90280486D01*
X131116528Y-90222320D01*
X131299098Y-90126874D01*
X131303899Y-90123014D01*
X131303902Y-90123012D01*
X131454846Y-90001650D01*
X131454847Y-90001650D01*
X131459653Y-89997785D01*
X131592076Y-89839970D01*
X131595044Y-89834572D01*
X131595047Y-89834567D01*
X131688357Y-89664835D01*
X131691324Y-89659438D01*
X131753616Y-89463068D01*
X131754574Y-89454532D01*
X131766363Y-89349426D01*
X131771600Y-89302736D01*
X131771600Y-89295441D01*
X132210600Y-89295441D01*
X132225620Y-89448630D01*
X132285165Y-89645851D01*
X132381882Y-89827751D01*
X132448400Y-89909310D01*
X132508194Y-89982625D01*
X132508197Y-89982628D01*
X132512089Y-89987400D01*
X132516836Y-89991327D01*
X132516838Y-89991329D01*
X132666075Y-90114789D01*
X132666079Y-90114791D01*
X132670825Y-90118718D01*
X132767974Y-90171246D01*
X132835600Y-90207811D01*
X132852045Y-90216703D01*
X133048846Y-90277623D01*
X133054971Y-90278267D01*
X133054972Y-90278267D01*
X133247602Y-90298513D01*
X133247604Y-90298513D01*
X133253731Y-90299157D01*
X133340571Y-90291254D01*
X133452758Y-90281045D01*
X133452761Y-90281044D01*
X133458897Y-90280486D01*
X133656528Y-90222320D01*
X133839098Y-90126874D01*
X133843899Y-90123014D01*
X133843902Y-90123012D01*
X133994846Y-90001650D01*
X133994847Y-90001650D01*
X133999653Y-89997785D01*
X134132076Y-89839970D01*
X134135044Y-89834572D01*
X134135047Y-89834567D01*
X134228357Y-89664835D01*
X134231324Y-89659438D01*
X134293616Y-89463068D01*
X134294574Y-89454532D01*
X134306363Y-89349426D01*
X134311600Y-89302736D01*
X134311600Y-87691759D01*
X134296580Y-87538570D01*
X134237035Y-87341349D01*
X134140318Y-87159449D01*
X134060089Y-87061079D01*
X134014006Y-87004575D01*
X134014001Y-87004570D01*
X134010111Y-86999800D01*
X134005362Y-86995871D01*
X133856125Y-86872411D01*
X133856121Y-86872409D01*
X133851375Y-86868482D01*
X133670155Y-86770497D01*
X133473354Y-86709577D01*
X133467229Y-86708933D01*
X133467228Y-86708933D01*
X133274598Y-86688687D01*
X133274596Y-86688687D01*
X133268469Y-86688043D01*
X133192561Y-86694951D01*
X133069442Y-86706155D01*
X133069439Y-86706156D01*
X133063303Y-86706714D01*
X132865672Y-86764880D01*
X132860207Y-86767737D01*
X132833761Y-86781563D01*
X132683102Y-86860326D01*
X132678301Y-86864186D01*
X132678298Y-86864188D01*
X132530828Y-86982757D01*
X132522547Y-86989415D01*
X132390124Y-87147230D01*
X132387159Y-87152624D01*
X132387153Y-87152633D01*
X132319770Y-87275204D01*
X132290876Y-87327762D01*
X132289013Y-87333635D01*
X132254183Y-87443435D01*
X132228584Y-87524132D01*
X132227898Y-87530249D01*
X132227897Y-87530253D01*
X132223040Y-87573554D01*
X132210600Y-87684464D01*
X132210600Y-89295441D01*
X131771600Y-89295441D01*
X131771600Y-87691759D01*
X131756580Y-87538570D01*
X131697035Y-87341349D01*
X131600318Y-87159449D01*
X131520089Y-87061079D01*
X131474006Y-87004575D01*
X131474001Y-87004570D01*
X131470111Y-86999800D01*
X131465362Y-86995871D01*
X131316125Y-86872411D01*
X131316121Y-86872409D01*
X131311375Y-86868482D01*
X131130155Y-86770497D01*
X130933354Y-86709577D01*
X130927229Y-86708933D01*
X130927228Y-86708933D01*
X130734598Y-86688687D01*
X130734596Y-86688687D01*
X130728469Y-86688043D01*
X130652561Y-86694951D01*
X130529442Y-86706155D01*
X130529439Y-86706156D01*
X130523303Y-86706714D01*
X130325672Y-86764880D01*
X130320207Y-86767737D01*
X130293761Y-86781563D01*
X130143102Y-86860326D01*
X130138301Y-86864186D01*
X130138298Y-86864188D01*
X129990828Y-86982757D01*
X129982547Y-86989415D01*
X129850124Y-87147230D01*
X129847159Y-87152624D01*
X129847153Y-87152633D01*
X129779770Y-87275204D01*
X129750876Y-87327762D01*
X129749013Y-87333635D01*
X129714183Y-87443435D01*
X129688584Y-87524132D01*
X129687898Y-87530249D01*
X129687897Y-87530253D01*
X129683040Y-87573554D01*
X129670600Y-87684464D01*
X129670600Y-89295441D01*
X129231600Y-89295441D01*
X129231600Y-87691759D01*
X129216580Y-87538570D01*
X129157035Y-87341349D01*
X129060318Y-87159449D01*
X128980089Y-87061079D01*
X128934006Y-87004575D01*
X128934001Y-87004570D01*
X128930111Y-86999800D01*
X128925362Y-86995871D01*
X128776125Y-86872411D01*
X128776121Y-86872409D01*
X128771375Y-86868482D01*
X128590155Y-86770497D01*
X128393354Y-86709577D01*
X128387229Y-86708933D01*
X128387228Y-86708933D01*
X128194598Y-86688687D01*
X128194596Y-86688687D01*
X128188469Y-86688043D01*
X128112561Y-86694951D01*
X127989442Y-86706155D01*
X127989439Y-86706156D01*
X127983303Y-86706714D01*
X127785672Y-86764880D01*
X127780207Y-86767737D01*
X127679687Y-86820288D01*
X127610051Y-86834123D01*
X127543990Y-86808113D01*
X127502478Y-86750517D01*
X127498695Y-86679622D01*
X127532216Y-86619532D01*
X128479343Y-85672405D01*
X128541655Y-85638379D01*
X128568438Y-85635500D01*
X137753263Y-85635500D01*
X137821384Y-85655502D01*
X137867877Y-85709158D01*
X137877981Y-85779432D01*
X137848487Y-85844012D01*
X137842360Y-85850592D01*
X136722572Y-86970380D01*
X136721357Y-86972765D01*
X136668320Y-87013661D01*
X136597584Y-87019736D01*
X136542292Y-86993331D01*
X136396125Y-86872411D01*
X136396121Y-86872409D01*
X136391375Y-86868482D01*
X136210155Y-86770497D01*
X136013354Y-86709577D01*
X136007229Y-86708933D01*
X136007228Y-86708933D01*
X135814598Y-86688687D01*
X135814596Y-86688687D01*
X135808469Y-86688043D01*
X135732561Y-86694951D01*
X135609442Y-86706155D01*
X135609439Y-86706156D01*
X135603303Y-86706714D01*
X135405672Y-86764880D01*
X135400207Y-86767737D01*
X135373761Y-86781563D01*
X135223102Y-86860326D01*
X135218301Y-86864186D01*
X135218298Y-86864188D01*
X135070828Y-86982757D01*
X135062547Y-86989415D01*
X134930124Y-87147230D01*
X134927159Y-87152624D01*
X134927153Y-87152633D01*
X134859770Y-87275204D01*
X134830876Y-87327762D01*
X134829013Y-87333635D01*
X134794183Y-87443435D01*
X134768584Y-87524132D01*
X134767898Y-87530249D01*
X134767897Y-87530253D01*
X134763040Y-87573554D01*
X134750600Y-87684464D01*
X134750600Y-89295441D01*
X134765620Y-89448630D01*
X134825165Y-89645851D01*
X134921882Y-89827751D01*
X134988400Y-89909310D01*
X135048194Y-89982625D01*
X135048197Y-89982628D01*
X135052089Y-89987400D01*
X135056836Y-89991327D01*
X135056838Y-89991329D01*
X135206075Y-90114789D01*
X135206079Y-90114791D01*
X135210825Y-90118718D01*
X135307974Y-90171246D01*
X135375600Y-90207811D01*
X135392045Y-90216703D01*
X135588846Y-90277623D01*
X135594971Y-90278267D01*
X135594972Y-90278267D01*
X135787602Y-90298513D01*
X135787604Y-90298513D01*
X135793731Y-90299157D01*
X135880571Y-90291254D01*
X135992758Y-90281045D01*
X135992761Y-90281044D01*
X135998897Y-90280486D01*
X136196528Y-90222320D01*
X136379098Y-90126874D01*
X136440647Y-90077387D01*
X136506271Y-90050291D01*
X136576125Y-90062975D01*
X136628033Y-90111411D01*
X136645600Y-90175584D01*
X136645600Y-90783493D01*
X136653014Y-90806310D01*
X136657628Y-90825529D01*
X136661381Y-90849226D01*
X136665884Y-90858063D01*
X136665884Y-90858064D01*
X136672272Y-90870602D01*
X136679836Y-90888863D01*
X136684185Y-90902247D01*
X136684187Y-90902250D01*
X136687251Y-90911681D01*
X136693080Y-90919704D01*
X136701353Y-90931091D01*
X136711677Y-90947937D01*
X136722572Y-90969320D01*
X137243695Y-91490443D01*
X137277721Y-91552755D01*
X137280600Y-91579538D01*
X137280600Y-93451285D01*
X137260598Y-93519406D01*
X137206750Y-93565986D01*
X137184377Y-93576158D01*
X137184373Y-93576160D01*
X137178919Y-93578640D01*
X137007640Y-93700137D01*
X136978766Y-93730299D01*
X136871087Y-93842783D01*
X136862425Y-93851831D01*
X136859174Y-93856866D01*
X136795108Y-93956087D01*
X136748515Y-94028246D01*
X136746273Y-94033809D01*
X136690278Y-94172751D01*
X136670019Y-94223019D01*
X136668871Y-94228900D01*
X136668869Y-94228905D01*
X136636442Y-94394956D01*
X136629770Y-94429122D01*
X136629500Y-94434643D01*
X136629500Y-95589469D01*
X136644439Y-95746046D01*
X136703553Y-95947549D01*
X136725959Y-95991053D01*
X136790500Y-96116366D01*
X136799705Y-96134239D01*
X136803409Y-96138954D01*
X136925718Y-96294662D01*
X136925722Y-96294667D01*
X136929424Y-96299379D01*
X136933954Y-96303310D01*
X136933955Y-96303311D01*
X137083498Y-96433079D01*
X137083503Y-96433083D01*
X137088029Y-96437010D01*
X137269799Y-96542166D01*
X137368173Y-96576327D01*
X137462509Y-96609086D01*
X137462511Y-96609086D01*
X137468174Y-96611053D01*
X137474109Y-96611914D01*
X137474111Y-96611914D01*
X137670056Y-96640325D01*
X137670059Y-96640325D01*
X137675996Y-96641186D01*
X137885767Y-96631477D01*
X138017547Y-96599718D01*
X138084085Y-96583682D01*
X138084087Y-96583681D01*
X138089918Y-96582276D01*
X138095376Y-96579794D01*
X138095380Y-96579793D01*
X138234174Y-96516687D01*
X138281081Y-96495360D01*
X138452360Y-96373863D01*
X138597575Y-96222169D01*
X138631720Y-96169288D01*
X138708233Y-96050791D01*
X138708234Y-96050788D01*
X138711485Y-96045754D01*
X138751063Y-95947549D01*
X138787739Y-95856545D01*
X138787740Y-95856542D01*
X138789981Y-95850981D01*
X138791129Y-95845100D01*
X138791131Y-95845095D01*
X138829362Y-95649324D01*
X138829362Y-95649321D01*
X138830230Y-95644878D01*
X138830500Y-95639357D01*
X138830500Y-94484531D01*
X138815561Y-94327954D01*
X138812566Y-94317743D01*
X138758133Y-94132199D01*
X138756447Y-94126451D01*
X138672224Y-93962922D01*
X138663041Y-93945092D01*
X138663039Y-93945089D01*
X138660295Y-93939761D01*
X138552654Y-93802727D01*
X138534282Y-93779338D01*
X138534278Y-93779333D01*
X138530576Y-93774621D01*
X138503920Y-93751490D01*
X138376502Y-93640921D01*
X138376497Y-93640917D01*
X138371971Y-93636990D01*
X138194505Y-93534324D01*
X138145557Y-93482899D01*
X138131600Y-93425260D01*
X138131600Y-91283707D01*
X138128537Y-91274280D01*
X138128536Y-91274273D01*
X138124187Y-91260888D01*
X138119573Y-91241669D01*
X138117372Y-91227772D01*
X138117370Y-91227765D01*
X138115819Y-91217974D01*
X138104927Y-91196598D01*
X138097364Y-91178337D01*
X138093014Y-91164950D01*
X138089950Y-91155519D01*
X138075849Y-91136111D01*
X138065517Y-91119252D01*
X138064835Y-91117912D01*
X138054628Y-91097880D01*
X137533505Y-90576757D01*
X137499479Y-90514445D01*
X137496600Y-90487662D01*
X137496600Y-90176168D01*
X137516602Y-90108047D01*
X137570258Y-90061554D01*
X137640532Y-90051450D01*
X137702916Y-90079084D01*
X137746074Y-90114788D01*
X137746076Y-90114790D01*
X137750825Y-90118718D01*
X137847974Y-90171246D01*
X137915600Y-90207811D01*
X137932045Y-90216703D01*
X138128846Y-90277623D01*
X138134971Y-90278267D01*
X138134972Y-90278267D01*
X138327602Y-90298513D01*
X138327604Y-90298513D01*
X138333731Y-90299157D01*
X138420571Y-90291254D01*
X138532758Y-90281045D01*
X138532761Y-90281044D01*
X138538897Y-90280486D01*
X138736528Y-90222320D01*
X138919098Y-90126874D01*
X138980647Y-90077387D01*
X139046271Y-90050291D01*
X139116125Y-90062975D01*
X139168033Y-90111411D01*
X139185600Y-90175584D01*
X139185600Y-92672293D01*
X139193014Y-92695110D01*
X139197628Y-92714329D01*
X139201381Y-92738026D01*
X139205884Y-92746863D01*
X139205884Y-92746864D01*
X139212272Y-92759402D01*
X139219836Y-92777663D01*
X139224185Y-92791047D01*
X139224187Y-92791050D01*
X139227251Y-92800481D01*
X139233080Y-92808504D01*
X139241353Y-92819891D01*
X139251677Y-92836737D01*
X139262572Y-92858120D01*
X139771972Y-93367520D01*
X139805998Y-93429832D01*
X139800933Y-93500647D01*
X139758386Y-93557483D01*
X139735028Y-93571316D01*
X139718919Y-93578640D01*
X139547640Y-93700137D01*
X139518766Y-93730299D01*
X139411087Y-93842783D01*
X139402425Y-93851831D01*
X139399174Y-93856866D01*
X139335108Y-93956087D01*
X139288515Y-94028246D01*
X139286273Y-94033809D01*
X139230278Y-94172751D01*
X139210019Y-94223019D01*
X139208871Y-94228900D01*
X139208869Y-94228905D01*
X139176442Y-94394956D01*
X139169770Y-94429122D01*
X139169500Y-94434643D01*
X139169500Y-95589469D01*
X139184439Y-95746046D01*
X139243553Y-95947549D01*
X139265959Y-95991053D01*
X139330500Y-96116366D01*
X139339705Y-96134239D01*
X139343409Y-96138954D01*
X139465718Y-96294662D01*
X139465722Y-96294667D01*
X139469424Y-96299379D01*
X139473954Y-96303310D01*
X139473955Y-96303311D01*
X139623498Y-96433079D01*
X139623503Y-96433083D01*
X139628029Y-96437010D01*
X139809799Y-96542166D01*
X139908173Y-96576327D01*
X140002509Y-96609086D01*
X140002511Y-96609086D01*
X140008174Y-96611053D01*
X140014109Y-96611914D01*
X140014111Y-96611914D01*
X140210056Y-96640325D01*
X140210059Y-96640325D01*
X140215996Y-96641186D01*
X140425767Y-96631477D01*
X140557547Y-96599718D01*
X140624085Y-96583682D01*
X140624087Y-96583681D01*
X140629918Y-96582276D01*
X140635376Y-96579794D01*
X140635380Y-96579793D01*
X140774174Y-96516687D01*
X140821081Y-96495360D01*
X140992360Y-96373863D01*
X141137575Y-96222169D01*
X141171720Y-96169288D01*
X141248233Y-96050791D01*
X141248234Y-96050788D01*
X141251485Y-96045754D01*
X141291063Y-95947549D01*
X141327739Y-95856545D01*
X141327740Y-95856542D01*
X141329981Y-95850981D01*
X141331129Y-95845100D01*
X141331131Y-95845095D01*
X141369362Y-95649324D01*
X141369362Y-95649321D01*
X141370230Y-95644878D01*
X141370500Y-95639357D01*
X141370500Y-94484531D01*
X141355561Y-94327954D01*
X141352566Y-94317743D01*
X141298133Y-94132199D01*
X141296447Y-94126451D01*
X141212224Y-93962922D01*
X141203041Y-93945092D01*
X141203039Y-93945089D01*
X141200295Y-93939761D01*
X141092654Y-93802727D01*
X141074282Y-93779338D01*
X141074278Y-93779333D01*
X141070576Y-93774621D01*
X141043920Y-93751490D01*
X140916502Y-93640921D01*
X140916497Y-93640917D01*
X140911971Y-93636990D01*
X140734505Y-93534324D01*
X140685557Y-93482899D01*
X140671600Y-93425260D01*
X140671600Y-93172507D01*
X140668537Y-93163080D01*
X140668536Y-93163073D01*
X140664187Y-93149688D01*
X140659573Y-93130469D01*
X140657372Y-93116572D01*
X140657370Y-93116565D01*
X140655819Y-93106774D01*
X140644927Y-93085398D01*
X140637364Y-93067137D01*
X140633014Y-93053750D01*
X140629950Y-93044319D01*
X140621792Y-93033090D01*
X140615849Y-93024911D01*
X140605517Y-93008052D01*
X140599131Y-92995518D01*
X140594628Y-92986680D01*
X140073505Y-92465557D01*
X140039479Y-92403245D01*
X140036600Y-92376462D01*
X140036600Y-90176168D01*
X140056602Y-90108047D01*
X140110258Y-90061554D01*
X140180532Y-90051450D01*
X140242916Y-90079084D01*
X140286074Y-90114788D01*
X140286076Y-90114790D01*
X140290825Y-90118718D01*
X140387974Y-90171246D01*
X140455600Y-90207811D01*
X140472045Y-90216703D01*
X140668846Y-90277623D01*
X140674971Y-90278267D01*
X140674972Y-90278267D01*
X140867602Y-90298513D01*
X140867604Y-90298513D01*
X140873731Y-90299157D01*
X140960571Y-90291254D01*
X141072758Y-90281045D01*
X141072761Y-90281044D01*
X141078897Y-90280486D01*
X141276528Y-90222320D01*
X141459098Y-90126874D01*
X141463899Y-90123014D01*
X141463902Y-90123012D01*
X141619653Y-89997785D01*
X141620869Y-89999297D01*
X141675589Y-89970148D01*
X141746349Y-89975943D01*
X141790195Y-90004443D01*
X142323695Y-90537943D01*
X142357721Y-90600255D01*
X142360600Y-90627038D01*
X142360600Y-93451285D01*
X142340598Y-93519406D01*
X142286750Y-93565986D01*
X142264377Y-93576158D01*
X142264373Y-93576160D01*
X142258919Y-93578640D01*
X142087640Y-93700137D01*
X142058766Y-93730299D01*
X141951087Y-93842783D01*
X141942425Y-93851831D01*
X141939174Y-93856866D01*
X141875108Y-93956087D01*
X141828515Y-94028246D01*
X141826273Y-94033809D01*
X141770278Y-94172751D01*
X141750019Y-94223019D01*
X141748871Y-94228900D01*
X141748869Y-94228905D01*
X141716442Y-94394956D01*
X141709770Y-94429122D01*
X141709500Y-94434643D01*
X141709500Y-95589469D01*
X141724439Y-95746046D01*
X141783553Y-95947549D01*
X141805959Y-95991053D01*
X141870500Y-96116366D01*
X141879705Y-96134239D01*
X141883409Y-96138954D01*
X142005718Y-96294662D01*
X142005722Y-96294667D01*
X142009424Y-96299379D01*
X142013954Y-96303310D01*
X142013955Y-96303311D01*
X142163498Y-96433079D01*
X142163503Y-96433083D01*
X142168029Y-96437010D01*
X142349799Y-96542166D01*
X142448173Y-96576327D01*
X142542509Y-96609086D01*
X142542511Y-96609086D01*
X142548174Y-96611053D01*
X142554109Y-96611914D01*
X142554111Y-96611914D01*
X142750056Y-96640325D01*
X142750059Y-96640325D01*
X142755996Y-96641186D01*
X142862097Y-96636275D01*
X142931069Y-96653106D01*
X142979993Y-96704554D01*
X142993335Y-96774286D01*
X142966860Y-96840161D01*
X142957017Y-96851235D01*
X142840657Y-96967595D01*
X142778345Y-97001621D01*
X142751562Y-97004500D01*
X136838438Y-97004500D01*
X136770317Y-96984498D01*
X136749343Y-96967595D01*
X136108478Y-96326730D01*
X136074452Y-96264418D01*
X136079517Y-96193603D01*
X136091721Y-96169288D01*
X136168230Y-96050796D01*
X136168232Y-96050791D01*
X136171485Y-96045754D01*
X136211063Y-95947549D01*
X136247739Y-95856545D01*
X136247740Y-95856542D01*
X136249981Y-95850981D01*
X136251129Y-95845100D01*
X136251131Y-95845095D01*
X136289362Y-95649324D01*
X136289362Y-95649321D01*
X136290230Y-95644878D01*
X136290500Y-95639357D01*
X136290500Y-94484531D01*
X136275561Y-94327954D01*
X136272566Y-94317743D01*
X136218133Y-94132199D01*
X136216447Y-94126451D01*
X136132224Y-93962922D01*
X136123041Y-93945092D01*
X136123039Y-93945089D01*
X136120295Y-93939761D01*
X136012654Y-93802727D01*
X135994282Y-93779338D01*
X135994278Y-93779333D01*
X135990576Y-93774621D01*
X135963920Y-93751490D01*
X135836502Y-93640921D01*
X135836497Y-93640917D01*
X135831971Y-93636990D01*
X135650201Y-93531834D01*
X135503062Y-93480739D01*
X135457491Y-93464914D01*
X135457489Y-93464914D01*
X135451826Y-93462947D01*
X135445891Y-93462086D01*
X135445889Y-93462086D01*
X135249944Y-93433675D01*
X135249941Y-93433675D01*
X135244004Y-93432814D01*
X135034233Y-93442523D01*
X134902453Y-93474282D01*
X134835915Y-93490318D01*
X134835913Y-93490319D01*
X134830082Y-93491724D01*
X134824624Y-93494206D01*
X134824620Y-93494207D01*
X134734716Y-93535084D01*
X134638919Y-93578640D01*
X134467640Y-93700137D01*
X134438766Y-93730299D01*
X134331087Y-93842783D01*
X134322425Y-93851831D01*
X134319174Y-93856866D01*
X134255108Y-93956087D01*
X134208515Y-94028246D01*
X134206273Y-94033809D01*
X134150278Y-94172751D01*
X134130019Y-94223019D01*
X134128871Y-94228900D01*
X134128869Y-94228905D01*
X134096442Y-94394956D01*
X134089770Y-94429122D01*
X134089500Y-94434643D01*
X134089500Y-95589469D01*
X134104439Y-95746046D01*
X134163553Y-95947549D01*
X134185959Y-95991053D01*
X134250500Y-96116366D01*
X134259705Y-96134239D01*
X134263409Y-96138954D01*
X134385718Y-96294662D01*
X134385722Y-96294667D01*
X134389424Y-96299379D01*
X134393954Y-96303310D01*
X134393955Y-96303311D01*
X134543498Y-96433079D01*
X134543503Y-96433083D01*
X134548029Y-96437010D01*
X134729799Y-96542166D01*
X134828173Y-96576327D01*
X134922509Y-96609086D01*
X134922511Y-96609086D01*
X134928174Y-96611053D01*
X134934109Y-96611914D01*
X134934111Y-96611914D01*
X135130056Y-96640325D01*
X135130059Y-96640325D01*
X135135996Y-96641186D01*
X135160169Y-96640067D01*
X135229140Y-96656897D01*
X135255089Y-96676837D01*
X136356780Y-97778528D01*
X136378163Y-97789423D01*
X136395009Y-97799747D01*
X136414419Y-97813849D01*
X136423850Y-97816913D01*
X136423853Y-97816915D01*
X136437237Y-97821264D01*
X136455498Y-97828828D01*
X136468036Y-97835216D01*
X136476874Y-97839719D01*
X136500571Y-97843472D01*
X136519790Y-97848086D01*
X136542607Y-97855500D01*
X143047393Y-97855500D01*
X143070210Y-97848086D01*
X143089429Y-97843472D01*
X143113126Y-97839719D01*
X143121964Y-97835216D01*
X143134502Y-97828828D01*
X143152763Y-97821264D01*
X143166147Y-97816915D01*
X143166150Y-97816913D01*
X143175581Y-97813849D01*
X143194991Y-97799747D01*
X143211837Y-97789423D01*
X143233220Y-97778528D01*
X144333528Y-96678220D01*
X144344419Y-96656844D01*
X144354749Y-96639989D01*
X144363021Y-96628604D01*
X144363021Y-96628603D01*
X144368850Y-96620581D01*
X144376264Y-96597763D01*
X144383827Y-96579502D01*
X144394719Y-96558126D01*
X144396270Y-96548335D01*
X144396272Y-96548328D01*
X144398473Y-96534431D01*
X144403087Y-96515212D01*
X144407436Y-96501827D01*
X144407437Y-96501820D01*
X144410500Y-96492393D01*
X144410500Y-96454990D01*
X144430502Y-96386869D01*
X144484158Y-96340376D01*
X144554432Y-96330272D01*
X144619080Y-96359824D01*
X144667768Y-96402073D01*
X144708029Y-96437010D01*
X144889799Y-96542166D01*
X144988173Y-96576327D01*
X145082509Y-96609086D01*
X145082511Y-96609086D01*
X145088174Y-96611053D01*
X145094109Y-96611914D01*
X145094111Y-96611914D01*
X145290056Y-96640325D01*
X145290059Y-96640325D01*
X145295996Y-96641186D01*
X145505767Y-96631477D01*
X145637547Y-96599718D01*
X145704085Y-96583682D01*
X145704087Y-96583681D01*
X145709918Y-96582276D01*
X145715376Y-96579794D01*
X145715380Y-96579793D01*
X145901081Y-96495360D01*
X145901799Y-96496938D01*
X145962900Y-96482226D01*
X146029952Y-96505562D01*
X146073744Y-96561444D01*
X146080371Y-96632131D01*
X146045784Y-96697168D01*
X144234257Y-98508695D01*
X144171945Y-98542721D01*
X144145162Y-98545600D01*
X142083707Y-98545600D01*
X142060890Y-98553014D01*
X142041671Y-98557628D01*
X142017974Y-98561381D01*
X142009137Y-98565884D01*
X142009136Y-98565884D01*
X141996598Y-98572272D01*
X141978337Y-98579836D01*
X141964953Y-98584185D01*
X141964950Y-98584187D01*
X141955519Y-98587251D01*
X141947496Y-98593080D01*
X141936109Y-98601353D01*
X141919263Y-98611677D01*
X141897880Y-98622572D01*
X139262572Y-101257880D01*
X139251677Y-101279263D01*
X139241353Y-101296109D01*
X139227251Y-101315519D01*
X139224187Y-101324950D01*
X139224185Y-101324953D01*
X139219836Y-101338337D01*
X139212272Y-101356598D01*
X139201381Y-101377974D01*
X139199830Y-101387768D01*
X139197628Y-101401670D01*
X139193014Y-101420890D01*
X139185600Y-101443707D01*
X139185600Y-102051032D01*
X139165598Y-102119153D01*
X139111942Y-102165646D01*
X139041668Y-102175750D01*
X138979284Y-102148116D01*
X138936126Y-102112412D01*
X138936124Y-102112410D01*
X138931375Y-102108482D01*
X138750155Y-102010497D01*
X138553354Y-101949577D01*
X138547229Y-101948933D01*
X138547228Y-101948933D01*
X138354598Y-101928687D01*
X138354596Y-101928687D01*
X138348469Y-101928043D01*
X138261629Y-101935946D01*
X138149442Y-101946155D01*
X138149439Y-101946156D01*
X138143303Y-101946714D01*
X137945672Y-102004880D01*
X137763102Y-102100326D01*
X137758301Y-102104186D01*
X137758298Y-102104188D01*
X137657604Y-102185148D01*
X137602547Y-102229415D01*
X137470124Y-102387230D01*
X137467156Y-102392628D01*
X137467153Y-102392633D01*
X137444237Y-102434318D01*
X137370876Y-102567762D01*
X137308584Y-102764132D01*
X137307898Y-102770249D01*
X137307897Y-102770253D01*
X137306276Y-102784704D01*
X137290600Y-102924464D01*
X137290600Y-104535441D01*
X137305620Y-104688630D01*
X137365165Y-104885851D01*
X137461882Y-105067751D01*
X137524764Y-105144852D01*
X137588194Y-105222625D01*
X137588197Y-105222628D01*
X137592089Y-105227400D01*
X137596836Y-105231327D01*
X137596838Y-105231329D01*
X137746075Y-105354789D01*
X137746079Y-105354791D01*
X137750825Y-105358718D01*
X137756246Y-105361649D01*
X137915600Y-105447811D01*
X137932045Y-105456703D01*
X138128846Y-105517623D01*
X138134971Y-105518267D01*
X138134972Y-105518267D01*
X138327602Y-105538513D01*
X138327604Y-105538513D01*
X138333731Y-105539157D01*
X138443836Y-105529137D01*
X138455045Y-105528117D01*
X138524698Y-105541863D01*
X138575862Y-105591084D01*
X138592293Y-105660153D01*
X138568775Y-105727141D01*
X138555559Y-105742693D01*
X135801017Y-108497235D01*
X135738705Y-108531261D01*
X135667890Y-108526196D01*
X135659472Y-108522705D01*
X135655393Y-108520837D01*
X135650201Y-108517834D01*
X135639241Y-108514028D01*
X135457491Y-108450914D01*
X135457489Y-108450914D01*
X135451826Y-108448947D01*
X135445891Y-108448086D01*
X135445889Y-108448086D01*
X135249944Y-108419675D01*
X135249941Y-108419675D01*
X135244004Y-108418814D01*
X135034233Y-108428523D01*
X134907961Y-108458955D01*
X134835915Y-108476318D01*
X134835913Y-108476319D01*
X134830082Y-108477724D01*
X134824624Y-108480206D01*
X134824620Y-108480207D01*
X134734716Y-108521084D01*
X134638919Y-108564640D01*
X134565197Y-108616935D01*
X134492091Y-108668793D01*
X134467640Y-108686137D01*
X134322425Y-108837831D01*
X134319174Y-108842866D01*
X134219932Y-108996565D01*
X134208515Y-109014246D01*
X134206273Y-109019809D01*
X134137830Y-109189638D01*
X134130019Y-109209019D01*
X134128871Y-109214900D01*
X134128869Y-109214905D01*
X134090638Y-109410676D01*
X134089770Y-109415122D01*
X134089500Y-109420643D01*
X134089500Y-110575469D01*
X134104439Y-110732046D01*
X134163553Y-110933549D01*
X134185959Y-110977053D01*
X134251610Y-111104521D01*
X134259705Y-111120239D01*
X134284813Y-111152203D01*
X134385718Y-111280662D01*
X134385722Y-111280667D01*
X134389424Y-111285379D01*
X134393954Y-111289310D01*
X134393955Y-111289311D01*
X134543498Y-111419079D01*
X134543503Y-111419083D01*
X134548029Y-111423010D01*
X134729799Y-111528166D01*
X134833385Y-111564137D01*
X134922509Y-111595086D01*
X134922511Y-111595086D01*
X134928174Y-111597053D01*
X134934109Y-111597914D01*
X134934111Y-111597914D01*
X135130056Y-111626325D01*
X135130059Y-111626325D01*
X135135996Y-111627186D01*
X135345767Y-111617477D01*
X135500392Y-111580212D01*
X135544085Y-111569682D01*
X135544087Y-111569681D01*
X135549918Y-111568276D01*
X135555376Y-111565794D01*
X135555380Y-111565793D01*
X135706075Y-111497276D01*
X135741081Y-111481360D01*
X135912360Y-111359863D01*
X136057575Y-111208169D01*
X136103057Y-111137730D01*
X136168233Y-111036791D01*
X136168234Y-111036788D01*
X136171485Y-111031754D01*
X136180958Y-111008248D01*
X136247739Y-110842545D01*
X136247740Y-110842542D01*
X136249981Y-110836981D01*
X136251129Y-110831100D01*
X136251131Y-110831095D01*
X136289362Y-110635324D01*
X136289362Y-110635321D01*
X136290230Y-110630878D01*
X136290500Y-110625357D01*
X136290500Y-109470531D01*
X136283044Y-109392388D01*
X136276131Y-109319923D01*
X136276130Y-109319918D01*
X136275561Y-109313954D01*
X136273874Y-109308204D01*
X136273544Y-109306490D01*
X136280305Y-109235816D01*
X136308176Y-109193572D01*
X136487777Y-109013971D01*
X136550089Y-108979945D01*
X136620904Y-108985010D01*
X136677740Y-109027557D01*
X136702551Y-109094077D01*
X136693738Y-109150165D01*
X136670019Y-109209019D01*
X136668871Y-109214900D01*
X136668869Y-109214905D01*
X136630638Y-109410676D01*
X136629770Y-109415122D01*
X136629500Y-109420643D01*
X136629500Y-110575469D01*
X136644439Y-110732046D01*
X136703553Y-110933549D01*
X136725959Y-110977053D01*
X136791610Y-111104521D01*
X136799705Y-111120239D01*
X136824813Y-111152203D01*
X136925718Y-111280662D01*
X136925722Y-111280667D01*
X136929424Y-111285379D01*
X136933954Y-111289310D01*
X136933955Y-111289311D01*
X137083498Y-111419079D01*
X137083503Y-111419083D01*
X137088029Y-111423010D01*
X137269799Y-111528166D01*
X137373385Y-111564137D01*
X137462509Y-111595086D01*
X137462511Y-111595086D01*
X137468174Y-111597053D01*
X137474109Y-111597914D01*
X137474111Y-111597914D01*
X137670056Y-111626325D01*
X137670059Y-111626325D01*
X137675996Y-111627186D01*
X137885767Y-111617477D01*
X138040392Y-111580212D01*
X138084085Y-111569682D01*
X138084087Y-111569681D01*
X138089918Y-111568276D01*
X138095376Y-111565794D01*
X138095380Y-111565793D01*
X138246075Y-111497276D01*
X138281081Y-111481360D01*
X138452360Y-111359863D01*
X138597575Y-111208169D01*
X138643057Y-111137730D01*
X138708233Y-111036791D01*
X138708234Y-111036788D01*
X138711485Y-111031754D01*
X138720958Y-111008248D01*
X138787739Y-110842545D01*
X138787740Y-110842542D01*
X138789981Y-110836981D01*
X138791129Y-110831100D01*
X138791131Y-110831095D01*
X138829362Y-110635324D01*
X138829362Y-110635321D01*
X138830230Y-110630878D01*
X138830500Y-110625357D01*
X138830500Y-110575469D01*
X139169500Y-110575469D01*
X139184439Y-110732046D01*
X139243553Y-110933549D01*
X139265959Y-110977053D01*
X139331610Y-111104521D01*
X139339705Y-111120239D01*
X139364813Y-111152203D01*
X139465718Y-111280662D01*
X139465722Y-111280667D01*
X139469424Y-111285379D01*
X139473954Y-111289310D01*
X139473955Y-111289311D01*
X139623498Y-111419079D01*
X139623503Y-111419083D01*
X139628029Y-111423010D01*
X139809799Y-111528166D01*
X139913385Y-111564137D01*
X140002509Y-111595086D01*
X140002511Y-111595086D01*
X140008174Y-111597053D01*
X140014109Y-111597914D01*
X140014111Y-111597914D01*
X140210056Y-111626325D01*
X140210059Y-111626325D01*
X140215996Y-111627186D01*
X140425767Y-111617477D01*
X140580392Y-111580212D01*
X140624085Y-111569682D01*
X140624087Y-111569681D01*
X140629918Y-111568276D01*
X140635376Y-111565794D01*
X140635380Y-111565793D01*
X140786075Y-111497276D01*
X140821081Y-111481360D01*
X140992360Y-111359863D01*
X141137575Y-111208169D01*
X141183057Y-111137730D01*
X141248233Y-111036791D01*
X141248234Y-111036788D01*
X141251485Y-111031754D01*
X141260958Y-111008248D01*
X141327739Y-110842545D01*
X141327740Y-110842542D01*
X141329981Y-110836981D01*
X141331129Y-110831100D01*
X141331131Y-110831095D01*
X141369362Y-110635324D01*
X141369362Y-110635321D01*
X141370230Y-110630878D01*
X141370500Y-110625357D01*
X141370500Y-109470531D01*
X141355561Y-109313954D01*
X141353372Y-109306490D01*
X141307511Y-109150165D01*
X141296447Y-109112451D01*
X141220215Y-108964438D01*
X141203041Y-108931092D01*
X141203039Y-108931089D01*
X141200295Y-108925761D01*
X141135180Y-108842866D01*
X141074282Y-108765338D01*
X141074278Y-108765333D01*
X141070576Y-108760621D01*
X141023200Y-108719510D01*
X140916502Y-108626921D01*
X140916497Y-108626917D01*
X140911971Y-108622990D01*
X140730201Y-108517834D01*
X140578273Y-108465076D01*
X140537491Y-108450914D01*
X140537489Y-108450914D01*
X140531826Y-108448947D01*
X140525891Y-108448086D01*
X140525889Y-108448086D01*
X140329944Y-108419675D01*
X140329941Y-108419675D01*
X140324004Y-108418814D01*
X140114233Y-108428523D01*
X139987961Y-108458955D01*
X139915915Y-108476318D01*
X139915913Y-108476319D01*
X139910082Y-108477724D01*
X139904624Y-108480206D01*
X139904620Y-108480207D01*
X139814716Y-108521084D01*
X139718919Y-108564640D01*
X139645197Y-108616935D01*
X139572091Y-108668793D01*
X139547640Y-108686137D01*
X139402425Y-108837831D01*
X139399174Y-108842866D01*
X139299932Y-108996565D01*
X139288515Y-109014246D01*
X139286273Y-109019809D01*
X139217830Y-109189638D01*
X139210019Y-109209019D01*
X139208871Y-109214900D01*
X139208869Y-109214905D01*
X139170638Y-109410676D01*
X139169770Y-109415122D01*
X139169500Y-109420643D01*
X139169500Y-110575469D01*
X138830500Y-110575469D01*
X138830500Y-109470531D01*
X138815561Y-109313954D01*
X138813372Y-109306490D01*
X138775864Y-109178638D01*
X138775881Y-109107642D01*
X138807674Y-109054074D01*
X139660143Y-108201605D01*
X139722455Y-108167579D01*
X139749238Y-108164700D01*
X142288193Y-108164700D01*
X142311010Y-108157286D01*
X142330229Y-108152672D01*
X142353926Y-108148919D01*
X142364974Y-108143290D01*
X142375302Y-108138028D01*
X142393563Y-108130464D01*
X142406947Y-108126115D01*
X142406950Y-108126113D01*
X142416381Y-108123049D01*
X142435791Y-108108947D01*
X142452637Y-108098623D01*
X142474020Y-108087728D01*
X145039628Y-105522120D01*
X145050519Y-105500744D01*
X145060849Y-105483889D01*
X145069121Y-105472504D01*
X145069121Y-105472503D01*
X145074950Y-105464481D01*
X145082364Y-105441663D01*
X145089927Y-105423402D01*
X145100819Y-105402026D01*
X145102370Y-105392233D01*
X145102372Y-105392227D01*
X145103608Y-105384423D01*
X145134021Y-105320271D01*
X145194290Y-105282745D01*
X145265279Y-105283760D01*
X145308371Y-105307051D01*
X145322916Y-105319084D01*
X145366074Y-105354788D01*
X145366076Y-105354790D01*
X145370825Y-105358718D01*
X145376246Y-105361649D01*
X145535600Y-105447811D01*
X145552045Y-105456703D01*
X145748846Y-105517623D01*
X145754971Y-105518267D01*
X145754972Y-105518267D01*
X145947602Y-105538513D01*
X145947604Y-105538513D01*
X145953731Y-105539157D01*
X146063836Y-105529137D01*
X146152758Y-105521045D01*
X146152761Y-105521044D01*
X146158897Y-105520486D01*
X146356528Y-105462320D01*
X146539098Y-105366874D01*
X146543899Y-105363014D01*
X146543902Y-105363012D01*
X146694846Y-105241650D01*
X146694847Y-105241650D01*
X146699653Y-105237785D01*
X146832076Y-105079970D01*
X146835044Y-105074572D01*
X146835047Y-105074567D01*
X146928357Y-104904835D01*
X146931324Y-104899438D01*
X146993616Y-104703068D01*
X146994574Y-104694532D01*
X147006363Y-104589426D01*
X147011600Y-104542736D01*
X147011600Y-104535441D01*
X147450600Y-104535441D01*
X147465620Y-104688630D01*
X147525165Y-104885851D01*
X147621882Y-105067751D01*
X147684764Y-105144852D01*
X147748194Y-105222625D01*
X147748197Y-105222628D01*
X147752089Y-105227400D01*
X147756836Y-105231327D01*
X147756838Y-105231329D01*
X147906075Y-105354789D01*
X147906079Y-105354791D01*
X147910825Y-105358718D01*
X147916246Y-105361649D01*
X148075600Y-105447811D01*
X148092045Y-105456703D01*
X148288846Y-105517623D01*
X148294971Y-105518267D01*
X148294972Y-105518267D01*
X148487602Y-105538513D01*
X148487604Y-105538513D01*
X148493731Y-105539157D01*
X148603836Y-105529137D01*
X148692758Y-105521045D01*
X148692761Y-105521044D01*
X148698897Y-105520486D01*
X148896528Y-105462320D01*
X149079098Y-105366874D01*
X149083899Y-105363014D01*
X149083902Y-105363012D01*
X149234846Y-105241650D01*
X149234847Y-105241650D01*
X149239653Y-105237785D01*
X149372076Y-105079970D01*
X149375044Y-105074572D01*
X149375047Y-105074567D01*
X149468357Y-104904835D01*
X149471324Y-104899438D01*
X149533616Y-104703068D01*
X149534574Y-104694532D01*
X149546363Y-104589426D01*
X149551600Y-104542736D01*
X149551600Y-104535441D01*
X149990600Y-104535441D01*
X150005620Y-104688630D01*
X150065165Y-104885851D01*
X150161882Y-105067751D01*
X150224764Y-105144852D01*
X150288194Y-105222625D01*
X150288197Y-105222628D01*
X150292089Y-105227400D01*
X150296836Y-105231327D01*
X150296838Y-105231329D01*
X150446075Y-105354789D01*
X150446079Y-105354791D01*
X150450825Y-105358718D01*
X150456246Y-105361649D01*
X150615600Y-105447811D01*
X150632045Y-105456703D01*
X150828846Y-105517623D01*
X150834971Y-105518267D01*
X150834972Y-105518267D01*
X151027602Y-105538513D01*
X151027604Y-105538513D01*
X151033731Y-105539157D01*
X151143836Y-105529137D01*
X151232758Y-105521045D01*
X151232761Y-105521044D01*
X151238897Y-105520486D01*
X151436528Y-105462320D01*
X151619098Y-105366874D01*
X151623899Y-105363014D01*
X151623902Y-105363012D01*
X151774846Y-105241650D01*
X151774847Y-105241650D01*
X151779653Y-105237785D01*
X151912076Y-105079970D01*
X151915044Y-105074572D01*
X151915047Y-105074567D01*
X152008357Y-104904835D01*
X152011324Y-104899438D01*
X152073616Y-104703068D01*
X152074574Y-104694532D01*
X152078636Y-104658314D01*
X152081147Y-104635924D01*
X152108618Y-104570459D01*
X152167121Y-104530236D01*
X152238084Y-104528028D01*
X152298974Y-104564536D01*
X152330462Y-104628169D01*
X152331863Y-104638769D01*
X152337478Y-104701677D01*
X152339460Y-104712692D01*
X152395751Y-104918460D01*
X152399649Y-104928941D01*
X152491497Y-105121503D01*
X152497182Y-105131116D01*
X152621675Y-105304367D01*
X152628983Y-105312833D01*
X152782182Y-105461292D01*
X152790879Y-105468335D01*
X152967944Y-105587319D01*
X152977742Y-105592705D01*
X153173090Y-105678457D01*
X153183682Y-105682022D01*
X153309484Y-105712224D01*
X153323570Y-105711519D01*
X153327100Y-105702640D01*
X153327100Y-101765189D01*
X153322995Y-101751207D01*
X153313372Y-101749714D01*
X153313127Y-101749766D01*
X153109217Y-101812498D01*
X153098871Y-101816719D01*
X152909286Y-101914571D01*
X152899855Y-101920557D01*
X152730599Y-102050432D01*
X152722376Y-102057993D01*
X152578788Y-102215794D01*
X152572033Y-102224694D01*
X152458666Y-102405415D01*
X152453589Y-102415381D01*
X152374020Y-102613314D01*
X152370785Y-102624029D01*
X152328791Y-102826811D01*
X152295391Y-102889460D01*
X152233422Y-102924107D01*
X152162559Y-102919750D01*
X152105301Y-102877774D01*
X152080010Y-102813554D01*
X152077181Y-102784704D01*
X152077181Y-102784703D01*
X152076580Y-102778570D01*
X152017035Y-102581349D01*
X151920318Y-102399449D01*
X151813126Y-102268019D01*
X151794006Y-102244575D01*
X151794003Y-102244572D01*
X151790111Y-102239800D01*
X151783273Y-102234143D01*
X151636125Y-102112411D01*
X151636121Y-102112409D01*
X151631375Y-102108482D01*
X151450155Y-102010497D01*
X151253354Y-101949577D01*
X151247229Y-101948933D01*
X151247228Y-101948933D01*
X151054598Y-101928687D01*
X151054596Y-101928687D01*
X151048469Y-101928043D01*
X150961629Y-101935946D01*
X150849442Y-101946155D01*
X150849439Y-101946156D01*
X150843303Y-101946714D01*
X150645672Y-102004880D01*
X150463102Y-102100326D01*
X150458301Y-102104186D01*
X150458298Y-102104188D01*
X150357604Y-102185148D01*
X150302547Y-102229415D01*
X150170124Y-102387230D01*
X150167156Y-102392628D01*
X150167153Y-102392633D01*
X150144237Y-102434318D01*
X150070876Y-102567762D01*
X150008584Y-102764132D01*
X150007898Y-102770249D01*
X150007897Y-102770253D01*
X150006276Y-102784704D01*
X149990600Y-102924464D01*
X149990600Y-104535441D01*
X149551600Y-104535441D01*
X149551600Y-102931759D01*
X149536580Y-102778570D01*
X149477035Y-102581349D01*
X149380318Y-102399449D01*
X149273126Y-102268019D01*
X149254006Y-102244575D01*
X149254003Y-102244572D01*
X149250111Y-102239800D01*
X149243273Y-102234143D01*
X149096125Y-102112411D01*
X149096121Y-102112409D01*
X149091375Y-102108482D01*
X148910155Y-102010497D01*
X148713354Y-101949577D01*
X148707229Y-101948933D01*
X148707228Y-101948933D01*
X148514598Y-101928687D01*
X148514596Y-101928687D01*
X148508469Y-101928043D01*
X148421629Y-101935946D01*
X148309442Y-101946155D01*
X148309439Y-101946156D01*
X148303303Y-101946714D01*
X148105672Y-102004880D01*
X147923102Y-102100326D01*
X147918301Y-102104186D01*
X147918298Y-102104188D01*
X147817604Y-102185148D01*
X147762547Y-102229415D01*
X147630124Y-102387230D01*
X147627156Y-102392628D01*
X147627153Y-102392633D01*
X147604237Y-102434318D01*
X147530876Y-102567762D01*
X147468584Y-102764132D01*
X147467898Y-102770249D01*
X147467897Y-102770253D01*
X147466276Y-102784704D01*
X147450600Y-102924464D01*
X147450600Y-104535441D01*
X147011600Y-104535441D01*
X147011600Y-102931759D01*
X146996580Y-102778570D01*
X146937035Y-102581349D01*
X146840318Y-102399449D01*
X146733126Y-102268019D01*
X146714006Y-102244575D01*
X146714003Y-102244572D01*
X146710111Y-102239800D01*
X146703273Y-102234143D01*
X146556125Y-102112411D01*
X146556121Y-102112409D01*
X146551375Y-102108482D01*
X146370155Y-102010497D01*
X146173354Y-101949577D01*
X146167231Y-101948934D01*
X146167229Y-101948933D01*
X146104443Y-101942334D01*
X146038786Y-101915320D01*
X145998157Y-101857099D01*
X145995454Y-101786154D01*
X146028519Y-101727929D01*
X146100443Y-101656005D01*
X146162755Y-101621979D01*
X146189538Y-101619100D01*
X146980993Y-101619100D01*
X147003810Y-101611686D01*
X147023029Y-101607072D01*
X147046726Y-101603319D01*
X147055564Y-101598816D01*
X147068102Y-101592428D01*
X147086363Y-101584864D01*
X147099747Y-101580515D01*
X147099750Y-101580513D01*
X147109181Y-101577449D01*
X147128591Y-101563347D01*
X147145437Y-101553023D01*
X147166820Y-101542128D01*
X147262128Y-101446820D01*
X151929318Y-96779629D01*
X151929320Y-96779628D01*
X152024628Y-96684320D01*
X152035521Y-96662941D01*
X152045849Y-96646088D01*
X152054121Y-96634703D01*
X152054122Y-96634701D01*
X152059949Y-96626681D01*
X152063014Y-96617249D01*
X152067364Y-96603863D01*
X152074928Y-96585602D01*
X152081316Y-96573064D01*
X152081316Y-96573063D01*
X152085819Y-96564226D01*
X152089572Y-96540529D01*
X152094186Y-96521310D01*
X152101600Y-96498493D01*
X152101600Y-96492706D01*
X152131028Y-96430627D01*
X152191296Y-96393099D01*
X152262285Y-96394112D01*
X152307645Y-96419322D01*
X152319485Y-96429596D01*
X152328029Y-96437010D01*
X152509799Y-96542166D01*
X152608173Y-96576327D01*
X152702509Y-96609086D01*
X152702511Y-96609086D01*
X152708174Y-96611053D01*
X152714109Y-96611914D01*
X152714111Y-96611914D01*
X152910056Y-96640325D01*
X152910059Y-96640325D01*
X152915996Y-96641186D01*
X153125767Y-96631477D01*
X153257547Y-96599718D01*
X153324085Y-96583682D01*
X153324087Y-96583681D01*
X153329918Y-96582276D01*
X153335376Y-96579794D01*
X153335380Y-96579793D01*
X153474174Y-96516687D01*
X153521081Y-96495360D01*
X153692360Y-96373863D01*
X153837575Y-96222169D01*
X153871720Y-96169288D01*
X153948233Y-96050791D01*
X153948234Y-96050788D01*
X153951485Y-96045754D01*
X153991063Y-95947549D01*
X154015156Y-95887767D01*
X154059171Y-95832061D01*
X154126317Y-95808995D01*
X154195273Y-95825892D01*
X154244148Y-95877388D01*
X154253729Y-95902255D01*
X154274764Y-95980761D01*
X154278510Y-95991053D01*
X154370586Y-96188511D01*
X154376069Y-96198007D01*
X154501028Y-96376467D01*
X154508084Y-96384875D01*
X154662125Y-96538916D01*
X154670533Y-96545972D01*
X154848993Y-96670931D01*
X154858489Y-96676414D01*
X155055947Y-96768490D01*
X155066239Y-96772236D01*
X155238503Y-96818394D01*
X155252599Y-96818058D01*
X155256000Y-96810116D01*
X155256000Y-93269033D01*
X155252027Y-93255502D01*
X155243478Y-93254273D01*
X155066239Y-93301764D01*
X155055947Y-93305510D01*
X154858489Y-93397586D01*
X154848993Y-93403069D01*
X154670533Y-93528028D01*
X154662125Y-93535084D01*
X154508084Y-93689125D01*
X154501028Y-93697533D01*
X154376069Y-93875993D01*
X154370586Y-93885489D01*
X154278510Y-94082947D01*
X154274764Y-94093239D01*
X154253469Y-94172713D01*
X154216517Y-94233336D01*
X154152656Y-94264357D01*
X154082162Y-94255929D01*
X154027415Y-94210726D01*
X154010857Y-94175571D01*
X153998133Y-94132199D01*
X153996447Y-94126451D01*
X153912224Y-93962922D01*
X153903041Y-93945092D01*
X153903039Y-93945089D01*
X153900295Y-93939761D01*
X153792654Y-93802727D01*
X153774282Y-93779338D01*
X153774278Y-93779333D01*
X153770576Y-93774621D01*
X153743920Y-93751490D01*
X153616502Y-93640921D01*
X153616497Y-93640917D01*
X153611971Y-93636990D01*
X153430201Y-93531834D01*
X153283062Y-93480739D01*
X153237491Y-93464914D01*
X153237489Y-93464914D01*
X153231826Y-93462947D01*
X153225891Y-93462086D01*
X153225889Y-93462086D01*
X153185266Y-93456196D01*
X153120720Y-93426626D01*
X153082408Y-93366854D01*
X153082492Y-93295858D01*
X153120947Y-93236177D01*
X153185563Y-93206761D01*
X153203346Y-93205500D01*
X154490193Y-93205500D01*
X154513010Y-93198086D01*
X154532229Y-93193472D01*
X154555926Y-93189719D01*
X154564764Y-93185216D01*
X154577302Y-93178828D01*
X154595563Y-93171264D01*
X154608947Y-93166915D01*
X154608950Y-93166913D01*
X154618381Y-93163849D01*
X154637791Y-93149747D01*
X154654637Y-93139423D01*
X154676020Y-93128528D01*
X157779061Y-90025487D01*
X157841373Y-89991461D01*
X157912188Y-89996526D01*
X157948469Y-90017496D01*
X158005126Y-90064367D01*
X158066074Y-90114788D01*
X158066076Y-90114790D01*
X158070825Y-90118718D01*
X158167974Y-90171246D01*
X158218725Y-90198687D01*
X158271063Y-90252320D01*
X158274187Y-90258451D01*
X158277251Y-90267881D01*
X158285903Y-90279790D01*
X158291353Y-90287291D01*
X158301677Y-90304137D01*
X158312572Y-90325520D01*
X158877595Y-90890543D01*
X158911621Y-90952855D01*
X158914500Y-90979638D01*
X158914500Y-93553929D01*
X158894498Y-93622050D01*
X158840842Y-93668543D01*
X158770568Y-93678647D01*
X158705920Y-93649094D01*
X158691971Y-93636990D01*
X158510201Y-93531834D01*
X158363062Y-93480739D01*
X158317491Y-93464914D01*
X158317489Y-93464914D01*
X158311826Y-93462947D01*
X158305891Y-93462086D01*
X158305889Y-93462086D01*
X158109944Y-93433675D01*
X158109941Y-93433675D01*
X158104004Y-93432814D01*
X157894233Y-93442523D01*
X157762453Y-93474282D01*
X157695915Y-93490318D01*
X157695913Y-93490319D01*
X157690082Y-93491724D01*
X157684624Y-93494206D01*
X157684620Y-93494207D01*
X157594716Y-93535084D01*
X157498919Y-93578640D01*
X157327640Y-93700137D01*
X157298766Y-93730299D01*
X157191087Y-93842783D01*
X157182425Y-93851831D01*
X157179174Y-93856866D01*
X157115108Y-93956087D01*
X157068515Y-94028246D01*
X157066273Y-94033809D01*
X157004844Y-94186233D01*
X156960829Y-94241939D01*
X156893683Y-94265005D01*
X156824727Y-94248108D01*
X156775852Y-94196612D01*
X156766271Y-94171745D01*
X156745236Y-94093239D01*
X156741490Y-94082947D01*
X156649414Y-93885489D01*
X156643931Y-93875993D01*
X156518972Y-93697533D01*
X156511916Y-93689125D01*
X156357875Y-93535084D01*
X156349467Y-93528028D01*
X156171007Y-93403069D01*
X156161511Y-93397586D01*
X155964053Y-93305510D01*
X155953761Y-93301764D01*
X155781497Y-93255606D01*
X155767401Y-93255942D01*
X155764000Y-93263884D01*
X155764000Y-96804967D01*
X155767973Y-96818498D01*
X155776522Y-96819727D01*
X155953761Y-96772236D01*
X155964053Y-96768490D01*
X156161511Y-96676414D01*
X156171007Y-96670931D01*
X156349467Y-96545972D01*
X156357875Y-96538916D01*
X156511916Y-96384875D01*
X156518972Y-96376467D01*
X156643931Y-96198007D01*
X156649414Y-96188511D01*
X156741490Y-95991053D01*
X156745236Y-95980761D01*
X156766531Y-95901287D01*
X156803483Y-95840664D01*
X156867344Y-95809643D01*
X156937838Y-95818071D01*
X156992585Y-95863274D01*
X157009143Y-95898428D01*
X157023553Y-95947549D01*
X157045959Y-95991053D01*
X157110500Y-96116366D01*
X157119705Y-96134239D01*
X157123409Y-96138954D01*
X157245718Y-96294662D01*
X157245722Y-96294667D01*
X157249424Y-96299379D01*
X157253954Y-96303310D01*
X157253955Y-96303311D01*
X157403498Y-96433079D01*
X157403503Y-96433083D01*
X157408029Y-96437010D01*
X157589799Y-96542166D01*
X157688173Y-96576327D01*
X157782509Y-96609086D01*
X157782511Y-96609086D01*
X157788174Y-96611053D01*
X157794109Y-96611914D01*
X157794111Y-96611914D01*
X157990056Y-96640325D01*
X157990059Y-96640325D01*
X157995996Y-96641186D01*
X158205767Y-96631477D01*
X158337547Y-96599718D01*
X158404085Y-96583682D01*
X158404087Y-96583681D01*
X158409918Y-96582276D01*
X158415376Y-96579794D01*
X158415380Y-96579793D01*
X158554174Y-96516687D01*
X158601081Y-96495360D01*
X158683339Y-96437010D01*
X158715600Y-96414126D01*
X158782734Y-96391028D01*
X158851699Y-96407892D01*
X158900598Y-96459364D01*
X158914500Y-96516896D01*
X158914500Y-99604162D01*
X158894498Y-99672283D01*
X158877595Y-99693257D01*
X157042572Y-101528280D01*
X157031677Y-101549663D01*
X157021353Y-101566509D01*
X157007251Y-101585919D01*
X157004187Y-101595350D01*
X157004185Y-101595353D01*
X156999836Y-101608737D01*
X156992272Y-101626998D01*
X156981381Y-101648374D01*
X156979830Y-101658168D01*
X156977628Y-101672070D01*
X156973014Y-101691290D01*
X156965600Y-101714107D01*
X156965600Y-102051032D01*
X156945598Y-102119153D01*
X156891942Y-102165646D01*
X156821668Y-102175750D01*
X156759284Y-102148116D01*
X156716126Y-102112412D01*
X156716124Y-102112410D01*
X156711375Y-102108482D01*
X156530155Y-102010497D01*
X156333354Y-101949577D01*
X156327229Y-101948933D01*
X156327228Y-101948933D01*
X156134598Y-101928687D01*
X156134596Y-101928687D01*
X156128469Y-101928043D01*
X156041629Y-101935946D01*
X155929442Y-101946155D01*
X155929439Y-101946156D01*
X155923303Y-101946714D01*
X155725672Y-102004880D01*
X155543102Y-102100326D01*
X155538301Y-102104186D01*
X155538298Y-102104188D01*
X155437604Y-102185148D01*
X155382547Y-102229415D01*
X155250124Y-102387230D01*
X155247156Y-102392628D01*
X155247153Y-102392633D01*
X155224237Y-102434318D01*
X155150876Y-102567762D01*
X155088584Y-102764132D01*
X155087898Y-102770249D01*
X155087897Y-102770253D01*
X155086276Y-102784704D01*
X155081554Y-102826811D01*
X155081053Y-102831275D01*
X155053582Y-102896741D01*
X154995079Y-102936964D01*
X154924116Y-102939172D01*
X154863226Y-102902664D01*
X154831738Y-102839031D01*
X154830337Y-102828431D01*
X154824722Y-102765523D01*
X154822740Y-102754508D01*
X154766449Y-102548740D01*
X154762551Y-102538259D01*
X154670703Y-102345697D01*
X154665018Y-102336084D01*
X154540525Y-102162833D01*
X154533217Y-102154367D01*
X154380018Y-102005908D01*
X154371321Y-101998865D01*
X154194256Y-101879881D01*
X154184458Y-101874495D01*
X153989110Y-101788743D01*
X153978518Y-101785178D01*
X153852716Y-101754976D01*
X153838630Y-101755681D01*
X153835100Y-101764560D01*
X153835100Y-105702011D01*
X153839205Y-105715993D01*
X153848828Y-105717486D01*
X153849073Y-105717434D01*
X154052983Y-105654702D01*
X154063329Y-105650481D01*
X154252914Y-105552629D01*
X154262345Y-105546643D01*
X154431601Y-105416768D01*
X154439824Y-105409207D01*
X154583412Y-105251406D01*
X154590167Y-105242506D01*
X154703534Y-105061785D01*
X154708611Y-105051819D01*
X154788180Y-104853886D01*
X154791415Y-104843171D01*
X154833409Y-104640389D01*
X154866809Y-104577740D01*
X154928778Y-104543093D01*
X154999641Y-104547450D01*
X155056899Y-104589426D01*
X155082190Y-104653646D01*
X155085620Y-104688630D01*
X155145165Y-104885851D01*
X155241882Y-105067751D01*
X155304764Y-105144852D01*
X155368194Y-105222625D01*
X155368197Y-105222628D01*
X155372089Y-105227400D01*
X155376836Y-105231327D01*
X155376838Y-105231329D01*
X155526075Y-105354789D01*
X155526079Y-105354791D01*
X155530825Y-105358718D01*
X155536246Y-105361649D01*
X155695600Y-105447811D01*
X155712045Y-105456703D01*
X155908846Y-105517623D01*
X155914971Y-105518267D01*
X155914972Y-105518267D01*
X156107602Y-105538513D01*
X156107604Y-105538513D01*
X156113731Y-105539157D01*
X156223836Y-105529137D01*
X156312758Y-105521045D01*
X156312761Y-105521044D01*
X156318897Y-105520486D01*
X156516528Y-105462320D01*
X156699098Y-105366874D01*
X156760647Y-105317387D01*
X156826271Y-105290291D01*
X156896125Y-105302975D01*
X156948033Y-105351411D01*
X156965600Y-105415584D01*
X156965600Y-107979793D01*
X156973014Y-108002610D01*
X156977628Y-108021829D01*
X156981381Y-108045526D01*
X156985884Y-108054363D01*
X156985884Y-108054364D01*
X156992272Y-108066902D01*
X156999836Y-108085163D01*
X157004185Y-108098547D01*
X157004187Y-108098550D01*
X157007251Y-108107981D01*
X157013080Y-108116004D01*
X157021353Y-108127391D01*
X157031677Y-108144237D01*
X157042572Y-108165620D01*
X157359858Y-108482906D01*
X157393884Y-108545218D01*
X157388819Y-108616033D01*
X157343663Y-108674771D01*
X157327640Y-108686137D01*
X157182425Y-108837831D01*
X157179174Y-108842866D01*
X157079932Y-108996565D01*
X157068515Y-109014246D01*
X157066273Y-109019809D01*
X157004844Y-109172233D01*
X156960829Y-109227939D01*
X156893683Y-109251005D01*
X156824727Y-109234108D01*
X156775852Y-109182612D01*
X156766271Y-109157745D01*
X156745236Y-109079239D01*
X156741490Y-109068947D01*
X156649414Y-108871489D01*
X156643931Y-108861993D01*
X156518972Y-108683533D01*
X156511916Y-108675125D01*
X156357875Y-108521084D01*
X156349467Y-108514028D01*
X156171007Y-108389069D01*
X156161511Y-108383586D01*
X155964053Y-108291510D01*
X155953761Y-108287764D01*
X155781497Y-108241606D01*
X155767401Y-108241942D01*
X155764000Y-108249884D01*
X155764000Y-110151000D01*
X155743998Y-110219121D01*
X155690342Y-110265614D01*
X155638000Y-110277000D01*
X155382000Y-110277000D01*
X155313879Y-110256998D01*
X155267386Y-110203342D01*
X155256000Y-110151000D01*
X155256000Y-108255033D01*
X155252027Y-108241502D01*
X155243478Y-108240273D01*
X155066239Y-108287764D01*
X155055947Y-108291510D01*
X154858489Y-108383586D01*
X154848993Y-108389069D01*
X154670533Y-108514028D01*
X154662125Y-108521084D01*
X154508084Y-108675125D01*
X154501028Y-108683533D01*
X154376069Y-108861993D01*
X154370586Y-108871489D01*
X154278510Y-109068947D01*
X154274764Y-109079239D01*
X154253469Y-109158713D01*
X154216517Y-109219336D01*
X154152656Y-109250357D01*
X154082162Y-109241929D01*
X154027415Y-109196726D01*
X154010857Y-109161571D01*
X154007511Y-109150165D01*
X153996447Y-109112451D01*
X153920215Y-108964438D01*
X153903041Y-108931092D01*
X153903039Y-108931089D01*
X153900295Y-108925761D01*
X153835180Y-108842866D01*
X153774282Y-108765338D01*
X153774278Y-108765333D01*
X153770576Y-108760621D01*
X153723200Y-108719510D01*
X153616502Y-108626921D01*
X153616497Y-108626917D01*
X153611971Y-108622990D01*
X153430201Y-108517834D01*
X153278273Y-108465076D01*
X153237491Y-108450914D01*
X153237489Y-108450914D01*
X153231826Y-108448947D01*
X153225891Y-108448086D01*
X153225889Y-108448086D01*
X153029944Y-108419675D01*
X153029941Y-108419675D01*
X153024004Y-108418814D01*
X152814233Y-108428523D01*
X152687961Y-108458955D01*
X152615915Y-108476318D01*
X152615913Y-108476319D01*
X152610082Y-108477724D01*
X152604624Y-108480206D01*
X152604620Y-108480207D01*
X152514716Y-108521084D01*
X152418919Y-108564640D01*
X152345197Y-108616935D01*
X152272091Y-108668793D01*
X152247640Y-108686137D01*
X152102425Y-108837831D01*
X152099174Y-108842866D01*
X151999932Y-108996565D01*
X151988515Y-109014246D01*
X151986273Y-109019809D01*
X151917830Y-109189638D01*
X151910019Y-109209019D01*
X151908871Y-109214900D01*
X151908869Y-109214905D01*
X151870638Y-109410676D01*
X151869770Y-109415122D01*
X151869500Y-109420643D01*
X151869500Y-110575469D01*
X151884439Y-110732046D01*
X151943553Y-110933549D01*
X151965959Y-110977053D01*
X152031610Y-111104521D01*
X152039705Y-111120239D01*
X152064813Y-111152203D01*
X152165718Y-111280662D01*
X152165722Y-111280667D01*
X152169424Y-111285379D01*
X152173954Y-111289310D01*
X152173955Y-111289311D01*
X152323498Y-111419079D01*
X152323503Y-111419083D01*
X152328029Y-111423010D01*
X152509799Y-111528166D01*
X152613385Y-111564137D01*
X152702509Y-111595086D01*
X152702511Y-111595086D01*
X152708174Y-111597053D01*
X152714109Y-111597914D01*
X152714111Y-111597914D01*
X152910056Y-111626325D01*
X152910059Y-111626325D01*
X152915996Y-111627186D01*
X153125767Y-111617477D01*
X153280392Y-111580212D01*
X153324085Y-111569682D01*
X153324087Y-111569681D01*
X153329918Y-111568276D01*
X153335376Y-111565794D01*
X153335380Y-111565793D01*
X153486075Y-111497276D01*
X153521081Y-111481360D01*
X153692360Y-111359863D01*
X153837575Y-111208169D01*
X153883057Y-111137730D01*
X153948233Y-111036791D01*
X153948234Y-111036788D01*
X153951485Y-111031754D01*
X153960958Y-111008248D01*
X154015156Y-110873767D01*
X154059171Y-110818061D01*
X154126317Y-110794995D01*
X154195273Y-110811892D01*
X154244148Y-110863388D01*
X154253729Y-110888255D01*
X154274764Y-110966761D01*
X154278510Y-110977053D01*
X154370586Y-111174511D01*
X154376069Y-111184007D01*
X154501028Y-111362467D01*
X154508084Y-111370875D01*
X154662125Y-111524916D01*
X154670533Y-111531972D01*
X154848993Y-111656931D01*
X154858489Y-111662414D01*
X155055947Y-111754490D01*
X155066239Y-111758236D01*
X155172816Y-111786793D01*
X155233439Y-111823745D01*
X155264460Y-111887605D01*
X155256032Y-111958100D01*
X155210829Y-112012847D01*
X155140205Y-112034500D01*
X143787238Y-112034500D01*
X143719117Y-112014498D01*
X143698143Y-111997595D01*
X143361785Y-111661237D01*
X143327759Y-111598925D01*
X143332824Y-111528110D01*
X143377979Y-111469373D01*
X143532360Y-111359863D01*
X143677575Y-111208169D01*
X143723057Y-111137730D01*
X143788233Y-111036791D01*
X143788234Y-111036788D01*
X143791485Y-111031754D01*
X143800958Y-111008248D01*
X143867739Y-110842545D01*
X143867740Y-110842542D01*
X143869981Y-110836981D01*
X143871129Y-110831100D01*
X143871131Y-110831095D01*
X143909362Y-110635324D01*
X143909362Y-110635321D01*
X143910230Y-110630878D01*
X143910500Y-110625357D01*
X143910500Y-110575469D01*
X144249500Y-110575469D01*
X144264439Y-110732046D01*
X144323553Y-110933549D01*
X144345959Y-110977053D01*
X144411610Y-111104521D01*
X144419705Y-111120239D01*
X144444813Y-111152203D01*
X144545718Y-111280662D01*
X144545722Y-111280667D01*
X144549424Y-111285379D01*
X144553954Y-111289310D01*
X144553955Y-111289311D01*
X144703498Y-111419079D01*
X144703503Y-111419083D01*
X144708029Y-111423010D01*
X144889799Y-111528166D01*
X144993385Y-111564137D01*
X145082509Y-111595086D01*
X145082511Y-111595086D01*
X145088174Y-111597053D01*
X145094109Y-111597914D01*
X145094111Y-111597914D01*
X145290056Y-111626325D01*
X145290059Y-111626325D01*
X145295996Y-111627186D01*
X145505767Y-111617477D01*
X145660392Y-111580212D01*
X145704085Y-111569682D01*
X145704087Y-111569681D01*
X145709918Y-111568276D01*
X145715376Y-111565794D01*
X145715380Y-111565793D01*
X145866075Y-111497276D01*
X145901081Y-111481360D01*
X146072360Y-111359863D01*
X146217575Y-111208169D01*
X146263057Y-111137730D01*
X146328233Y-111036791D01*
X146328234Y-111036788D01*
X146331485Y-111031754D01*
X146340958Y-111008248D01*
X146407739Y-110842545D01*
X146407740Y-110842542D01*
X146409981Y-110836981D01*
X146411129Y-110831100D01*
X146411131Y-110831095D01*
X146449362Y-110635324D01*
X146449362Y-110635321D01*
X146450230Y-110630878D01*
X146450500Y-110625357D01*
X146450500Y-110575469D01*
X146789500Y-110575469D01*
X146804439Y-110732046D01*
X146863553Y-110933549D01*
X146885959Y-110977053D01*
X146951610Y-111104521D01*
X146959705Y-111120239D01*
X146984813Y-111152203D01*
X147085718Y-111280662D01*
X147085722Y-111280667D01*
X147089424Y-111285379D01*
X147093954Y-111289310D01*
X147093955Y-111289311D01*
X147243498Y-111419079D01*
X147243503Y-111419083D01*
X147248029Y-111423010D01*
X147429799Y-111528166D01*
X147533385Y-111564137D01*
X147622509Y-111595086D01*
X147622511Y-111595086D01*
X147628174Y-111597053D01*
X147634109Y-111597914D01*
X147634111Y-111597914D01*
X147830056Y-111626325D01*
X147830059Y-111626325D01*
X147835996Y-111627186D01*
X148045767Y-111617477D01*
X148200392Y-111580212D01*
X148244085Y-111569682D01*
X148244087Y-111569681D01*
X148249918Y-111568276D01*
X148255376Y-111565794D01*
X148255380Y-111565793D01*
X148406075Y-111497276D01*
X148441081Y-111481360D01*
X148612360Y-111359863D01*
X148757575Y-111208169D01*
X148803057Y-111137730D01*
X148868233Y-111036791D01*
X148868234Y-111036788D01*
X148871485Y-111031754D01*
X148880958Y-111008248D01*
X148947739Y-110842545D01*
X148947740Y-110842542D01*
X148949981Y-110836981D01*
X148951129Y-110831100D01*
X148951131Y-110831095D01*
X148989362Y-110635324D01*
X148989362Y-110635321D01*
X148990230Y-110630878D01*
X148990500Y-110625357D01*
X148990500Y-110575469D01*
X149329500Y-110575469D01*
X149344439Y-110732046D01*
X149403553Y-110933549D01*
X149425959Y-110977053D01*
X149491610Y-111104521D01*
X149499705Y-111120239D01*
X149524813Y-111152203D01*
X149625718Y-111280662D01*
X149625722Y-111280667D01*
X149629424Y-111285379D01*
X149633954Y-111289310D01*
X149633955Y-111289311D01*
X149783498Y-111419079D01*
X149783503Y-111419083D01*
X149788029Y-111423010D01*
X149969799Y-111528166D01*
X150073385Y-111564137D01*
X150162509Y-111595086D01*
X150162511Y-111595086D01*
X150168174Y-111597053D01*
X150174109Y-111597914D01*
X150174111Y-111597914D01*
X150370056Y-111626325D01*
X150370059Y-111626325D01*
X150375996Y-111627186D01*
X150585767Y-111617477D01*
X150740392Y-111580212D01*
X150784085Y-111569682D01*
X150784087Y-111569681D01*
X150789918Y-111568276D01*
X150795376Y-111565794D01*
X150795380Y-111565793D01*
X150946075Y-111497276D01*
X150981081Y-111481360D01*
X151152360Y-111359863D01*
X151297575Y-111208169D01*
X151343057Y-111137730D01*
X151408233Y-111036791D01*
X151408234Y-111036788D01*
X151411485Y-111031754D01*
X151420958Y-111008248D01*
X151487739Y-110842545D01*
X151487740Y-110842542D01*
X151489981Y-110836981D01*
X151491129Y-110831100D01*
X151491131Y-110831095D01*
X151529362Y-110635324D01*
X151529362Y-110635321D01*
X151530230Y-110630878D01*
X151530500Y-110625357D01*
X151530500Y-109470531D01*
X151515561Y-109313954D01*
X151513372Y-109306490D01*
X151467511Y-109150165D01*
X151456447Y-109112451D01*
X151380215Y-108964438D01*
X151363041Y-108931092D01*
X151363039Y-108931089D01*
X151360295Y-108925761D01*
X151295180Y-108842866D01*
X151234282Y-108765338D01*
X151234278Y-108765333D01*
X151230576Y-108760621D01*
X151183200Y-108719510D01*
X151076502Y-108626921D01*
X151076497Y-108626917D01*
X151071971Y-108622990D01*
X150890201Y-108517834D01*
X150738273Y-108465076D01*
X150697491Y-108450914D01*
X150697489Y-108450914D01*
X150691826Y-108448947D01*
X150685891Y-108448086D01*
X150685889Y-108448086D01*
X150489944Y-108419675D01*
X150489941Y-108419675D01*
X150484004Y-108418814D01*
X150274233Y-108428523D01*
X150147961Y-108458955D01*
X150075915Y-108476318D01*
X150075913Y-108476319D01*
X150070082Y-108477724D01*
X150064624Y-108480206D01*
X150064620Y-108480207D01*
X149974716Y-108521084D01*
X149878919Y-108564640D01*
X149805197Y-108616935D01*
X149732091Y-108668793D01*
X149707640Y-108686137D01*
X149562425Y-108837831D01*
X149559174Y-108842866D01*
X149459932Y-108996565D01*
X149448515Y-109014246D01*
X149446273Y-109019809D01*
X149377830Y-109189638D01*
X149370019Y-109209019D01*
X149368871Y-109214900D01*
X149368869Y-109214905D01*
X149330638Y-109410676D01*
X149329770Y-109415122D01*
X149329500Y-109420643D01*
X149329500Y-110575469D01*
X148990500Y-110575469D01*
X148990500Y-109470531D01*
X148975561Y-109313954D01*
X148973372Y-109306490D01*
X148927511Y-109150165D01*
X148916447Y-109112451D01*
X148840215Y-108964438D01*
X148823041Y-108931092D01*
X148823039Y-108931089D01*
X148820295Y-108925761D01*
X148755180Y-108842866D01*
X148694282Y-108765338D01*
X148694278Y-108765333D01*
X148690576Y-108760621D01*
X148643200Y-108719510D01*
X148536502Y-108626921D01*
X148536497Y-108626917D01*
X148531971Y-108622990D01*
X148350201Y-108517834D01*
X148198273Y-108465076D01*
X148157491Y-108450914D01*
X148157489Y-108450914D01*
X148151826Y-108448947D01*
X148145891Y-108448086D01*
X148145889Y-108448086D01*
X147949944Y-108419675D01*
X147949941Y-108419675D01*
X147944004Y-108418814D01*
X147734233Y-108428523D01*
X147607961Y-108458955D01*
X147535915Y-108476318D01*
X147535913Y-108476319D01*
X147530082Y-108477724D01*
X147524624Y-108480206D01*
X147524620Y-108480207D01*
X147434716Y-108521084D01*
X147338919Y-108564640D01*
X147265197Y-108616935D01*
X147192091Y-108668793D01*
X147167640Y-108686137D01*
X147022425Y-108837831D01*
X147019174Y-108842866D01*
X146919932Y-108996565D01*
X146908515Y-109014246D01*
X146906273Y-109019809D01*
X146837830Y-109189638D01*
X146830019Y-109209019D01*
X146828871Y-109214900D01*
X146828869Y-109214905D01*
X146790638Y-109410676D01*
X146789770Y-109415122D01*
X146789500Y-109420643D01*
X146789500Y-110575469D01*
X146450500Y-110575469D01*
X146450500Y-109470531D01*
X146435561Y-109313954D01*
X146433372Y-109306490D01*
X146387511Y-109150165D01*
X146376447Y-109112451D01*
X146300215Y-108964438D01*
X146283041Y-108931092D01*
X146283039Y-108931089D01*
X146280295Y-108925761D01*
X146215180Y-108842866D01*
X146154282Y-108765338D01*
X146154278Y-108765333D01*
X146150576Y-108760621D01*
X146103200Y-108719510D01*
X145996502Y-108626921D01*
X145996497Y-108626917D01*
X145991971Y-108622990D01*
X145810201Y-108517834D01*
X145658273Y-108465076D01*
X145617491Y-108450914D01*
X145617489Y-108450914D01*
X145611826Y-108448947D01*
X145605891Y-108448086D01*
X145605889Y-108448086D01*
X145409944Y-108419675D01*
X145409941Y-108419675D01*
X145404004Y-108418814D01*
X145194233Y-108428523D01*
X145067961Y-108458955D01*
X144995915Y-108476318D01*
X144995913Y-108476319D01*
X144990082Y-108477724D01*
X144984624Y-108480206D01*
X144984620Y-108480207D01*
X144894716Y-108521084D01*
X144798919Y-108564640D01*
X144725197Y-108616935D01*
X144652091Y-108668793D01*
X144627640Y-108686137D01*
X144482425Y-108837831D01*
X144479174Y-108842866D01*
X144379932Y-108996565D01*
X144368515Y-109014246D01*
X144366273Y-109019809D01*
X144297830Y-109189638D01*
X144290019Y-109209019D01*
X144288871Y-109214900D01*
X144288869Y-109214905D01*
X144250638Y-109410676D01*
X144249770Y-109415122D01*
X144249500Y-109420643D01*
X144249500Y-110575469D01*
X143910500Y-110575469D01*
X143910500Y-109470531D01*
X143895561Y-109313954D01*
X143893372Y-109306490D01*
X143847511Y-109150165D01*
X143836447Y-109112451D01*
X143760215Y-108964438D01*
X143743041Y-108931092D01*
X143743039Y-108931089D01*
X143740295Y-108925761D01*
X143675180Y-108842866D01*
X143614282Y-108765338D01*
X143614278Y-108765333D01*
X143610576Y-108760621D01*
X143563200Y-108719510D01*
X143456502Y-108626921D01*
X143456497Y-108626917D01*
X143451971Y-108622990D01*
X143270201Y-108517834D01*
X143118273Y-108465076D01*
X143077491Y-108450914D01*
X143077489Y-108450914D01*
X143071826Y-108448947D01*
X143065891Y-108448086D01*
X143065889Y-108448086D01*
X142869944Y-108419675D01*
X142869941Y-108419675D01*
X142864004Y-108418814D01*
X142654233Y-108428523D01*
X142527961Y-108458955D01*
X142455915Y-108476318D01*
X142455913Y-108476319D01*
X142450082Y-108477724D01*
X142444624Y-108480206D01*
X142444620Y-108480207D01*
X142354716Y-108521084D01*
X142258919Y-108564640D01*
X142185197Y-108616935D01*
X142112091Y-108668793D01*
X142087640Y-108686137D01*
X141942425Y-108837831D01*
X141939174Y-108842866D01*
X141839932Y-108996565D01*
X141828515Y-109014246D01*
X141826273Y-109019809D01*
X141757830Y-109189638D01*
X141750019Y-109209019D01*
X141748871Y-109214900D01*
X141748869Y-109214905D01*
X141710638Y-109410676D01*
X141709770Y-109415122D01*
X141709500Y-109420643D01*
X141709500Y-110575469D01*
X141724439Y-110732046D01*
X141783553Y-110933549D01*
X141805959Y-110977053D01*
X141871610Y-111104521D01*
X141879705Y-111120239D01*
X141904813Y-111152203D01*
X142005718Y-111280662D01*
X142005722Y-111280667D01*
X142009424Y-111285379D01*
X142013954Y-111289310D01*
X142013955Y-111289311D01*
X142163498Y-111419079D01*
X142163503Y-111419083D01*
X142168029Y-111423010D01*
X142296404Y-111497276D01*
X142297695Y-111498023D01*
X142346643Y-111549448D01*
X142360600Y-111607087D01*
X142360600Y-111754693D01*
X142368014Y-111777510D01*
X142372628Y-111796729D01*
X142376381Y-111820426D01*
X142380884Y-111829263D01*
X142380884Y-111829264D01*
X142387272Y-111841802D01*
X142394836Y-111860063D01*
X142399185Y-111873447D01*
X142399187Y-111873450D01*
X142402251Y-111882881D01*
X142408080Y-111890904D01*
X142416353Y-111902291D01*
X142426677Y-111919137D01*
X142437572Y-111940520D01*
X143176457Y-112679405D01*
X143210483Y-112741717D01*
X143205418Y-112812532D01*
X143162871Y-112869368D01*
X143096351Y-112894179D01*
X143087362Y-112894500D01*
X130578438Y-112894500D01*
X130510317Y-112874498D01*
X130489343Y-112857595D01*
X128972405Y-111340657D01*
X128938379Y-111278345D01*
X128935500Y-111251562D01*
X128935500Y-111165914D01*
X128955502Y-111097793D01*
X129009158Y-111051300D01*
X129079432Y-111041196D01*
X129144012Y-111070690D01*
X129173515Y-111108221D01*
X129179705Y-111120239D01*
X129204813Y-111152203D01*
X129305718Y-111280662D01*
X129305722Y-111280667D01*
X129309424Y-111285379D01*
X129313954Y-111289310D01*
X129313955Y-111289311D01*
X129463498Y-111419079D01*
X129463503Y-111419083D01*
X129468029Y-111423010D01*
X129649799Y-111528166D01*
X129753385Y-111564137D01*
X129842509Y-111595086D01*
X129842511Y-111595086D01*
X129848174Y-111597053D01*
X129854109Y-111597914D01*
X129854111Y-111597914D01*
X130050056Y-111626325D01*
X130050059Y-111626325D01*
X130055996Y-111627186D01*
X130265767Y-111617477D01*
X130420392Y-111580212D01*
X130464085Y-111569682D01*
X130464087Y-111569681D01*
X130469918Y-111568276D01*
X130475376Y-111565794D01*
X130475380Y-111565793D01*
X130626075Y-111497276D01*
X130661081Y-111481360D01*
X130832360Y-111359863D01*
X130977575Y-111208169D01*
X131023057Y-111137730D01*
X131088233Y-111036791D01*
X131088234Y-111036788D01*
X131091485Y-111031754D01*
X131100958Y-111008248D01*
X131167739Y-110842545D01*
X131167740Y-110842542D01*
X131169981Y-110836981D01*
X131171129Y-110831100D01*
X131171131Y-110831095D01*
X131209362Y-110635324D01*
X131209362Y-110635321D01*
X131210230Y-110630878D01*
X131210500Y-110625357D01*
X131210500Y-110575469D01*
X131549500Y-110575469D01*
X131564439Y-110732046D01*
X131623553Y-110933549D01*
X131645959Y-110977053D01*
X131711610Y-111104521D01*
X131719705Y-111120239D01*
X131744813Y-111152203D01*
X131845718Y-111280662D01*
X131845722Y-111280667D01*
X131849424Y-111285379D01*
X131853954Y-111289310D01*
X131853955Y-111289311D01*
X132003498Y-111419079D01*
X132003503Y-111419083D01*
X132008029Y-111423010D01*
X132189799Y-111528166D01*
X132293385Y-111564137D01*
X132382509Y-111595086D01*
X132382511Y-111595086D01*
X132388174Y-111597053D01*
X132394109Y-111597914D01*
X132394111Y-111597914D01*
X132590056Y-111626325D01*
X132590059Y-111626325D01*
X132595996Y-111627186D01*
X132805767Y-111617477D01*
X132960392Y-111580212D01*
X133004085Y-111569682D01*
X133004087Y-111569681D01*
X133009918Y-111568276D01*
X133015376Y-111565794D01*
X133015380Y-111565793D01*
X133166075Y-111497276D01*
X133201081Y-111481360D01*
X133372360Y-111359863D01*
X133517575Y-111208169D01*
X133563057Y-111137730D01*
X133628233Y-111036791D01*
X133628234Y-111036788D01*
X133631485Y-111031754D01*
X133640958Y-111008248D01*
X133707739Y-110842545D01*
X133707740Y-110842542D01*
X133709981Y-110836981D01*
X133711129Y-110831100D01*
X133711131Y-110831095D01*
X133749362Y-110635324D01*
X133749362Y-110635321D01*
X133750230Y-110630878D01*
X133750500Y-110625357D01*
X133750500Y-109470531D01*
X133735561Y-109313954D01*
X133733372Y-109306490D01*
X133687511Y-109150165D01*
X133676447Y-109112451D01*
X133600215Y-108964438D01*
X133583041Y-108931092D01*
X133583039Y-108931089D01*
X133580295Y-108925761D01*
X133515180Y-108842866D01*
X133454282Y-108765338D01*
X133454278Y-108765333D01*
X133450576Y-108760621D01*
X133403200Y-108719510D01*
X133296502Y-108626921D01*
X133296497Y-108626917D01*
X133291971Y-108622990D01*
X133110201Y-108517834D01*
X132958273Y-108465076D01*
X132917491Y-108450914D01*
X132917489Y-108450914D01*
X132911826Y-108448947D01*
X132905891Y-108448086D01*
X132905889Y-108448086D01*
X132709944Y-108419675D01*
X132709941Y-108419675D01*
X132704004Y-108418814D01*
X132494233Y-108428523D01*
X132367961Y-108458955D01*
X132295915Y-108476318D01*
X132295913Y-108476319D01*
X132290082Y-108477724D01*
X132284624Y-108480206D01*
X132284620Y-108480207D01*
X132194716Y-108521084D01*
X132098919Y-108564640D01*
X132025197Y-108616935D01*
X131952091Y-108668793D01*
X131927640Y-108686137D01*
X131782425Y-108837831D01*
X131779174Y-108842866D01*
X131679932Y-108996565D01*
X131668515Y-109014246D01*
X131666273Y-109019809D01*
X131597830Y-109189638D01*
X131590019Y-109209019D01*
X131588871Y-109214900D01*
X131588869Y-109214905D01*
X131550638Y-109410676D01*
X131549770Y-109415122D01*
X131549500Y-109420643D01*
X131549500Y-110575469D01*
X131210500Y-110575469D01*
X131210500Y-109470531D01*
X131195561Y-109313954D01*
X131193372Y-109306490D01*
X131147511Y-109150165D01*
X131136447Y-109112451D01*
X131060215Y-108964438D01*
X131043041Y-108931092D01*
X131043039Y-108931089D01*
X131040295Y-108925761D01*
X130975180Y-108842866D01*
X130914282Y-108765338D01*
X130914278Y-108765333D01*
X130910576Y-108760621D01*
X130863200Y-108719510D01*
X130756502Y-108626921D01*
X130756497Y-108626917D01*
X130751971Y-108622990D01*
X130570201Y-108517834D01*
X130418273Y-108465076D01*
X130377491Y-108450914D01*
X130377489Y-108450914D01*
X130371826Y-108448947D01*
X130365891Y-108448086D01*
X130365889Y-108448086D01*
X130169944Y-108419675D01*
X130169941Y-108419675D01*
X130164004Y-108418814D01*
X129954233Y-108428523D01*
X129827961Y-108458955D01*
X129755915Y-108476318D01*
X129755913Y-108476319D01*
X129750082Y-108477724D01*
X129744624Y-108480206D01*
X129744620Y-108480207D01*
X129654716Y-108521084D01*
X129558919Y-108564640D01*
X129485197Y-108616935D01*
X129412091Y-108668793D01*
X129387640Y-108686137D01*
X129242425Y-108837831D01*
X129239174Y-108842866D01*
X129167352Y-108954098D01*
X129113596Y-109000476D01*
X129043301Y-109010429D01*
X128978784Y-108980797D01*
X128940528Y-108920989D01*
X128935500Y-108885750D01*
X128935500Y-108032607D01*
X128928086Y-108009790D01*
X128923472Y-107990570D01*
X128921270Y-107976668D01*
X128919719Y-107966874D01*
X128913009Y-107953704D01*
X128908828Y-107945498D01*
X128901264Y-107927237D01*
X128896915Y-107913853D01*
X128896913Y-107913850D01*
X128893849Y-107904419D01*
X128879747Y-107885009D01*
X128869423Y-107868163D01*
X128858528Y-107846780D01*
X126401926Y-105390178D01*
X126367900Y-105327866D01*
X126372965Y-105257051D01*
X126394499Y-105220092D01*
X126512076Y-105079970D01*
X126515044Y-105074572D01*
X126515047Y-105074567D01*
X126608357Y-104904835D01*
X126611324Y-104899438D01*
X126673616Y-104703068D01*
X126674574Y-104694532D01*
X126686363Y-104589426D01*
X126691600Y-104542736D01*
X126691600Y-104535441D01*
X127130600Y-104535441D01*
X127145620Y-104688630D01*
X127205165Y-104885851D01*
X127301882Y-105067751D01*
X127364764Y-105144852D01*
X127428194Y-105222625D01*
X127428197Y-105222628D01*
X127432089Y-105227400D01*
X127436836Y-105231327D01*
X127436838Y-105231329D01*
X127586075Y-105354789D01*
X127586079Y-105354791D01*
X127590825Y-105358718D01*
X127596246Y-105361649D01*
X127755600Y-105447811D01*
X127772045Y-105456703D01*
X127968846Y-105517623D01*
X127974971Y-105518267D01*
X127974972Y-105518267D01*
X128167602Y-105538513D01*
X128167604Y-105538513D01*
X128173731Y-105539157D01*
X128283836Y-105529137D01*
X128372758Y-105521045D01*
X128372761Y-105521044D01*
X128378897Y-105520486D01*
X128576528Y-105462320D01*
X128759098Y-105366874D01*
X128763899Y-105363014D01*
X128763902Y-105363012D01*
X128914846Y-105241650D01*
X128914847Y-105241650D01*
X128919653Y-105237785D01*
X129052076Y-105079970D01*
X129055044Y-105074572D01*
X129055047Y-105074567D01*
X129148357Y-104904835D01*
X129151324Y-104899438D01*
X129213616Y-104703068D01*
X129214574Y-104694532D01*
X129226363Y-104589426D01*
X129231600Y-104542736D01*
X129231600Y-103337038D01*
X129251602Y-103268917D01*
X129268505Y-103247943D01*
X129455505Y-103060943D01*
X129517817Y-103026917D01*
X129588632Y-103031982D01*
X129645468Y-103074529D01*
X129670279Y-103141049D01*
X129670600Y-103150038D01*
X129670600Y-104535441D01*
X129685620Y-104688630D01*
X129745165Y-104885851D01*
X129841882Y-105067751D01*
X129904764Y-105144852D01*
X129968194Y-105222625D01*
X129968197Y-105222628D01*
X129972089Y-105227400D01*
X129976836Y-105231327D01*
X129976838Y-105231329D01*
X130126075Y-105354789D01*
X130126079Y-105354791D01*
X130130825Y-105358718D01*
X130136246Y-105361649D01*
X130295600Y-105447811D01*
X130312045Y-105456703D01*
X130508846Y-105517623D01*
X130514971Y-105518267D01*
X130514972Y-105518267D01*
X130707602Y-105538513D01*
X130707604Y-105538513D01*
X130713731Y-105539157D01*
X130823836Y-105529137D01*
X130912758Y-105521045D01*
X130912761Y-105521044D01*
X130918897Y-105520486D01*
X131116528Y-105462320D01*
X131299098Y-105366874D01*
X131303899Y-105363014D01*
X131303902Y-105363012D01*
X131454846Y-105241650D01*
X131454847Y-105241650D01*
X131459653Y-105237785D01*
X131592076Y-105079970D01*
X131595044Y-105074572D01*
X131595047Y-105074567D01*
X131688357Y-104904835D01*
X131691324Y-104899438D01*
X131753616Y-104703068D01*
X131754574Y-104694532D01*
X131766363Y-104589426D01*
X131771600Y-104542736D01*
X131771600Y-104535441D01*
X132210600Y-104535441D01*
X132225620Y-104688630D01*
X132285165Y-104885851D01*
X132381882Y-105067751D01*
X132444764Y-105144852D01*
X132508194Y-105222625D01*
X132508197Y-105222628D01*
X132512089Y-105227400D01*
X132516836Y-105231327D01*
X132516838Y-105231329D01*
X132666075Y-105354789D01*
X132666079Y-105354791D01*
X132670825Y-105358718D01*
X132676246Y-105361649D01*
X132835600Y-105447811D01*
X132852045Y-105456703D01*
X133048846Y-105517623D01*
X133054971Y-105518267D01*
X133054972Y-105518267D01*
X133247602Y-105538513D01*
X133247604Y-105538513D01*
X133253731Y-105539157D01*
X133363836Y-105529137D01*
X133452758Y-105521045D01*
X133452761Y-105521044D01*
X133458897Y-105520486D01*
X133656528Y-105462320D01*
X133839098Y-105366874D01*
X133843899Y-105363014D01*
X133843902Y-105363012D01*
X133994846Y-105241650D01*
X133994847Y-105241650D01*
X133999653Y-105237785D01*
X134132076Y-105079970D01*
X134135044Y-105074572D01*
X134135047Y-105074567D01*
X134228357Y-104904835D01*
X134231324Y-104899438D01*
X134293616Y-104703068D01*
X134294574Y-104694532D01*
X134306363Y-104589426D01*
X134311600Y-104542736D01*
X134311600Y-104535441D01*
X134750600Y-104535441D01*
X134765620Y-104688630D01*
X134825165Y-104885851D01*
X134921882Y-105067751D01*
X134984764Y-105144852D01*
X135048194Y-105222625D01*
X135048197Y-105222628D01*
X135052089Y-105227400D01*
X135056836Y-105231327D01*
X135056838Y-105231329D01*
X135206075Y-105354789D01*
X135206079Y-105354791D01*
X135210825Y-105358718D01*
X135216246Y-105361649D01*
X135375600Y-105447811D01*
X135392045Y-105456703D01*
X135588846Y-105517623D01*
X135594971Y-105518267D01*
X135594972Y-105518267D01*
X135787602Y-105538513D01*
X135787604Y-105538513D01*
X135793731Y-105539157D01*
X135903836Y-105529137D01*
X135992758Y-105521045D01*
X135992761Y-105521044D01*
X135998897Y-105520486D01*
X136196528Y-105462320D01*
X136379098Y-105366874D01*
X136383899Y-105363014D01*
X136383902Y-105363012D01*
X136534846Y-105241650D01*
X136534847Y-105241650D01*
X136539653Y-105237785D01*
X136672076Y-105079970D01*
X136675044Y-105074572D01*
X136675047Y-105074567D01*
X136768357Y-104904835D01*
X136771324Y-104899438D01*
X136833616Y-104703068D01*
X136834574Y-104694532D01*
X136846363Y-104589426D01*
X136851600Y-104542736D01*
X136851600Y-102931759D01*
X136836580Y-102778570D01*
X136777035Y-102581349D01*
X136680318Y-102399449D01*
X136573126Y-102268019D01*
X136554006Y-102244575D01*
X136554003Y-102244572D01*
X136550111Y-102239800D01*
X136543273Y-102234143D01*
X136396125Y-102112411D01*
X136396121Y-102112409D01*
X136391375Y-102108482D01*
X136210155Y-102010497D01*
X136013354Y-101949577D01*
X136007229Y-101948933D01*
X136007228Y-101948933D01*
X135814598Y-101928687D01*
X135814596Y-101928687D01*
X135808469Y-101928043D01*
X135721629Y-101935946D01*
X135609442Y-101946155D01*
X135609439Y-101946156D01*
X135603303Y-101946714D01*
X135405672Y-102004880D01*
X135223102Y-102100326D01*
X135218301Y-102104186D01*
X135218298Y-102104188D01*
X135117604Y-102185148D01*
X135062547Y-102229415D01*
X134930124Y-102387230D01*
X134927156Y-102392628D01*
X134927153Y-102392633D01*
X134904237Y-102434318D01*
X134830876Y-102567762D01*
X134768584Y-102764132D01*
X134767898Y-102770249D01*
X134767897Y-102770253D01*
X134766276Y-102784704D01*
X134750600Y-102924464D01*
X134750600Y-104535441D01*
X134311600Y-104535441D01*
X134311600Y-102931759D01*
X134296580Y-102778570D01*
X134237035Y-102581349D01*
X134140318Y-102399449D01*
X134033126Y-102268019D01*
X134014006Y-102244575D01*
X134014003Y-102244572D01*
X134010111Y-102239800D01*
X134003273Y-102234143D01*
X133856125Y-102112411D01*
X133856121Y-102112409D01*
X133851375Y-102108482D01*
X133670155Y-102010497D01*
X133473354Y-101949577D01*
X133467229Y-101948933D01*
X133467228Y-101948933D01*
X133274598Y-101928687D01*
X133274596Y-101928687D01*
X133268469Y-101928043D01*
X133181629Y-101935946D01*
X133069442Y-101946155D01*
X133069439Y-101946156D01*
X133063303Y-101946714D01*
X132865672Y-102004880D01*
X132683102Y-102100326D01*
X132678301Y-102104186D01*
X132678298Y-102104188D01*
X132577604Y-102185148D01*
X132522547Y-102229415D01*
X132390124Y-102387230D01*
X132387156Y-102392628D01*
X132387153Y-102392633D01*
X132364237Y-102434318D01*
X132290876Y-102567762D01*
X132228584Y-102764132D01*
X132227898Y-102770249D01*
X132227897Y-102770253D01*
X132226276Y-102784704D01*
X132210600Y-102924464D01*
X132210600Y-104535441D01*
X131771600Y-104535441D01*
X131771600Y-102931759D01*
X131756580Y-102778570D01*
X131697035Y-102581349D01*
X131600318Y-102399449D01*
X131493126Y-102268019D01*
X131474006Y-102244575D01*
X131474003Y-102244572D01*
X131470111Y-102239800D01*
X131463273Y-102234143D01*
X131316125Y-102112411D01*
X131316121Y-102112409D01*
X131311375Y-102108482D01*
X131130155Y-102010497D01*
X130933354Y-101949577D01*
X130927231Y-101948934D01*
X130927229Y-101948933D01*
X130864443Y-101942334D01*
X130798786Y-101915320D01*
X130758157Y-101857099D01*
X130755454Y-101786154D01*
X130788519Y-101727929D01*
X132974628Y-99541820D01*
X132985523Y-99520437D01*
X132995847Y-99503591D01*
X133004120Y-99492204D01*
X133009949Y-99484181D01*
X133013013Y-99474750D01*
X133013015Y-99474747D01*
X133017364Y-99461363D01*
X133024928Y-99443102D01*
X133031316Y-99430564D01*
X133031316Y-99430563D01*
X133035819Y-99421726D01*
X133039572Y-99398029D01*
X133044186Y-99378810D01*
X133051600Y-99355993D01*
X133051600Y-96644448D01*
X133071602Y-96576327D01*
X133125450Y-96529747D01*
X133195622Y-96497842D01*
X133201081Y-96495360D01*
X133372360Y-96373863D01*
X133517575Y-96222169D01*
X133551720Y-96169288D01*
X133628233Y-96050791D01*
X133628234Y-96050788D01*
X133631485Y-96045754D01*
X133671063Y-95947549D01*
X133707739Y-95856545D01*
X133707740Y-95856542D01*
X133709981Y-95850981D01*
X133711129Y-95845100D01*
X133711131Y-95845095D01*
X133749362Y-95649324D01*
X133749362Y-95649321D01*
X133750230Y-95644878D01*
X133750500Y-95639357D01*
X133750500Y-94484531D01*
X133735561Y-94327954D01*
X133732566Y-94317743D01*
X133678133Y-94132199D01*
X133676447Y-94126451D01*
X133592224Y-93962922D01*
X133583041Y-93945092D01*
X133583039Y-93945089D01*
X133580295Y-93939761D01*
X133472654Y-93802727D01*
X133454282Y-93779338D01*
X133454278Y-93779333D01*
X133450576Y-93774621D01*
X133423920Y-93751490D01*
X133296502Y-93640921D01*
X133296497Y-93640917D01*
X133291971Y-93636990D01*
X133110201Y-93531834D01*
X132963062Y-93480739D01*
X132917491Y-93464914D01*
X132917489Y-93464914D01*
X132911826Y-93462947D01*
X132905891Y-93462086D01*
X132905889Y-93462086D01*
X132709944Y-93433675D01*
X132709941Y-93433675D01*
X132704004Y-93432814D01*
X132494233Y-93442523D01*
X132362453Y-93474282D01*
X132295915Y-93490318D01*
X132295913Y-93490319D01*
X132290082Y-93491724D01*
X132284624Y-93494206D01*
X132284620Y-93494207D01*
X132194716Y-93535084D01*
X132098919Y-93578640D01*
X131927640Y-93700137D01*
X131898766Y-93730299D01*
X131791087Y-93842783D01*
X131782425Y-93851831D01*
X131779174Y-93856866D01*
X131715108Y-93956087D01*
X131668515Y-94028246D01*
X131666273Y-94033809D01*
X131610278Y-94172751D01*
X131590019Y-94223019D01*
X131588871Y-94228900D01*
X131588869Y-94228905D01*
X131556442Y-94394956D01*
X131549770Y-94429122D01*
X131549500Y-94434643D01*
X131549500Y-95589469D01*
X131564439Y-95746046D01*
X131623553Y-95947549D01*
X131645959Y-95991053D01*
X131710500Y-96116366D01*
X131719705Y-96134239D01*
X131723409Y-96138954D01*
X131845718Y-96294662D01*
X131845722Y-96294667D01*
X131849424Y-96299379D01*
X131853954Y-96303310D01*
X131853955Y-96303311D01*
X132003498Y-96433079D01*
X132003503Y-96433083D01*
X132008029Y-96437010D01*
X132130608Y-96507923D01*
X132137695Y-96512023D01*
X132186643Y-96563448D01*
X132200600Y-96621087D01*
X132200600Y-99060162D01*
X132180598Y-99128283D01*
X132163695Y-99149257D01*
X129089463Y-102223489D01*
X129027151Y-102257515D01*
X128956336Y-102252450D01*
X128920053Y-102231479D01*
X128776125Y-102112411D01*
X128776121Y-102112409D01*
X128771375Y-102108482D01*
X128590155Y-102010497D01*
X128393354Y-101949577D01*
X128387229Y-101948933D01*
X128387228Y-101948933D01*
X128194598Y-101928687D01*
X128194596Y-101928687D01*
X128188469Y-101928043D01*
X128101629Y-101935946D01*
X127989442Y-101946155D01*
X127989439Y-101946156D01*
X127983303Y-101946714D01*
X127785672Y-102004880D01*
X127603102Y-102100326D01*
X127598301Y-102104186D01*
X127598298Y-102104188D01*
X127497604Y-102185148D01*
X127442547Y-102229415D01*
X127310124Y-102387230D01*
X127307156Y-102392628D01*
X127307153Y-102392633D01*
X127284237Y-102434318D01*
X127210876Y-102567762D01*
X127148584Y-102764132D01*
X127147898Y-102770249D01*
X127147897Y-102770253D01*
X127146276Y-102784704D01*
X127130600Y-102924464D01*
X127130600Y-104535441D01*
X126691600Y-104535441D01*
X126691600Y-102931759D01*
X126676580Y-102778570D01*
X126617035Y-102581349D01*
X126520318Y-102399449D01*
X126413126Y-102268019D01*
X126394006Y-102244575D01*
X126394003Y-102244572D01*
X126390111Y-102239800D01*
X126383273Y-102234143D01*
X126236125Y-102112411D01*
X126236121Y-102112409D01*
X126231375Y-102108482D01*
X126050155Y-102010497D01*
X125853354Y-101949577D01*
X125847229Y-101948933D01*
X125847228Y-101948933D01*
X125654598Y-101928687D01*
X125654596Y-101928687D01*
X125648469Y-101928043D01*
X125561629Y-101935946D01*
X125449442Y-101946155D01*
X125449439Y-101946156D01*
X125443303Y-101946714D01*
X125245672Y-102004880D01*
X125063102Y-102100326D01*
X125058301Y-102104186D01*
X125058298Y-102104188D01*
X124957604Y-102185148D01*
X124902547Y-102229415D01*
X124770124Y-102387230D01*
X124767156Y-102392628D01*
X124767153Y-102392633D01*
X124744237Y-102434318D01*
X124670876Y-102567762D01*
X124608584Y-102764132D01*
X124607898Y-102770249D01*
X124607897Y-102770253D01*
X124606276Y-102784704D01*
X124590600Y-102924464D01*
X124590600Y-104535441D01*
X124605620Y-104688630D01*
X124665165Y-104885851D01*
X124761882Y-105067751D01*
X124824764Y-105144852D01*
X124888194Y-105222625D01*
X124888197Y-105222628D01*
X124892089Y-105227400D01*
X124896836Y-105231327D01*
X124896838Y-105231329D01*
X125046075Y-105354789D01*
X125046079Y-105354791D01*
X125050825Y-105358718D01*
X125056246Y-105361649D01*
X125215600Y-105447811D01*
X125232045Y-105456703D01*
X125237933Y-105458526D01*
X125237934Y-105458526D01*
X125249922Y-105462237D01*
X125301759Y-105493507D01*
X128047595Y-108239343D01*
X128081621Y-108301655D01*
X128084500Y-108328438D01*
X128084500Y-110571310D01*
X128064498Y-110639431D01*
X128010842Y-110685924D01*
X127940568Y-110696028D01*
X127875988Y-110666534D01*
X127837424Y-110606191D01*
X127779109Y-110403776D01*
X127779109Y-110403775D01*
X127778130Y-110400378D01*
X127776776Y-110397109D01*
X127659994Y-110115171D01*
X127659991Y-110115166D01*
X127658640Y-110111903D01*
X127507602Y-109838620D01*
X127326916Y-109583967D01*
X127118854Y-109351146D01*
X127083925Y-109319931D01*
X126888657Y-109145429D01*
X126886033Y-109143084D01*
X126631380Y-108962398D01*
X126358097Y-108811360D01*
X126354834Y-108810009D01*
X126354829Y-108810006D01*
X126072891Y-108693224D01*
X126072890Y-108693224D01*
X126069622Y-108691870D01*
X125769583Y-108605430D01*
X125461752Y-108553127D01*
X125373314Y-108548161D01*
X125163789Y-108536394D01*
X125163787Y-108536394D01*
X125152064Y-108535736D01*
X125150000Y-108535372D01*
X125139144Y-108537286D01*
X125134619Y-108538084D01*
X125112736Y-108539997D01*
X116810601Y-108539500D01*
X108495268Y-108539002D01*
X108473399Y-108537087D01*
X108468857Y-108536286D01*
X108468856Y-108536286D01*
X108458000Y-108534372D01*
X108447144Y-108536286D01*
X108436635Y-108536286D01*
X108424285Y-108535679D01*
X108305889Y-108524018D01*
X108281669Y-108519201D01*
X108147265Y-108478430D01*
X108124455Y-108468981D01*
X108000599Y-108402779D01*
X107980061Y-108389056D01*
X107871502Y-108299963D01*
X107854037Y-108282498D01*
X107764944Y-108173939D01*
X107751221Y-108153401D01*
X107692612Y-108043750D01*
X107685019Y-108029544D01*
X107675570Y-108006735D01*
X107634799Y-107872331D01*
X107629982Y-107848111D01*
X107618321Y-107729715D01*
X107617714Y-107717365D01*
X107617714Y-107706856D01*
X107619628Y-107696000D01*
X107616914Y-107680607D01*
X107615000Y-107658729D01*
X107615000Y-104535441D01*
X116970600Y-104535441D01*
X116985620Y-104688630D01*
X117045165Y-104885851D01*
X117141882Y-105067751D01*
X117204764Y-105144852D01*
X117268194Y-105222625D01*
X117268197Y-105222628D01*
X117272089Y-105227400D01*
X117276836Y-105231327D01*
X117276838Y-105231329D01*
X117426075Y-105354789D01*
X117426079Y-105354791D01*
X117430825Y-105358718D01*
X117436246Y-105361649D01*
X117595600Y-105447811D01*
X117612045Y-105456703D01*
X117808846Y-105517623D01*
X117814971Y-105518267D01*
X117814972Y-105518267D01*
X118007602Y-105538513D01*
X118007604Y-105538513D01*
X118013731Y-105539157D01*
X118123836Y-105529137D01*
X118212758Y-105521045D01*
X118212761Y-105521044D01*
X118218897Y-105520486D01*
X118416528Y-105462320D01*
X118599098Y-105366874D01*
X118603899Y-105363014D01*
X118603902Y-105363012D01*
X118754846Y-105241650D01*
X118754847Y-105241650D01*
X118759653Y-105237785D01*
X118892076Y-105079970D01*
X118895044Y-105074572D01*
X118895047Y-105074567D01*
X118988357Y-104904835D01*
X118991324Y-104899438D01*
X119053616Y-104703068D01*
X119054574Y-104694532D01*
X119066363Y-104589426D01*
X119071600Y-104542736D01*
X119071600Y-104535441D01*
X119510600Y-104535441D01*
X119525620Y-104688630D01*
X119585165Y-104885851D01*
X119681882Y-105067751D01*
X119744764Y-105144852D01*
X119808194Y-105222625D01*
X119808197Y-105222628D01*
X119812089Y-105227400D01*
X119816836Y-105231327D01*
X119816838Y-105231329D01*
X119966075Y-105354789D01*
X119966079Y-105354791D01*
X119970825Y-105358718D01*
X119976246Y-105361649D01*
X120135600Y-105447811D01*
X120152045Y-105456703D01*
X120348846Y-105517623D01*
X120354971Y-105518267D01*
X120354972Y-105518267D01*
X120547602Y-105538513D01*
X120547604Y-105538513D01*
X120553731Y-105539157D01*
X120663836Y-105529137D01*
X120752758Y-105521045D01*
X120752761Y-105521044D01*
X120758897Y-105520486D01*
X120956528Y-105462320D01*
X121139098Y-105366874D01*
X121143899Y-105363014D01*
X121143902Y-105363012D01*
X121294846Y-105241650D01*
X121294847Y-105241650D01*
X121299653Y-105237785D01*
X121432076Y-105079970D01*
X121435044Y-105074572D01*
X121435047Y-105074567D01*
X121528357Y-104904835D01*
X121531324Y-104899438D01*
X121593616Y-104703068D01*
X121594574Y-104694532D01*
X121606363Y-104589426D01*
X121611600Y-104542736D01*
X121611600Y-104535441D01*
X122050600Y-104535441D01*
X122065620Y-104688630D01*
X122125165Y-104885851D01*
X122221882Y-105067751D01*
X122284764Y-105144852D01*
X122348194Y-105222625D01*
X122348197Y-105222628D01*
X122352089Y-105227400D01*
X122356836Y-105231327D01*
X122356838Y-105231329D01*
X122506075Y-105354789D01*
X122506079Y-105354791D01*
X122510825Y-105358718D01*
X122516246Y-105361649D01*
X122675600Y-105447811D01*
X122692045Y-105456703D01*
X122888846Y-105517623D01*
X122894971Y-105518267D01*
X122894972Y-105518267D01*
X123087602Y-105538513D01*
X123087604Y-105538513D01*
X123093731Y-105539157D01*
X123203836Y-105529137D01*
X123292758Y-105521045D01*
X123292761Y-105521044D01*
X123298897Y-105520486D01*
X123496528Y-105462320D01*
X123679098Y-105366874D01*
X123683899Y-105363014D01*
X123683902Y-105363012D01*
X123834846Y-105241650D01*
X123834847Y-105241650D01*
X123839653Y-105237785D01*
X123972076Y-105079970D01*
X123975044Y-105074572D01*
X123975047Y-105074567D01*
X124068357Y-104904835D01*
X124071324Y-104899438D01*
X124133616Y-104703068D01*
X124134574Y-104694532D01*
X124146363Y-104589426D01*
X124151600Y-104542736D01*
X124151600Y-102931759D01*
X124136580Y-102778570D01*
X124077035Y-102581349D01*
X123980318Y-102399449D01*
X123873126Y-102268019D01*
X123854006Y-102244575D01*
X123854003Y-102244572D01*
X123850111Y-102239800D01*
X123843273Y-102234143D01*
X123696125Y-102112411D01*
X123696121Y-102112409D01*
X123691375Y-102108482D01*
X123510155Y-102010497D01*
X123313354Y-101949577D01*
X123307229Y-101948933D01*
X123307228Y-101948933D01*
X123114598Y-101928687D01*
X123114596Y-101928687D01*
X123108469Y-101928043D01*
X123021629Y-101935946D01*
X122909442Y-101946155D01*
X122909439Y-101946156D01*
X122903303Y-101946714D01*
X122705672Y-102004880D01*
X122523102Y-102100326D01*
X122518301Y-102104186D01*
X122518298Y-102104188D01*
X122417604Y-102185148D01*
X122362547Y-102229415D01*
X122230124Y-102387230D01*
X122227156Y-102392628D01*
X122227153Y-102392633D01*
X122204237Y-102434318D01*
X122130876Y-102567762D01*
X122068584Y-102764132D01*
X122067898Y-102770249D01*
X122067897Y-102770253D01*
X122066276Y-102784704D01*
X122050600Y-102924464D01*
X122050600Y-104535441D01*
X121611600Y-104535441D01*
X121611600Y-102931759D01*
X121596580Y-102778570D01*
X121537035Y-102581349D01*
X121440318Y-102399449D01*
X121333126Y-102268019D01*
X121314006Y-102244575D01*
X121314003Y-102244572D01*
X121310111Y-102239800D01*
X121303273Y-102234143D01*
X121156125Y-102112411D01*
X121156121Y-102112409D01*
X121151375Y-102108482D01*
X120970155Y-102010497D01*
X120773354Y-101949577D01*
X120767229Y-101948933D01*
X120767228Y-101948933D01*
X120574598Y-101928687D01*
X120574596Y-101928687D01*
X120568469Y-101928043D01*
X120481629Y-101935946D01*
X120369442Y-101946155D01*
X120369439Y-101946156D01*
X120363303Y-101946714D01*
X120165672Y-102004880D01*
X119983102Y-102100326D01*
X119978301Y-102104186D01*
X119978298Y-102104188D01*
X119877604Y-102185148D01*
X119822547Y-102229415D01*
X119690124Y-102387230D01*
X119687156Y-102392628D01*
X119687153Y-102392633D01*
X119664237Y-102434318D01*
X119590876Y-102567762D01*
X119528584Y-102764132D01*
X119527898Y-102770249D01*
X119527897Y-102770253D01*
X119526276Y-102784704D01*
X119510600Y-102924464D01*
X119510600Y-104535441D01*
X119071600Y-104535441D01*
X119071600Y-102931759D01*
X119056580Y-102778570D01*
X118997035Y-102581349D01*
X118900318Y-102399449D01*
X118793126Y-102268019D01*
X118774006Y-102244575D01*
X118774003Y-102244572D01*
X118770111Y-102239800D01*
X118763273Y-102234143D01*
X118616125Y-102112411D01*
X118616121Y-102112409D01*
X118611375Y-102108482D01*
X118430155Y-102010497D01*
X118233354Y-101949577D01*
X118227229Y-101948933D01*
X118227228Y-101948933D01*
X118034598Y-101928687D01*
X118034596Y-101928687D01*
X118028469Y-101928043D01*
X117941629Y-101935946D01*
X117829442Y-101946155D01*
X117829439Y-101946156D01*
X117823303Y-101946714D01*
X117625672Y-102004880D01*
X117443102Y-102100326D01*
X117438301Y-102104186D01*
X117438298Y-102104188D01*
X117337604Y-102185148D01*
X117282547Y-102229415D01*
X117150124Y-102387230D01*
X117147156Y-102392628D01*
X117147153Y-102392633D01*
X117124237Y-102434318D01*
X117050876Y-102567762D01*
X116988584Y-102764132D01*
X116987898Y-102770249D01*
X116987897Y-102770253D01*
X116986276Y-102784704D01*
X116970600Y-102924464D01*
X116970600Y-104535441D01*
X107615000Y-104535441D01*
X107615000Y-94980000D01*
X125134318Y-94980000D01*
X125154956Y-95136762D01*
X125215464Y-95282841D01*
X125311718Y-95408282D01*
X125437159Y-95504536D01*
X125583238Y-95565044D01*
X125740000Y-95585682D01*
X125748188Y-95584604D01*
X125888574Y-95566122D01*
X125896762Y-95565044D01*
X126042841Y-95504536D01*
X126049394Y-95499508D01*
X126049397Y-95499506D01*
X126137975Y-95431538D01*
X126204195Y-95405937D01*
X126214679Y-95405500D01*
X128883500Y-95405500D01*
X128951621Y-95425502D01*
X128998114Y-95479158D01*
X129009500Y-95531500D01*
X129009500Y-95589469D01*
X129024439Y-95746046D01*
X129083553Y-95947549D01*
X129105959Y-95991053D01*
X129170500Y-96116366D01*
X129179705Y-96134239D01*
X129183409Y-96138954D01*
X129305718Y-96294662D01*
X129305722Y-96294667D01*
X129309424Y-96299379D01*
X129313954Y-96303310D01*
X129313955Y-96303311D01*
X129463498Y-96433079D01*
X129463503Y-96433083D01*
X129468029Y-96437010D01*
X129649799Y-96542166D01*
X129748173Y-96576327D01*
X129842509Y-96609086D01*
X129842511Y-96609086D01*
X129848174Y-96611053D01*
X129854109Y-96611914D01*
X129854111Y-96611914D01*
X130050056Y-96640325D01*
X130050059Y-96640325D01*
X130055996Y-96641186D01*
X130265767Y-96631477D01*
X130397547Y-96599718D01*
X130464085Y-96583682D01*
X130464087Y-96583681D01*
X130469918Y-96582276D01*
X130475376Y-96579794D01*
X130475380Y-96579793D01*
X130614174Y-96516687D01*
X130661081Y-96495360D01*
X130832360Y-96373863D01*
X130977575Y-96222169D01*
X131011720Y-96169288D01*
X131088233Y-96050791D01*
X131088234Y-96050788D01*
X131091485Y-96045754D01*
X131131063Y-95947549D01*
X131167739Y-95856545D01*
X131167740Y-95856542D01*
X131169981Y-95850981D01*
X131171129Y-95845100D01*
X131171131Y-95845095D01*
X131209362Y-95649324D01*
X131209362Y-95649321D01*
X131210230Y-95644878D01*
X131210500Y-95639357D01*
X131210500Y-94484531D01*
X131195561Y-94327954D01*
X131192566Y-94317743D01*
X131138133Y-94132199D01*
X131136447Y-94126451D01*
X131052224Y-93962922D01*
X131043041Y-93945092D01*
X131043039Y-93945089D01*
X131040295Y-93939761D01*
X130932654Y-93802727D01*
X130914282Y-93779338D01*
X130914278Y-93779333D01*
X130910576Y-93774621D01*
X130883920Y-93751490D01*
X130756502Y-93640921D01*
X130756497Y-93640917D01*
X130751971Y-93636990D01*
X130570201Y-93531834D01*
X130423062Y-93480739D01*
X130377491Y-93464914D01*
X130377489Y-93464914D01*
X130371826Y-93462947D01*
X130365891Y-93462086D01*
X130365889Y-93462086D01*
X130169944Y-93433675D01*
X130169941Y-93433675D01*
X130164004Y-93432814D01*
X129954233Y-93442523D01*
X129822453Y-93474282D01*
X129755915Y-93490318D01*
X129755913Y-93490319D01*
X129750082Y-93491724D01*
X129744624Y-93494206D01*
X129744620Y-93494207D01*
X129654716Y-93535084D01*
X129558919Y-93578640D01*
X129387640Y-93700137D01*
X129358766Y-93730299D01*
X129251087Y-93842783D01*
X129242425Y-93851831D01*
X129239174Y-93856866D01*
X129175108Y-93956087D01*
X129128515Y-94028246D01*
X129126273Y-94033809D01*
X129070278Y-94172751D01*
X129050019Y-94223019D01*
X129048871Y-94228900D01*
X129048869Y-94228905D01*
X129016442Y-94394956D01*
X129009770Y-94429122D01*
X129009500Y-94434643D01*
X129009428Y-94434639D01*
X129009000Y-94438162D01*
X129006888Y-94437905D01*
X128989648Y-94496621D01*
X128935992Y-94543114D01*
X128883650Y-94554500D01*
X126214679Y-94554500D01*
X126146558Y-94534498D01*
X126137975Y-94528462D01*
X126049397Y-94460494D01*
X126049392Y-94460491D01*
X126042841Y-94455464D01*
X125896762Y-94394956D01*
X125740000Y-94374318D01*
X125583238Y-94394956D01*
X125437159Y-94455464D01*
X125311718Y-94551718D01*
X125215464Y-94677159D01*
X125154956Y-94823238D01*
X125134318Y-94980000D01*
X107615000Y-94980000D01*
X107615000Y-89295441D01*
X116970600Y-89295441D01*
X116985620Y-89448630D01*
X117045165Y-89645851D01*
X117141882Y-89827751D01*
X117208400Y-89909310D01*
X117268194Y-89982625D01*
X117268197Y-89982628D01*
X117272089Y-89987400D01*
X117276836Y-89991327D01*
X117276838Y-89991329D01*
X117426075Y-90114789D01*
X117426079Y-90114791D01*
X117430825Y-90118718D01*
X117527974Y-90171246D01*
X117595600Y-90207811D01*
X117612045Y-90216703D01*
X117808846Y-90277623D01*
X117814971Y-90278267D01*
X117814972Y-90278267D01*
X118007602Y-90298513D01*
X118007604Y-90298513D01*
X118013731Y-90299157D01*
X118100571Y-90291254D01*
X118212758Y-90281045D01*
X118212761Y-90281044D01*
X118218897Y-90280486D01*
X118416528Y-90222320D01*
X118599098Y-90126874D01*
X118603899Y-90123014D01*
X118603902Y-90123012D01*
X118754846Y-90001650D01*
X118754847Y-90001650D01*
X118759653Y-89997785D01*
X118892076Y-89839970D01*
X118895044Y-89834572D01*
X118895047Y-89834567D01*
X118988357Y-89664835D01*
X118991324Y-89659438D01*
X119053616Y-89463068D01*
X119054574Y-89454532D01*
X119066363Y-89349426D01*
X119071600Y-89302736D01*
X119071600Y-89295441D01*
X119510600Y-89295441D01*
X119525620Y-89448630D01*
X119585165Y-89645851D01*
X119681882Y-89827751D01*
X119748400Y-89909310D01*
X119808194Y-89982625D01*
X119808197Y-89982628D01*
X119812089Y-89987400D01*
X119816836Y-89991327D01*
X119816838Y-89991329D01*
X119966075Y-90114789D01*
X119966079Y-90114791D01*
X119970825Y-90118718D01*
X120067974Y-90171246D01*
X120135600Y-90207811D01*
X120152045Y-90216703D01*
X120348846Y-90277623D01*
X120354971Y-90278267D01*
X120354972Y-90278267D01*
X120547602Y-90298513D01*
X120547604Y-90298513D01*
X120553731Y-90299157D01*
X120640571Y-90291254D01*
X120752758Y-90281045D01*
X120752761Y-90281044D01*
X120758897Y-90280486D01*
X120956528Y-90222320D01*
X121139098Y-90126874D01*
X121143899Y-90123014D01*
X121143902Y-90123012D01*
X121294846Y-90001650D01*
X121294847Y-90001650D01*
X121299653Y-89997785D01*
X121432076Y-89839970D01*
X121435044Y-89834572D01*
X121435047Y-89834567D01*
X121528357Y-89664835D01*
X121531324Y-89659438D01*
X121593616Y-89463068D01*
X121594574Y-89454532D01*
X121606363Y-89349426D01*
X121611600Y-89302736D01*
X121611600Y-89295441D01*
X122050600Y-89295441D01*
X122065620Y-89448630D01*
X122125165Y-89645851D01*
X122221882Y-89827751D01*
X122288400Y-89909310D01*
X122348194Y-89982625D01*
X122348197Y-89982628D01*
X122352089Y-89987400D01*
X122356836Y-89991327D01*
X122356838Y-89991329D01*
X122506075Y-90114789D01*
X122506079Y-90114791D01*
X122510825Y-90118718D01*
X122607974Y-90171246D01*
X122675600Y-90207811D01*
X122692045Y-90216703D01*
X122888846Y-90277623D01*
X122894971Y-90278267D01*
X122894972Y-90278267D01*
X123087602Y-90298513D01*
X123087604Y-90298513D01*
X123093731Y-90299157D01*
X123180571Y-90291254D01*
X123292758Y-90281045D01*
X123292761Y-90281044D01*
X123298897Y-90280486D01*
X123496528Y-90222320D01*
X123679098Y-90126874D01*
X123683899Y-90123014D01*
X123683902Y-90123012D01*
X123834846Y-90001650D01*
X123834847Y-90001650D01*
X123839653Y-89997785D01*
X123972076Y-89839970D01*
X123975044Y-89834572D01*
X123975047Y-89834567D01*
X124068357Y-89664835D01*
X124071324Y-89659438D01*
X124133616Y-89463068D01*
X124134574Y-89454532D01*
X124146363Y-89349426D01*
X124151600Y-89302736D01*
X124151600Y-87691759D01*
X124136580Y-87538570D01*
X124077035Y-87341349D01*
X123980318Y-87159449D01*
X123900089Y-87061079D01*
X123854006Y-87004575D01*
X123854001Y-87004570D01*
X123850111Y-86999800D01*
X123845362Y-86995871D01*
X123696125Y-86872411D01*
X123696121Y-86872409D01*
X123691375Y-86868482D01*
X123510155Y-86770497D01*
X123313354Y-86709577D01*
X123307229Y-86708933D01*
X123307228Y-86708933D01*
X123114598Y-86688687D01*
X123114596Y-86688687D01*
X123108469Y-86688043D01*
X123032561Y-86694951D01*
X122909442Y-86706155D01*
X122909439Y-86706156D01*
X122903303Y-86706714D01*
X122705672Y-86764880D01*
X122700207Y-86767737D01*
X122673761Y-86781563D01*
X122523102Y-86860326D01*
X122518301Y-86864186D01*
X122518298Y-86864188D01*
X122370828Y-86982757D01*
X122362547Y-86989415D01*
X122230124Y-87147230D01*
X122227159Y-87152624D01*
X122227153Y-87152633D01*
X122159770Y-87275204D01*
X122130876Y-87327762D01*
X122129013Y-87333635D01*
X122094183Y-87443435D01*
X122068584Y-87524132D01*
X122067898Y-87530249D01*
X122067897Y-87530253D01*
X122063040Y-87573554D01*
X122050600Y-87684464D01*
X122050600Y-89295441D01*
X121611600Y-89295441D01*
X121611600Y-87691759D01*
X121596580Y-87538570D01*
X121537035Y-87341349D01*
X121440318Y-87159449D01*
X121360089Y-87061079D01*
X121314006Y-87004575D01*
X121314001Y-87004570D01*
X121310111Y-86999800D01*
X121305362Y-86995871D01*
X121156125Y-86872411D01*
X121156121Y-86872409D01*
X121151375Y-86868482D01*
X120970155Y-86770497D01*
X120773354Y-86709577D01*
X120767229Y-86708933D01*
X120767228Y-86708933D01*
X120574598Y-86688687D01*
X120574596Y-86688687D01*
X120568469Y-86688043D01*
X120492561Y-86694951D01*
X120369442Y-86706155D01*
X120369439Y-86706156D01*
X120363303Y-86706714D01*
X120165672Y-86764880D01*
X120160207Y-86767737D01*
X120133761Y-86781563D01*
X119983102Y-86860326D01*
X119978301Y-86864186D01*
X119978298Y-86864188D01*
X119830828Y-86982757D01*
X119822547Y-86989415D01*
X119690124Y-87147230D01*
X119687159Y-87152624D01*
X119687153Y-87152633D01*
X119619770Y-87275204D01*
X119590876Y-87327762D01*
X119589013Y-87333635D01*
X119554183Y-87443435D01*
X119528584Y-87524132D01*
X119527898Y-87530249D01*
X119527897Y-87530253D01*
X119523040Y-87573554D01*
X119510600Y-87684464D01*
X119510600Y-89295441D01*
X119071600Y-89295441D01*
X119071600Y-87691759D01*
X119056580Y-87538570D01*
X118997035Y-87341349D01*
X118900318Y-87159449D01*
X118820089Y-87061079D01*
X118774006Y-87004575D01*
X118774001Y-87004570D01*
X118770111Y-86999800D01*
X118765362Y-86995871D01*
X118616125Y-86872411D01*
X118616121Y-86872409D01*
X118611375Y-86868482D01*
X118430155Y-86770497D01*
X118233354Y-86709577D01*
X118227229Y-86708933D01*
X118227228Y-86708933D01*
X118034598Y-86688687D01*
X118034596Y-86688687D01*
X118028469Y-86688043D01*
X117952561Y-86694951D01*
X117829442Y-86706155D01*
X117829439Y-86706156D01*
X117823303Y-86706714D01*
X117625672Y-86764880D01*
X117620207Y-86767737D01*
X117593761Y-86781563D01*
X117443102Y-86860326D01*
X117438301Y-86864186D01*
X117438298Y-86864188D01*
X117290828Y-86982757D01*
X117282547Y-86989415D01*
X117150124Y-87147230D01*
X117147159Y-87152624D01*
X117147153Y-87152633D01*
X117079770Y-87275204D01*
X117050876Y-87327762D01*
X117049013Y-87333635D01*
X117014183Y-87443435D01*
X116988584Y-87524132D01*
X116987898Y-87530249D01*
X116987897Y-87530253D01*
X116983040Y-87573554D01*
X116970600Y-87684464D01*
X116970600Y-89295441D01*
X107615000Y-89295441D01*
X107615000Y-84746271D01*
X107616914Y-84724392D01*
X107617714Y-84719855D01*
X107619628Y-84709000D01*
X107617714Y-84698144D01*
X107617714Y-84687122D01*
X107618514Y-84687122D01*
X107617980Y-84674935D01*
X107623853Y-84607813D01*
X107628776Y-84551538D01*
X107632590Y-84529911D01*
X107670646Y-84387887D01*
X107678157Y-84367249D01*
X107740297Y-84233990D01*
X107751279Y-84214969D01*
X107835617Y-84094522D01*
X107849735Y-84077698D01*
X107953698Y-83973735D01*
X107970522Y-83959617D01*
X108090969Y-83875279D01*
X108109990Y-83864297D01*
X108243249Y-83802157D01*
X108263887Y-83794646D01*
X108405911Y-83756590D01*
X108427538Y-83752776D01*
X108550938Y-83741980D01*
X108563122Y-83742514D01*
X108563122Y-83741714D01*
X108574144Y-83741714D01*
X108585000Y-83743628D01*
X108600392Y-83740914D01*
X108622271Y-83739000D01*
X196930729Y-83739000D01*
X196952608Y-83740914D01*
G37*
G04 #@! TD.AperFunction*
G04 #@! TA.AperFunction,Conductor*
G36*
X153777221Y-88259602D02*
G01*
X153823714Y-88313258D01*
X153835100Y-88365600D01*
X153835100Y-90462011D01*
X153839205Y-90475993D01*
X153848828Y-90477486D01*
X153849073Y-90477434D01*
X154052983Y-90414702D01*
X154063329Y-90410481D01*
X154252914Y-90312629D01*
X154262345Y-90306643D01*
X154431601Y-90176768D01*
X154439824Y-90169207D01*
X154583412Y-90011406D01*
X154590167Y-90002506D01*
X154703534Y-89821785D01*
X154708611Y-89811819D01*
X154788180Y-89613886D01*
X154791415Y-89603171D01*
X154833409Y-89400389D01*
X154866809Y-89337740D01*
X154928778Y-89303093D01*
X154999641Y-89307450D01*
X155056899Y-89349426D01*
X155082190Y-89413646D01*
X155085620Y-89448630D01*
X155145165Y-89645851D01*
X155241882Y-89827751D01*
X155308400Y-89909310D01*
X155368194Y-89982625D01*
X155368197Y-89982628D01*
X155372089Y-89987400D01*
X155376836Y-89991327D01*
X155376838Y-89991329D01*
X155526075Y-90114789D01*
X155526079Y-90114791D01*
X155530825Y-90118718D01*
X155627974Y-90171246D01*
X155695600Y-90207811D01*
X155712045Y-90216703D01*
X155908846Y-90277623D01*
X155914969Y-90278266D01*
X155914971Y-90278267D01*
X155959079Y-90282903D01*
X156021283Y-90289440D01*
X156086939Y-90316453D01*
X156127569Y-90374674D01*
X156130272Y-90445619D01*
X156097207Y-90503845D01*
X154283457Y-92317595D01*
X154221145Y-92351621D01*
X154194362Y-92354500D01*
X152222607Y-92354500D01*
X152213180Y-92357563D01*
X152213173Y-92357564D01*
X152199788Y-92361913D01*
X152180569Y-92366527D01*
X152166672Y-92368728D01*
X152166665Y-92368730D01*
X152156874Y-92370281D01*
X152135498Y-92381173D01*
X152117237Y-92388736D01*
X152094419Y-92396150D01*
X152086397Y-92401979D01*
X152086396Y-92401979D01*
X152075011Y-92410251D01*
X152058156Y-92420581D01*
X152036780Y-92431472D01*
X151327572Y-93140680D01*
X151316677Y-93162063D01*
X151306353Y-93178909D01*
X151292251Y-93198319D01*
X151289187Y-93207750D01*
X151289185Y-93207753D01*
X151284836Y-93221137D01*
X151277272Y-93239398D01*
X151266381Y-93260774D01*
X151264830Y-93270568D01*
X151262628Y-93284470D01*
X151258014Y-93303690D01*
X151250600Y-93326507D01*
X151250600Y-93521871D01*
X151230598Y-93589992D01*
X151176942Y-93636485D01*
X151106668Y-93646589D01*
X151061505Y-93630935D01*
X150895397Y-93534840D01*
X150890201Y-93531834D01*
X150743062Y-93480739D01*
X150697491Y-93464914D01*
X150697489Y-93464914D01*
X150691826Y-93462947D01*
X150685891Y-93462086D01*
X150685889Y-93462086D01*
X150489944Y-93433675D01*
X150489941Y-93433675D01*
X150484004Y-93432814D01*
X150274233Y-93442523D01*
X150142453Y-93474282D01*
X150075915Y-93490318D01*
X150075913Y-93490319D01*
X150070082Y-93491724D01*
X150064624Y-93494206D01*
X150064620Y-93494207D01*
X149974716Y-93535084D01*
X149878919Y-93578640D01*
X149707640Y-93700137D01*
X149678766Y-93730299D01*
X149571087Y-93842783D01*
X149562425Y-93851831D01*
X149559174Y-93856866D01*
X149495108Y-93956087D01*
X149448515Y-94028246D01*
X149446273Y-94033809D01*
X149390278Y-94172751D01*
X149370019Y-94223019D01*
X149368871Y-94228900D01*
X149368869Y-94228905D01*
X149336442Y-94394956D01*
X149329770Y-94429122D01*
X149329500Y-94434643D01*
X149329500Y-95589469D01*
X149344439Y-95746046D01*
X149403553Y-95947549D01*
X149425959Y-95991053D01*
X149490500Y-96116366D01*
X149499705Y-96134239D01*
X149503409Y-96138954D01*
X149625718Y-96294662D01*
X149625722Y-96294667D01*
X149629424Y-96299379D01*
X149633954Y-96303310D01*
X149633955Y-96303311D01*
X149783498Y-96433079D01*
X149783503Y-96433083D01*
X149788029Y-96437010D01*
X149969799Y-96542166D01*
X150068173Y-96576327D01*
X150162509Y-96609086D01*
X150162511Y-96609086D01*
X150168174Y-96611053D01*
X150174109Y-96611914D01*
X150174111Y-96611914D01*
X150370056Y-96640325D01*
X150370059Y-96640325D01*
X150375996Y-96641186D01*
X150485330Y-96636126D01*
X150563044Y-96632529D01*
X150632016Y-96649360D01*
X150680940Y-96700809D01*
X150694282Y-96770540D01*
X150667806Y-96836416D01*
X150657965Y-96847488D01*
X148614581Y-98890871D01*
X146774257Y-100731195D01*
X146711945Y-100765221D01*
X146685162Y-100768100D01*
X145893707Y-100768100D01*
X145870890Y-100775514D01*
X145851671Y-100780128D01*
X145827974Y-100783881D01*
X145819137Y-100788384D01*
X145819136Y-100788384D01*
X145806598Y-100794772D01*
X145788337Y-100802336D01*
X145774953Y-100806685D01*
X145774950Y-100806687D01*
X145765519Y-100809751D01*
X145757496Y-100815580D01*
X145746109Y-100823853D01*
X145729263Y-100834177D01*
X145707880Y-100845072D01*
X144342572Y-102210380D01*
X144341357Y-102212765D01*
X144288320Y-102253661D01*
X144217584Y-102259736D01*
X144162292Y-102233331D01*
X144016125Y-102112411D01*
X144016121Y-102112409D01*
X144011375Y-102108482D01*
X143830155Y-102010497D01*
X143633354Y-101949577D01*
X143627229Y-101948933D01*
X143627228Y-101948933D01*
X143434598Y-101928687D01*
X143434596Y-101928687D01*
X143428469Y-101928043D01*
X143341629Y-101935946D01*
X143229442Y-101946155D01*
X143229439Y-101946156D01*
X143223303Y-101946714D01*
X143025672Y-102004880D01*
X142843102Y-102100326D01*
X142838301Y-102104186D01*
X142838298Y-102104188D01*
X142737604Y-102185148D01*
X142682547Y-102229415D01*
X142550124Y-102387230D01*
X142547156Y-102392628D01*
X142547153Y-102392633D01*
X142524237Y-102434318D01*
X142450876Y-102567762D01*
X142388584Y-102764132D01*
X142387898Y-102770249D01*
X142387897Y-102770253D01*
X142386276Y-102784704D01*
X142370600Y-102924464D01*
X142370600Y-104535441D01*
X142385620Y-104688630D01*
X142445165Y-104885851D01*
X142541882Y-105067751D01*
X142604764Y-105144852D01*
X142668194Y-105222625D01*
X142668197Y-105222628D01*
X142672089Y-105227400D01*
X142676836Y-105231327D01*
X142676838Y-105231329D01*
X142826075Y-105354789D01*
X142826079Y-105354791D01*
X142830825Y-105358718D01*
X142836246Y-105361649D01*
X142995600Y-105447811D01*
X143012045Y-105456703D01*
X143208846Y-105517623D01*
X143214971Y-105518267D01*
X143214972Y-105518267D01*
X143407602Y-105538513D01*
X143407604Y-105538513D01*
X143413731Y-105539157D01*
X143513043Y-105530119D01*
X143582696Y-105543864D01*
X143633860Y-105593086D01*
X143650291Y-105662155D01*
X143626773Y-105729143D01*
X143613557Y-105744695D01*
X142081457Y-107276795D01*
X142019145Y-107310821D01*
X141992362Y-107313700D01*
X139453407Y-107313700D01*
X139430590Y-107321114D01*
X139411371Y-107325728D01*
X139387674Y-107329481D01*
X139378837Y-107333984D01*
X139378836Y-107333984D01*
X139366298Y-107340372D01*
X139348037Y-107347936D01*
X139334653Y-107352285D01*
X139334650Y-107352287D01*
X139325219Y-107355351D01*
X139317196Y-107361180D01*
X139305809Y-107369453D01*
X139288963Y-107379777D01*
X139267580Y-107390672D01*
X138209085Y-108449167D01*
X138146773Y-108483193D01*
X138078656Y-108479099D01*
X137997497Y-108450916D01*
X137997494Y-108450915D01*
X137991826Y-108448947D01*
X137985891Y-108448086D01*
X137985889Y-108448086D01*
X137789944Y-108419675D01*
X137789941Y-108419675D01*
X137784004Y-108418814D01*
X137574233Y-108428523D01*
X137447961Y-108458955D01*
X137375915Y-108476318D01*
X137375913Y-108476319D01*
X137370082Y-108477724D01*
X137364621Y-108480207D01*
X137358952Y-108482159D01*
X137358207Y-108479994D01*
X137297926Y-108488557D01*
X137233395Y-108458955D01*
X137195112Y-108399164D01*
X137195232Y-108328167D01*
X137226973Y-108274775D01*
X139959628Y-105542120D01*
X139970523Y-105520737D01*
X139980847Y-105503891D01*
X139994949Y-105484481D01*
X139998013Y-105475050D01*
X139998015Y-105475047D01*
X140002364Y-105461663D01*
X140009928Y-105443402D01*
X140016316Y-105430864D01*
X140016316Y-105430863D01*
X140020819Y-105422026D01*
X140024572Y-105398329D01*
X140029188Y-105379105D01*
X140032544Y-105368776D01*
X140072617Y-105310170D01*
X140138013Y-105282532D01*
X140207970Y-105294638D01*
X140232688Y-105310623D01*
X140290825Y-105358718D01*
X140296246Y-105361649D01*
X140455600Y-105447811D01*
X140472045Y-105456703D01*
X140668846Y-105517623D01*
X140674971Y-105518267D01*
X140674972Y-105518267D01*
X140867602Y-105538513D01*
X140867604Y-105538513D01*
X140873731Y-105539157D01*
X140983836Y-105529137D01*
X141072758Y-105521045D01*
X141072761Y-105521044D01*
X141078897Y-105520486D01*
X141276528Y-105462320D01*
X141459098Y-105366874D01*
X141463899Y-105363014D01*
X141463902Y-105363012D01*
X141614846Y-105241650D01*
X141614847Y-105241650D01*
X141619653Y-105237785D01*
X141752076Y-105079970D01*
X141755044Y-105074572D01*
X141755047Y-105074567D01*
X141848357Y-104904835D01*
X141851324Y-104899438D01*
X141913616Y-104703068D01*
X141914574Y-104694532D01*
X141926363Y-104589426D01*
X141931600Y-104542736D01*
X141931600Y-102931759D01*
X141916580Y-102778570D01*
X141857035Y-102581349D01*
X141760318Y-102399449D01*
X141653126Y-102268019D01*
X141634006Y-102244575D01*
X141634003Y-102244572D01*
X141630111Y-102239800D01*
X141623273Y-102234143D01*
X141476125Y-102112411D01*
X141476121Y-102112409D01*
X141471375Y-102108482D01*
X141290155Y-102010497D01*
X141093354Y-101949577D01*
X141087229Y-101948933D01*
X141087228Y-101948933D01*
X140894598Y-101928687D01*
X140894596Y-101928687D01*
X140888469Y-101928043D01*
X140801629Y-101935946D01*
X140689442Y-101946155D01*
X140689439Y-101946156D01*
X140683303Y-101946714D01*
X140485672Y-102004880D01*
X140303102Y-102100326D01*
X140288070Y-102112412D01*
X140241552Y-102149813D01*
X140175929Y-102176909D01*
X140106075Y-102164225D01*
X140054167Y-102115789D01*
X140036600Y-102051616D01*
X140036600Y-101739538D01*
X140056602Y-101671417D01*
X140073505Y-101650443D01*
X142290443Y-99433505D01*
X142352755Y-99399479D01*
X142379538Y-99396600D01*
X144440993Y-99396600D01*
X144463810Y-99389186D01*
X144483029Y-99384572D01*
X144506726Y-99380819D01*
X144515564Y-99376316D01*
X144528102Y-99369928D01*
X144546363Y-99362364D01*
X144559747Y-99358015D01*
X144559750Y-99358013D01*
X144569181Y-99354949D01*
X144588591Y-99340847D01*
X144605437Y-99330523D01*
X144626820Y-99319628D01*
X146944628Y-97001820D01*
X146955519Y-96980444D01*
X146965849Y-96963589D01*
X146974121Y-96952204D01*
X146974121Y-96952203D01*
X146979950Y-96944181D01*
X146987364Y-96921363D01*
X146994927Y-96903102D01*
X147005819Y-96881726D01*
X147007370Y-96871935D01*
X147007372Y-96871928D01*
X147009573Y-96858031D01*
X147014187Y-96838812D01*
X147018536Y-96825427D01*
X147018537Y-96825420D01*
X147021600Y-96815993D01*
X147021600Y-96516687D01*
X147041602Y-96448566D01*
X147095258Y-96402073D01*
X147165532Y-96391969D01*
X147230180Y-96421522D01*
X147248029Y-96437010D01*
X147429799Y-96542166D01*
X147528173Y-96576327D01*
X147622509Y-96609086D01*
X147622511Y-96609086D01*
X147628174Y-96611053D01*
X147634109Y-96611914D01*
X147634111Y-96611914D01*
X147830056Y-96640325D01*
X147830059Y-96640325D01*
X147835996Y-96641186D01*
X148045767Y-96631477D01*
X148177547Y-96599718D01*
X148244085Y-96583682D01*
X148244087Y-96583681D01*
X148249918Y-96582276D01*
X148255376Y-96579794D01*
X148255380Y-96579793D01*
X148394174Y-96516687D01*
X148441081Y-96495360D01*
X148612360Y-96373863D01*
X148757575Y-96222169D01*
X148791720Y-96169288D01*
X148868233Y-96050791D01*
X148868234Y-96050788D01*
X148871485Y-96045754D01*
X148911063Y-95947549D01*
X148947739Y-95856545D01*
X148947740Y-95856542D01*
X148949981Y-95850981D01*
X148951129Y-95845100D01*
X148951131Y-95845095D01*
X148989362Y-95649324D01*
X148989362Y-95649321D01*
X148990230Y-95644878D01*
X148990500Y-95639357D01*
X148990500Y-94484531D01*
X148975561Y-94327954D01*
X148972566Y-94317743D01*
X148918133Y-94132199D01*
X148916447Y-94126451D01*
X148832224Y-93962922D01*
X148823041Y-93945092D01*
X148823039Y-93945089D01*
X148820295Y-93939761D01*
X148712654Y-93802727D01*
X148694282Y-93779338D01*
X148694278Y-93779333D01*
X148690576Y-93774621D01*
X148663920Y-93751490D01*
X148536502Y-93640921D01*
X148536497Y-93640917D01*
X148531971Y-93636990D01*
X148350201Y-93531834D01*
X148203062Y-93480739D01*
X148157491Y-93464914D01*
X148157489Y-93464914D01*
X148151826Y-93462947D01*
X148145891Y-93462086D01*
X148145889Y-93462086D01*
X147949944Y-93433675D01*
X147949941Y-93433675D01*
X147944004Y-93432814D01*
X147734233Y-93442523D01*
X147602453Y-93474282D01*
X147535915Y-93490318D01*
X147535913Y-93490319D01*
X147530082Y-93491724D01*
X147524624Y-93494206D01*
X147524620Y-93494207D01*
X147434716Y-93535084D01*
X147338919Y-93578640D01*
X147225049Y-93659414D01*
X147220500Y-93662641D01*
X147153366Y-93685739D01*
X147084401Y-93668875D01*
X147035502Y-93617403D01*
X147021600Y-93559871D01*
X147021600Y-93484538D01*
X147041602Y-93416417D01*
X147058505Y-93395443D01*
X150048528Y-90405420D01*
X150059423Y-90384037D01*
X150069747Y-90367191D01*
X150078020Y-90355804D01*
X150083849Y-90347781D01*
X150086913Y-90338350D01*
X150086915Y-90338347D01*
X150091264Y-90324963D01*
X150098828Y-90306702D01*
X150105216Y-90294164D01*
X150105216Y-90294163D01*
X150109719Y-90285326D01*
X150113472Y-90261629D01*
X150118086Y-90242410D01*
X150125500Y-90219593D01*
X150125500Y-90117349D01*
X150145502Y-90049228D01*
X150199158Y-90002735D01*
X150269432Y-89992631D01*
X150331813Y-90020263D01*
X150450825Y-90118718D01*
X150547974Y-90171246D01*
X150615600Y-90207811D01*
X150632045Y-90216703D01*
X150828846Y-90277623D01*
X150834969Y-90278266D01*
X150834971Y-90278267D01*
X150879263Y-90282922D01*
X151026992Y-90298449D01*
X151092647Y-90325461D01*
X151102915Y-90334663D01*
X151563477Y-90795225D01*
X151597503Y-90857537D01*
X151599304Y-90867874D01*
X151602327Y-90890837D01*
X151614956Y-90986762D01*
X151675464Y-91132841D01*
X151700102Y-91164950D01*
X151766130Y-91250999D01*
X151771718Y-91258282D01*
X151897159Y-91354536D01*
X152043238Y-91415044D01*
X152051426Y-91416122D01*
X152095816Y-91421966D01*
X152200000Y-91435682D01*
X152208188Y-91434604D01*
X152348574Y-91416122D01*
X152356762Y-91415044D01*
X152502841Y-91354536D01*
X152628282Y-91258282D01*
X152633871Y-91250999D01*
X152699898Y-91164950D01*
X152724536Y-91132841D01*
X152785044Y-90986762D01*
X152805682Y-90830000D01*
X152785044Y-90673238D01*
X152724536Y-90527159D01*
X152719508Y-90520606D01*
X152719506Y-90520603D01*
X152648936Y-90428634D01*
X152623335Y-90362414D01*
X152626642Y-90346292D01*
X152615886Y-90350497D01*
X152546283Y-90336497D01*
X152528220Y-90324938D01*
X152515968Y-90315537D01*
X152502841Y-90305464D01*
X152356762Y-90244956D01*
X152295388Y-90236876D01*
X152237874Y-90229304D01*
X152172946Y-90200582D01*
X152165224Y-90193477D01*
X151943370Y-89971622D01*
X151909345Y-89909310D01*
X151914410Y-89838494D01*
X151922051Y-89821826D01*
X152008357Y-89664835D01*
X152011324Y-89659438D01*
X152073616Y-89463068D01*
X152074574Y-89454532D01*
X152078636Y-89418314D01*
X152081147Y-89395924D01*
X152108618Y-89330459D01*
X152167121Y-89290236D01*
X152238084Y-89288028D01*
X152298974Y-89324536D01*
X152330462Y-89388169D01*
X152331863Y-89398769D01*
X152337478Y-89461677D01*
X152339460Y-89472692D01*
X152395751Y-89678460D01*
X152399649Y-89688941D01*
X152491497Y-89881503D01*
X152497182Y-89891116D01*
X152621675Y-90064367D01*
X152628983Y-90072833D01*
X152692609Y-90134491D01*
X152727609Y-90196261D01*
X152725547Y-90233248D01*
X152756390Y-90226153D01*
X152819174Y-90247349D01*
X152967944Y-90347319D01*
X152977742Y-90352705D01*
X153173090Y-90438457D01*
X153183682Y-90442022D01*
X153309484Y-90472224D01*
X153323570Y-90471519D01*
X153327100Y-90462640D01*
X153327100Y-88365600D01*
X153347102Y-88297479D01*
X153400758Y-88250986D01*
X153453100Y-88239600D01*
X153709100Y-88239600D01*
X153777221Y-88259602D01*
G37*
G04 #@! TD.AperFunction*
G04 #@! TA.AperFunction,Conductor*
G36*
X180279209Y-88435502D02*
G01*
X180325702Y-88489158D01*
X180336175Y-88526362D01*
X180341764Y-88572547D01*
X180344744Y-88580075D01*
X180344745Y-88580077D01*
X180369548Y-88642722D01*
X180397287Y-88712783D01*
X180488478Y-88832922D01*
X180608617Y-88924113D01*
X180633694Y-88934041D01*
X180638784Y-88936057D01*
X180694758Y-88979732D01*
X180718400Y-89053209D01*
X180718400Y-89466791D01*
X180698398Y-89534912D01*
X180638784Y-89583943D01*
X180608617Y-89595887D01*
X180488478Y-89687078D01*
X180397287Y-89807217D01*
X180384904Y-89838494D01*
X180348265Y-89931034D01*
X180341764Y-89947453D01*
X180330900Y-90037228D01*
X180330900Y-91022772D01*
X180341764Y-91112547D01*
X180344744Y-91120075D01*
X180344745Y-91120077D01*
X180369548Y-91182722D01*
X180397287Y-91252783D01*
X180488478Y-91372922D01*
X180608617Y-91464113D01*
X180672232Y-91489300D01*
X180741323Y-91516655D01*
X180741325Y-91516656D01*
X180748853Y-91519636D01*
X180838628Y-91530500D01*
X181449172Y-91530500D01*
X181538947Y-91519636D01*
X181546475Y-91516656D01*
X181546477Y-91516655D01*
X181615568Y-91489300D01*
X181679183Y-91464113D01*
X181799322Y-91372922D01*
X181890513Y-91252783D01*
X181939249Y-91129690D01*
X181982922Y-91073718D01*
X182049925Y-91050241D01*
X182118984Y-91066717D01*
X182168173Y-91117912D01*
X182173550Y-91129687D01*
X182222287Y-91252783D01*
X182313478Y-91372922D01*
X182433617Y-91464113D01*
X182497232Y-91489300D01*
X182566323Y-91516655D01*
X182566325Y-91516656D01*
X182573853Y-91519636D01*
X182663628Y-91530500D01*
X183274172Y-91530500D01*
X183363947Y-91519636D01*
X183371475Y-91516656D01*
X183371477Y-91516655D01*
X183440568Y-91489300D01*
X183504183Y-91464113D01*
X183624322Y-91372922D01*
X183629512Y-91366085D01*
X183665092Y-91319211D01*
X183722210Y-91277045D01*
X183793058Y-91272453D01*
X183854549Y-91306297D01*
X185416780Y-92868528D01*
X185438163Y-92879423D01*
X185455009Y-92889747D01*
X185474419Y-92903849D01*
X185483850Y-92906913D01*
X185483853Y-92906915D01*
X185497237Y-92911264D01*
X185515498Y-92918828D01*
X185528036Y-92925216D01*
X185536874Y-92929719D01*
X185560571Y-92933472D01*
X185579790Y-92938086D01*
X185602607Y-92945500D01*
X185843600Y-92945500D01*
X185911721Y-92965502D01*
X185958026Y-93018748D01*
X185964638Y-93033090D01*
X185982856Y-93072607D01*
X186001450Y-93098917D01*
X186094488Y-93230563D01*
X186099588Y-93237780D01*
X186244466Y-93378913D01*
X186412637Y-93491282D01*
X186417940Y-93493560D01*
X186417943Y-93493562D01*
X186438238Y-93502281D01*
X186492931Y-93547549D01*
X186514500Y-93618049D01*
X186514500Y-94528562D01*
X186494498Y-94596683D01*
X186440842Y-94643176D01*
X186370568Y-94653280D01*
X186305988Y-94623786D01*
X186299405Y-94617657D01*
X184453220Y-92771472D01*
X184431837Y-92760577D01*
X184414991Y-92750253D01*
X184403604Y-92741980D01*
X184395581Y-92736151D01*
X184386150Y-92733087D01*
X184386147Y-92733085D01*
X184372763Y-92728736D01*
X184354502Y-92721172D01*
X184341964Y-92714784D01*
X184341963Y-92714784D01*
X184333126Y-92710281D01*
X184309429Y-92706528D01*
X184290210Y-92701914D01*
X184267393Y-92694500D01*
X183901712Y-92694500D01*
X183833591Y-92674498D01*
X183787098Y-92620842D01*
X183776625Y-92583638D01*
X183772009Y-92545494D01*
X183771036Y-92537453D01*
X183765593Y-92523704D01*
X183727959Y-92428652D01*
X183715513Y-92397217D01*
X183624322Y-92277078D01*
X183504183Y-92185887D01*
X183404493Y-92146417D01*
X183371477Y-92133345D01*
X183371475Y-92133344D01*
X183363947Y-92130364D01*
X183274172Y-92119500D01*
X182663628Y-92119500D01*
X182573853Y-92130364D01*
X182566325Y-92133344D01*
X182566323Y-92133345D01*
X182533307Y-92146417D01*
X182433617Y-92185887D01*
X182313478Y-92277078D01*
X182308290Y-92283913D01*
X182281854Y-92318741D01*
X182224736Y-92360908D01*
X182153888Y-92365500D01*
X182091804Y-92331061D01*
X182074347Y-92308864D01*
X182008337Y-92202193D01*
X181999301Y-92190792D01*
X181884571Y-92076261D01*
X181873160Y-92067249D01*
X181735157Y-91982184D01*
X181721976Y-91976037D01*
X181567690Y-91924862D01*
X181554314Y-91921995D01*
X181459962Y-91912328D01*
X181453545Y-91912000D01*
X181416015Y-91912000D01*
X181400776Y-91916475D01*
X181399571Y-91917865D01*
X181397900Y-91925548D01*
X181397900Y-94309884D01*
X181402375Y-94325123D01*
X181403765Y-94326328D01*
X181411448Y-94327999D01*
X181453495Y-94327999D01*
X181460014Y-94327662D01*
X181555606Y-94317743D01*
X181569000Y-94314851D01*
X181723184Y-94263412D01*
X181736362Y-94257239D01*
X181874207Y-94171937D01*
X181885608Y-94162901D01*
X182000139Y-94048171D01*
X182009151Y-94036760D01*
X182074182Y-93931259D01*
X182126954Y-93883766D01*
X182197025Y-93872342D01*
X182262149Y-93900616D01*
X182281804Y-93921195D01*
X182308285Y-93956082D01*
X182308290Y-93956087D01*
X182313478Y-93962922D01*
X182433617Y-94054113D01*
X182497232Y-94079300D01*
X182566323Y-94106655D01*
X182566325Y-94106656D01*
X182573853Y-94109636D01*
X182663628Y-94120500D01*
X183274172Y-94120500D01*
X183363947Y-94109636D01*
X183371475Y-94106656D01*
X183371477Y-94106655D01*
X183440568Y-94079300D01*
X183504183Y-94054113D01*
X183624322Y-93962922D01*
X183715513Y-93842783D01*
X183751658Y-93751490D01*
X183768055Y-93710077D01*
X183768056Y-93710075D01*
X183771036Y-93702547D01*
X183776625Y-93656362D01*
X183804666Y-93591138D01*
X183863518Y-93551428D01*
X183901712Y-93545500D01*
X183971562Y-93545500D01*
X184039683Y-93565502D01*
X184060657Y-93582405D01*
X185997595Y-95519343D01*
X186031621Y-95581655D01*
X186034500Y-95608438D01*
X186034500Y-103211563D01*
X186014498Y-103279684D01*
X185997595Y-103300658D01*
X185889697Y-103408556D01*
X185827385Y-103442582D01*
X185756570Y-103437517D01*
X185699734Y-103394970D01*
X185674923Y-103328450D01*
X185684193Y-103271243D01*
X185711884Y-103204391D01*
X185715044Y-103196762D01*
X185735682Y-103040000D01*
X185715044Y-102883238D01*
X185654536Y-102737159D01*
X185558282Y-102611718D01*
X185432841Y-102515464D01*
X185286762Y-102454956D01*
X185239964Y-102448795D01*
X185167874Y-102439304D01*
X185102946Y-102410582D01*
X185095225Y-102403477D01*
X182933220Y-100241472D01*
X182911837Y-100230577D01*
X182894991Y-100220253D01*
X182883604Y-100211980D01*
X182875581Y-100206151D01*
X182866150Y-100203087D01*
X182866147Y-100203085D01*
X182852763Y-100198736D01*
X182834502Y-100191172D01*
X182821964Y-100184784D01*
X182821963Y-100184784D01*
X182813126Y-100180281D01*
X182789429Y-100176528D01*
X182770210Y-100171914D01*
X182747393Y-100164500D01*
X181414011Y-100164500D01*
X181345890Y-100144498D01*
X181324916Y-100127595D01*
X181322742Y-100125421D01*
X181317150Y-100117850D01*
X181271209Y-100083917D01*
X181215757Y-100042959D01*
X181215754Y-100042958D01*
X181208184Y-100037366D01*
X181080369Y-99992481D01*
X181072723Y-99991758D01*
X181072722Y-99991758D01*
X181066752Y-99991194D01*
X181048834Y-99989500D01*
X179766166Y-99989500D01*
X179752635Y-99990779D01*
X179742276Y-99991758D01*
X179742273Y-99991759D01*
X179734631Y-99992481D01*
X179727387Y-99995025D01*
X179721279Y-99996365D01*
X179650454Y-99991426D01*
X179593543Y-99948980D01*
X179568614Y-99882504D01*
X179568836Y-99861432D01*
X179570222Y-99846777D01*
X179570222Y-99846773D01*
X179570500Y-99843834D01*
X179570500Y-99436166D01*
X179570222Y-99433218D01*
X179568836Y-99418568D01*
X179582338Y-99348867D01*
X179631379Y-99297530D01*
X179700390Y-99280856D01*
X179721279Y-99283635D01*
X179727387Y-99284975D01*
X179734631Y-99287519D01*
X179742273Y-99288241D01*
X179742276Y-99288242D01*
X179752635Y-99289221D01*
X179766166Y-99290500D01*
X181048834Y-99290500D01*
X181066752Y-99288806D01*
X181072722Y-99288242D01*
X181072723Y-99288242D01*
X181080369Y-99287519D01*
X181208184Y-99242634D01*
X181215754Y-99237042D01*
X181215757Y-99237041D01*
X181309579Y-99167742D01*
X181317150Y-99162150D01*
X181322742Y-99154579D01*
X181324916Y-99152405D01*
X181387228Y-99118379D01*
X181414011Y-99115500D01*
X181947393Y-99115500D01*
X181970210Y-99108086D01*
X181989429Y-99103472D01*
X182013126Y-99099719D01*
X182021964Y-99095216D01*
X182034502Y-99088828D01*
X182052763Y-99081264D01*
X182066147Y-99076915D01*
X182066150Y-99076913D01*
X182075581Y-99073849D01*
X182094991Y-99059747D01*
X182111837Y-99049423D01*
X182133220Y-99038528D01*
X182228528Y-98943220D01*
X183222118Y-97949629D01*
X183222120Y-97949628D01*
X183317428Y-97854320D01*
X183328321Y-97832941D01*
X183338649Y-97816088D01*
X183346921Y-97804703D01*
X183346922Y-97804701D01*
X183352749Y-97796681D01*
X183355924Y-97786910D01*
X183360164Y-97773863D01*
X183367728Y-97755602D01*
X183374116Y-97743064D01*
X183374116Y-97743063D01*
X183378619Y-97734226D01*
X183382372Y-97710529D01*
X183386986Y-97691310D01*
X183394400Y-97668493D01*
X183394400Y-96853209D01*
X183414402Y-96785088D01*
X183474016Y-96736057D01*
X183479106Y-96734041D01*
X183504183Y-96724113D01*
X183624322Y-96632922D01*
X183715513Y-96512783D01*
X183744713Y-96439032D01*
X183768055Y-96380077D01*
X183768056Y-96380075D01*
X183771036Y-96372547D01*
X183781900Y-96282772D01*
X183781900Y-95297228D01*
X183771036Y-95207453D01*
X183764249Y-95190309D01*
X183718675Y-95075204D01*
X183715513Y-95067217D01*
X183624322Y-94947078D01*
X183504183Y-94855887D01*
X183402452Y-94815609D01*
X183371477Y-94803345D01*
X183371475Y-94803344D01*
X183363947Y-94800364D01*
X183274172Y-94789500D01*
X182663628Y-94789500D01*
X182573853Y-94800364D01*
X182566325Y-94803344D01*
X182566323Y-94803345D01*
X182535348Y-94815609D01*
X182433617Y-94855887D01*
X182313478Y-94947078D01*
X182222287Y-95067217D01*
X182194753Y-95136762D01*
X182173552Y-95190309D01*
X182129878Y-95246282D01*
X182062875Y-95269759D01*
X181993816Y-95253283D01*
X181944627Y-95202088D01*
X181939248Y-95190309D01*
X181918048Y-95136762D01*
X181890513Y-95067217D01*
X181799322Y-94947078D01*
X181679183Y-94855887D01*
X181577452Y-94815609D01*
X181546477Y-94803345D01*
X181546475Y-94803344D01*
X181538947Y-94800364D01*
X181449172Y-94789500D01*
X180838628Y-94789500D01*
X180748853Y-94800364D01*
X180741325Y-94803344D01*
X180741323Y-94803345D01*
X180710348Y-94815609D01*
X180608617Y-94855887D01*
X180488478Y-94947078D01*
X180397287Y-95067217D01*
X180394125Y-95075204D01*
X180348552Y-95190309D01*
X180341764Y-95207453D01*
X180330900Y-95297228D01*
X180330900Y-95645162D01*
X180310898Y-95713283D01*
X180293995Y-95734257D01*
X178310657Y-97717595D01*
X178248345Y-97751621D01*
X178221562Y-97754500D01*
X175648438Y-97754500D01*
X175580317Y-97734498D01*
X175559343Y-97717595D01*
X175012405Y-97170657D01*
X174978379Y-97108345D01*
X174975500Y-97081562D01*
X174975500Y-96528749D01*
X174995502Y-96460628D01*
X175049158Y-96414135D01*
X175119432Y-96404031D01*
X175177814Y-96430720D01*
X175178616Y-96429596D01*
X175183498Y-96433078D01*
X175188029Y-96437010D01*
X175369799Y-96542166D01*
X175468173Y-96576327D01*
X175562509Y-96609086D01*
X175562511Y-96609086D01*
X175568174Y-96611053D01*
X175574109Y-96611914D01*
X175574111Y-96611914D01*
X175770056Y-96640325D01*
X175770059Y-96640325D01*
X175775996Y-96641186D01*
X175985767Y-96631477D01*
X176117547Y-96599718D01*
X176184085Y-96583682D01*
X176184087Y-96583681D01*
X176189918Y-96582276D01*
X176195376Y-96579794D01*
X176195380Y-96579793D01*
X176334174Y-96516687D01*
X176381081Y-96495360D01*
X176552360Y-96373863D01*
X176697575Y-96222169D01*
X176731720Y-96169288D01*
X176808233Y-96050791D01*
X176808234Y-96050788D01*
X176811485Y-96045754D01*
X176851063Y-95947549D01*
X176887739Y-95856545D01*
X176887740Y-95856542D01*
X176889981Y-95850981D01*
X176891129Y-95845100D01*
X176891131Y-95845095D01*
X176929362Y-95649324D01*
X176929362Y-95649321D01*
X176930230Y-95644878D01*
X176930500Y-95639357D01*
X176930500Y-95589469D01*
X177269500Y-95589469D01*
X177284439Y-95746046D01*
X177343553Y-95947549D01*
X177365959Y-95991053D01*
X177430500Y-96116366D01*
X177439705Y-96134239D01*
X177443409Y-96138954D01*
X177565718Y-96294662D01*
X177565722Y-96294667D01*
X177569424Y-96299379D01*
X177573954Y-96303310D01*
X177573955Y-96303311D01*
X177723498Y-96433079D01*
X177723503Y-96433083D01*
X177728029Y-96437010D01*
X177909799Y-96542166D01*
X178008173Y-96576327D01*
X178102509Y-96609086D01*
X178102511Y-96609086D01*
X178108174Y-96611053D01*
X178114109Y-96611914D01*
X178114111Y-96611914D01*
X178310056Y-96640325D01*
X178310059Y-96640325D01*
X178315996Y-96641186D01*
X178525767Y-96631477D01*
X178657547Y-96599718D01*
X178724085Y-96583682D01*
X178724087Y-96583681D01*
X178729918Y-96582276D01*
X178735376Y-96579794D01*
X178735380Y-96579793D01*
X178874174Y-96516687D01*
X178921081Y-96495360D01*
X179092360Y-96373863D01*
X179237575Y-96222169D01*
X179271720Y-96169288D01*
X179348233Y-96050791D01*
X179348234Y-96050788D01*
X179351485Y-96045754D01*
X179391063Y-95947549D01*
X179427739Y-95856545D01*
X179427740Y-95856542D01*
X179429981Y-95850981D01*
X179431129Y-95845100D01*
X179431131Y-95845095D01*
X179469362Y-95649324D01*
X179469362Y-95649321D01*
X179470230Y-95644878D01*
X179470500Y-95639357D01*
X179470500Y-94484531D01*
X179455561Y-94327954D01*
X179452566Y-94317743D01*
X179398133Y-94132199D01*
X179396447Y-94126451D01*
X179312224Y-93962922D01*
X179303041Y-93945092D01*
X179303039Y-93945089D01*
X179300295Y-93939761D01*
X179192654Y-93802727D01*
X179174282Y-93779338D01*
X179174278Y-93779333D01*
X179170576Y-93774621D01*
X179143920Y-93751490D01*
X179016502Y-93640921D01*
X179016497Y-93640917D01*
X179011971Y-93636990D01*
X178977581Y-93617095D01*
X180123401Y-93617095D01*
X180123738Y-93623614D01*
X180133657Y-93719206D01*
X180136549Y-93732600D01*
X180187988Y-93886784D01*
X180194161Y-93899962D01*
X180279463Y-94037807D01*
X180288499Y-94049208D01*
X180403229Y-94163739D01*
X180414640Y-94172751D01*
X180552643Y-94257816D01*
X180565824Y-94263963D01*
X180720110Y-94315138D01*
X180733486Y-94318005D01*
X180827838Y-94327672D01*
X180834254Y-94328000D01*
X180871785Y-94328000D01*
X180887024Y-94323525D01*
X180888229Y-94322135D01*
X180889900Y-94314452D01*
X180889900Y-93392115D01*
X180885425Y-93376876D01*
X180884035Y-93375671D01*
X180876352Y-93374000D01*
X180141516Y-93374000D01*
X180126277Y-93378475D01*
X180125072Y-93379865D01*
X180123401Y-93387548D01*
X180123401Y-93617095D01*
X178977581Y-93617095D01*
X178830201Y-93531834D01*
X178683062Y-93480739D01*
X178637491Y-93464914D01*
X178637489Y-93464914D01*
X178631826Y-93462947D01*
X178625891Y-93462086D01*
X178625889Y-93462086D01*
X178429944Y-93433675D01*
X178429941Y-93433675D01*
X178424004Y-93432814D01*
X178214233Y-93442523D01*
X178082453Y-93474282D01*
X178015915Y-93490318D01*
X178015913Y-93490319D01*
X178010082Y-93491724D01*
X178004624Y-93494206D01*
X178004620Y-93494207D01*
X177914716Y-93535084D01*
X177818919Y-93578640D01*
X177647640Y-93700137D01*
X177618766Y-93730299D01*
X177511087Y-93842783D01*
X177502425Y-93851831D01*
X177499174Y-93856866D01*
X177435108Y-93956087D01*
X177388515Y-94028246D01*
X177386273Y-94033809D01*
X177330278Y-94172751D01*
X177310019Y-94223019D01*
X177308871Y-94228900D01*
X177308869Y-94228905D01*
X177276442Y-94394956D01*
X177269770Y-94429122D01*
X177269500Y-94434643D01*
X177269500Y-95589469D01*
X176930500Y-95589469D01*
X176930500Y-94484531D01*
X176915561Y-94327954D01*
X176912566Y-94317743D01*
X176858133Y-94132199D01*
X176856447Y-94126451D01*
X176772224Y-93962922D01*
X176763041Y-93945092D01*
X176763039Y-93945089D01*
X176760295Y-93939761D01*
X176652654Y-93802727D01*
X176634282Y-93779338D01*
X176634278Y-93779333D01*
X176630576Y-93774621D01*
X176603920Y-93751490D01*
X176476502Y-93640921D01*
X176476497Y-93640917D01*
X176471971Y-93636990D01*
X176290201Y-93531834D01*
X176143062Y-93480739D01*
X176097491Y-93464914D01*
X176097489Y-93464914D01*
X176091826Y-93462947D01*
X176085891Y-93462086D01*
X176085889Y-93462086D01*
X175889944Y-93433675D01*
X175889941Y-93433675D01*
X175884004Y-93432814D01*
X175674233Y-93442523D01*
X175542453Y-93474282D01*
X175475915Y-93490318D01*
X175475913Y-93490319D01*
X175470082Y-93491724D01*
X175464624Y-93494206D01*
X175464620Y-93494207D01*
X175374716Y-93535084D01*
X175278919Y-93578640D01*
X175183129Y-93646589D01*
X175174400Y-93652781D01*
X175107266Y-93675879D01*
X175038301Y-93659015D01*
X174989402Y-93607543D01*
X174975500Y-93550011D01*
X174975500Y-92847885D01*
X180123400Y-92847885D01*
X180127875Y-92863124D01*
X180129265Y-92864329D01*
X180136948Y-92866000D01*
X180871785Y-92866000D01*
X180887024Y-92861525D01*
X180888229Y-92860135D01*
X180889900Y-92852452D01*
X180889900Y-91930116D01*
X180885425Y-91914877D01*
X180884035Y-91913672D01*
X180876352Y-91912001D01*
X180834305Y-91912001D01*
X180827786Y-91912338D01*
X180732194Y-91922257D01*
X180718800Y-91925149D01*
X180564616Y-91976588D01*
X180551438Y-91982761D01*
X180413593Y-92068063D01*
X180402192Y-92077099D01*
X180287661Y-92191829D01*
X180278649Y-92203240D01*
X180193584Y-92341243D01*
X180187437Y-92354424D01*
X180136262Y-92508710D01*
X180133395Y-92522084D01*
X180123728Y-92616438D01*
X180123400Y-92622855D01*
X180123400Y-92847885D01*
X174975500Y-92847885D01*
X174975500Y-92338438D01*
X174995502Y-92270317D01*
X175012405Y-92249343D01*
X176789628Y-90472120D01*
X176800523Y-90450737D01*
X176810847Y-90433891D01*
X176819120Y-90422504D01*
X176824949Y-90414481D01*
X176828013Y-90405050D01*
X176828015Y-90405047D01*
X176832364Y-90391663D01*
X176839928Y-90373402D01*
X176846316Y-90360864D01*
X176846316Y-90360863D01*
X176850819Y-90352026D01*
X176854572Y-90328329D01*
X176859186Y-90309110D01*
X176866600Y-90286293D01*
X176866600Y-90276374D01*
X176868151Y-90266582D01*
X176871249Y-90267073D01*
X176886602Y-90214786D01*
X176934224Y-90171246D01*
X177013633Y-90129731D01*
X177013632Y-90129731D01*
X177019098Y-90126874D01*
X177023899Y-90123014D01*
X177023902Y-90123012D01*
X177174846Y-90001650D01*
X177174847Y-90001650D01*
X177179653Y-89997785D01*
X177312076Y-89839970D01*
X177315044Y-89834572D01*
X177315047Y-89834567D01*
X177408357Y-89664835D01*
X177411324Y-89659438D01*
X177473616Y-89463068D01*
X177474574Y-89454532D01*
X177486363Y-89349426D01*
X177491600Y-89302736D01*
X177491600Y-89045100D01*
X177511602Y-88976979D01*
X177565258Y-88930486D01*
X177617600Y-88919100D01*
X178793793Y-88919100D01*
X178816610Y-88911686D01*
X178835829Y-88907072D01*
X178859526Y-88903319D01*
X178868364Y-88898816D01*
X178880902Y-88892428D01*
X178899163Y-88884864D01*
X178912547Y-88880515D01*
X178912550Y-88880513D01*
X178921981Y-88877449D01*
X178941391Y-88863347D01*
X178958237Y-88853023D01*
X178979620Y-88842128D01*
X179369343Y-88452405D01*
X179431655Y-88418379D01*
X179458438Y-88415500D01*
X180211088Y-88415500D01*
X180279209Y-88435502D01*
G37*
G04 #@! TD.AperFunction*
M02*
