M48
; DRILL file {KiCad 6.0.1} date Fr 11 Feb 2022 11:10:31 CET
; FORMAT={-:-/ absolute / metric / decimal}
; #@! TF.CreationDate,2022-02-11T11:10:31+01:00
; #@! TF.GenerationSoftware,Kicad,Pcbnew,6.0.1
; #@! TF.FileFunction,Plated,1,2,PTH
FMAT,2
METRIC
; #@! TA.AperFunction,Plated,PTH,ViaDrill
T1C0.400
; #@! TA.AperFunction,Plated,PTH,ComponentDrill
T2C0.800
; #@! TA.AperFunction,Plated,PTH,ComponentDrill
T3C0.998
; #@! TA.AperFunction,Plated,PTH,ComponentDrill
T4C1.000
%
G90
G05
T1
X110.5Y-103.67
X110.54Y-88.54
X125.74Y-94.98
X129.55Y-107.97
X150.93Y-91.46
X152.2Y-90.83
X157.58Y-92.69
X166.27Y-85.99
X178.3Y-85.93
X178.32Y-91.84
X183.87Y-107.98
X185.13Y-103.04
X185.72Y-113.44
T2
X186.94Y-87.44
X186.94Y-89.98
X186.94Y-92.52
X194.56Y-87.44
X194.56Y-89.98
X194.56Y-92.52
T3
X188.06Y-107.95
X188.06Y-110.49
X190.6Y-107.95
X190.6Y-110.49
X193.14Y-107.95
X193.14Y-110.49
T4
X118.021Y-88.494
X118.021Y-103.734
X120.561Y-88.494
X120.561Y-103.734
X123.101Y-88.494
X123.101Y-103.734
X125.641Y-88.494
X125.641Y-103.734
X128.181Y-88.494
X128.181Y-103.734
X130.11Y-95.037
X130.11Y-110.023
X130.721Y-88.494
X130.721Y-103.734
X132.65Y-95.037
X132.65Y-110.023
X133.261Y-88.494
X133.261Y-103.734
X135.19Y-95.037
X135.19Y-110.023
X135.801Y-88.494
X135.801Y-103.734
X137.73Y-95.037
X137.73Y-110.023
X138.341Y-88.494
X138.341Y-103.734
X140.27Y-95.037
X140.27Y-110.023
X140.881Y-88.494
X140.881Y-103.734
X142.81Y-95.037
X142.81Y-110.023
X143.421Y-88.494
X143.421Y-103.734
X145.35Y-95.037
X145.35Y-110.023
X145.961Y-88.494
X145.961Y-103.734
X147.89Y-95.037
X147.89Y-110.023
X148.501Y-88.494
X148.501Y-103.734
X150.43Y-95.037
X150.43Y-110.023
X151.041Y-88.494
X151.041Y-103.734
X152.97Y-95.037
X152.97Y-110.023
X153.581Y-88.494
X153.581Y-103.734
X155.51Y-95.037
X155.51Y-110.023
X156.121Y-88.494
X156.121Y-103.734
X158.05Y-95.037
X158.05Y-110.023
X158.661Y-88.494
X158.661Y-103.734
X160.59Y-95.037
X160.59Y-110.023
X161.201Y-88.494
X161.201Y-103.734
X163.13Y-95.037
X163.13Y-110.023
X163.741Y-88.494
X163.741Y-103.734
X165.67Y-95.037
X165.67Y-110.023
X166.281Y-88.494
X166.281Y-103.734
X168.21Y-95.037
X168.21Y-110.023
X168.821Y-88.494
X168.821Y-103.734
X170.75Y-95.037
X170.75Y-110.023
X171.361Y-88.494
X171.361Y-103.734
X173.29Y-95.037
X173.29Y-110.023
X173.901Y-88.494
X173.901Y-103.734
X175.83Y-95.037
X175.83Y-110.023
X176.441Y-88.494
X176.441Y-103.734
X178.37Y-95.037
X178.37Y-110.023
T0
M30
