%FSLAX45Y45*%
G04 Gerber Fmt 4.5, Leading zero omitted, Abs format (unit mm)*
G04 Created by KiCad (PCBNEW 6.0.1) date 2022-02-11 11:10:32*
%MOMM*%
%LPD*%
G01*
G04 APERTURE LIST*
%TA.AperFunction,Profile*%
%ADD10C,0.150000*%
%TD*%
%ADD11C,0.200000*%
G04 APERTURE END LIST*
D10*
X19823800Y-8470900D02*
G75*
G03*
X19696800Y-8343900I-127000J0D01*
G01*
X12763500Y-11414900D02*
X12763000Y-11132000D01*
X19709500Y-11529200D02*
G75*
G03*
X19823800Y-11414900I0J114300D01*
G01*
X19823800Y-8470900D02*
X19823800Y-11414900D01*
X12763000Y-11132000D02*
G75*
G03*
X12515000Y-10884000I-248000J0D01*
G01*
X12515000Y-10884000D02*
X10845800Y-10883900D01*
X12763500Y-11414900D02*
G75*
G03*
X12877800Y-11529200I114300J0D01*
G01*
X19709500Y-11529200D02*
X12877800Y-11529200D01*
X10731500Y-10769600D02*
X10731500Y-8470900D01*
X10858500Y-8343900D02*
X19696800Y-8343900D01*
X10858500Y-8343900D02*
G75*
G03*
X10731500Y-8470900I0J-127000D01*
G01*
X10731500Y-10769600D02*
G75*
G03*
X10845800Y-10883900I114300J0D01*
G01*
D11*
X10981619Y-11847176D02*
X10981619Y-11647176D01*
X11029238Y-11647176D01*
X11057810Y-11656700D01*
X11076857Y-11675748D01*
X11086381Y-11694795D01*
X11095905Y-11732890D01*
X11095905Y-11761462D01*
X11086381Y-11799557D01*
X11076857Y-11818605D01*
X11057810Y-11837652D01*
X11029238Y-11847176D01*
X10981619Y-11847176D01*
X11181619Y-11847176D02*
X11181619Y-11713843D01*
X11181619Y-11751938D02*
X11191143Y-11732890D01*
X11200667Y-11723367D01*
X11219714Y-11713843D01*
X11238762Y-11713843D01*
X11305428Y-11847176D02*
X11305428Y-11713843D01*
X11305428Y-11647176D02*
X11295905Y-11656700D01*
X11305428Y-11666224D01*
X11314952Y-11656700D01*
X11305428Y-11647176D01*
X11305428Y-11666224D01*
X11429238Y-11847176D02*
X11410190Y-11837652D01*
X11400667Y-11818605D01*
X11400667Y-11647176D01*
X11534000Y-11847176D02*
X11514952Y-11837652D01*
X11505428Y-11818605D01*
X11505428Y-11647176D01*
X11762571Y-11847176D02*
X11762571Y-11647176D01*
X11829238Y-11790033D01*
X11895905Y-11647176D01*
X11895905Y-11847176D01*
X12076857Y-11847176D02*
X12076857Y-11742414D01*
X12067333Y-11723367D01*
X12048286Y-11713843D01*
X12010190Y-11713843D01*
X11991143Y-11723367D01*
X12076857Y-11837652D02*
X12057809Y-11847176D01*
X12010190Y-11847176D01*
X11991143Y-11837652D01*
X11981619Y-11818605D01*
X11981619Y-11799557D01*
X11991143Y-11780509D01*
X12010190Y-11770986D01*
X12057809Y-11770986D01*
X12076857Y-11761462D01*
X12172095Y-11713843D02*
X12172095Y-11913843D01*
X12172095Y-11723367D02*
X12191143Y-11713843D01*
X12229238Y-11713843D01*
X12248286Y-11723367D01*
X12257809Y-11732890D01*
X12267333Y-11751938D01*
X12267333Y-11809081D01*
X12257809Y-11828128D01*
X12248286Y-11837652D01*
X12229238Y-11847176D01*
X12191143Y-11847176D01*
X12172095Y-11837652D01*
X12353048Y-11828128D02*
X12362571Y-11837652D01*
X12353048Y-11847176D01*
X12343524Y-11837652D01*
X12353048Y-11828128D01*
X12353048Y-11847176D01*
X12353048Y-11723367D02*
X12362571Y-11732890D01*
X12353048Y-11742414D01*
X12343524Y-11732890D01*
X12353048Y-11723367D01*
X12353048Y-11742414D01*
M02*
