%FSLAX45Y45*%
G04 Gerber Fmt 4.5, Leading zero omitted, Abs format (unit mm)*
G04 Created by KiCad (PCBNEW 6.0.1) date 2022-02-11 11:10:32*
%MOMM*%
%LPD*%
G01*
G04 APERTURE LIST*
%TA.AperFunction,Profile*%
%ADD10C,0.150000*%
%TD*%
%ADD11C,0.200000*%
%ADD12C,0.040000*%
%ADD13C,0.080000*%
%ADD14C,0.099822*%
%ADD15C,0.100000*%
G04 APERTURE END LIST*
D10*
X19823800Y-8470900D02*
G75*
G03*
X19696800Y-8343900I-127000J0D01*
G01*
X12763500Y-11414900D02*
X12763000Y-11132000D01*
X19709500Y-11529200D02*
G75*
G03*
X19823800Y-11414900I0J114300D01*
G01*
X19823800Y-8470900D02*
X19823800Y-11414900D01*
X12763000Y-11132000D02*
G75*
G03*
X12515000Y-10884000I-248000J0D01*
G01*
X12515000Y-10884000D02*
X10845800Y-10883900D01*
X12763500Y-11414900D02*
G75*
G03*
X12877800Y-11529200I114300J0D01*
G01*
X19709500Y-11529200D02*
X12877800Y-11529200D01*
X10731500Y-10769600D02*
X10731500Y-8470900D01*
X10858500Y-8343900D02*
X19696800Y-8343900D01*
X10858500Y-8343900D02*
G75*
G03*
X10731500Y-8470900I0J-127000D01*
G01*
X10731500Y-10769600D02*
G75*
G03*
X10845800Y-10883900I114300J0D01*
G01*
D11*
D12*
X11030000Y-10347000D02*
X11070000Y-10387000D01*
X11070000Y-10347000D02*
X11030000Y-10387000D01*
X11034000Y-8834000D02*
X11074000Y-8874000D01*
X11074000Y-8834000D02*
X11034000Y-8874000D01*
X12554000Y-9478000D02*
X12594000Y-9518000D01*
X12594000Y-9478000D02*
X12554000Y-9518000D01*
X12935000Y-10777000D02*
X12975000Y-10817000D01*
X12975000Y-10777000D02*
X12935000Y-10817000D01*
X15073000Y-9126000D02*
X15113000Y-9166000D01*
X15113000Y-9126000D02*
X15073000Y-9166000D01*
X15200000Y-9063000D02*
X15240000Y-9103000D01*
X15240000Y-9063000D02*
X15200000Y-9103000D01*
X15738000Y-9249000D02*
X15778000Y-9289000D01*
X15778000Y-9249000D02*
X15738000Y-9289000D01*
X16607000Y-8579000D02*
X16647000Y-8619000D01*
X16647000Y-8579000D02*
X16607000Y-8619000D01*
X17810000Y-8573000D02*
X17850000Y-8613000D01*
X17850000Y-8573000D02*
X17810000Y-8613000D01*
X17812000Y-9164000D02*
X17852000Y-9204000D01*
X17852000Y-9164000D02*
X17812000Y-9204000D01*
X18367000Y-10778000D02*
X18407000Y-10818000D01*
X18407000Y-10778000D02*
X18367000Y-10818000D01*
X18493000Y-10284000D02*
X18533000Y-10324000D01*
X18533000Y-10284000D02*
X18493000Y-10324000D01*
X18552000Y-11324000D02*
X18592000Y-11364000D01*
X18592000Y-11324000D02*
X18552000Y-11364000D01*
D13*
X18734000Y-8744000D02*
G75*
G03*
X18734000Y-8744000I-40000J0D01*
G01*
X18734000Y-8998000D02*
G75*
G03*
X18734000Y-8998000I-40000J0D01*
G01*
X18734000Y-9252000D02*
G75*
G03*
X18734000Y-9252000I-40000J0D01*
G01*
X19496000Y-8744000D02*
G75*
G03*
X19496000Y-8744000I-40000J0D01*
G01*
X19496000Y-8998000D02*
G75*
G03*
X19496000Y-8998000I-40000J0D01*
G01*
X19496000Y-9252000D02*
G75*
G03*
X19496000Y-9252000I-40000J0D01*
G01*
D14*
X18806000Y-10745089D02*
X18806000Y-10844911D01*
X18756089Y-10795000D02*
X18855911Y-10795000D01*
X18806000Y-10999089D02*
X18806000Y-11098911D01*
X18756089Y-11049000D02*
X18855911Y-11049000D01*
X19060000Y-10745089D02*
X19060000Y-10844911D01*
X19010089Y-10795000D02*
X19109911Y-10795000D01*
X19060000Y-10999089D02*
X19060000Y-11098911D01*
X19010089Y-11049000D02*
X19109911Y-11049000D01*
X19314000Y-10745089D02*
X19314000Y-10844911D01*
X19264089Y-10795000D02*
X19363911Y-10795000D01*
X19314000Y-10999089D02*
X19314000Y-11098911D01*
X19264089Y-11049000D02*
X19363911Y-11049000D01*
D15*
X11837466Y-8884716D02*
X11837466Y-8814004D01*
X11766754Y-8814004D01*
X11766754Y-8884716D01*
X11837466Y-8884716D01*
X11837466Y-10408716D02*
X11837466Y-10338004D01*
X11766754Y-10338004D01*
X11766754Y-10408716D01*
X11837466Y-10408716D01*
X12091466Y-8884716D02*
X12091466Y-8814004D01*
X12020754Y-8814004D01*
X12020754Y-8884716D01*
X12091466Y-8884716D01*
X12091466Y-10408716D02*
X12091466Y-10338004D01*
X12020754Y-10338004D01*
X12020754Y-10408716D01*
X12091466Y-10408716D01*
X12345466Y-8884716D02*
X12345466Y-8814004D01*
X12274754Y-8814004D01*
X12274754Y-8884716D01*
X12345466Y-8884716D01*
X12345466Y-10408716D02*
X12345466Y-10338004D01*
X12274754Y-10338004D01*
X12274754Y-10408716D01*
X12345466Y-10408716D01*
X12599466Y-8884716D02*
X12599466Y-8814004D01*
X12528754Y-8814004D01*
X12528754Y-8884716D01*
X12599466Y-8884716D01*
X12599466Y-10408716D02*
X12599466Y-10338004D01*
X12528754Y-10338004D01*
X12528754Y-10408716D01*
X12599466Y-10408716D01*
X12853466Y-8884716D02*
X12853466Y-8814004D01*
X12782754Y-8814004D01*
X12782754Y-8884716D01*
X12853466Y-8884716D01*
X12853466Y-10408716D02*
X12853466Y-10338004D01*
X12782754Y-10338004D01*
X12782754Y-10408716D01*
X12853466Y-10408716D01*
X13046356Y-9539056D02*
X13046356Y-9468344D01*
X12975644Y-9468344D01*
X12975644Y-9539056D01*
X13046356Y-9539056D01*
X13046356Y-11037656D02*
X13046356Y-10966944D01*
X12975644Y-10966944D01*
X12975644Y-11037656D01*
X13046356Y-11037656D01*
X13107466Y-8884716D02*
X13107466Y-8814004D01*
X13036754Y-8814004D01*
X13036754Y-8884716D01*
X13107466Y-8884716D01*
X13107466Y-10408716D02*
X13107466Y-10338004D01*
X13036754Y-10338004D01*
X13036754Y-10408716D01*
X13107466Y-10408716D01*
X13300356Y-9539056D02*
X13300356Y-9468344D01*
X13229644Y-9468344D01*
X13229644Y-9539056D01*
X13300356Y-9539056D01*
X13300356Y-11037656D02*
X13300356Y-10966944D01*
X13229644Y-10966944D01*
X13229644Y-11037656D01*
X13300356Y-11037656D01*
X13361466Y-8884716D02*
X13361466Y-8814004D01*
X13290754Y-8814004D01*
X13290754Y-8884716D01*
X13361466Y-8884716D01*
X13361466Y-10408716D02*
X13361466Y-10338004D01*
X13290754Y-10338004D01*
X13290754Y-10408716D01*
X13361466Y-10408716D01*
X13554356Y-9539056D02*
X13554356Y-9468344D01*
X13483644Y-9468344D01*
X13483644Y-9539056D01*
X13554356Y-9539056D01*
X13554356Y-11037656D02*
X13554356Y-10966944D01*
X13483644Y-10966944D01*
X13483644Y-11037656D01*
X13554356Y-11037656D01*
X13615466Y-8884716D02*
X13615466Y-8814004D01*
X13544754Y-8814004D01*
X13544754Y-8884716D01*
X13615466Y-8884716D01*
X13615466Y-10408716D02*
X13615466Y-10338004D01*
X13544754Y-10338004D01*
X13544754Y-10408716D01*
X13615466Y-10408716D01*
X13808356Y-9539056D02*
X13808356Y-9468344D01*
X13737644Y-9468344D01*
X13737644Y-9539056D01*
X13808356Y-9539056D01*
X13808356Y-11037656D02*
X13808356Y-10966944D01*
X13737644Y-10966944D01*
X13737644Y-11037656D01*
X13808356Y-11037656D01*
X13869466Y-8884716D02*
X13869466Y-8814004D01*
X13798754Y-8814004D01*
X13798754Y-8884716D01*
X13869466Y-8884716D01*
X13869466Y-10408716D02*
X13869466Y-10338004D01*
X13798754Y-10338004D01*
X13798754Y-10408716D01*
X13869466Y-10408716D01*
X14062356Y-9539056D02*
X14062356Y-9468344D01*
X13991644Y-9468344D01*
X13991644Y-9539056D01*
X14062356Y-9539056D01*
X14062356Y-11037656D02*
X14062356Y-10966944D01*
X13991644Y-10966944D01*
X13991644Y-11037656D01*
X14062356Y-11037656D01*
X14123466Y-8884716D02*
X14123466Y-8814004D01*
X14052754Y-8814004D01*
X14052754Y-8884716D01*
X14123466Y-8884716D01*
X14123466Y-10408716D02*
X14123466Y-10338004D01*
X14052754Y-10338004D01*
X14052754Y-10408716D01*
X14123466Y-10408716D01*
X14316356Y-9539056D02*
X14316356Y-9468344D01*
X14245644Y-9468344D01*
X14245644Y-9539056D01*
X14316356Y-9539056D01*
X14316356Y-11037656D02*
X14316356Y-10966944D01*
X14245644Y-10966944D01*
X14245644Y-11037656D01*
X14316356Y-11037656D01*
X14377466Y-8884716D02*
X14377466Y-8814004D01*
X14306754Y-8814004D01*
X14306754Y-8884716D01*
X14377466Y-8884716D01*
X14377466Y-10408716D02*
X14377466Y-10338004D01*
X14306754Y-10338004D01*
X14306754Y-10408716D01*
X14377466Y-10408716D01*
X14570356Y-9539056D02*
X14570356Y-9468344D01*
X14499644Y-9468344D01*
X14499644Y-9539056D01*
X14570356Y-9539056D01*
X14570356Y-11037656D02*
X14570356Y-10966944D01*
X14499644Y-10966944D01*
X14499644Y-11037656D01*
X14570356Y-11037656D01*
X14631466Y-8884716D02*
X14631466Y-8814004D01*
X14560754Y-8814004D01*
X14560754Y-8884716D01*
X14631466Y-8884716D01*
X14631466Y-10408716D02*
X14631466Y-10338004D01*
X14560754Y-10338004D01*
X14560754Y-10408716D01*
X14631466Y-10408716D01*
X14824356Y-9539056D02*
X14824356Y-9468344D01*
X14753644Y-9468344D01*
X14753644Y-9539056D01*
X14824356Y-9539056D01*
X14824356Y-11037656D02*
X14824356Y-10966944D01*
X14753644Y-10966944D01*
X14753644Y-11037656D01*
X14824356Y-11037656D01*
X14885466Y-8884716D02*
X14885466Y-8814004D01*
X14814754Y-8814004D01*
X14814754Y-8884716D01*
X14885466Y-8884716D01*
X14885466Y-10408716D02*
X14885466Y-10338004D01*
X14814754Y-10338004D01*
X14814754Y-10408716D01*
X14885466Y-10408716D01*
X15078356Y-9539056D02*
X15078356Y-9468344D01*
X15007644Y-9468344D01*
X15007644Y-9539056D01*
X15078356Y-9539056D01*
X15078356Y-11037656D02*
X15078356Y-10966944D01*
X15007644Y-10966944D01*
X15007644Y-11037656D01*
X15078356Y-11037656D01*
X15139466Y-8884716D02*
X15139466Y-8814004D01*
X15068754Y-8814004D01*
X15068754Y-8884716D01*
X15139466Y-8884716D01*
X15139466Y-10408716D02*
X15139466Y-10338004D01*
X15068754Y-10338004D01*
X15068754Y-10408716D01*
X15139466Y-10408716D01*
X15332356Y-9539056D02*
X15332356Y-9468344D01*
X15261644Y-9468344D01*
X15261644Y-9539056D01*
X15332356Y-9539056D01*
X15332356Y-11037656D02*
X15332356Y-10966944D01*
X15261644Y-10966944D01*
X15261644Y-11037656D01*
X15332356Y-11037656D01*
X15393466Y-8884716D02*
X15393466Y-8814004D01*
X15322754Y-8814004D01*
X15322754Y-8884716D01*
X15393466Y-8884716D01*
X15393466Y-10408716D02*
X15393466Y-10338004D01*
X15322754Y-10338004D01*
X15322754Y-10408716D01*
X15393466Y-10408716D01*
X15586356Y-9539056D02*
X15586356Y-9468344D01*
X15515644Y-9468344D01*
X15515644Y-9539056D01*
X15586356Y-9539056D01*
X15586356Y-11037656D02*
X15586356Y-10966944D01*
X15515644Y-10966944D01*
X15515644Y-11037656D01*
X15586356Y-11037656D01*
X15647466Y-8884716D02*
X15647466Y-8814004D01*
X15576754Y-8814004D01*
X15576754Y-8884716D01*
X15647466Y-8884716D01*
X15647466Y-10408716D02*
X15647466Y-10338004D01*
X15576754Y-10338004D01*
X15576754Y-10408716D01*
X15647466Y-10408716D01*
X15840356Y-9539056D02*
X15840356Y-9468344D01*
X15769644Y-9468344D01*
X15769644Y-9539056D01*
X15840356Y-9539056D01*
X15840356Y-11037656D02*
X15840356Y-10966944D01*
X15769644Y-10966944D01*
X15769644Y-11037656D01*
X15840356Y-11037656D01*
X15901466Y-8884716D02*
X15901466Y-8814004D01*
X15830754Y-8814004D01*
X15830754Y-8884716D01*
X15901466Y-8884716D01*
X15901466Y-10408716D02*
X15901466Y-10338004D01*
X15830754Y-10338004D01*
X15830754Y-10408716D01*
X15901466Y-10408716D01*
X16094356Y-9539056D02*
X16094356Y-9468344D01*
X16023644Y-9468344D01*
X16023644Y-9539056D01*
X16094356Y-9539056D01*
X16094356Y-11037656D02*
X16094356Y-10966944D01*
X16023644Y-10966944D01*
X16023644Y-11037656D01*
X16094356Y-11037656D01*
X16155466Y-8884716D02*
X16155466Y-8814004D01*
X16084754Y-8814004D01*
X16084754Y-8884716D01*
X16155466Y-8884716D01*
X16155466Y-10408716D02*
X16155466Y-10338004D01*
X16084754Y-10338004D01*
X16084754Y-10408716D01*
X16155466Y-10408716D01*
X16348356Y-9539056D02*
X16348356Y-9468344D01*
X16277644Y-9468344D01*
X16277644Y-9539056D01*
X16348356Y-9539056D01*
X16348356Y-11037656D02*
X16348356Y-10966944D01*
X16277644Y-10966944D01*
X16277644Y-11037656D01*
X16348356Y-11037656D01*
X16409466Y-8884716D02*
X16409466Y-8814004D01*
X16338754Y-8814004D01*
X16338754Y-8884716D01*
X16409466Y-8884716D01*
X16409466Y-10408716D02*
X16409466Y-10338004D01*
X16338754Y-10338004D01*
X16338754Y-10408716D01*
X16409466Y-10408716D01*
X16602356Y-9539056D02*
X16602356Y-9468344D01*
X16531644Y-9468344D01*
X16531644Y-9539056D01*
X16602356Y-9539056D01*
X16602356Y-11037656D02*
X16602356Y-10966944D01*
X16531644Y-10966944D01*
X16531644Y-11037656D01*
X16602356Y-11037656D01*
X16663466Y-8884716D02*
X16663466Y-8814004D01*
X16592754Y-8814004D01*
X16592754Y-8884716D01*
X16663466Y-8884716D01*
X16663466Y-10408716D02*
X16663466Y-10338004D01*
X16592754Y-10338004D01*
X16592754Y-10408716D01*
X16663466Y-10408716D01*
X16856356Y-9539056D02*
X16856356Y-9468344D01*
X16785644Y-9468344D01*
X16785644Y-9539056D01*
X16856356Y-9539056D01*
X16856356Y-11037656D02*
X16856356Y-10966944D01*
X16785644Y-10966944D01*
X16785644Y-11037656D01*
X16856356Y-11037656D01*
X16917466Y-8884716D02*
X16917466Y-8814004D01*
X16846754Y-8814004D01*
X16846754Y-8884716D01*
X16917466Y-8884716D01*
X16917466Y-10408716D02*
X16917466Y-10338004D01*
X16846754Y-10338004D01*
X16846754Y-10408716D01*
X16917466Y-10408716D01*
X17110356Y-9539056D02*
X17110356Y-9468344D01*
X17039644Y-9468344D01*
X17039644Y-9539056D01*
X17110356Y-9539056D01*
X17110356Y-11037656D02*
X17110356Y-10966944D01*
X17039644Y-10966944D01*
X17039644Y-11037656D01*
X17110356Y-11037656D01*
X17171466Y-8884716D02*
X17171466Y-8814004D01*
X17100754Y-8814004D01*
X17100754Y-8884716D01*
X17171466Y-8884716D01*
X17171466Y-10408716D02*
X17171466Y-10338004D01*
X17100754Y-10338004D01*
X17100754Y-10408716D01*
X17171466Y-10408716D01*
X17364356Y-9539056D02*
X17364356Y-9468344D01*
X17293644Y-9468344D01*
X17293644Y-9539056D01*
X17364356Y-9539056D01*
X17364356Y-11037656D02*
X17364356Y-10966944D01*
X17293644Y-10966944D01*
X17293644Y-11037656D01*
X17364356Y-11037656D01*
X17425466Y-8884716D02*
X17425466Y-8814004D01*
X17354754Y-8814004D01*
X17354754Y-8884716D01*
X17425466Y-8884716D01*
X17425466Y-10408716D02*
X17425466Y-10338004D01*
X17354754Y-10338004D01*
X17354754Y-10408716D01*
X17425466Y-10408716D01*
X17618356Y-9539056D02*
X17618356Y-9468344D01*
X17547644Y-9468344D01*
X17547644Y-9539056D01*
X17618356Y-9539056D01*
X17618356Y-11037656D02*
X17618356Y-10966944D01*
X17547644Y-10966944D01*
X17547644Y-11037656D01*
X17618356Y-11037656D01*
X17679466Y-8884716D02*
X17679466Y-8814004D01*
X17608754Y-8814004D01*
X17608754Y-8884716D01*
X17679466Y-8884716D01*
X17679466Y-10408716D02*
X17679466Y-10338004D01*
X17608754Y-10338004D01*
X17608754Y-10408716D01*
X17679466Y-10408716D01*
X17872356Y-9539056D02*
X17872356Y-9468344D01*
X17801644Y-9468344D01*
X17801644Y-9539056D01*
X17872356Y-9539056D01*
X17872356Y-11037656D02*
X17872356Y-10966944D01*
X17801644Y-10966944D01*
X17801644Y-11037656D01*
X17872356Y-11037656D01*
D11*
X10981619Y-11847176D02*
X10981619Y-11647176D01*
X11029238Y-11647176D01*
X11057810Y-11656700D01*
X11076857Y-11675748D01*
X11086381Y-11694795D01*
X11095905Y-11732890D01*
X11095905Y-11761462D01*
X11086381Y-11799557D01*
X11076857Y-11818605D01*
X11057810Y-11837652D01*
X11029238Y-11847176D01*
X10981619Y-11847176D01*
X11181619Y-11847176D02*
X11181619Y-11713843D01*
X11181619Y-11751938D02*
X11191143Y-11732890D01*
X11200667Y-11723367D01*
X11219714Y-11713843D01*
X11238762Y-11713843D01*
X11305428Y-11847176D02*
X11305428Y-11713843D01*
X11305428Y-11647176D02*
X11295905Y-11656700D01*
X11305428Y-11666224D01*
X11314952Y-11656700D01*
X11305428Y-11647176D01*
X11305428Y-11666224D01*
X11429238Y-11847176D02*
X11410190Y-11837652D01*
X11400667Y-11818605D01*
X11400667Y-11647176D01*
X11534000Y-11847176D02*
X11514952Y-11837652D01*
X11505428Y-11818605D01*
X11505428Y-11647176D01*
X11762571Y-11847176D02*
X11762571Y-11647176D01*
X11829238Y-11790033D01*
X11895905Y-11647176D01*
X11895905Y-11847176D01*
X12076857Y-11847176D02*
X12076857Y-11742414D01*
X12067333Y-11723367D01*
X12048286Y-11713843D01*
X12010190Y-11713843D01*
X11991143Y-11723367D01*
X12076857Y-11837652D02*
X12057809Y-11847176D01*
X12010190Y-11847176D01*
X11991143Y-11837652D01*
X11981619Y-11818605D01*
X11981619Y-11799557D01*
X11991143Y-11780509D01*
X12010190Y-11770986D01*
X12057809Y-11770986D01*
X12076857Y-11761462D01*
X12172095Y-11713843D02*
X12172095Y-11913843D01*
X12172095Y-11723367D02*
X12191143Y-11713843D01*
X12229238Y-11713843D01*
X12248286Y-11723367D01*
X12257809Y-11732890D01*
X12267333Y-11751938D01*
X12267333Y-11809081D01*
X12257809Y-11828128D01*
X12248286Y-11837652D01*
X12229238Y-11847176D01*
X12191143Y-11847176D01*
X12172095Y-11837652D01*
X12353048Y-11828128D02*
X12362571Y-11837652D01*
X12353048Y-11847176D01*
X12343524Y-11837652D01*
X12353048Y-11828128D01*
X12353048Y-11847176D01*
X12353048Y-11723367D02*
X12362571Y-11732890D01*
X12353048Y-11742414D01*
X12343524Y-11732890D01*
X12353048Y-11723367D01*
X12353048Y-11742414D01*
D12*
X10684000Y-12156700D02*
X10724000Y-12196700D01*
X10724000Y-12156700D02*
X10684000Y-12196700D01*
D11*
X11019714Y-12067176D02*
X11038762Y-12067176D01*
X11057810Y-12076700D01*
X11067333Y-12086224D01*
X11076857Y-12105271D01*
X11086381Y-12143367D01*
X11086381Y-12190986D01*
X11076857Y-12229081D01*
X11067333Y-12248128D01*
X11057810Y-12257652D01*
X11038762Y-12267176D01*
X11019714Y-12267176D01*
X11000667Y-12257652D01*
X10991143Y-12248128D01*
X10981619Y-12229081D01*
X10972095Y-12190986D01*
X10972095Y-12143367D01*
X10981619Y-12105271D01*
X10991143Y-12086224D01*
X11000667Y-12076700D01*
X11019714Y-12067176D01*
X11172095Y-12248128D02*
X11181619Y-12257652D01*
X11172095Y-12267176D01*
X11162571Y-12257652D01*
X11172095Y-12248128D01*
X11172095Y-12267176D01*
X11353048Y-12133843D02*
X11353048Y-12267176D01*
X11305428Y-12057652D02*
X11257809Y-12200509D01*
X11381619Y-12200509D01*
X11495905Y-12067176D02*
X11514952Y-12067176D01*
X11534000Y-12076700D01*
X11543524Y-12086224D01*
X11553048Y-12105271D01*
X11562571Y-12143367D01*
X11562571Y-12190986D01*
X11553048Y-12229081D01*
X11543524Y-12248128D01*
X11534000Y-12257652D01*
X11514952Y-12267176D01*
X11495905Y-12267176D01*
X11476857Y-12257652D01*
X11467333Y-12248128D01*
X11457809Y-12229081D01*
X11448286Y-12190986D01*
X11448286Y-12143367D01*
X11457809Y-12105271D01*
X11467333Y-12086224D01*
X11476857Y-12076700D01*
X11495905Y-12067176D01*
X11686381Y-12067176D02*
X11705428Y-12067176D01*
X11724476Y-12076700D01*
X11734000Y-12086224D01*
X11743524Y-12105271D01*
X11753048Y-12143367D01*
X11753048Y-12190986D01*
X11743524Y-12229081D01*
X11734000Y-12248128D01*
X11724476Y-12257652D01*
X11705428Y-12267176D01*
X11686381Y-12267176D01*
X11667333Y-12257652D01*
X11657809Y-12248128D01*
X11648286Y-12229081D01*
X11638762Y-12190986D01*
X11638762Y-12143367D01*
X11648286Y-12105271D01*
X11657809Y-12086224D01*
X11667333Y-12076700D01*
X11686381Y-12067176D01*
X11838762Y-12267176D02*
X11838762Y-12133843D01*
X11838762Y-12152890D02*
X11848286Y-12143367D01*
X11867333Y-12133843D01*
X11895905Y-12133843D01*
X11914952Y-12143367D01*
X11924476Y-12162414D01*
X11924476Y-12267176D01*
X11924476Y-12162414D02*
X11934000Y-12143367D01*
X11953048Y-12133843D01*
X11981619Y-12133843D01*
X12000667Y-12143367D01*
X12010190Y-12162414D01*
X12010190Y-12267176D01*
X12105428Y-12267176D02*
X12105428Y-12133843D01*
X12105428Y-12152890D02*
X12114952Y-12143367D01*
X12134000Y-12133843D01*
X12162571Y-12133843D01*
X12181619Y-12143367D01*
X12191143Y-12162414D01*
X12191143Y-12267176D01*
X12191143Y-12162414D02*
X12200667Y-12143367D01*
X12219714Y-12133843D01*
X12248286Y-12133843D01*
X12267333Y-12143367D01*
X12276857Y-12162414D01*
X12276857Y-12267176D01*
X12667333Y-12057652D02*
X12495905Y-12314795D01*
X12924476Y-12067176D02*
X12943524Y-12067176D01*
X12962571Y-12076700D01*
X12972095Y-12086224D01*
X12981619Y-12105271D01*
X12991143Y-12143367D01*
X12991143Y-12190986D01*
X12981619Y-12229081D01*
X12972095Y-12248128D01*
X12962571Y-12257652D01*
X12943524Y-12267176D01*
X12924476Y-12267176D01*
X12905428Y-12257652D01*
X12895905Y-12248128D01*
X12886381Y-12229081D01*
X12876857Y-12190986D01*
X12876857Y-12143367D01*
X12886381Y-12105271D01*
X12895905Y-12086224D01*
X12905428Y-12076700D01*
X12924476Y-12067176D01*
X13076857Y-12248128D02*
X13086381Y-12257652D01*
X13076857Y-12267176D01*
X13067333Y-12257652D01*
X13076857Y-12248128D01*
X13076857Y-12267176D01*
X13210190Y-12067176D02*
X13229238Y-12067176D01*
X13248286Y-12076700D01*
X13257809Y-12086224D01*
X13267333Y-12105271D01*
X13276857Y-12143367D01*
X13276857Y-12190986D01*
X13267333Y-12229081D01*
X13257809Y-12248128D01*
X13248286Y-12257652D01*
X13229238Y-12267176D01*
X13210190Y-12267176D01*
X13191143Y-12257652D01*
X13181619Y-12248128D01*
X13172095Y-12229081D01*
X13162571Y-12190986D01*
X13162571Y-12143367D01*
X13172095Y-12105271D01*
X13181619Y-12086224D01*
X13191143Y-12076700D01*
X13210190Y-12067176D01*
X13467333Y-12267176D02*
X13353048Y-12267176D01*
X13410190Y-12267176D02*
X13410190Y-12067176D01*
X13391143Y-12095748D01*
X13372095Y-12114795D01*
X13353048Y-12124319D01*
X13648286Y-12067176D02*
X13553048Y-12067176D01*
X13543524Y-12162414D01*
X13553048Y-12152890D01*
X13572095Y-12143367D01*
X13619714Y-12143367D01*
X13638762Y-12152890D01*
X13648286Y-12162414D01*
X13657809Y-12181462D01*
X13657809Y-12229081D01*
X13648286Y-12248128D01*
X13638762Y-12257652D01*
X13619714Y-12267176D01*
X13572095Y-12267176D01*
X13553048Y-12257652D01*
X13543524Y-12248128D01*
X13724476Y-12067176D02*
X13857809Y-12067176D01*
X13772095Y-12267176D01*
X13924476Y-12067176D02*
X13924476Y-12105271D01*
X14000667Y-12067176D02*
X14000667Y-12105271D01*
X14295905Y-12343367D02*
X14286381Y-12333843D01*
X14267333Y-12305271D01*
X14257809Y-12286224D01*
X14248286Y-12257652D01*
X14238762Y-12210033D01*
X14238762Y-12171938D01*
X14248286Y-12124319D01*
X14257809Y-12095748D01*
X14267333Y-12076700D01*
X14286381Y-12048128D01*
X14295905Y-12038605D01*
X14476857Y-12267176D02*
X14362571Y-12267176D01*
X14419714Y-12267176D02*
X14419714Y-12067176D01*
X14400667Y-12095748D01*
X14381619Y-12114795D01*
X14362571Y-12124319D01*
X14543524Y-12067176D02*
X14667333Y-12067176D01*
X14600667Y-12143367D01*
X14629238Y-12143367D01*
X14648286Y-12152890D01*
X14657809Y-12162414D01*
X14667333Y-12181462D01*
X14667333Y-12229081D01*
X14657809Y-12248128D01*
X14648286Y-12257652D01*
X14629238Y-12267176D01*
X14572095Y-12267176D01*
X14553048Y-12257652D01*
X14543524Y-12248128D01*
X14905428Y-12267176D02*
X14905428Y-12067176D01*
X14991143Y-12267176D02*
X14991143Y-12162414D01*
X14981619Y-12143367D01*
X14962571Y-12133843D01*
X14934000Y-12133843D01*
X14914952Y-12143367D01*
X14905428Y-12152890D01*
X15114952Y-12267176D02*
X15095905Y-12257652D01*
X15086381Y-12248128D01*
X15076857Y-12229081D01*
X15076857Y-12171938D01*
X15086381Y-12152890D01*
X15095905Y-12143367D01*
X15114952Y-12133843D01*
X15143524Y-12133843D01*
X15162571Y-12143367D01*
X15172095Y-12152890D01*
X15181619Y-12171938D01*
X15181619Y-12229081D01*
X15172095Y-12248128D01*
X15162571Y-12257652D01*
X15143524Y-12267176D01*
X15114952Y-12267176D01*
X15295905Y-12267176D02*
X15276857Y-12257652D01*
X15267333Y-12238605D01*
X15267333Y-12067176D01*
X15448286Y-12257652D02*
X15429238Y-12267176D01*
X15391143Y-12267176D01*
X15372095Y-12257652D01*
X15362571Y-12238605D01*
X15362571Y-12162414D01*
X15372095Y-12143367D01*
X15391143Y-12133843D01*
X15429238Y-12133843D01*
X15448286Y-12143367D01*
X15457809Y-12162414D01*
X15457809Y-12181462D01*
X15362571Y-12200509D01*
X15534000Y-12257652D02*
X15553048Y-12267176D01*
X15591143Y-12267176D01*
X15610190Y-12257652D01*
X15619714Y-12238605D01*
X15619714Y-12229081D01*
X15610190Y-12210033D01*
X15591143Y-12200509D01*
X15562571Y-12200509D01*
X15543524Y-12190986D01*
X15534000Y-12171938D01*
X15534000Y-12162414D01*
X15543524Y-12143367D01*
X15562571Y-12133843D01*
X15591143Y-12133843D01*
X15610190Y-12143367D01*
X15686381Y-12343367D02*
X15695905Y-12333843D01*
X15714952Y-12305271D01*
X15724476Y-12286224D01*
X15734000Y-12257652D01*
X15743524Y-12210033D01*
X15743524Y-12171938D01*
X15734000Y-12124319D01*
X15724476Y-12095748D01*
X15714952Y-12076700D01*
X15695905Y-12048128D01*
X15686381Y-12038605D01*
D13*
X10724000Y-12440700D02*
G75*
G03*
X10724000Y-12440700I-40000J0D01*
G01*
D11*
X11019714Y-12331176D02*
X11038762Y-12331176D01*
X11057810Y-12340700D01*
X11067333Y-12350224D01*
X11076857Y-12369271D01*
X11086381Y-12407367D01*
X11086381Y-12454986D01*
X11076857Y-12493081D01*
X11067333Y-12512128D01*
X11057810Y-12521652D01*
X11038762Y-12531176D01*
X11019714Y-12531176D01*
X11000667Y-12521652D01*
X10991143Y-12512128D01*
X10981619Y-12493081D01*
X10972095Y-12454986D01*
X10972095Y-12407367D01*
X10981619Y-12369271D01*
X10991143Y-12350224D01*
X11000667Y-12340700D01*
X11019714Y-12331176D01*
X11172095Y-12512128D02*
X11181619Y-12521652D01*
X11172095Y-12531176D01*
X11162571Y-12521652D01*
X11172095Y-12512128D01*
X11172095Y-12531176D01*
X11295905Y-12416890D02*
X11276857Y-12407367D01*
X11267333Y-12397843D01*
X11257809Y-12378795D01*
X11257809Y-12369271D01*
X11267333Y-12350224D01*
X11276857Y-12340700D01*
X11295905Y-12331176D01*
X11334000Y-12331176D01*
X11353048Y-12340700D01*
X11362571Y-12350224D01*
X11372095Y-12369271D01*
X11372095Y-12378795D01*
X11362571Y-12397843D01*
X11353048Y-12407367D01*
X11334000Y-12416890D01*
X11295905Y-12416890D01*
X11276857Y-12426414D01*
X11267333Y-12435938D01*
X11257809Y-12454986D01*
X11257809Y-12493081D01*
X11267333Y-12512128D01*
X11276857Y-12521652D01*
X11295905Y-12531176D01*
X11334000Y-12531176D01*
X11353048Y-12521652D01*
X11362571Y-12512128D01*
X11372095Y-12493081D01*
X11372095Y-12454986D01*
X11362571Y-12435938D01*
X11353048Y-12426414D01*
X11334000Y-12416890D01*
X11495905Y-12331176D02*
X11514952Y-12331176D01*
X11534000Y-12340700D01*
X11543524Y-12350224D01*
X11553048Y-12369271D01*
X11562571Y-12407367D01*
X11562571Y-12454986D01*
X11553048Y-12493081D01*
X11543524Y-12512128D01*
X11534000Y-12521652D01*
X11514952Y-12531176D01*
X11495905Y-12531176D01*
X11476857Y-12521652D01*
X11467333Y-12512128D01*
X11457809Y-12493081D01*
X11448286Y-12454986D01*
X11448286Y-12407367D01*
X11457809Y-12369271D01*
X11467333Y-12350224D01*
X11476857Y-12340700D01*
X11495905Y-12331176D01*
X11686381Y-12331176D02*
X11705428Y-12331176D01*
X11724476Y-12340700D01*
X11734000Y-12350224D01*
X11743524Y-12369271D01*
X11753048Y-12407367D01*
X11753048Y-12454986D01*
X11743524Y-12493081D01*
X11734000Y-12512128D01*
X11724476Y-12521652D01*
X11705428Y-12531176D01*
X11686381Y-12531176D01*
X11667333Y-12521652D01*
X11657809Y-12512128D01*
X11648286Y-12493081D01*
X11638762Y-12454986D01*
X11638762Y-12407367D01*
X11648286Y-12369271D01*
X11657809Y-12350224D01*
X11667333Y-12340700D01*
X11686381Y-12331176D01*
X11838762Y-12531176D02*
X11838762Y-12397843D01*
X11838762Y-12416890D02*
X11848286Y-12407367D01*
X11867333Y-12397843D01*
X11895905Y-12397843D01*
X11914952Y-12407367D01*
X11924476Y-12426414D01*
X11924476Y-12531176D01*
X11924476Y-12426414D02*
X11934000Y-12407367D01*
X11953048Y-12397843D01*
X11981619Y-12397843D01*
X12000667Y-12407367D01*
X12010190Y-12426414D01*
X12010190Y-12531176D01*
X12105428Y-12531176D02*
X12105428Y-12397843D01*
X12105428Y-12416890D02*
X12114952Y-12407367D01*
X12134000Y-12397843D01*
X12162571Y-12397843D01*
X12181619Y-12407367D01*
X12191143Y-12426414D01*
X12191143Y-12531176D01*
X12191143Y-12426414D02*
X12200667Y-12407367D01*
X12219714Y-12397843D01*
X12248286Y-12397843D01*
X12267333Y-12407367D01*
X12276857Y-12426414D01*
X12276857Y-12531176D01*
X12667333Y-12321652D02*
X12495905Y-12578795D01*
X12924476Y-12331176D02*
X12943524Y-12331176D01*
X12962571Y-12340700D01*
X12972095Y-12350224D01*
X12981619Y-12369271D01*
X12991143Y-12407367D01*
X12991143Y-12454986D01*
X12981619Y-12493081D01*
X12972095Y-12512128D01*
X12962571Y-12521652D01*
X12943524Y-12531176D01*
X12924476Y-12531176D01*
X12905428Y-12521652D01*
X12895905Y-12512128D01*
X12886381Y-12493081D01*
X12876857Y-12454986D01*
X12876857Y-12407367D01*
X12886381Y-12369271D01*
X12895905Y-12350224D01*
X12905428Y-12340700D01*
X12924476Y-12331176D01*
X13076857Y-12512128D02*
X13086381Y-12521652D01*
X13076857Y-12531176D01*
X13067333Y-12521652D01*
X13076857Y-12512128D01*
X13076857Y-12531176D01*
X13210190Y-12331176D02*
X13229238Y-12331176D01*
X13248286Y-12340700D01*
X13257809Y-12350224D01*
X13267333Y-12369271D01*
X13276857Y-12407367D01*
X13276857Y-12454986D01*
X13267333Y-12493081D01*
X13257809Y-12512128D01*
X13248286Y-12521652D01*
X13229238Y-12531176D01*
X13210190Y-12531176D01*
X13191143Y-12521652D01*
X13181619Y-12512128D01*
X13172095Y-12493081D01*
X13162571Y-12454986D01*
X13162571Y-12407367D01*
X13172095Y-12369271D01*
X13181619Y-12350224D01*
X13191143Y-12340700D01*
X13210190Y-12331176D01*
X13343524Y-12331176D02*
X13467333Y-12331176D01*
X13400667Y-12407367D01*
X13429238Y-12407367D01*
X13448286Y-12416890D01*
X13457809Y-12426414D01*
X13467333Y-12445462D01*
X13467333Y-12493081D01*
X13457809Y-12512128D01*
X13448286Y-12521652D01*
X13429238Y-12531176D01*
X13372095Y-12531176D01*
X13353048Y-12521652D01*
X13343524Y-12512128D01*
X13657809Y-12531176D02*
X13543524Y-12531176D01*
X13600667Y-12531176D02*
X13600667Y-12331176D01*
X13581619Y-12359748D01*
X13562571Y-12378795D01*
X13543524Y-12388319D01*
X13838762Y-12331176D02*
X13743524Y-12331176D01*
X13734000Y-12426414D01*
X13743524Y-12416890D01*
X13762571Y-12407367D01*
X13810190Y-12407367D01*
X13829238Y-12416890D01*
X13838762Y-12426414D01*
X13848286Y-12445462D01*
X13848286Y-12493081D01*
X13838762Y-12512128D01*
X13829238Y-12521652D01*
X13810190Y-12531176D01*
X13762571Y-12531176D01*
X13743524Y-12521652D01*
X13734000Y-12512128D01*
X13924476Y-12331176D02*
X13924476Y-12369271D01*
X14000667Y-12331176D02*
X14000667Y-12369271D01*
X14295905Y-12607367D02*
X14286381Y-12597843D01*
X14267333Y-12569271D01*
X14257809Y-12550224D01*
X14248286Y-12521652D01*
X14238762Y-12474033D01*
X14238762Y-12435938D01*
X14248286Y-12388319D01*
X14257809Y-12359748D01*
X14267333Y-12340700D01*
X14286381Y-12312128D01*
X14295905Y-12302605D01*
X14457809Y-12331176D02*
X14419714Y-12331176D01*
X14400667Y-12340700D01*
X14391143Y-12350224D01*
X14372095Y-12378795D01*
X14362571Y-12416890D01*
X14362571Y-12493081D01*
X14372095Y-12512128D01*
X14381619Y-12521652D01*
X14400667Y-12531176D01*
X14438762Y-12531176D01*
X14457809Y-12521652D01*
X14467333Y-12512128D01*
X14476857Y-12493081D01*
X14476857Y-12445462D01*
X14467333Y-12426414D01*
X14457809Y-12416890D01*
X14438762Y-12407367D01*
X14400667Y-12407367D01*
X14381619Y-12416890D01*
X14372095Y-12426414D01*
X14362571Y-12445462D01*
X14714952Y-12531176D02*
X14714952Y-12331176D01*
X14800667Y-12531176D02*
X14800667Y-12426414D01*
X14791143Y-12407367D01*
X14772095Y-12397843D01*
X14743524Y-12397843D01*
X14724476Y-12407367D01*
X14714952Y-12416890D01*
X14924476Y-12531176D02*
X14905428Y-12521652D01*
X14895905Y-12512128D01*
X14886381Y-12493081D01*
X14886381Y-12435938D01*
X14895905Y-12416890D01*
X14905428Y-12407367D01*
X14924476Y-12397843D01*
X14953048Y-12397843D01*
X14972095Y-12407367D01*
X14981619Y-12416890D01*
X14991143Y-12435938D01*
X14991143Y-12493081D01*
X14981619Y-12512128D01*
X14972095Y-12521652D01*
X14953048Y-12531176D01*
X14924476Y-12531176D01*
X15105428Y-12531176D02*
X15086381Y-12521652D01*
X15076857Y-12502605D01*
X15076857Y-12331176D01*
X15257809Y-12521652D02*
X15238762Y-12531176D01*
X15200667Y-12531176D01*
X15181619Y-12521652D01*
X15172095Y-12502605D01*
X15172095Y-12426414D01*
X15181619Y-12407367D01*
X15200667Y-12397843D01*
X15238762Y-12397843D01*
X15257809Y-12407367D01*
X15267333Y-12426414D01*
X15267333Y-12445462D01*
X15172095Y-12464509D01*
X15343524Y-12521652D02*
X15362571Y-12531176D01*
X15400667Y-12531176D01*
X15419714Y-12521652D01*
X15429238Y-12502605D01*
X15429238Y-12493081D01*
X15419714Y-12474033D01*
X15400667Y-12464509D01*
X15372095Y-12464509D01*
X15353048Y-12454986D01*
X15343524Y-12435938D01*
X15343524Y-12426414D01*
X15353048Y-12407367D01*
X15372095Y-12397843D01*
X15400667Y-12397843D01*
X15419714Y-12407367D01*
X15495905Y-12607367D02*
X15505428Y-12597843D01*
X15524476Y-12569271D01*
X15534000Y-12550224D01*
X15543524Y-12521652D01*
X15553048Y-12474033D01*
X15553048Y-12435938D01*
X15543524Y-12388319D01*
X15534000Y-12359748D01*
X15524476Y-12340700D01*
X15505428Y-12312128D01*
X15495905Y-12302605D01*
D14*
X10674089Y-12654789D02*
X10674089Y-12754611D01*
X10624178Y-12704700D02*
X10724000Y-12704700D01*
D11*
X11019714Y-12595176D02*
X11038762Y-12595176D01*
X11057810Y-12604700D01*
X11067333Y-12614224D01*
X11076857Y-12633271D01*
X11086381Y-12671367D01*
X11086381Y-12718986D01*
X11076857Y-12757081D01*
X11067333Y-12776128D01*
X11057810Y-12785652D01*
X11038762Y-12795176D01*
X11019714Y-12795176D01*
X11000667Y-12785652D01*
X10991143Y-12776128D01*
X10981619Y-12757081D01*
X10972095Y-12718986D01*
X10972095Y-12671367D01*
X10981619Y-12633271D01*
X10991143Y-12614224D01*
X11000667Y-12604700D01*
X11019714Y-12595176D01*
X11172095Y-12776128D02*
X11181619Y-12785652D01*
X11172095Y-12795176D01*
X11162571Y-12785652D01*
X11172095Y-12776128D01*
X11172095Y-12795176D01*
X11276857Y-12795176D02*
X11314952Y-12795176D01*
X11334000Y-12785652D01*
X11343524Y-12776128D01*
X11362571Y-12747557D01*
X11372095Y-12709462D01*
X11372095Y-12633271D01*
X11362571Y-12614224D01*
X11353048Y-12604700D01*
X11334000Y-12595176D01*
X11295905Y-12595176D01*
X11276857Y-12604700D01*
X11267333Y-12614224D01*
X11257809Y-12633271D01*
X11257809Y-12680890D01*
X11267333Y-12699938D01*
X11276857Y-12709462D01*
X11295905Y-12718986D01*
X11334000Y-12718986D01*
X11353048Y-12709462D01*
X11362571Y-12699938D01*
X11372095Y-12680890D01*
X11467333Y-12795176D02*
X11505428Y-12795176D01*
X11524476Y-12785652D01*
X11534000Y-12776128D01*
X11553048Y-12747557D01*
X11562571Y-12709462D01*
X11562571Y-12633271D01*
X11553048Y-12614224D01*
X11543524Y-12604700D01*
X11524476Y-12595176D01*
X11486381Y-12595176D01*
X11467333Y-12604700D01*
X11457809Y-12614224D01*
X11448286Y-12633271D01*
X11448286Y-12680890D01*
X11457809Y-12699938D01*
X11467333Y-12709462D01*
X11486381Y-12718986D01*
X11524476Y-12718986D01*
X11543524Y-12709462D01*
X11553048Y-12699938D01*
X11562571Y-12680890D01*
X11676857Y-12680890D02*
X11657809Y-12671367D01*
X11648286Y-12661843D01*
X11638762Y-12642795D01*
X11638762Y-12633271D01*
X11648286Y-12614224D01*
X11657809Y-12604700D01*
X11676857Y-12595176D01*
X11714952Y-12595176D01*
X11734000Y-12604700D01*
X11743524Y-12614224D01*
X11753048Y-12633271D01*
X11753048Y-12642795D01*
X11743524Y-12661843D01*
X11734000Y-12671367D01*
X11714952Y-12680890D01*
X11676857Y-12680890D01*
X11657809Y-12690414D01*
X11648286Y-12699938D01*
X11638762Y-12718986D01*
X11638762Y-12757081D01*
X11648286Y-12776128D01*
X11657809Y-12785652D01*
X11676857Y-12795176D01*
X11714952Y-12795176D01*
X11734000Y-12785652D01*
X11743524Y-12776128D01*
X11753048Y-12757081D01*
X11753048Y-12718986D01*
X11743524Y-12699938D01*
X11734000Y-12690414D01*
X11714952Y-12680890D01*
X11838762Y-12795176D02*
X11838762Y-12661843D01*
X11838762Y-12680890D02*
X11848286Y-12671367D01*
X11867333Y-12661843D01*
X11895905Y-12661843D01*
X11914952Y-12671367D01*
X11924476Y-12690414D01*
X11924476Y-12795176D01*
X11924476Y-12690414D02*
X11934000Y-12671367D01*
X11953048Y-12661843D01*
X11981619Y-12661843D01*
X12000667Y-12671367D01*
X12010190Y-12690414D01*
X12010190Y-12795176D01*
X12105428Y-12795176D02*
X12105428Y-12661843D01*
X12105428Y-12680890D02*
X12114952Y-12671367D01*
X12134000Y-12661843D01*
X12162571Y-12661843D01*
X12181619Y-12671367D01*
X12191143Y-12690414D01*
X12191143Y-12795176D01*
X12191143Y-12690414D02*
X12200667Y-12671367D01*
X12219714Y-12661843D01*
X12248286Y-12661843D01*
X12267333Y-12671367D01*
X12276857Y-12690414D01*
X12276857Y-12795176D01*
X12667333Y-12585652D02*
X12495905Y-12842795D01*
X12924476Y-12595176D02*
X12943524Y-12595176D01*
X12962571Y-12604700D01*
X12972095Y-12614224D01*
X12981619Y-12633271D01*
X12991143Y-12671367D01*
X12991143Y-12718986D01*
X12981619Y-12757081D01*
X12972095Y-12776128D01*
X12962571Y-12785652D01*
X12943524Y-12795176D01*
X12924476Y-12795176D01*
X12905428Y-12785652D01*
X12895905Y-12776128D01*
X12886381Y-12757081D01*
X12876857Y-12718986D01*
X12876857Y-12671367D01*
X12886381Y-12633271D01*
X12895905Y-12614224D01*
X12905428Y-12604700D01*
X12924476Y-12595176D01*
X13076857Y-12776128D02*
X13086381Y-12785652D01*
X13076857Y-12795176D01*
X13067333Y-12785652D01*
X13076857Y-12776128D01*
X13076857Y-12795176D01*
X13210190Y-12595176D02*
X13229238Y-12595176D01*
X13248286Y-12604700D01*
X13257809Y-12614224D01*
X13267333Y-12633271D01*
X13276857Y-12671367D01*
X13276857Y-12718986D01*
X13267333Y-12757081D01*
X13257809Y-12776128D01*
X13248286Y-12785652D01*
X13229238Y-12795176D01*
X13210190Y-12795176D01*
X13191143Y-12785652D01*
X13181619Y-12776128D01*
X13172095Y-12757081D01*
X13162571Y-12718986D01*
X13162571Y-12671367D01*
X13172095Y-12633271D01*
X13181619Y-12614224D01*
X13191143Y-12604700D01*
X13210190Y-12595176D01*
X13343524Y-12595176D02*
X13467333Y-12595176D01*
X13400667Y-12671367D01*
X13429238Y-12671367D01*
X13448286Y-12680890D01*
X13457809Y-12690414D01*
X13467333Y-12709462D01*
X13467333Y-12757081D01*
X13457809Y-12776128D01*
X13448286Y-12785652D01*
X13429238Y-12795176D01*
X13372095Y-12795176D01*
X13353048Y-12785652D01*
X13343524Y-12776128D01*
X13562571Y-12795176D02*
X13600667Y-12795176D01*
X13619714Y-12785652D01*
X13629238Y-12776128D01*
X13648286Y-12747557D01*
X13657809Y-12709462D01*
X13657809Y-12633271D01*
X13648286Y-12614224D01*
X13638762Y-12604700D01*
X13619714Y-12595176D01*
X13581619Y-12595176D01*
X13562571Y-12604700D01*
X13553048Y-12614224D01*
X13543524Y-12633271D01*
X13543524Y-12680890D01*
X13553048Y-12699938D01*
X13562571Y-12709462D01*
X13581619Y-12718986D01*
X13619714Y-12718986D01*
X13638762Y-12709462D01*
X13648286Y-12699938D01*
X13657809Y-12680890D01*
X13724476Y-12595176D02*
X13848286Y-12595176D01*
X13781619Y-12671367D01*
X13810190Y-12671367D01*
X13829238Y-12680890D01*
X13838762Y-12690414D01*
X13848286Y-12709462D01*
X13848286Y-12757081D01*
X13838762Y-12776128D01*
X13829238Y-12785652D01*
X13810190Y-12795176D01*
X13753048Y-12795176D01*
X13734000Y-12785652D01*
X13724476Y-12776128D01*
X13924476Y-12595176D02*
X13924476Y-12633271D01*
X14000667Y-12595176D02*
X14000667Y-12633271D01*
X14295905Y-12871367D02*
X14286381Y-12861843D01*
X14267333Y-12833271D01*
X14257809Y-12814224D01*
X14248286Y-12785652D01*
X14238762Y-12738033D01*
X14238762Y-12699938D01*
X14248286Y-12652319D01*
X14257809Y-12623748D01*
X14267333Y-12604700D01*
X14286381Y-12576128D01*
X14295905Y-12566605D01*
X14457809Y-12595176D02*
X14419714Y-12595176D01*
X14400667Y-12604700D01*
X14391143Y-12614224D01*
X14372095Y-12642795D01*
X14362571Y-12680890D01*
X14362571Y-12757081D01*
X14372095Y-12776128D01*
X14381619Y-12785652D01*
X14400667Y-12795176D01*
X14438762Y-12795176D01*
X14457809Y-12785652D01*
X14467333Y-12776128D01*
X14476857Y-12757081D01*
X14476857Y-12709462D01*
X14467333Y-12690414D01*
X14457809Y-12680890D01*
X14438762Y-12671367D01*
X14400667Y-12671367D01*
X14381619Y-12680890D01*
X14372095Y-12690414D01*
X14362571Y-12709462D01*
X14714952Y-12795176D02*
X14714952Y-12595176D01*
X14800667Y-12795176D02*
X14800667Y-12690414D01*
X14791143Y-12671367D01*
X14772095Y-12661843D01*
X14743524Y-12661843D01*
X14724476Y-12671367D01*
X14714952Y-12680890D01*
X14924476Y-12795176D02*
X14905428Y-12785652D01*
X14895905Y-12776128D01*
X14886381Y-12757081D01*
X14886381Y-12699938D01*
X14895905Y-12680890D01*
X14905428Y-12671367D01*
X14924476Y-12661843D01*
X14953048Y-12661843D01*
X14972095Y-12671367D01*
X14981619Y-12680890D01*
X14991143Y-12699938D01*
X14991143Y-12757081D01*
X14981619Y-12776128D01*
X14972095Y-12785652D01*
X14953048Y-12795176D01*
X14924476Y-12795176D01*
X15105428Y-12795176D02*
X15086381Y-12785652D01*
X15076857Y-12766605D01*
X15076857Y-12595176D01*
X15257809Y-12785652D02*
X15238762Y-12795176D01*
X15200667Y-12795176D01*
X15181619Y-12785652D01*
X15172095Y-12766605D01*
X15172095Y-12690414D01*
X15181619Y-12671367D01*
X15200667Y-12661843D01*
X15238762Y-12661843D01*
X15257809Y-12671367D01*
X15267333Y-12690414D01*
X15267333Y-12709462D01*
X15172095Y-12728509D01*
X15343524Y-12785652D02*
X15362571Y-12795176D01*
X15400667Y-12795176D01*
X15419714Y-12785652D01*
X15429238Y-12766605D01*
X15429238Y-12757081D01*
X15419714Y-12738033D01*
X15400667Y-12728509D01*
X15372095Y-12728509D01*
X15353048Y-12718986D01*
X15343524Y-12699938D01*
X15343524Y-12690414D01*
X15353048Y-12671367D01*
X15372095Y-12661843D01*
X15400667Y-12661843D01*
X15419714Y-12671367D01*
X15495905Y-12871367D02*
X15505428Y-12861843D01*
X15524476Y-12833271D01*
X15534000Y-12814224D01*
X15543524Y-12785652D01*
X15553048Y-12738033D01*
X15553048Y-12699938D01*
X15543524Y-12652319D01*
X15534000Y-12623748D01*
X15524476Y-12604700D01*
X15505428Y-12576128D01*
X15495905Y-12566605D01*
D15*
X10709356Y-13004056D02*
X10709356Y-12933344D01*
X10638644Y-12933344D01*
X10638644Y-13004056D01*
X10709356Y-13004056D01*
D11*
X11086381Y-13059176D02*
X10972095Y-13059176D01*
X11029238Y-13059176D02*
X11029238Y-12859176D01*
X11010190Y-12887748D01*
X10991143Y-12906795D01*
X10972095Y-12916319D01*
X11172095Y-13040128D02*
X11181619Y-13049652D01*
X11172095Y-13059176D01*
X11162571Y-13049652D01*
X11172095Y-13040128D01*
X11172095Y-13059176D01*
X11305428Y-12859176D02*
X11324476Y-12859176D01*
X11343524Y-12868700D01*
X11353048Y-12878224D01*
X11362571Y-12897271D01*
X11372095Y-12935367D01*
X11372095Y-12982986D01*
X11362571Y-13021081D01*
X11353048Y-13040128D01*
X11343524Y-13049652D01*
X11324476Y-13059176D01*
X11305428Y-13059176D01*
X11286381Y-13049652D01*
X11276857Y-13040128D01*
X11267333Y-13021081D01*
X11257809Y-12982986D01*
X11257809Y-12935367D01*
X11267333Y-12897271D01*
X11276857Y-12878224D01*
X11286381Y-12868700D01*
X11305428Y-12859176D01*
X11495905Y-12859176D02*
X11514952Y-12859176D01*
X11534000Y-12868700D01*
X11543524Y-12878224D01*
X11553048Y-12897271D01*
X11562571Y-12935367D01*
X11562571Y-12982986D01*
X11553048Y-13021081D01*
X11543524Y-13040128D01*
X11534000Y-13049652D01*
X11514952Y-13059176D01*
X11495905Y-13059176D01*
X11476857Y-13049652D01*
X11467333Y-13040128D01*
X11457809Y-13021081D01*
X11448286Y-12982986D01*
X11448286Y-12935367D01*
X11457809Y-12897271D01*
X11467333Y-12878224D01*
X11476857Y-12868700D01*
X11495905Y-12859176D01*
X11686381Y-12859176D02*
X11705428Y-12859176D01*
X11724476Y-12868700D01*
X11734000Y-12878224D01*
X11743524Y-12897271D01*
X11753048Y-12935367D01*
X11753048Y-12982986D01*
X11743524Y-13021081D01*
X11734000Y-13040128D01*
X11724476Y-13049652D01*
X11705428Y-13059176D01*
X11686381Y-13059176D01*
X11667333Y-13049652D01*
X11657809Y-13040128D01*
X11648286Y-13021081D01*
X11638762Y-12982986D01*
X11638762Y-12935367D01*
X11648286Y-12897271D01*
X11657809Y-12878224D01*
X11667333Y-12868700D01*
X11686381Y-12859176D01*
X11838762Y-13059176D02*
X11838762Y-12925843D01*
X11838762Y-12944890D02*
X11848286Y-12935367D01*
X11867333Y-12925843D01*
X11895905Y-12925843D01*
X11914952Y-12935367D01*
X11924476Y-12954414D01*
X11924476Y-13059176D01*
X11924476Y-12954414D02*
X11934000Y-12935367D01*
X11953048Y-12925843D01*
X11981619Y-12925843D01*
X12000667Y-12935367D01*
X12010190Y-12954414D01*
X12010190Y-13059176D01*
X12105428Y-13059176D02*
X12105428Y-12925843D01*
X12105428Y-12944890D02*
X12114952Y-12935367D01*
X12134000Y-12925843D01*
X12162571Y-12925843D01*
X12181619Y-12935367D01*
X12191143Y-12954414D01*
X12191143Y-13059176D01*
X12191143Y-12954414D02*
X12200667Y-12935367D01*
X12219714Y-12925843D01*
X12248286Y-12925843D01*
X12267333Y-12935367D01*
X12276857Y-12954414D01*
X12276857Y-13059176D01*
X12667333Y-12849652D02*
X12495905Y-13106795D01*
X12924476Y-12859176D02*
X12943524Y-12859176D01*
X12962571Y-12868700D01*
X12972095Y-12878224D01*
X12981619Y-12897271D01*
X12991143Y-12935367D01*
X12991143Y-12982986D01*
X12981619Y-13021081D01*
X12972095Y-13040128D01*
X12962571Y-13049652D01*
X12943524Y-13059176D01*
X12924476Y-13059176D01*
X12905428Y-13049652D01*
X12895905Y-13040128D01*
X12886381Y-13021081D01*
X12876857Y-12982986D01*
X12876857Y-12935367D01*
X12886381Y-12897271D01*
X12895905Y-12878224D01*
X12905428Y-12868700D01*
X12924476Y-12859176D01*
X13076857Y-13040128D02*
X13086381Y-13049652D01*
X13076857Y-13059176D01*
X13067333Y-13049652D01*
X13076857Y-13040128D01*
X13076857Y-13059176D01*
X13210190Y-12859176D02*
X13229238Y-12859176D01*
X13248286Y-12868700D01*
X13257809Y-12878224D01*
X13267333Y-12897271D01*
X13276857Y-12935367D01*
X13276857Y-12982986D01*
X13267333Y-13021081D01*
X13257809Y-13040128D01*
X13248286Y-13049652D01*
X13229238Y-13059176D01*
X13210190Y-13059176D01*
X13191143Y-13049652D01*
X13181619Y-13040128D01*
X13172095Y-13021081D01*
X13162571Y-12982986D01*
X13162571Y-12935367D01*
X13172095Y-12897271D01*
X13181619Y-12878224D01*
X13191143Y-12868700D01*
X13210190Y-12859176D01*
X13343524Y-12859176D02*
X13467333Y-12859176D01*
X13400667Y-12935367D01*
X13429238Y-12935367D01*
X13448286Y-12944890D01*
X13457809Y-12954414D01*
X13467333Y-12973462D01*
X13467333Y-13021081D01*
X13457809Y-13040128D01*
X13448286Y-13049652D01*
X13429238Y-13059176D01*
X13372095Y-13059176D01*
X13353048Y-13049652D01*
X13343524Y-13040128D01*
X13562571Y-13059176D02*
X13600667Y-13059176D01*
X13619714Y-13049652D01*
X13629238Y-13040128D01*
X13648286Y-13011557D01*
X13657809Y-12973462D01*
X13657809Y-12897271D01*
X13648286Y-12878224D01*
X13638762Y-12868700D01*
X13619714Y-12859176D01*
X13581619Y-12859176D01*
X13562571Y-12868700D01*
X13553048Y-12878224D01*
X13543524Y-12897271D01*
X13543524Y-12944890D01*
X13553048Y-12963938D01*
X13562571Y-12973462D01*
X13581619Y-12982986D01*
X13619714Y-12982986D01*
X13638762Y-12973462D01*
X13648286Y-12963938D01*
X13657809Y-12944890D01*
X13829238Y-12925843D02*
X13829238Y-13059176D01*
X13781619Y-12849652D02*
X13734000Y-12992509D01*
X13857809Y-12992509D01*
X13924476Y-12859176D02*
X13924476Y-12897271D01*
X14000667Y-12859176D02*
X14000667Y-12897271D01*
X14295905Y-13135367D02*
X14286381Y-13125843D01*
X14267333Y-13097271D01*
X14257809Y-13078224D01*
X14248286Y-13049652D01*
X14238762Y-13002033D01*
X14238762Y-12963938D01*
X14248286Y-12916319D01*
X14257809Y-12887748D01*
X14267333Y-12868700D01*
X14286381Y-12840128D01*
X14295905Y-12830605D01*
X14400667Y-12944890D02*
X14381619Y-12935367D01*
X14372095Y-12925843D01*
X14362571Y-12906795D01*
X14362571Y-12897271D01*
X14372095Y-12878224D01*
X14381619Y-12868700D01*
X14400667Y-12859176D01*
X14438762Y-12859176D01*
X14457809Y-12868700D01*
X14467333Y-12878224D01*
X14476857Y-12897271D01*
X14476857Y-12906795D01*
X14467333Y-12925843D01*
X14457809Y-12935367D01*
X14438762Y-12944890D01*
X14400667Y-12944890D01*
X14381619Y-12954414D01*
X14372095Y-12963938D01*
X14362571Y-12982986D01*
X14362571Y-13021081D01*
X14372095Y-13040128D01*
X14381619Y-13049652D01*
X14400667Y-13059176D01*
X14438762Y-13059176D01*
X14457809Y-13049652D01*
X14467333Y-13040128D01*
X14476857Y-13021081D01*
X14476857Y-12982986D01*
X14467333Y-12963938D01*
X14457809Y-12954414D01*
X14438762Y-12944890D01*
X14591143Y-12944890D02*
X14572095Y-12935367D01*
X14562571Y-12925843D01*
X14553048Y-12906795D01*
X14553048Y-12897271D01*
X14562571Y-12878224D01*
X14572095Y-12868700D01*
X14591143Y-12859176D01*
X14629238Y-12859176D01*
X14648286Y-12868700D01*
X14657809Y-12878224D01*
X14667333Y-12897271D01*
X14667333Y-12906795D01*
X14657809Y-12925843D01*
X14648286Y-12935367D01*
X14629238Y-12944890D01*
X14591143Y-12944890D01*
X14572095Y-12954414D01*
X14562571Y-12963938D01*
X14553048Y-12982986D01*
X14553048Y-13021081D01*
X14562571Y-13040128D01*
X14572095Y-13049652D01*
X14591143Y-13059176D01*
X14629238Y-13059176D01*
X14648286Y-13049652D01*
X14657809Y-13040128D01*
X14667333Y-13021081D01*
X14667333Y-12982986D01*
X14657809Y-12963938D01*
X14648286Y-12954414D01*
X14629238Y-12944890D01*
X14905428Y-13059176D02*
X14905428Y-12859176D01*
X14991143Y-13059176D02*
X14991143Y-12954414D01*
X14981619Y-12935367D01*
X14962571Y-12925843D01*
X14934000Y-12925843D01*
X14914952Y-12935367D01*
X14905428Y-12944890D01*
X15114952Y-13059176D02*
X15095905Y-13049652D01*
X15086381Y-13040128D01*
X15076857Y-13021081D01*
X15076857Y-12963938D01*
X15086381Y-12944890D01*
X15095905Y-12935367D01*
X15114952Y-12925843D01*
X15143524Y-12925843D01*
X15162571Y-12935367D01*
X15172095Y-12944890D01*
X15181619Y-12963938D01*
X15181619Y-13021081D01*
X15172095Y-13040128D01*
X15162571Y-13049652D01*
X15143524Y-13059176D01*
X15114952Y-13059176D01*
X15295905Y-13059176D02*
X15276857Y-13049652D01*
X15267333Y-13030605D01*
X15267333Y-12859176D01*
X15448286Y-13049652D02*
X15429238Y-13059176D01*
X15391143Y-13059176D01*
X15372095Y-13049652D01*
X15362571Y-13030605D01*
X15362571Y-12954414D01*
X15372095Y-12935367D01*
X15391143Y-12925843D01*
X15429238Y-12925843D01*
X15448286Y-12935367D01*
X15457809Y-12954414D01*
X15457809Y-12973462D01*
X15362571Y-12992509D01*
X15534000Y-13049652D02*
X15553048Y-13059176D01*
X15591143Y-13059176D01*
X15610190Y-13049652D01*
X15619714Y-13030605D01*
X15619714Y-13021081D01*
X15610190Y-13002033D01*
X15591143Y-12992509D01*
X15562571Y-12992509D01*
X15543524Y-12982986D01*
X15534000Y-12963938D01*
X15534000Y-12954414D01*
X15543524Y-12935367D01*
X15562571Y-12925843D01*
X15591143Y-12925843D01*
X15610190Y-12935367D01*
X15686381Y-13135367D02*
X15695905Y-13125843D01*
X15714952Y-13097271D01*
X15724476Y-13078224D01*
X15734000Y-13049652D01*
X15743524Y-13002033D01*
X15743524Y-12963938D01*
X15734000Y-12916319D01*
X15724476Y-12887748D01*
X15714952Y-12868700D01*
X15695905Y-12840128D01*
X15686381Y-12830605D01*
M02*
