G04 #@! TF.GenerationSoftware,KiCad,Pcbnew,6.0.1*
G04 #@! TF.CreationDate,2022-02-11T11:10:19+01:00*
G04 #@! TF.ProjectId,27C160_Adapter,32374331-3630-45f4-9164-61707465722e,1.1SMD*
G04 #@! TF.SameCoordinates,Original*
G04 #@! TF.FileFunction,Soldermask,Bot*
G04 #@! TF.FilePolarity,Negative*
%FSLAX46Y46*%
G04 Gerber Fmt 4.6, Leading zero omitted, Abs format (unit mm)*
G04 Created by KiCad (PCBNEW 6.0.1) date 2022-02-11 11:10:19*
%MOMM*%
%LPD*%
G01*
G04 APERTURE LIST*
G04 Aperture macros list*
%AMRoundRect*
0 Rectangle with rounded corners*
0 $1 Rounding radius*
0 $2 $3 $4 $5 $6 $7 $8 $9 X,Y pos of 4 corners*
0 Add a 4 corners polygon primitive as box body*
4,1,4,$2,$3,$4,$5,$6,$7,$8,$9,$2,$3,0*
0 Add four circle primitives for the rounded corners*
1,1,$1+$1,$2,$3*
1,1,$1+$1,$4,$5*
1,1,$1+$1,$6,$7*
1,1,$1+$1,$8,$9*
0 Add four rect primitives between the rounded corners*
20,1,$1+$1,$2,$3,$4,$5,0*
20,1,$1+$1,$4,$5,$6,$7,0*
20,1,$1+$1,$6,$7,$8,$9,0*
20,1,$1+$1,$8,$9,$2,$3,0*%
G04 Aperture macros list end*
%ADD10C,1.676400*%
%ADD11O,1.600000X2.600000*%
%ADD12O,1.500000X3.000000*%
%ADD13R,1.600000X1.600000*%
%ADD14O,1.600000X1.600000*%
%ADD15RoundRect,0.250000X0.262500X0.450000X-0.262500X0.450000X-0.262500X-0.450000X0.262500X-0.450000X0*%
%ADD16RoundRect,0.250000X-0.262500X-0.450000X0.262500X-0.450000X0.262500X0.450000X-0.262500X0.450000X0*%
%ADD17RoundRect,0.150000X0.587500X0.150000X-0.587500X0.150000X-0.587500X-0.150000X0.587500X-0.150000X0*%
G04 APERTURE END LIST*
D10*
X193140000Y-110490000D03*
X190600000Y-110490000D03*
X188060000Y-110490000D03*
X193140000Y-107950000D03*
X190600000Y-107950000D03*
X188060000Y-107950000D03*
D11*
X130110000Y-110023000D03*
X132650000Y-110023000D03*
X135190000Y-110023000D03*
X137730000Y-110023000D03*
X140270000Y-110023000D03*
X142810000Y-110023000D03*
X145350000Y-110023000D03*
X147890000Y-110023000D03*
X150430000Y-110023000D03*
X152970000Y-110023000D03*
X155510000Y-110023000D03*
X158050000Y-110023000D03*
X160590000Y-110023000D03*
X163130000Y-110023000D03*
X165670000Y-110023000D03*
X168210000Y-110023000D03*
X170750000Y-110023000D03*
X173290000Y-110023000D03*
X175830000Y-110023000D03*
X178370000Y-110023000D03*
X178370000Y-95037000D03*
X175830000Y-95037000D03*
X173290000Y-95037000D03*
X170750000Y-95037000D03*
X168210000Y-95037000D03*
X165670000Y-95037000D03*
X163130000Y-95037000D03*
X160590000Y-95037000D03*
X158050000Y-95037000D03*
X155510000Y-95037000D03*
X152970000Y-95037000D03*
X150430000Y-95037000D03*
X147890000Y-95037000D03*
X145350000Y-95037000D03*
X142810000Y-95037000D03*
X140270000Y-95037000D03*
X137730000Y-95037000D03*
X135190000Y-95037000D03*
X132650000Y-95037000D03*
X130110000Y-95037000D03*
D12*
X118021100Y-103733600D03*
X120561100Y-103733600D03*
X123101100Y-103733600D03*
X125641100Y-103733600D03*
X128181100Y-103733600D03*
X130721100Y-103733600D03*
X133261100Y-103733600D03*
X135801100Y-103733600D03*
X138341100Y-103733600D03*
X140881100Y-103733600D03*
X143421100Y-103733600D03*
X145961100Y-103733600D03*
X148501100Y-103733600D03*
X151041100Y-103733600D03*
X153581100Y-103733600D03*
X156121100Y-103733600D03*
X158661100Y-103733600D03*
X161201100Y-103733600D03*
X163741100Y-103733600D03*
X166281100Y-103733600D03*
X168821100Y-103733600D03*
X171361100Y-103733600D03*
X173901100Y-103733600D03*
X176441100Y-103733600D03*
X176441100Y-88493600D03*
X173901100Y-88493600D03*
X171361100Y-88493600D03*
X168821100Y-88493600D03*
X166281100Y-88493600D03*
X163741100Y-88493600D03*
X161201100Y-88493600D03*
X158661100Y-88493600D03*
X156121100Y-88493600D03*
X153581100Y-88493600D03*
X151041100Y-88493600D03*
X148501100Y-88493600D03*
X145961100Y-88493600D03*
X143421100Y-88493600D03*
X140881100Y-88493600D03*
X138341100Y-88493600D03*
X135801100Y-88493600D03*
X133261100Y-88493600D03*
X130721100Y-88493600D03*
X128181100Y-88493600D03*
X125641100Y-88493600D03*
X123101100Y-88493600D03*
X120561100Y-88493600D03*
X118021100Y-88493600D03*
D13*
X186940000Y-87440000D03*
D14*
X186940000Y-89980000D03*
X186940000Y-92520000D03*
X194560000Y-92520000D03*
X194560000Y-89980000D03*
X194560000Y-87440000D03*
D15*
X182968900Y-85443900D03*
X181143900Y-85443900D03*
X182968900Y-87990000D03*
X181143900Y-87990000D03*
X182968900Y-90530000D03*
X181143900Y-90530000D03*
D16*
X181143900Y-93120000D03*
X182968900Y-93120000D03*
D17*
X180407500Y-98690000D03*
X180407500Y-100590000D03*
X178532500Y-99640000D03*
D16*
X181143900Y-95790000D03*
X182968900Y-95790000D03*
M02*
