G04 #@! TF.GenerationSoftware,KiCad,Pcbnew,6.0.1*
G04 #@! TF.CreationDate,2022-02-11T11:10:18+01:00*
G04 #@! TF.ProjectId,27C160_Adapter,32374331-3630-45f4-9164-61707465722e,1.1SMD*
G04 #@! TF.SameCoordinates,Original*
G04 #@! TF.FileFunction,Copper,L1,Top*
G04 #@! TF.FilePolarity,Positive*
%FSLAX46Y46*%
G04 Gerber Fmt 4.6, Leading zero omitted, Abs format (unit mm)*
G04 Created by KiCad (PCBNEW 6.0.1) date 2022-02-11 11:10:18*
%MOMM*%
%LPD*%
G01*
G04 APERTURE LIST*
G04 #@! TA.AperFunction,ComponentPad*
%ADD10C,1.676400*%
G04 #@! TD*
G04 #@! TA.AperFunction,ComponentPad*
%ADD11O,1.600000X2.600000*%
G04 #@! TD*
G04 #@! TA.AperFunction,ComponentPad*
%ADD12O,1.500000X3.000000*%
G04 #@! TD*
G04 #@! TA.AperFunction,ComponentPad*
%ADD13R,1.600000X1.600000*%
G04 #@! TD*
G04 #@! TA.AperFunction,ComponentPad*
%ADD14O,1.600000X1.600000*%
G04 #@! TD*
G04 #@! TA.AperFunction,ViaPad*
%ADD15C,0.600000*%
G04 #@! TD*
G04 #@! TA.AperFunction,Conductor*
%ADD16C,0.250000*%
G04 #@! TD*
G04 APERTURE END LIST*
D10*
X193140000Y-110490000D03*
X190600000Y-110490000D03*
X188060000Y-110490000D03*
X193140000Y-107950000D03*
X190600000Y-107950000D03*
X188060000Y-107950000D03*
D11*
X130110000Y-110023000D03*
X132650000Y-110023000D03*
X135190000Y-110023000D03*
X137730000Y-110023000D03*
X140270000Y-110023000D03*
X142810000Y-110023000D03*
X145350000Y-110023000D03*
X147890000Y-110023000D03*
X150430000Y-110023000D03*
X152970000Y-110023000D03*
X155510000Y-110023000D03*
X158050000Y-110023000D03*
X160590000Y-110023000D03*
X163130000Y-110023000D03*
X165670000Y-110023000D03*
X168210000Y-110023000D03*
X170750000Y-110023000D03*
X173290000Y-110023000D03*
X175830000Y-110023000D03*
X178370000Y-110023000D03*
X178370000Y-95037000D03*
X175830000Y-95037000D03*
X173290000Y-95037000D03*
X170750000Y-95037000D03*
X168210000Y-95037000D03*
X165670000Y-95037000D03*
X163130000Y-95037000D03*
X160590000Y-95037000D03*
X158050000Y-95037000D03*
X155510000Y-95037000D03*
X152970000Y-95037000D03*
X150430000Y-95037000D03*
X147890000Y-95037000D03*
X145350000Y-95037000D03*
X142810000Y-95037000D03*
X140270000Y-95037000D03*
X137730000Y-95037000D03*
X135190000Y-95037000D03*
X132650000Y-95037000D03*
X130110000Y-95037000D03*
D12*
X118021100Y-103733600D03*
X120561100Y-103733600D03*
X123101100Y-103733600D03*
X125641100Y-103733600D03*
X128181100Y-103733600D03*
X130721100Y-103733600D03*
X133261100Y-103733600D03*
X135801100Y-103733600D03*
X138341100Y-103733600D03*
X140881100Y-103733600D03*
X143421100Y-103733600D03*
X145961100Y-103733600D03*
X148501100Y-103733600D03*
X151041100Y-103733600D03*
X153581100Y-103733600D03*
X156121100Y-103733600D03*
X158661100Y-103733600D03*
X161201100Y-103733600D03*
X163741100Y-103733600D03*
X166281100Y-103733600D03*
X168821100Y-103733600D03*
X171361100Y-103733600D03*
X173901100Y-103733600D03*
X176441100Y-103733600D03*
X176441100Y-88493600D03*
X173901100Y-88493600D03*
X171361100Y-88493600D03*
X168821100Y-88493600D03*
X166281100Y-88493600D03*
X163741100Y-88493600D03*
X161201100Y-88493600D03*
X158661100Y-88493600D03*
X156121100Y-88493600D03*
X153581100Y-88493600D03*
X151041100Y-88493600D03*
X148501100Y-88493600D03*
X145961100Y-88493600D03*
X143421100Y-88493600D03*
X140881100Y-88493600D03*
X138341100Y-88493600D03*
X135801100Y-88493600D03*
X133261100Y-88493600D03*
X130721100Y-88493600D03*
X128181100Y-88493600D03*
X125641100Y-88493600D03*
X123101100Y-88493600D03*
X120561100Y-88493600D03*
X118021100Y-88493600D03*
D13*
X186940000Y-87440000D03*
D14*
X186940000Y-89980000D03*
X186940000Y-92520000D03*
X194560000Y-92520000D03*
X194560000Y-89980000D03*
X194560000Y-87440000D03*
D15*
X110540000Y-88540000D03*
X150930000Y-91460000D03*
X110500000Y-103670000D03*
X157580000Y-92690000D03*
X129550000Y-107970000D03*
X178320000Y-91840000D03*
X166270000Y-85990000D03*
X125740000Y-94980000D03*
X183870000Y-107980000D03*
X185130000Y-103040000D03*
X185720000Y-113440000D03*
X178300000Y-85930000D03*
X152200000Y-90830000D03*
D16*
X124400000Y-85930000D02*
X124400000Y-93640000D01*
X166270000Y-85990000D02*
X165080000Y-84800000D01*
X165080000Y-84800000D02*
X125530000Y-84800000D01*
X124400000Y-93640000D02*
X125740000Y-94980000D01*
X125530000Y-84800000D02*
X124400000Y-85930000D01*
X183870000Y-107980000D02*
X188040000Y-107980000D01*
X188040000Y-107980000D02*
X188070000Y-107950000D01*
X194740000Y-108900000D02*
X193150000Y-110490000D01*
X185130000Y-103040000D02*
X192060000Y-103040000D01*
X185720000Y-113440000D02*
X131030000Y-113440000D01*
X194740000Y-105720000D02*
X194740000Y-108900000D01*
X130086100Y-112496100D02*
X130086100Y-109958600D01*
X131030000Y-113440000D02*
X130086100Y-112496100D01*
X192060000Y-103040000D02*
X194740000Y-105720000D01*
X178300000Y-86030000D02*
X178300000Y-85930000D01*
X182250000Y-89980000D02*
X178300000Y-86030000D01*
X186940000Y-89980000D02*
X182250000Y-89980000D01*
X191840000Y-113390000D02*
X190610000Y-112160000D01*
X152870000Y-91500000D02*
X166460000Y-91500000D01*
X187872599Y-84742599D02*
X189320000Y-86190000D01*
X167550000Y-90410000D02*
X167550000Y-86820000D01*
X189320000Y-98530000D02*
X195800000Y-105010000D01*
X169627401Y-84742599D02*
X187872599Y-84742599D01*
X152200000Y-90830000D02*
X152870000Y-91500000D01*
X167550000Y-86820000D02*
X169627401Y-84742599D01*
X190610000Y-112160000D02*
X190610000Y-110490000D01*
X166460000Y-91500000D02*
X167550000Y-90410000D01*
X195800000Y-111550000D02*
X193960000Y-113390000D01*
X193960000Y-113390000D02*
X191840000Y-113390000D01*
X195800000Y-105010000D02*
X195800000Y-111550000D01*
X189320000Y-86190000D02*
X189320000Y-98530000D01*
X189350000Y-109210000D02*
X190610000Y-107950000D01*
X144010000Y-111260000D02*
X145620000Y-112870000D01*
X185230000Y-109210000D02*
X189350000Y-109210000D01*
X156121100Y-105048900D02*
X155100000Y-106070000D01*
X145620000Y-112870000D02*
X181570000Y-112870000D01*
X155100000Y-106070000D02*
X149670000Y-106070000D01*
X156121100Y-103733600D02*
X156121100Y-105048900D01*
X144480000Y-107480000D02*
X144010000Y-107950000D01*
X148260000Y-107480000D02*
X144480000Y-107480000D01*
X144010000Y-107950000D02*
X144010000Y-111260000D01*
X181570000Y-112870000D02*
X185230000Y-109210000D01*
X149670000Y-106070000D02*
X148260000Y-107480000D01*
X183944700Y-104360000D02*
X178346100Y-109958600D01*
X193150000Y-107950000D02*
X193150000Y-105320000D01*
X193150000Y-105320000D02*
X192190000Y-104360000D01*
X192190000Y-104360000D02*
X183944700Y-104360000D01*
X148223600Y-106551100D02*
X136033600Y-106551100D01*
X136033600Y-106551100D02*
X132626100Y-109958600D01*
X151041100Y-103733600D02*
X148223600Y-106551100D01*
X128327200Y-85490000D02*
X126911100Y-86906100D01*
X131991100Y-112306100D02*
X139293600Y-112306100D01*
X131356100Y-108178600D02*
X131356100Y-111671100D01*
X126911100Y-105638600D02*
X128181100Y-106908600D01*
X130086100Y-106908600D02*
X131356100Y-108178600D01*
X166281100Y-88493600D02*
X166281100Y-87858600D01*
X126911100Y-86906100D02*
X126911100Y-105638600D01*
X163912500Y-85490000D02*
X128327200Y-85490000D01*
X166281100Y-87858600D02*
X163912500Y-85490000D01*
X128181100Y-106908600D02*
X130086100Y-106908600D01*
X139293600Y-112306100D02*
X140246100Y-111353600D01*
X140246100Y-111353600D02*
X140246100Y-109958600D01*
X131356100Y-111671100D02*
X131991100Y-112306100D01*
X177076100Y-111353600D02*
X176069700Y-112360000D01*
X177076100Y-107543600D02*
X177076100Y-111353600D01*
X146650000Y-112360000D02*
X145326100Y-111036100D01*
X176069700Y-112360000D02*
X146650000Y-112360000D01*
X176441100Y-106908600D02*
X177076100Y-107543600D01*
X145326100Y-111036100D02*
X145326100Y-109958600D01*
X176441100Y-103733600D02*
X176441100Y-106908600D01*
X159054000Y-101070000D02*
X157481700Y-102642300D01*
X168697500Y-101070000D02*
X159054000Y-101070000D01*
X147866100Y-108813600D02*
X147866100Y-109958600D01*
X157481700Y-102642300D02*
X157481700Y-105110900D01*
X150058600Y-106621100D02*
X147866100Y-108813600D01*
X171361100Y-103733600D02*
X168697500Y-101070000D01*
X157481700Y-105110900D02*
X155971500Y-106621100D01*
X155971500Y-106621100D02*
X150058600Y-106621100D01*
X166281100Y-103733600D02*
X164457500Y-101910000D01*
X159950000Y-102640100D02*
X159950000Y-104771200D01*
X159950000Y-104771200D02*
X157440700Y-107280500D01*
X157440700Y-107280500D02*
X153084200Y-107280500D01*
X164457500Y-101910000D02*
X160680100Y-101910000D01*
X153084200Y-107280500D02*
X150406100Y-109958600D01*
X160680100Y-101910000D02*
X159950000Y-102640100D01*
X155003600Y-107901100D02*
X152946100Y-109958600D01*
X158938600Y-107901100D02*
X155003600Y-107901100D01*
X161201100Y-105638600D02*
X161201100Y-103733600D01*
X158938600Y-107901100D02*
X161201100Y-105638600D01*
X163741100Y-103733600D02*
X167400800Y-107393300D01*
X170700800Y-107393300D02*
X173266100Y-109958600D01*
X167400800Y-107393300D02*
X170700800Y-107393300D01*
X166673800Y-101500000D02*
X167551100Y-102377300D01*
X159624700Y-101500000D02*
X166673800Y-101500000D01*
X167551100Y-104806500D02*
X168374500Y-105629900D01*
X158661100Y-102463600D02*
X159624700Y-101500000D01*
X171477400Y-105629900D02*
X175806100Y-109958600D01*
X168374500Y-105629900D02*
X171477400Y-105629900D01*
X158661100Y-103733600D02*
X158661100Y-102463600D01*
X167551100Y-102377300D02*
X167551100Y-104806500D01*
X148501100Y-103733600D02*
X151574700Y-100660000D01*
X178346100Y-96753900D02*
X178346100Y-94968600D01*
X174440000Y-100660000D02*
X178346100Y-96753900D01*
X151574700Y-100660000D02*
X174440000Y-100660000D01*
X148610000Y-100240000D02*
X170534700Y-100240000D01*
X145961100Y-102888900D02*
X148610000Y-100240000D01*
X145961100Y-103733600D02*
X145961100Y-102888900D01*
X170534700Y-100240000D02*
X175806100Y-94968600D01*
X143421100Y-103733600D02*
X147424700Y-99730000D01*
X147424700Y-99730000D02*
X168504700Y-99730000D01*
X168504700Y-99730000D02*
X173266100Y-94968600D01*
X145314700Y-99300000D02*
X166394700Y-99300000D01*
X166394700Y-99300000D02*
X170726100Y-94968600D01*
X140881100Y-103733600D02*
X145314700Y-99300000D01*
X138341100Y-103733600D02*
X143182289Y-98892411D01*
X164262289Y-98892411D02*
X168186100Y-94968600D01*
X143182289Y-98892411D02*
X164262289Y-98892411D01*
X162124700Y-98490000D02*
X165646100Y-94968600D01*
X141044700Y-98490000D02*
X162124700Y-98490000D01*
X135801100Y-103733600D02*
X141044700Y-98490000D01*
X138924700Y-98070000D02*
X133261100Y-103733600D01*
X163106100Y-94968600D02*
X160004700Y-98070000D01*
X160004700Y-98070000D02*
X138924700Y-98070000D01*
X136824700Y-97630000D02*
X130721100Y-103733600D01*
X160566100Y-94968600D02*
X160566100Y-96718600D01*
X159654700Y-97630000D02*
X136824700Y-97630000D01*
X160566100Y-96718600D02*
X159654700Y-97630000D01*
X157532289Y-97212411D02*
X158026100Y-96718600D01*
X132783300Y-93095800D02*
X138305800Y-93095800D01*
X138982200Y-96066100D02*
X140116100Y-97200000D01*
X138976100Y-93766100D02*
X138976100Y-96066100D01*
X148731384Y-97212411D02*
X157532289Y-97212411D01*
X140116100Y-97200000D02*
X148718973Y-97200000D01*
X128181100Y-88493600D02*
X132783300Y-93095800D01*
X158026100Y-96718600D02*
X158026100Y-94968600D01*
X148718973Y-97200000D02*
X148731384Y-97212411D01*
X138976100Y-96066100D02*
X138982200Y-96066100D01*
X138305800Y-93095800D02*
X138976100Y-93766100D01*
X140616300Y-85930000D02*
X142220000Y-87533700D01*
X142220000Y-89640000D02*
X143060000Y-90480000D01*
X148457500Y-90480000D02*
X152946100Y-94968600D01*
X142220000Y-87533700D02*
X142220000Y-89640000D01*
X133284700Y-85930000D02*
X140616300Y-85930000D01*
X143060000Y-90480000D02*
X148457500Y-90480000D01*
X130721100Y-88493600D02*
X133284700Y-85930000D01*
X144807589Y-96797589D02*
X148577111Y-96797589D01*
X142719600Y-92499600D02*
X144056100Y-93836100D01*
X133261100Y-88493600D02*
X137267100Y-92499600D01*
X137267100Y-92499600D02*
X142719600Y-92499600D01*
X144056100Y-96046100D02*
X144807589Y-96797589D01*
X144056100Y-93836100D02*
X144056100Y-96046100D01*
X148577111Y-96797589D02*
X150406100Y-94968600D01*
X139620000Y-89517900D02*
X141162100Y-91060000D01*
X143957500Y-91060000D02*
X147866100Y-94968600D01*
X137834700Y-86460000D02*
X138820000Y-86460000D01*
X135801100Y-88493600D02*
X137834700Y-86460000D01*
X139620000Y-87260000D02*
X139620000Y-89517900D01*
X141162100Y-91060000D02*
X143957500Y-91060000D01*
X138820000Y-86460000D02*
X139620000Y-87260000D01*
X145326100Y-93218600D02*
X145326100Y-94968600D01*
X138341100Y-88493600D02*
X138341100Y-90081100D01*
X140160000Y-91900000D02*
X144007500Y-91900000D01*
X138341100Y-90081100D02*
X140160000Y-91900000D01*
X144007500Y-91900000D02*
X145326100Y-93218600D01*
G04 #@! TA.AperFunction,Conductor*
G36*
X196952608Y-83740914D02*
G01*
X196957145Y-83741714D01*
X196968000Y-83743628D01*
X196978856Y-83741714D01*
X196989878Y-83741714D01*
X196989878Y-83742514D01*
X197002062Y-83741980D01*
X197125462Y-83752776D01*
X197147089Y-83756590D01*
X197289113Y-83794646D01*
X197309751Y-83802157D01*
X197443010Y-83864297D01*
X197462031Y-83875279D01*
X197582478Y-83959617D01*
X197599302Y-83973735D01*
X197703265Y-84077698D01*
X197717383Y-84094522D01*
X197801721Y-84214969D01*
X197812703Y-84233990D01*
X197874843Y-84367249D01*
X197882354Y-84387887D01*
X197920410Y-84529911D01*
X197924225Y-84551542D01*
X197935020Y-84674935D01*
X197934486Y-84687122D01*
X197935286Y-84687122D01*
X197935286Y-84698144D01*
X197933372Y-84709000D01*
X197935286Y-84719855D01*
X197936086Y-84724392D01*
X197938000Y-84746271D01*
X197938000Y-114111729D01*
X197936086Y-114133608D01*
X197933372Y-114149000D01*
X197935286Y-114159856D01*
X197935286Y-114170365D01*
X197934679Y-114182715D01*
X197923018Y-114301111D01*
X197918201Y-114325331D01*
X197877430Y-114459735D01*
X197867981Y-114482545D01*
X197801779Y-114606401D01*
X197788056Y-114626939D01*
X197698963Y-114735498D01*
X197681498Y-114752963D01*
X197572939Y-114842056D01*
X197552401Y-114855779D01*
X197428545Y-114921981D01*
X197405735Y-114931430D01*
X197271331Y-114972201D01*
X197247111Y-114977018D01*
X197128715Y-114988679D01*
X197116365Y-114989286D01*
X197105856Y-114989286D01*
X197095000Y-114987372D01*
X197084145Y-114989286D01*
X197079608Y-114990086D01*
X197057729Y-114992000D01*
X128815271Y-114992000D01*
X128793392Y-114990086D01*
X128788855Y-114989286D01*
X128778000Y-114987372D01*
X128767144Y-114989286D01*
X128756635Y-114989286D01*
X128744285Y-114988679D01*
X128625889Y-114977018D01*
X128601669Y-114972201D01*
X128467265Y-114931430D01*
X128444455Y-114921981D01*
X128320599Y-114855779D01*
X128300061Y-114842056D01*
X128191502Y-114752963D01*
X128174037Y-114735498D01*
X128084944Y-114626939D01*
X128071221Y-114606401D01*
X128005019Y-114482545D01*
X127995570Y-114459735D01*
X127954799Y-114325331D01*
X127949982Y-114301111D01*
X127938321Y-114182715D01*
X127937714Y-114170368D01*
X127937714Y-114159858D01*
X127939628Y-114149000D01*
X127936848Y-114133233D01*
X127934934Y-114111581D01*
X127930066Y-111357122D01*
X127931980Y-111335021D01*
X127932714Y-111330860D01*
X127932714Y-111330854D01*
X127934628Y-111320000D01*
X127934264Y-111317936D01*
X127933388Y-111302323D01*
X127922863Y-111114908D01*
X127916873Y-111008248D01*
X127864570Y-110700417D01*
X127778130Y-110400378D01*
X127776776Y-110397109D01*
X127659994Y-110115171D01*
X127659991Y-110115166D01*
X127658640Y-110111903D01*
X127624061Y-110049336D01*
X127523377Y-109867163D01*
X127507602Y-109838620D01*
X127344556Y-109608828D01*
X127328951Y-109586835D01*
X127328951Y-109586834D01*
X127326916Y-109583967D01*
X127118854Y-109351146D01*
X127083925Y-109319931D01*
X126888657Y-109145429D01*
X126886033Y-109143084D01*
X126631380Y-108962398D01*
X126358097Y-108811360D01*
X126354834Y-108810009D01*
X126354829Y-108810006D01*
X126072891Y-108693224D01*
X126072890Y-108693224D01*
X126069622Y-108691870D01*
X125769583Y-108605430D01*
X125461752Y-108553127D01*
X125373314Y-108548161D01*
X125163789Y-108536394D01*
X125163787Y-108536394D01*
X125152064Y-108535736D01*
X125150000Y-108535372D01*
X125139144Y-108537286D01*
X125134619Y-108538084D01*
X125112736Y-108539997D01*
X116810601Y-108539500D01*
X108495268Y-108539002D01*
X108473399Y-108537087D01*
X108468857Y-108536286D01*
X108468856Y-108536286D01*
X108458000Y-108534372D01*
X108447144Y-108536286D01*
X108436635Y-108536286D01*
X108424285Y-108535679D01*
X108305889Y-108524018D01*
X108281669Y-108519201D01*
X108147265Y-108478430D01*
X108124455Y-108468981D01*
X108000599Y-108402779D01*
X107980061Y-108389056D01*
X107871502Y-108299963D01*
X107854037Y-108282498D01*
X107764944Y-108173939D01*
X107751221Y-108153401D01*
X107685019Y-108029545D01*
X107675570Y-108006735D01*
X107634799Y-107872331D01*
X107629982Y-107848111D01*
X107618321Y-107729715D01*
X107617714Y-107717365D01*
X107617714Y-107706856D01*
X107619628Y-107696000D01*
X107616914Y-107680608D01*
X107615000Y-107658729D01*
X107615000Y-104535441D01*
X116970600Y-104535441D01*
X116985620Y-104688630D01*
X117045165Y-104885851D01*
X117141882Y-105067751D01*
X117208427Y-105149343D01*
X117268194Y-105222625D01*
X117268197Y-105222628D01*
X117272089Y-105227400D01*
X117276836Y-105231327D01*
X117276838Y-105231329D01*
X117426075Y-105354789D01*
X117426079Y-105354791D01*
X117430825Y-105358718D01*
X117484711Y-105387854D01*
X117595600Y-105447811D01*
X117612045Y-105456703D01*
X117808846Y-105517623D01*
X117814971Y-105518267D01*
X117814972Y-105518267D01*
X118007602Y-105538513D01*
X118007604Y-105538513D01*
X118013731Y-105539157D01*
X118100571Y-105531254D01*
X118212758Y-105521045D01*
X118212761Y-105521044D01*
X118218897Y-105520486D01*
X118416528Y-105462320D01*
X118422223Y-105459343D01*
X118518341Y-105409093D01*
X118599098Y-105366874D01*
X118603899Y-105363014D01*
X118603902Y-105363012D01*
X118754846Y-105241650D01*
X118754847Y-105241650D01*
X118759653Y-105237785D01*
X118892076Y-105079970D01*
X118895044Y-105074572D01*
X118895047Y-105074567D01*
X118988357Y-104904835D01*
X118991324Y-104899438D01*
X119053616Y-104703068D01*
X119054574Y-104694532D01*
X119066363Y-104589426D01*
X119071600Y-104542736D01*
X119071600Y-104535441D01*
X119510600Y-104535441D01*
X119525620Y-104688630D01*
X119585165Y-104885851D01*
X119681882Y-105067751D01*
X119748427Y-105149343D01*
X119808194Y-105222625D01*
X119808197Y-105222628D01*
X119812089Y-105227400D01*
X119816836Y-105231327D01*
X119816838Y-105231329D01*
X119966075Y-105354789D01*
X119966079Y-105354791D01*
X119970825Y-105358718D01*
X120024711Y-105387854D01*
X120135600Y-105447811D01*
X120152045Y-105456703D01*
X120348846Y-105517623D01*
X120354971Y-105518267D01*
X120354972Y-105518267D01*
X120547602Y-105538513D01*
X120547604Y-105538513D01*
X120553731Y-105539157D01*
X120640571Y-105531254D01*
X120752758Y-105521045D01*
X120752761Y-105521044D01*
X120758897Y-105520486D01*
X120956528Y-105462320D01*
X120962223Y-105459343D01*
X121058341Y-105409093D01*
X121139098Y-105366874D01*
X121143899Y-105363014D01*
X121143902Y-105363012D01*
X121294846Y-105241650D01*
X121294847Y-105241650D01*
X121299653Y-105237785D01*
X121432076Y-105079970D01*
X121435044Y-105074572D01*
X121435047Y-105074567D01*
X121528357Y-104904835D01*
X121531324Y-104899438D01*
X121593616Y-104703068D01*
X121594574Y-104694532D01*
X121606363Y-104589426D01*
X121611600Y-104542736D01*
X121611600Y-104535441D01*
X122050600Y-104535441D01*
X122065620Y-104688630D01*
X122125165Y-104885851D01*
X122221882Y-105067751D01*
X122288427Y-105149343D01*
X122348194Y-105222625D01*
X122348197Y-105222628D01*
X122352089Y-105227400D01*
X122356836Y-105231327D01*
X122356838Y-105231329D01*
X122506075Y-105354789D01*
X122506079Y-105354791D01*
X122510825Y-105358718D01*
X122564711Y-105387854D01*
X122675600Y-105447811D01*
X122692045Y-105456703D01*
X122888846Y-105517623D01*
X122894971Y-105518267D01*
X122894972Y-105518267D01*
X123087602Y-105538513D01*
X123087604Y-105538513D01*
X123093731Y-105539157D01*
X123180571Y-105531254D01*
X123292758Y-105521045D01*
X123292761Y-105521044D01*
X123298897Y-105520486D01*
X123496528Y-105462320D01*
X123502223Y-105459343D01*
X123598341Y-105409093D01*
X123679098Y-105366874D01*
X123683899Y-105363014D01*
X123683902Y-105363012D01*
X123834846Y-105241650D01*
X123834847Y-105241650D01*
X123839653Y-105237785D01*
X123972076Y-105079970D01*
X123975044Y-105074572D01*
X123975047Y-105074567D01*
X124068357Y-104904835D01*
X124071324Y-104899438D01*
X124133616Y-104703068D01*
X124134574Y-104694532D01*
X124146363Y-104589426D01*
X124151600Y-104542736D01*
X124151600Y-102931759D01*
X124136580Y-102778570D01*
X124077035Y-102581349D01*
X123980318Y-102399449D01*
X123880990Y-102277661D01*
X123854006Y-102244575D01*
X123854003Y-102244572D01*
X123850111Y-102239800D01*
X123840053Y-102231479D01*
X123696125Y-102112411D01*
X123696121Y-102112409D01*
X123691375Y-102108482D01*
X123510155Y-102010497D01*
X123313354Y-101949577D01*
X123307229Y-101948933D01*
X123307228Y-101948933D01*
X123114598Y-101928687D01*
X123114596Y-101928687D01*
X123108469Y-101928043D01*
X123021629Y-101935946D01*
X122909442Y-101946155D01*
X122909439Y-101946156D01*
X122903303Y-101946714D01*
X122705672Y-102004880D01*
X122523102Y-102100326D01*
X122518301Y-102104186D01*
X122518298Y-102104188D01*
X122421868Y-102181720D01*
X122362547Y-102229415D01*
X122230124Y-102387230D01*
X122227156Y-102392628D01*
X122227153Y-102392633D01*
X122147323Y-102537845D01*
X122130876Y-102567762D01*
X122129013Y-102573635D01*
X122093061Y-102686972D01*
X122068584Y-102764132D01*
X122067898Y-102770249D01*
X122067897Y-102770253D01*
X122066276Y-102784704D01*
X122050600Y-102924464D01*
X122050600Y-104535441D01*
X121611600Y-104535441D01*
X121611600Y-102931759D01*
X121596580Y-102778570D01*
X121537035Y-102581349D01*
X121440318Y-102399449D01*
X121340990Y-102277661D01*
X121314006Y-102244575D01*
X121314003Y-102244572D01*
X121310111Y-102239800D01*
X121300053Y-102231479D01*
X121156125Y-102112411D01*
X121156121Y-102112409D01*
X121151375Y-102108482D01*
X120970155Y-102010497D01*
X120773354Y-101949577D01*
X120767229Y-101948933D01*
X120767228Y-101948933D01*
X120574598Y-101928687D01*
X120574596Y-101928687D01*
X120568469Y-101928043D01*
X120481629Y-101935946D01*
X120369442Y-101946155D01*
X120369439Y-101946156D01*
X120363303Y-101946714D01*
X120165672Y-102004880D01*
X119983102Y-102100326D01*
X119978301Y-102104186D01*
X119978298Y-102104188D01*
X119881868Y-102181720D01*
X119822547Y-102229415D01*
X119690124Y-102387230D01*
X119687156Y-102392628D01*
X119687153Y-102392633D01*
X119607323Y-102537845D01*
X119590876Y-102567762D01*
X119589013Y-102573635D01*
X119553061Y-102686972D01*
X119528584Y-102764132D01*
X119527898Y-102770249D01*
X119527897Y-102770253D01*
X119526276Y-102784704D01*
X119510600Y-102924464D01*
X119510600Y-104535441D01*
X119071600Y-104535441D01*
X119071600Y-102931759D01*
X119056580Y-102778570D01*
X118997035Y-102581349D01*
X118900318Y-102399449D01*
X118800990Y-102277661D01*
X118774006Y-102244575D01*
X118774003Y-102244572D01*
X118770111Y-102239800D01*
X118760053Y-102231479D01*
X118616125Y-102112411D01*
X118616121Y-102112409D01*
X118611375Y-102108482D01*
X118430155Y-102010497D01*
X118233354Y-101949577D01*
X118227229Y-101948933D01*
X118227228Y-101948933D01*
X118034598Y-101928687D01*
X118034596Y-101928687D01*
X118028469Y-101928043D01*
X117941629Y-101935946D01*
X117829442Y-101946155D01*
X117829439Y-101946156D01*
X117823303Y-101946714D01*
X117625672Y-102004880D01*
X117443102Y-102100326D01*
X117438301Y-102104186D01*
X117438298Y-102104188D01*
X117341868Y-102181720D01*
X117282547Y-102229415D01*
X117150124Y-102387230D01*
X117147156Y-102392628D01*
X117147153Y-102392633D01*
X117067323Y-102537845D01*
X117050876Y-102567762D01*
X117049013Y-102573635D01*
X117013061Y-102686972D01*
X116988584Y-102764132D01*
X116987898Y-102770249D01*
X116987897Y-102770253D01*
X116986276Y-102784704D01*
X116970600Y-102924464D01*
X116970600Y-104535441D01*
X107615000Y-104535441D01*
X107615000Y-89295441D01*
X116970600Y-89295441D01*
X116985620Y-89448630D01*
X117045165Y-89645851D01*
X117141882Y-89827751D01*
X117208422Y-89909337D01*
X117268194Y-89982625D01*
X117268197Y-89982628D01*
X117272089Y-89987400D01*
X117276836Y-89991327D01*
X117276838Y-89991329D01*
X117426075Y-90114789D01*
X117426079Y-90114791D01*
X117430825Y-90118718D01*
X117612045Y-90216703D01*
X117808846Y-90277623D01*
X117814971Y-90278267D01*
X117814972Y-90278267D01*
X118007602Y-90298513D01*
X118007604Y-90298513D01*
X118013731Y-90299157D01*
X118100571Y-90291254D01*
X118212758Y-90281045D01*
X118212761Y-90281044D01*
X118218897Y-90280486D01*
X118416528Y-90222320D01*
X118426852Y-90216923D01*
X118593633Y-90129731D01*
X118599098Y-90126874D01*
X118603899Y-90123014D01*
X118603902Y-90123012D01*
X118754846Y-90001650D01*
X118754847Y-90001650D01*
X118759653Y-89997785D01*
X118892076Y-89839970D01*
X118895044Y-89834572D01*
X118895047Y-89834567D01*
X118988357Y-89664835D01*
X118991324Y-89659438D01*
X119053616Y-89463068D01*
X119054574Y-89454532D01*
X119066363Y-89349426D01*
X119071600Y-89302736D01*
X119071600Y-89295441D01*
X119510600Y-89295441D01*
X119525620Y-89448630D01*
X119585165Y-89645851D01*
X119681882Y-89827751D01*
X119748422Y-89909337D01*
X119808194Y-89982625D01*
X119808197Y-89982628D01*
X119812089Y-89987400D01*
X119816836Y-89991327D01*
X119816838Y-89991329D01*
X119966075Y-90114789D01*
X119966079Y-90114791D01*
X119970825Y-90118718D01*
X120152045Y-90216703D01*
X120348846Y-90277623D01*
X120354971Y-90278267D01*
X120354972Y-90278267D01*
X120547602Y-90298513D01*
X120547604Y-90298513D01*
X120553731Y-90299157D01*
X120640571Y-90291254D01*
X120752758Y-90281045D01*
X120752761Y-90281044D01*
X120758897Y-90280486D01*
X120956528Y-90222320D01*
X120966852Y-90216923D01*
X121133633Y-90129731D01*
X121139098Y-90126874D01*
X121143899Y-90123014D01*
X121143902Y-90123012D01*
X121294846Y-90001650D01*
X121294847Y-90001650D01*
X121299653Y-89997785D01*
X121432076Y-89839970D01*
X121435044Y-89834572D01*
X121435047Y-89834567D01*
X121528357Y-89664835D01*
X121531324Y-89659438D01*
X121593616Y-89463068D01*
X121594574Y-89454532D01*
X121606363Y-89349426D01*
X121611600Y-89302736D01*
X121611600Y-89295441D01*
X122050600Y-89295441D01*
X122065620Y-89448630D01*
X122125165Y-89645851D01*
X122221882Y-89827751D01*
X122288422Y-89909337D01*
X122348194Y-89982625D01*
X122348197Y-89982628D01*
X122352089Y-89987400D01*
X122356836Y-89991327D01*
X122356838Y-89991329D01*
X122506075Y-90114789D01*
X122506079Y-90114791D01*
X122510825Y-90118718D01*
X122692045Y-90216703D01*
X122888846Y-90277623D01*
X122894971Y-90278267D01*
X122894972Y-90278267D01*
X123087602Y-90298513D01*
X123087604Y-90298513D01*
X123093731Y-90299157D01*
X123180571Y-90291254D01*
X123292758Y-90281045D01*
X123292761Y-90281044D01*
X123298897Y-90280486D01*
X123496528Y-90222320D01*
X123506852Y-90216923D01*
X123673633Y-90129731D01*
X123679098Y-90126874D01*
X123746312Y-90072833D01*
X123769548Y-90054151D01*
X123835171Y-90027055D01*
X123905025Y-90039739D01*
X123956933Y-90088175D01*
X123974500Y-90152348D01*
X123974500Y-93707393D01*
X123981914Y-93730210D01*
X123986528Y-93749429D01*
X123990281Y-93773126D01*
X123994784Y-93781963D01*
X123994784Y-93781964D01*
X124001172Y-93794502D01*
X124008736Y-93812763D01*
X124013085Y-93826147D01*
X124013087Y-93826150D01*
X124016151Y-93835581D01*
X124021980Y-93843604D01*
X124030253Y-93854991D01*
X124040577Y-93871837D01*
X124051472Y-93893220D01*
X124075446Y-93917194D01*
X124594448Y-94436195D01*
X125103477Y-94945224D01*
X125137503Y-95007536D01*
X125139304Y-95017873D01*
X125154956Y-95136762D01*
X125215464Y-95282841D01*
X125311718Y-95408282D01*
X125437159Y-95504536D01*
X125583238Y-95565044D01*
X125740000Y-95585682D01*
X125748188Y-95584604D01*
X125888574Y-95566122D01*
X125896762Y-95565044D01*
X126042841Y-95504536D01*
X126168282Y-95408282D01*
X126173305Y-95401736D01*
X126173309Y-95401732D01*
X126259638Y-95289226D01*
X126316976Y-95247359D01*
X126387847Y-95243137D01*
X126449749Y-95277901D01*
X126483031Y-95340614D01*
X126485600Y-95365930D01*
X126485600Y-102051032D01*
X126465598Y-102119153D01*
X126411942Y-102165646D01*
X126341668Y-102175750D01*
X126279284Y-102148116D01*
X126276062Y-102145450D01*
X126236125Y-102112411D01*
X126236124Y-102112410D01*
X126231375Y-102108482D01*
X126050155Y-102010497D01*
X125853354Y-101949577D01*
X125847229Y-101948933D01*
X125847228Y-101948933D01*
X125654598Y-101928687D01*
X125654596Y-101928687D01*
X125648469Y-101928043D01*
X125561629Y-101935946D01*
X125449442Y-101946155D01*
X125449439Y-101946156D01*
X125443303Y-101946714D01*
X125245672Y-102004880D01*
X125063102Y-102100326D01*
X125058301Y-102104186D01*
X125058298Y-102104188D01*
X124961868Y-102181720D01*
X124902547Y-102229415D01*
X124770124Y-102387230D01*
X124767156Y-102392628D01*
X124767153Y-102392633D01*
X124687323Y-102537845D01*
X124670876Y-102567762D01*
X124669013Y-102573635D01*
X124633061Y-102686972D01*
X124608584Y-102764132D01*
X124607898Y-102770249D01*
X124607897Y-102770253D01*
X124606276Y-102784704D01*
X124590600Y-102924464D01*
X124590600Y-104535441D01*
X124605620Y-104688630D01*
X124665165Y-104885851D01*
X124761882Y-105067751D01*
X124828427Y-105149343D01*
X124888194Y-105222625D01*
X124888197Y-105222628D01*
X124892089Y-105227400D01*
X124896836Y-105231327D01*
X124896838Y-105231329D01*
X125046075Y-105354789D01*
X125046079Y-105354791D01*
X125050825Y-105358718D01*
X125104711Y-105387854D01*
X125215600Y-105447811D01*
X125232045Y-105456703D01*
X125428846Y-105517623D01*
X125434971Y-105518267D01*
X125434972Y-105518267D01*
X125627602Y-105538513D01*
X125627604Y-105538513D01*
X125633731Y-105539157D01*
X125720571Y-105531254D01*
X125832758Y-105521045D01*
X125832761Y-105521044D01*
X125838897Y-105520486D01*
X126036528Y-105462320D01*
X126042223Y-105459343D01*
X126138341Y-105409093D01*
X126219098Y-105366874D01*
X126280647Y-105317387D01*
X126346271Y-105290291D01*
X126416125Y-105302975D01*
X126468033Y-105351411D01*
X126485600Y-105415584D01*
X126485600Y-105705993D01*
X126493014Y-105728810D01*
X126497628Y-105748029D01*
X126501381Y-105771726D01*
X126505884Y-105780563D01*
X126505884Y-105780564D01*
X126512272Y-105793102D01*
X126519836Y-105811363D01*
X126524185Y-105824747D01*
X126524186Y-105824749D01*
X126527251Y-105834181D01*
X126533079Y-105842203D01*
X126533080Y-105842204D01*
X126541353Y-105853591D01*
X126551677Y-105870437D01*
X126562572Y-105891820D01*
X127927880Y-107257128D01*
X127949263Y-107268023D01*
X127966109Y-107278347D01*
X127985519Y-107292449D01*
X127994950Y-107295513D01*
X127994953Y-107295515D01*
X128008337Y-107299864D01*
X128026598Y-107307428D01*
X128035085Y-107311752D01*
X128047974Y-107318319D01*
X128071671Y-107322072D01*
X128090890Y-107326686D01*
X128113707Y-107334100D01*
X129857662Y-107334100D01*
X129925783Y-107354102D01*
X129946757Y-107371005D01*
X130893695Y-108317943D01*
X130927721Y-108380255D01*
X130930600Y-108407038D01*
X130930600Y-108507871D01*
X130910598Y-108575992D01*
X130856942Y-108622485D01*
X130786668Y-108632589D01*
X130741505Y-108616935D01*
X130585189Y-108526505D01*
X130570201Y-108517834D01*
X130429518Y-108468981D01*
X130377491Y-108450914D01*
X130377489Y-108450914D01*
X130371826Y-108448947D01*
X130365891Y-108448086D01*
X130365889Y-108448086D01*
X130169944Y-108419675D01*
X130169941Y-108419675D01*
X130164004Y-108418814D01*
X129954233Y-108428523D01*
X129842500Y-108455451D01*
X129755915Y-108476318D01*
X129755913Y-108476319D01*
X129750082Y-108477724D01*
X129744624Y-108480206D01*
X129744620Y-108480207D01*
X129653165Y-108521789D01*
X129558919Y-108564640D01*
X129387640Y-108686137D01*
X129242425Y-108837831D01*
X129239174Y-108842866D01*
X129133440Y-109006619D01*
X129128515Y-109014246D01*
X129126273Y-109019809D01*
X129069679Y-109160237D01*
X129050019Y-109209019D01*
X129048871Y-109214900D01*
X129048869Y-109214905D01*
X129010638Y-109410676D01*
X129009770Y-109415122D01*
X129009500Y-109420643D01*
X129009500Y-110575469D01*
X129024439Y-110732046D01*
X129083553Y-110933549D01*
X129179705Y-111120239D01*
X129220196Y-111171787D01*
X129305718Y-111280662D01*
X129305722Y-111280667D01*
X129309424Y-111285379D01*
X129349321Y-111320000D01*
X129463498Y-111419079D01*
X129463503Y-111419083D01*
X129468029Y-111423010D01*
X129596404Y-111497276D01*
X129597695Y-111498023D01*
X129646643Y-111549448D01*
X129660600Y-111607087D01*
X129660600Y-112563493D01*
X129668014Y-112586310D01*
X129672628Y-112605529D01*
X129676381Y-112629226D01*
X129680884Y-112638063D01*
X129680884Y-112638064D01*
X129687272Y-112650602D01*
X129694836Y-112668863D01*
X129699185Y-112682247D01*
X129699187Y-112682250D01*
X129702251Y-112691681D01*
X129708080Y-112699704D01*
X129716353Y-112711091D01*
X129726677Y-112727937D01*
X129737572Y-112749320D01*
X129761546Y-112773294D01*
X130681471Y-113693218D01*
X130681472Y-113693220D01*
X130776780Y-113788528D01*
X130798159Y-113799421D01*
X130815012Y-113809749D01*
X130822928Y-113815500D01*
X130834419Y-113823849D01*
X130843850Y-113826913D01*
X130843851Y-113826914D01*
X130857237Y-113831264D01*
X130875498Y-113838828D01*
X130888036Y-113845216D01*
X130896874Y-113849719D01*
X130920571Y-113853472D01*
X130939790Y-113858086D01*
X130962607Y-113865500D01*
X185245321Y-113865500D01*
X185313442Y-113885502D01*
X185322025Y-113891538D01*
X185410603Y-113959506D01*
X185410606Y-113959508D01*
X185417159Y-113964536D01*
X185563238Y-114025044D01*
X185720000Y-114045682D01*
X185728188Y-114044604D01*
X185868574Y-114026122D01*
X185876762Y-114025044D01*
X186022841Y-113964536D01*
X186148282Y-113868282D01*
X186244536Y-113742841D01*
X186305044Y-113596762D01*
X186325682Y-113440000D01*
X186305044Y-113283238D01*
X186244536Y-113137159D01*
X186148282Y-113011718D01*
X186022841Y-112915464D01*
X185876762Y-112854956D01*
X185720000Y-112834318D01*
X185563238Y-112854956D01*
X185417159Y-112915464D01*
X185410608Y-112920491D01*
X185410603Y-112920494D01*
X185322025Y-112988462D01*
X185255805Y-113014063D01*
X185245321Y-113014500D01*
X182331438Y-113014500D01*
X182263317Y-112994498D01*
X182216824Y-112940842D01*
X182206720Y-112870568D01*
X182236214Y-112805988D01*
X182242343Y-112799405D01*
X185369343Y-109672405D01*
X185431655Y-109638379D01*
X185458438Y-109635500D01*
X187023768Y-109635500D01*
X187091889Y-109655502D01*
X187138382Y-109709158D01*
X187148486Y-109779432D01*
X187122718Y-109839506D01*
X187100915Y-109867163D01*
X187098224Y-109872279D01*
X187098222Y-109872281D01*
X187007697Y-110044341D01*
X187003472Y-110052372D01*
X186941412Y-110252237D01*
X186916814Y-110460065D01*
X186930501Y-110668895D01*
X186931922Y-110674491D01*
X186931923Y-110674496D01*
X186971695Y-110831095D01*
X186982016Y-110871734D01*
X187069632Y-111061789D01*
X187072965Y-111066505D01*
X187166628Y-111199035D01*
X187190416Y-111232695D01*
X187340323Y-111378727D01*
X187514332Y-111494996D01*
X187519635Y-111497274D01*
X187519638Y-111497276D01*
X187679117Y-111565793D01*
X187706615Y-111577607D01*
X187796649Y-111597980D01*
X187905097Y-111622520D01*
X187905100Y-111622520D01*
X187910733Y-111623795D01*
X187916504Y-111624022D01*
X187916506Y-111624022D01*
X187975153Y-111626326D01*
X188119850Y-111632011D01*
X188245221Y-111613833D01*
X188321241Y-111602811D01*
X188321245Y-111602810D01*
X188326963Y-111601981D01*
X188332435Y-111600123D01*
X188332437Y-111600123D01*
X188519671Y-111536565D01*
X188519673Y-111536564D01*
X188525135Y-111534710D01*
X188707730Y-111432453D01*
X188723811Y-111419079D01*
X188842940Y-111320000D01*
X188868632Y-111298632D01*
X189002453Y-111137730D01*
X189104710Y-110955135D01*
X189131242Y-110876977D01*
X189170123Y-110762437D01*
X189170123Y-110762435D01*
X189171981Y-110756963D01*
X189176461Y-110726069D01*
X189201478Y-110553524D01*
X189202011Y-110549850D01*
X189203578Y-110490000D01*
X189184429Y-110281599D01*
X189137491Y-110115171D01*
X189129190Y-110085737D01*
X189129189Y-110085735D01*
X189127622Y-110080178D01*
X189112413Y-110049336D01*
X189037616Y-109897663D01*
X189035061Y-109892482D01*
X189031606Y-109887855D01*
X188993548Y-109836889D01*
X188968816Y-109770339D01*
X188983991Y-109700983D01*
X189034253Y-109650840D01*
X189094506Y-109635500D01*
X189417393Y-109635500D01*
X189440210Y-109628086D01*
X189459429Y-109623472D01*
X189483126Y-109619719D01*
X189491964Y-109615216D01*
X189504502Y-109608828D01*
X189522763Y-109601264D01*
X189536152Y-109596913D01*
X189536153Y-109596912D01*
X189545581Y-109593849D01*
X189553600Y-109588023D01*
X189555639Y-109586984D01*
X189625415Y-109573879D01*
X189691200Y-109600579D01*
X189732107Y-109658606D01*
X189735148Y-109729537D01*
X189711792Y-109777256D01*
X189640915Y-109867163D01*
X189638224Y-109872279D01*
X189638222Y-109872281D01*
X189547697Y-110044341D01*
X189543472Y-110052372D01*
X189481412Y-110252237D01*
X189456814Y-110460065D01*
X189470501Y-110668895D01*
X189471922Y-110674491D01*
X189471923Y-110674496D01*
X189511695Y-110831095D01*
X189522016Y-110871734D01*
X189609632Y-111061789D01*
X189612965Y-111066505D01*
X189706628Y-111199035D01*
X189730416Y-111232695D01*
X189880323Y-111378727D01*
X190054332Y-111494996D01*
X190059635Y-111497274D01*
X190059640Y-111497277D01*
X190108237Y-111518155D01*
X190162930Y-111563423D01*
X190184500Y-111633923D01*
X190184500Y-112227393D01*
X190191914Y-112250210D01*
X190196528Y-112269429D01*
X190200281Y-112293126D01*
X190204784Y-112301963D01*
X190204784Y-112301964D01*
X190211172Y-112314502D01*
X190218736Y-112332763D01*
X190223085Y-112346147D01*
X190223087Y-112346150D01*
X190226151Y-112355581D01*
X190231980Y-112363604D01*
X190240253Y-112374991D01*
X190250577Y-112391837D01*
X190261472Y-112413220D01*
X191586780Y-113738528D01*
X191608156Y-113749419D01*
X191625008Y-113759747D01*
X191644419Y-113773850D01*
X191667237Y-113781264D01*
X191685498Y-113788827D01*
X191706874Y-113799719D01*
X191716665Y-113801270D01*
X191716672Y-113801272D01*
X191730569Y-113803473D01*
X191749788Y-113808087D01*
X191763173Y-113812436D01*
X191763180Y-113812437D01*
X191772607Y-113815500D01*
X194027393Y-113815500D01*
X194050210Y-113808086D01*
X194069429Y-113803472D01*
X194093126Y-113799719D01*
X194101964Y-113795216D01*
X194114502Y-113788828D01*
X194132763Y-113781264D01*
X194146147Y-113776915D01*
X194146150Y-113776913D01*
X194155581Y-113773849D01*
X194174991Y-113759747D01*
X194191837Y-113749423D01*
X194213220Y-113738528D01*
X196148528Y-111803220D01*
X196159423Y-111781837D01*
X196169747Y-111764991D01*
X196172426Y-111761303D01*
X196183849Y-111745581D01*
X196186913Y-111736150D01*
X196186915Y-111736147D01*
X196191264Y-111722763D01*
X196198828Y-111704502D01*
X196205216Y-111691964D01*
X196205216Y-111691963D01*
X196209719Y-111683126D01*
X196213472Y-111659429D01*
X196218086Y-111640210D01*
X196225500Y-111617393D01*
X196225500Y-104942607D01*
X196218086Y-104919790D01*
X196213472Y-104900570D01*
X196213293Y-104899438D01*
X196209719Y-104876874D01*
X196198828Y-104855498D01*
X196191264Y-104837237D01*
X196186915Y-104823853D01*
X196186913Y-104823850D01*
X196183849Y-104814419D01*
X196169747Y-104795009D01*
X196159423Y-104778163D01*
X196148528Y-104756780D01*
X189782405Y-98390657D01*
X189748379Y-98328345D01*
X189745500Y-98301562D01*
X189745500Y-92786522D01*
X193277273Y-92786522D01*
X193324764Y-92963761D01*
X193328510Y-92974053D01*
X193420586Y-93171511D01*
X193426069Y-93181007D01*
X193551028Y-93359467D01*
X193558084Y-93367875D01*
X193712125Y-93521916D01*
X193720533Y-93528972D01*
X193898993Y-93653931D01*
X193908489Y-93659414D01*
X194105947Y-93751490D01*
X194116239Y-93755236D01*
X194288503Y-93801394D01*
X194302599Y-93801058D01*
X194306000Y-93793116D01*
X194306000Y-93787967D01*
X194814000Y-93787967D01*
X194817973Y-93801498D01*
X194826522Y-93802727D01*
X195003761Y-93755236D01*
X195014053Y-93751490D01*
X195211511Y-93659414D01*
X195221007Y-93653931D01*
X195399467Y-93528972D01*
X195407875Y-93521916D01*
X195561916Y-93367875D01*
X195568972Y-93359467D01*
X195693931Y-93181007D01*
X195699414Y-93171511D01*
X195791490Y-92974053D01*
X195795236Y-92963761D01*
X195841394Y-92791497D01*
X195841058Y-92777401D01*
X195833116Y-92774000D01*
X194832115Y-92774000D01*
X194816876Y-92778475D01*
X194815671Y-92779865D01*
X194814000Y-92787548D01*
X194814000Y-93787967D01*
X194306000Y-93787967D01*
X194306000Y-92792115D01*
X194301525Y-92776876D01*
X194300135Y-92775671D01*
X194292452Y-92774000D01*
X193292033Y-92774000D01*
X193278502Y-92777973D01*
X193277273Y-92786522D01*
X189745500Y-92786522D01*
X189745500Y-90246522D01*
X193277273Y-90246522D01*
X193324764Y-90423761D01*
X193328510Y-90434053D01*
X193420586Y-90631511D01*
X193426069Y-90641007D01*
X193551028Y-90819467D01*
X193558084Y-90827875D01*
X193712125Y-90981916D01*
X193720533Y-90988972D01*
X193898993Y-91113931D01*
X193908489Y-91119414D01*
X193943641Y-91135805D01*
X193996926Y-91182722D01*
X194016387Y-91250999D01*
X193995845Y-91318959D01*
X193943641Y-91364195D01*
X193908489Y-91380586D01*
X193898993Y-91386069D01*
X193720533Y-91511028D01*
X193712125Y-91518084D01*
X193558084Y-91672125D01*
X193551028Y-91680533D01*
X193426069Y-91858993D01*
X193420586Y-91868489D01*
X193328510Y-92065947D01*
X193324764Y-92076239D01*
X193278606Y-92248503D01*
X193278942Y-92262599D01*
X193286884Y-92266000D01*
X194287885Y-92266000D01*
X194303124Y-92261525D01*
X194304329Y-92260135D01*
X194306000Y-92252452D01*
X194306000Y-92247885D01*
X194814000Y-92247885D01*
X194818475Y-92263124D01*
X194819865Y-92264329D01*
X194827548Y-92266000D01*
X195827967Y-92266000D01*
X195841498Y-92262027D01*
X195842727Y-92253478D01*
X195795236Y-92076239D01*
X195791490Y-92065947D01*
X195699414Y-91868489D01*
X195693931Y-91858993D01*
X195568972Y-91680533D01*
X195561916Y-91672125D01*
X195407875Y-91518084D01*
X195399467Y-91511028D01*
X195221007Y-91386069D01*
X195211511Y-91380586D01*
X195176359Y-91364195D01*
X195123074Y-91317278D01*
X195103613Y-91249001D01*
X195124155Y-91181041D01*
X195176359Y-91135805D01*
X195211511Y-91119414D01*
X195221007Y-91113931D01*
X195399467Y-90988972D01*
X195407875Y-90981916D01*
X195561916Y-90827875D01*
X195568972Y-90819467D01*
X195693931Y-90641007D01*
X195699414Y-90631511D01*
X195791490Y-90434053D01*
X195795236Y-90423761D01*
X195841394Y-90251497D01*
X195841058Y-90237401D01*
X195833116Y-90234000D01*
X194832115Y-90234000D01*
X194816876Y-90238475D01*
X194815671Y-90239865D01*
X194814000Y-90247548D01*
X194814000Y-92247885D01*
X194306000Y-92247885D01*
X194306000Y-90252115D01*
X194301525Y-90236876D01*
X194300135Y-90235671D01*
X194292452Y-90234000D01*
X193292033Y-90234000D01*
X193278502Y-90237973D01*
X193277273Y-90246522D01*
X189745500Y-90246522D01*
X189745500Y-87706522D01*
X193277273Y-87706522D01*
X193324764Y-87883761D01*
X193328510Y-87894053D01*
X193420586Y-88091511D01*
X193426069Y-88101007D01*
X193551028Y-88279467D01*
X193558084Y-88287875D01*
X193712125Y-88441916D01*
X193720533Y-88448972D01*
X193898993Y-88573931D01*
X193908489Y-88579414D01*
X193943641Y-88595805D01*
X193996926Y-88642722D01*
X194016387Y-88710999D01*
X193995845Y-88778959D01*
X193943641Y-88824195D01*
X193908489Y-88840586D01*
X193898993Y-88846069D01*
X193720533Y-88971028D01*
X193712125Y-88978084D01*
X193558084Y-89132125D01*
X193551028Y-89140533D01*
X193426069Y-89318993D01*
X193420586Y-89328489D01*
X193328510Y-89525947D01*
X193324764Y-89536239D01*
X193278606Y-89708503D01*
X193278942Y-89722599D01*
X193286884Y-89726000D01*
X194287885Y-89726000D01*
X194303124Y-89721525D01*
X194304329Y-89720135D01*
X194306000Y-89712452D01*
X194306000Y-89707885D01*
X194814000Y-89707885D01*
X194818475Y-89723124D01*
X194819865Y-89724329D01*
X194827548Y-89726000D01*
X195827967Y-89726000D01*
X195841498Y-89722027D01*
X195842727Y-89713478D01*
X195795236Y-89536239D01*
X195791490Y-89525947D01*
X195699414Y-89328489D01*
X195693931Y-89318993D01*
X195568972Y-89140533D01*
X195561916Y-89132125D01*
X195407875Y-88978084D01*
X195399467Y-88971028D01*
X195221007Y-88846069D01*
X195211511Y-88840586D01*
X195176359Y-88824195D01*
X195123074Y-88777278D01*
X195103613Y-88709001D01*
X195124155Y-88641041D01*
X195176359Y-88595805D01*
X195211511Y-88579414D01*
X195221007Y-88573931D01*
X195399467Y-88448972D01*
X195407875Y-88441916D01*
X195561916Y-88287875D01*
X195568972Y-88279467D01*
X195693931Y-88101007D01*
X195699414Y-88091511D01*
X195791490Y-87894053D01*
X195795236Y-87883761D01*
X195841394Y-87711497D01*
X195841058Y-87697401D01*
X195833116Y-87694000D01*
X194832115Y-87694000D01*
X194816876Y-87698475D01*
X194815671Y-87699865D01*
X194814000Y-87707548D01*
X194814000Y-89707885D01*
X194306000Y-89707885D01*
X194306000Y-87712115D01*
X194301525Y-87696876D01*
X194300135Y-87695671D01*
X194292452Y-87694000D01*
X193292033Y-87694000D01*
X193278502Y-87697973D01*
X193277273Y-87706522D01*
X189745500Y-87706522D01*
X189745500Y-87168503D01*
X193278606Y-87168503D01*
X193278942Y-87182599D01*
X193286884Y-87186000D01*
X194287885Y-87186000D01*
X194303124Y-87181525D01*
X194304329Y-87180135D01*
X194306000Y-87172452D01*
X194306000Y-87167885D01*
X194814000Y-87167885D01*
X194818475Y-87183124D01*
X194819865Y-87184329D01*
X194827548Y-87186000D01*
X195827967Y-87186000D01*
X195841498Y-87182027D01*
X195842727Y-87173478D01*
X195795236Y-86996239D01*
X195791490Y-86985947D01*
X195699414Y-86788489D01*
X195693931Y-86778993D01*
X195568972Y-86600533D01*
X195561916Y-86592125D01*
X195407875Y-86438084D01*
X195399467Y-86431028D01*
X195221007Y-86306069D01*
X195211511Y-86300586D01*
X195014053Y-86208510D01*
X195003761Y-86204764D01*
X194831497Y-86158606D01*
X194817401Y-86158942D01*
X194814000Y-86166884D01*
X194814000Y-87167885D01*
X194306000Y-87167885D01*
X194306000Y-86172033D01*
X194302027Y-86158502D01*
X194293478Y-86157273D01*
X194116239Y-86204764D01*
X194105947Y-86208510D01*
X193908489Y-86300586D01*
X193898993Y-86306069D01*
X193720533Y-86431028D01*
X193712125Y-86438084D01*
X193558084Y-86592125D01*
X193551028Y-86600533D01*
X193426069Y-86778993D01*
X193420586Y-86788489D01*
X193328510Y-86985947D01*
X193324764Y-86996239D01*
X193278606Y-87168503D01*
X189745500Y-87168503D01*
X189745500Y-86122607D01*
X189738086Y-86099790D01*
X189733472Y-86080570D01*
X189731270Y-86066668D01*
X189729719Y-86056874D01*
X189718828Y-86035498D01*
X189711264Y-86017237D01*
X189706914Y-86003851D01*
X189706913Y-86003850D01*
X189703849Y-85994419D01*
X189694690Y-85981812D01*
X189689749Y-85975012D01*
X189679421Y-85958159D01*
X189668528Y-85936780D01*
X189573220Y-85841472D01*
X189573218Y-85841471D01*
X188149793Y-84418045D01*
X188125819Y-84394071D01*
X188104436Y-84383176D01*
X188087590Y-84372852D01*
X188076203Y-84364579D01*
X188068180Y-84358750D01*
X188058749Y-84355686D01*
X188058746Y-84355684D01*
X188045362Y-84351335D01*
X188027101Y-84343771D01*
X188014563Y-84337383D01*
X188014562Y-84337383D01*
X188005725Y-84332880D01*
X187982028Y-84329127D01*
X187962809Y-84324513D01*
X187939992Y-84317099D01*
X169560008Y-84317099D01*
X169550581Y-84320162D01*
X169550574Y-84320163D01*
X169537189Y-84324512D01*
X169517970Y-84329126D01*
X169504073Y-84331327D01*
X169504066Y-84331329D01*
X169494275Y-84332880D01*
X169472900Y-84343771D01*
X169454638Y-84351335D01*
X169431820Y-84358749D01*
X169423798Y-84364578D01*
X169423797Y-84364578D01*
X169412412Y-84372850D01*
X169395557Y-84383180D01*
X169374181Y-84394071D01*
X167201472Y-86566780D01*
X167190577Y-86588163D01*
X167180253Y-86605009D01*
X167166151Y-86624419D01*
X167163087Y-86633850D01*
X167163085Y-86633853D01*
X167158736Y-86647237D01*
X167151172Y-86665498D01*
X167146168Y-86675320D01*
X167140281Y-86686874D01*
X167137227Y-86706155D01*
X167136528Y-86710570D01*
X167131914Y-86729790D01*
X167124500Y-86752607D01*
X167124500Y-86810122D01*
X167104498Y-86878243D01*
X167050842Y-86924736D01*
X166980568Y-86934840D01*
X166918184Y-86907206D01*
X166876126Y-86872412D01*
X166876124Y-86872410D01*
X166871375Y-86868482D01*
X166690155Y-86770497D01*
X166599286Y-86742368D01*
X166540128Y-86703118D01*
X166511580Y-86638114D01*
X166522708Y-86567995D01*
X166571517Y-86515084D01*
X166572841Y-86514536D01*
X166698282Y-86418282D01*
X166794536Y-86292841D01*
X166855044Y-86146762D01*
X166875682Y-85990000D01*
X166860216Y-85872526D01*
X166856122Y-85841426D01*
X166855044Y-85833238D01*
X166794536Y-85687159D01*
X166698282Y-85561718D01*
X166572841Y-85465464D01*
X166426762Y-85404956D01*
X166379964Y-85398795D01*
X166307874Y-85389304D01*
X166242946Y-85360582D01*
X166235224Y-85353477D01*
X165357194Y-84475446D01*
X165333220Y-84451472D01*
X165311837Y-84440577D01*
X165294991Y-84430253D01*
X165283604Y-84421980D01*
X165275581Y-84416151D01*
X165266150Y-84413087D01*
X165266147Y-84413085D01*
X165252763Y-84408736D01*
X165234502Y-84401172D01*
X165221964Y-84394784D01*
X165221963Y-84394784D01*
X165213126Y-84390281D01*
X165189429Y-84386528D01*
X165170210Y-84381914D01*
X165147393Y-84374500D01*
X125462607Y-84374500D01*
X125439790Y-84381914D01*
X125420571Y-84386528D01*
X125396874Y-84390281D01*
X125388037Y-84394784D01*
X125388036Y-84394784D01*
X125375498Y-84401172D01*
X125357237Y-84408736D01*
X125343853Y-84413085D01*
X125343850Y-84413087D01*
X125334419Y-84416151D01*
X125326396Y-84421980D01*
X125315009Y-84430253D01*
X125298163Y-84440577D01*
X125276780Y-84451472D01*
X124051472Y-85676780D01*
X124040577Y-85698163D01*
X124030253Y-85715009D01*
X124016151Y-85734419D01*
X124013087Y-85743850D01*
X124013085Y-85743853D01*
X124008736Y-85757237D01*
X124001172Y-85775498D01*
X123990281Y-85796874D01*
X123988730Y-85806668D01*
X123986528Y-85820570D01*
X123981914Y-85839790D01*
X123974500Y-85862607D01*
X123974500Y-86834940D01*
X123954498Y-86903061D01*
X123900842Y-86949554D01*
X123830568Y-86959658D01*
X123768187Y-86932026D01*
X123691375Y-86868482D01*
X123510155Y-86770497D01*
X123313354Y-86709577D01*
X123307229Y-86708933D01*
X123307228Y-86708933D01*
X123114598Y-86688687D01*
X123114596Y-86688687D01*
X123108469Y-86688043D01*
X123021629Y-86695946D01*
X122909442Y-86706155D01*
X122909439Y-86706156D01*
X122903303Y-86706714D01*
X122705672Y-86764880D01*
X122700207Y-86767737D01*
X122671456Y-86782768D01*
X122523102Y-86860326D01*
X122518301Y-86864186D01*
X122518298Y-86864188D01*
X122379488Y-86975794D01*
X122362547Y-86989415D01*
X122230124Y-87147230D01*
X122227156Y-87152628D01*
X122227153Y-87152633D01*
X122208810Y-87186000D01*
X122130876Y-87327762D01*
X122068584Y-87524132D01*
X122067898Y-87530249D01*
X122067897Y-87530253D01*
X122066276Y-87544704D01*
X122050600Y-87684464D01*
X122050600Y-89295441D01*
X121611600Y-89295441D01*
X121611600Y-87691759D01*
X121596580Y-87538570D01*
X121537035Y-87341349D01*
X121440318Y-87159449D01*
X121330547Y-87024857D01*
X121314006Y-87004575D01*
X121314003Y-87004572D01*
X121310111Y-86999800D01*
X121291851Y-86984694D01*
X121156125Y-86872411D01*
X121156121Y-86872408D01*
X121151375Y-86868482D01*
X120970155Y-86770497D01*
X120773354Y-86709577D01*
X120767229Y-86708933D01*
X120767228Y-86708933D01*
X120574598Y-86688687D01*
X120574596Y-86688687D01*
X120568469Y-86688043D01*
X120481629Y-86695946D01*
X120369442Y-86706155D01*
X120369439Y-86706156D01*
X120363303Y-86706714D01*
X120165672Y-86764880D01*
X120160207Y-86767737D01*
X120131456Y-86782768D01*
X119983102Y-86860326D01*
X119978301Y-86864186D01*
X119978298Y-86864188D01*
X119839488Y-86975794D01*
X119822547Y-86989415D01*
X119690124Y-87147230D01*
X119687156Y-87152628D01*
X119687153Y-87152633D01*
X119668810Y-87186000D01*
X119590876Y-87327762D01*
X119528584Y-87524132D01*
X119527898Y-87530249D01*
X119527897Y-87530253D01*
X119526276Y-87544704D01*
X119510600Y-87684464D01*
X119510600Y-89295441D01*
X119071600Y-89295441D01*
X119071600Y-87691759D01*
X119056580Y-87538570D01*
X118997035Y-87341349D01*
X118900318Y-87159449D01*
X118790547Y-87024857D01*
X118774006Y-87004575D01*
X118774003Y-87004572D01*
X118770111Y-86999800D01*
X118751851Y-86984694D01*
X118616125Y-86872411D01*
X118616121Y-86872408D01*
X118611375Y-86868482D01*
X118430155Y-86770497D01*
X118233354Y-86709577D01*
X118227229Y-86708933D01*
X118227228Y-86708933D01*
X118034598Y-86688687D01*
X118034596Y-86688687D01*
X118028469Y-86688043D01*
X117941629Y-86695946D01*
X117829442Y-86706155D01*
X117829439Y-86706156D01*
X117823303Y-86706714D01*
X117625672Y-86764880D01*
X117620207Y-86767737D01*
X117591456Y-86782768D01*
X117443102Y-86860326D01*
X117438301Y-86864186D01*
X117438298Y-86864188D01*
X117299488Y-86975794D01*
X117282547Y-86989415D01*
X117150124Y-87147230D01*
X117147156Y-87152628D01*
X117147153Y-87152633D01*
X117128810Y-87186000D01*
X117050876Y-87327762D01*
X116988584Y-87524132D01*
X116987898Y-87530249D01*
X116987897Y-87530253D01*
X116986276Y-87544704D01*
X116970600Y-87684464D01*
X116970600Y-89295441D01*
X107615000Y-89295441D01*
X107615000Y-84746271D01*
X107616914Y-84724392D01*
X107617714Y-84719855D01*
X107619628Y-84709000D01*
X107617714Y-84698144D01*
X107617714Y-84687122D01*
X107618514Y-84687122D01*
X107617980Y-84674935D01*
X107628775Y-84551542D01*
X107632590Y-84529911D01*
X107670646Y-84387887D01*
X107678157Y-84367249D01*
X107740297Y-84233990D01*
X107751279Y-84214969D01*
X107835617Y-84094522D01*
X107849735Y-84077698D01*
X107953698Y-83973735D01*
X107970522Y-83959617D01*
X108090969Y-83875279D01*
X108109990Y-83864297D01*
X108243249Y-83802157D01*
X108263887Y-83794646D01*
X108405911Y-83756590D01*
X108427538Y-83752776D01*
X108550938Y-83741980D01*
X108563122Y-83742514D01*
X108563122Y-83741714D01*
X108574144Y-83741714D01*
X108585000Y-83743628D01*
X108600392Y-83740914D01*
X108622271Y-83739000D01*
X196930729Y-83739000D01*
X196952608Y-83740914D01*
G37*
G04 #@! TD.AperFunction*
G04 #@! TA.AperFunction,Conductor*
G36*
X178008325Y-85188101D02*
G01*
X178054818Y-85241757D01*
X178064922Y-85312031D01*
X178035428Y-85376611D01*
X178003831Y-85402700D01*
X177997159Y-85405464D01*
X177871718Y-85501718D01*
X177775464Y-85627159D01*
X177714956Y-85773238D01*
X177694318Y-85930000D01*
X177714956Y-86086762D01*
X177775464Y-86232841D01*
X177826530Y-86299392D01*
X177858842Y-86341501D01*
X177871718Y-86358282D01*
X177997159Y-86454536D01*
X178143238Y-86515044D01*
X178151426Y-86516122D01*
X178159402Y-86518259D01*
X178158737Y-86520740D01*
X178211901Y-86544265D01*
X178219614Y-86551362D01*
X181996780Y-90328528D01*
X182018154Y-90339418D01*
X182035006Y-90349744D01*
X182054420Y-90363850D01*
X182063849Y-90366914D01*
X182063850Y-90366914D01*
X182077235Y-90371263D01*
X182095501Y-90378829D01*
X182116874Y-90389719D01*
X182126666Y-90391270D01*
X182126669Y-90391271D01*
X182140569Y-90393473D01*
X182159788Y-90398087D01*
X182173173Y-90402436D01*
X182173180Y-90402437D01*
X182182607Y-90405500D01*
X185843600Y-90405500D01*
X185911721Y-90425502D01*
X185958026Y-90478748D01*
X185982856Y-90532607D01*
X185986189Y-90537323D01*
X186082244Y-90673238D01*
X186099588Y-90697780D01*
X186244466Y-90838913D01*
X186412637Y-90951282D01*
X186417940Y-90953560D01*
X186417943Y-90953562D01*
X186506291Y-90991519D01*
X186598470Y-91031122D01*
X186795740Y-91075760D01*
X186801509Y-91075987D01*
X186801512Y-91075987D01*
X186877683Y-91078979D01*
X186997842Y-91083700D01*
X187084132Y-91071189D01*
X187192286Y-91055508D01*
X187192291Y-91055507D01*
X187198007Y-91054678D01*
X187203479Y-91052820D01*
X187203481Y-91052820D01*
X187384067Y-90991519D01*
X187384069Y-90991518D01*
X187389531Y-90989664D01*
X187566001Y-90890837D01*
X187628433Y-90838913D01*
X187717073Y-90765191D01*
X187721505Y-90761505D01*
X187827135Y-90634500D01*
X187847146Y-90610439D01*
X187850837Y-90606001D01*
X187949664Y-90429531D01*
X187953102Y-90419405D01*
X188012820Y-90243481D01*
X188012820Y-90243479D01*
X188014678Y-90238007D01*
X188015507Y-90232291D01*
X188015508Y-90232286D01*
X188038260Y-90075359D01*
X188043700Y-90037842D01*
X188045215Y-89980000D01*
X188026708Y-89778591D01*
X187971807Y-89583926D01*
X187882351Y-89402527D01*
X187871630Y-89388169D01*
X187764788Y-89245091D01*
X187764787Y-89245090D01*
X187761335Y-89240467D01*
X187738350Y-89219220D01*
X187617053Y-89107094D01*
X187617051Y-89107092D01*
X187612812Y-89103174D01*
X187585374Y-89085862D01*
X187446637Y-88998325D01*
X187441757Y-88995246D01*
X187253898Y-88920298D01*
X187055526Y-88880839D01*
X187049752Y-88880763D01*
X187049748Y-88880763D01*
X186947257Y-88879422D01*
X186853286Y-88878192D01*
X186847589Y-88879171D01*
X186847588Y-88879171D01*
X186659646Y-88911465D01*
X186659645Y-88911465D01*
X186653949Y-88912444D01*
X186464193Y-88982449D01*
X186290371Y-89085862D01*
X186138305Y-89219220D01*
X186013089Y-89378057D01*
X186000215Y-89402527D01*
X185955682Y-89487168D01*
X185906262Y-89538141D01*
X185844174Y-89554500D01*
X182478438Y-89554500D01*
X182410317Y-89534498D01*
X182389343Y-89517595D01*
X181156394Y-88284646D01*
X185839500Y-88284646D01*
X185842618Y-88310846D01*
X185888061Y-88413153D01*
X185896294Y-88421372D01*
X185896295Y-88421373D01*
X185927835Y-88452858D01*
X185967287Y-88492241D01*
X185977924Y-88496944D01*
X185977926Y-88496945D01*
X186037462Y-88523265D01*
X186069673Y-88537506D01*
X186095354Y-88540500D01*
X187784646Y-88540500D01*
X187788350Y-88540059D01*
X187788353Y-88540059D01*
X187795746Y-88539179D01*
X187810846Y-88537382D01*
X187913153Y-88491939D01*
X187992241Y-88412713D01*
X188037506Y-88310327D01*
X188040500Y-88284646D01*
X188040500Y-86595354D01*
X188037382Y-86569154D01*
X188014242Y-86517057D01*
X187996663Y-86477482D01*
X187991939Y-86466847D01*
X187956058Y-86431028D01*
X187948321Y-86423305D01*
X187912713Y-86387759D01*
X187902076Y-86383056D01*
X187902074Y-86383055D01*
X187839746Y-86355500D01*
X187810327Y-86342494D01*
X187784646Y-86339500D01*
X186095354Y-86339500D01*
X186091650Y-86339941D01*
X186091647Y-86339941D01*
X186084254Y-86340821D01*
X186069154Y-86342618D01*
X186060514Y-86346456D01*
X186060513Y-86346456D01*
X186015957Y-86366247D01*
X185966847Y-86388061D01*
X185887759Y-86467287D01*
X185883056Y-86477924D01*
X185883055Y-86477926D01*
X185862160Y-86525189D01*
X185842494Y-86569673D01*
X185839500Y-86595354D01*
X185839500Y-88284646D01*
X181156394Y-88284646D01*
X178937528Y-86065780D01*
X178903502Y-86003468D01*
X178901701Y-85960239D01*
X178904604Y-85938188D01*
X178905682Y-85930000D01*
X178885044Y-85773238D01*
X178824536Y-85627159D01*
X178728282Y-85501718D01*
X178602841Y-85405464D01*
X178596390Y-85402792D01*
X178547803Y-85351836D01*
X178534366Y-85282122D01*
X178560753Y-85216211D01*
X178618585Y-85175029D01*
X178659796Y-85168099D01*
X187644161Y-85168099D01*
X187712282Y-85188101D01*
X187733256Y-85205004D01*
X188857595Y-86329342D01*
X188891620Y-86391654D01*
X188894500Y-86418437D01*
X188894500Y-98597393D01*
X188901914Y-98620210D01*
X188906528Y-98639429D01*
X188910281Y-98663126D01*
X188914784Y-98671963D01*
X188914784Y-98671964D01*
X188921172Y-98684502D01*
X188928736Y-98702763D01*
X188933085Y-98716147D01*
X188933087Y-98716150D01*
X188936151Y-98725581D01*
X188941980Y-98733604D01*
X188950253Y-98744991D01*
X188960577Y-98761837D01*
X188971472Y-98783220D01*
X195337595Y-105149343D01*
X195371621Y-105211655D01*
X195374500Y-105238438D01*
X195374500Y-105500310D01*
X195354498Y-105568431D01*
X195300842Y-105614924D01*
X195230568Y-105625028D01*
X195165988Y-105595534D01*
X195128667Y-105539247D01*
X195128456Y-105538598D01*
X195123849Y-105524419D01*
X195109747Y-105505009D01*
X195099423Y-105488163D01*
X195088528Y-105466780D01*
X192313220Y-102691472D01*
X192291837Y-102680577D01*
X192274991Y-102670253D01*
X192263604Y-102661980D01*
X192255581Y-102656151D01*
X192246150Y-102653087D01*
X192246147Y-102653085D01*
X192232763Y-102648736D01*
X192214502Y-102641172D01*
X192201964Y-102634784D01*
X192201963Y-102634784D01*
X192193126Y-102630281D01*
X192169429Y-102626528D01*
X192150210Y-102621914D01*
X192127393Y-102614500D01*
X185604679Y-102614500D01*
X185536558Y-102594498D01*
X185527975Y-102588462D01*
X185439397Y-102520494D01*
X185439392Y-102520491D01*
X185432841Y-102515464D01*
X185286762Y-102454956D01*
X185224196Y-102446719D01*
X185138188Y-102435396D01*
X185130000Y-102434318D01*
X185121812Y-102435396D01*
X185035805Y-102446719D01*
X184973238Y-102454956D01*
X184827159Y-102515464D01*
X184701718Y-102611718D01*
X184605464Y-102737159D01*
X184544956Y-102883238D01*
X184524318Y-103040000D01*
X184544956Y-103196762D01*
X184605464Y-103342841D01*
X184701718Y-103468282D01*
X184827159Y-103564536D01*
X184973238Y-103625044D01*
X185130000Y-103645682D01*
X185138188Y-103644604D01*
X185278574Y-103626122D01*
X185286762Y-103625044D01*
X185432841Y-103564536D01*
X185439394Y-103559508D01*
X185439397Y-103559506D01*
X185527975Y-103491538D01*
X185594195Y-103465937D01*
X185604679Y-103465500D01*
X191831562Y-103465500D01*
X191899683Y-103485502D01*
X191920657Y-103502405D01*
X192137657Y-103719405D01*
X192171683Y-103781717D01*
X192166618Y-103852532D01*
X192124071Y-103909368D01*
X192057551Y-103934179D01*
X192048562Y-103934500D01*
X183877307Y-103934500D01*
X183854490Y-103941914D01*
X183835271Y-103946528D01*
X183811574Y-103950281D01*
X183802737Y-103954784D01*
X183802736Y-103954784D01*
X183790198Y-103961172D01*
X183771937Y-103968736D01*
X183758551Y-103973086D01*
X183758550Y-103973087D01*
X183749119Y-103976151D01*
X183741099Y-103981978D01*
X183741097Y-103981979D01*
X183729712Y-103990251D01*
X183712859Y-104000579D01*
X183691480Y-104011472D01*
X183596172Y-104106780D01*
X183596171Y-104106782D01*
X179123471Y-108579482D01*
X179061159Y-108613508D01*
X178990344Y-108608443D01*
X178971287Y-108599454D01*
X178830201Y-108517834D01*
X178689518Y-108468981D01*
X178637491Y-108450914D01*
X178637489Y-108450914D01*
X178631826Y-108448947D01*
X178625891Y-108448086D01*
X178625889Y-108448086D01*
X178429944Y-108419675D01*
X178429941Y-108419675D01*
X178424004Y-108418814D01*
X178214233Y-108428523D01*
X178102500Y-108455451D01*
X178015915Y-108476318D01*
X178015913Y-108476319D01*
X178010082Y-108477724D01*
X178004624Y-108480206D01*
X178004620Y-108480207D01*
X177913165Y-108521789D01*
X177818919Y-108564640D01*
X177700500Y-108648641D01*
X177633366Y-108671739D01*
X177564401Y-108654875D01*
X177515502Y-108603403D01*
X177501600Y-108545871D01*
X177501600Y-107476207D01*
X177498537Y-107466780D01*
X177498536Y-107466773D01*
X177494187Y-107453388D01*
X177489573Y-107434169D01*
X177487372Y-107420272D01*
X177487370Y-107420265D01*
X177485819Y-107410474D01*
X177474927Y-107389098D01*
X177467364Y-107370837D01*
X177465454Y-107364959D01*
X177459950Y-107348019D01*
X177448516Y-107332281D01*
X177445849Y-107328611D01*
X177435517Y-107311752D01*
X177429131Y-107299218D01*
X177424628Y-107290380D01*
X176903505Y-106769257D01*
X176869479Y-106706945D01*
X176866600Y-106680162D01*
X176866600Y-105522907D01*
X176886602Y-105454786D01*
X176934224Y-105411246D01*
X177013633Y-105369731D01*
X177013632Y-105369731D01*
X177019098Y-105366874D01*
X177023899Y-105363014D01*
X177023902Y-105363012D01*
X177174846Y-105241650D01*
X177174847Y-105241650D01*
X177179653Y-105237785D01*
X177312076Y-105079970D01*
X177315044Y-105074572D01*
X177315047Y-105074567D01*
X177408357Y-104904835D01*
X177411324Y-104899438D01*
X177473616Y-104703068D01*
X177474574Y-104694532D01*
X177486363Y-104589426D01*
X177491600Y-104542736D01*
X177491600Y-102931759D01*
X177476580Y-102778570D01*
X177417035Y-102581349D01*
X177320318Y-102399449D01*
X177220990Y-102277661D01*
X177194006Y-102244575D01*
X177194003Y-102244572D01*
X177190111Y-102239800D01*
X177180053Y-102231479D01*
X177036125Y-102112411D01*
X177036121Y-102112409D01*
X177031375Y-102108482D01*
X176850155Y-102010497D01*
X176653354Y-101949577D01*
X176647229Y-101948933D01*
X176647228Y-101948933D01*
X176454598Y-101928687D01*
X176454596Y-101928687D01*
X176448469Y-101928043D01*
X176361629Y-101935946D01*
X176249442Y-101946155D01*
X176249439Y-101946156D01*
X176243303Y-101946714D01*
X176045672Y-102004880D01*
X175863102Y-102100326D01*
X175858301Y-102104186D01*
X175858298Y-102104188D01*
X175761868Y-102181720D01*
X175702547Y-102229415D01*
X175570124Y-102387230D01*
X175567156Y-102392628D01*
X175567153Y-102392633D01*
X175487323Y-102537845D01*
X175470876Y-102567762D01*
X175469013Y-102573635D01*
X175433061Y-102686972D01*
X175408584Y-102764132D01*
X175407898Y-102770249D01*
X175407897Y-102770253D01*
X175406276Y-102784704D01*
X175390600Y-102924464D01*
X175390600Y-104535441D01*
X175405620Y-104688630D01*
X175465165Y-104885851D01*
X175561882Y-105067751D01*
X175628427Y-105149343D01*
X175688194Y-105222625D01*
X175688197Y-105222628D01*
X175692089Y-105227400D01*
X175696836Y-105231327D01*
X175696838Y-105231329D01*
X175846076Y-105354790D01*
X175846079Y-105354792D01*
X175850825Y-105358718D01*
X175856244Y-105361648D01*
X175856247Y-105361650D01*
X175865909Y-105366874D01*
X175941350Y-105407664D01*
X175949528Y-105412086D01*
X175999937Y-105462080D01*
X176015600Y-105522922D01*
X176015600Y-106975993D01*
X176023014Y-106998810D01*
X176027628Y-107018029D01*
X176031381Y-107041726D01*
X176035884Y-107050563D01*
X176035884Y-107050564D01*
X176042272Y-107063102D01*
X176049836Y-107081363D01*
X176054185Y-107094747D01*
X176054187Y-107094750D01*
X176057251Y-107104181D01*
X176071353Y-107123591D01*
X176081677Y-107140437D01*
X176092572Y-107161820D01*
X176613695Y-107682943D01*
X176647721Y-107745255D01*
X176650600Y-107772038D01*
X176650600Y-108507871D01*
X176630598Y-108575992D01*
X176576942Y-108622485D01*
X176506668Y-108632589D01*
X176461505Y-108616935D01*
X176305189Y-108526505D01*
X176290201Y-108517834D01*
X176149518Y-108468981D01*
X176097491Y-108450914D01*
X176097489Y-108450914D01*
X176091826Y-108448947D01*
X176085891Y-108448086D01*
X176085889Y-108448086D01*
X175889944Y-108419675D01*
X175889941Y-108419675D01*
X175884004Y-108418814D01*
X175674233Y-108428523D01*
X175562500Y-108455451D01*
X175475915Y-108476318D01*
X175475913Y-108476319D01*
X175470082Y-108477724D01*
X175464624Y-108480206D01*
X175464620Y-108480207D01*
X175373165Y-108521789D01*
X175278919Y-108564640D01*
X175217168Y-108608443D01*
X175210641Y-108613073D01*
X175143507Y-108636171D01*
X175074542Y-108619307D01*
X175048646Y-108599398D01*
X171970229Y-105520981D01*
X171936203Y-105458669D01*
X171941268Y-105387854D01*
X171980372Y-105333689D01*
X172094846Y-105241650D01*
X172094847Y-105241650D01*
X172099653Y-105237785D01*
X172232076Y-105079970D01*
X172235044Y-105074572D01*
X172235047Y-105074567D01*
X172328357Y-104904835D01*
X172331324Y-104899438D01*
X172393616Y-104703068D01*
X172394574Y-104694532D01*
X172406363Y-104589426D01*
X172411600Y-104542736D01*
X172411600Y-104535441D01*
X172850600Y-104535441D01*
X172865620Y-104688630D01*
X172925165Y-104885851D01*
X173021882Y-105067751D01*
X173088427Y-105149343D01*
X173148194Y-105222625D01*
X173148197Y-105222628D01*
X173152089Y-105227400D01*
X173156836Y-105231327D01*
X173156838Y-105231329D01*
X173306075Y-105354789D01*
X173306079Y-105354791D01*
X173310825Y-105358718D01*
X173364711Y-105387854D01*
X173475600Y-105447811D01*
X173492045Y-105456703D01*
X173688846Y-105517623D01*
X173694971Y-105518267D01*
X173694972Y-105518267D01*
X173887602Y-105538513D01*
X173887604Y-105538513D01*
X173893731Y-105539157D01*
X173980571Y-105531254D01*
X174092758Y-105521045D01*
X174092761Y-105521044D01*
X174098897Y-105520486D01*
X174296528Y-105462320D01*
X174302223Y-105459343D01*
X174398341Y-105409093D01*
X174479098Y-105366874D01*
X174483899Y-105363014D01*
X174483902Y-105363012D01*
X174634846Y-105241650D01*
X174634847Y-105241650D01*
X174639653Y-105237785D01*
X174772076Y-105079970D01*
X174775044Y-105074572D01*
X174775047Y-105074567D01*
X174868357Y-104904835D01*
X174871324Y-104899438D01*
X174933616Y-104703068D01*
X174934574Y-104694532D01*
X174946363Y-104589426D01*
X174951600Y-104542736D01*
X174951600Y-102931759D01*
X174936580Y-102778570D01*
X174877035Y-102581349D01*
X174780318Y-102399449D01*
X174680990Y-102277661D01*
X174654006Y-102244575D01*
X174654003Y-102244572D01*
X174650111Y-102239800D01*
X174640053Y-102231479D01*
X174496125Y-102112411D01*
X174496121Y-102112409D01*
X174491375Y-102108482D01*
X174310155Y-102010497D01*
X174113354Y-101949577D01*
X174107229Y-101948933D01*
X174107228Y-101948933D01*
X173914598Y-101928687D01*
X173914596Y-101928687D01*
X173908469Y-101928043D01*
X173821629Y-101935946D01*
X173709442Y-101946155D01*
X173709439Y-101946156D01*
X173703303Y-101946714D01*
X173505672Y-102004880D01*
X173323102Y-102100326D01*
X173318301Y-102104186D01*
X173318298Y-102104188D01*
X173221868Y-102181720D01*
X173162547Y-102229415D01*
X173030124Y-102387230D01*
X173027156Y-102392628D01*
X173027153Y-102392633D01*
X172947323Y-102537845D01*
X172930876Y-102567762D01*
X172929013Y-102573635D01*
X172893061Y-102686972D01*
X172868584Y-102764132D01*
X172867898Y-102770249D01*
X172867897Y-102770253D01*
X172866276Y-102784704D01*
X172850600Y-102924464D01*
X172850600Y-104535441D01*
X172411600Y-104535441D01*
X172411600Y-102931759D01*
X172396580Y-102778570D01*
X172337035Y-102581349D01*
X172240318Y-102399449D01*
X172140990Y-102277661D01*
X172114006Y-102244575D01*
X172114003Y-102244572D01*
X172110111Y-102239800D01*
X172100053Y-102231479D01*
X171956125Y-102112411D01*
X171956121Y-102112409D01*
X171951375Y-102108482D01*
X171770155Y-102010497D01*
X171573354Y-101949577D01*
X171567229Y-101948933D01*
X171567228Y-101948933D01*
X171374598Y-101928687D01*
X171374596Y-101928687D01*
X171368469Y-101928043D01*
X171281629Y-101935946D01*
X171169442Y-101946155D01*
X171169439Y-101946156D01*
X171163303Y-101946714D01*
X170965672Y-102004880D01*
X170783102Y-102100326D01*
X170778301Y-102104186D01*
X170778298Y-102104188D01*
X170622547Y-102229415D01*
X170621331Y-102227903D01*
X170566611Y-102257052D01*
X170495851Y-102251257D01*
X170452005Y-102222757D01*
X169529843Y-101300595D01*
X169495817Y-101238283D01*
X169500882Y-101167468D01*
X169543429Y-101110632D01*
X169609949Y-101085821D01*
X169618938Y-101085500D01*
X174507393Y-101085500D01*
X174530210Y-101078086D01*
X174549429Y-101073472D01*
X174573126Y-101069719D01*
X174581964Y-101065216D01*
X174594502Y-101058828D01*
X174612763Y-101051264D01*
X174626147Y-101046915D01*
X174626150Y-101046913D01*
X174635581Y-101043849D01*
X174654991Y-101029747D01*
X174671837Y-101019423D01*
X174693220Y-101008528D01*
X178694628Y-97007120D01*
X178705519Y-96985744D01*
X178715849Y-96968889D01*
X178724121Y-96957504D01*
X178724121Y-96957503D01*
X178729950Y-96949481D01*
X178737364Y-96926663D01*
X178744927Y-96908402D01*
X178755819Y-96887026D01*
X178757370Y-96877235D01*
X178757372Y-96877228D01*
X178759573Y-96863331D01*
X178764187Y-96844112D01*
X178768536Y-96830727D01*
X178768537Y-96830720D01*
X178771600Y-96821293D01*
X178771600Y-96644448D01*
X178791602Y-96576327D01*
X178845450Y-96529747D01*
X178915622Y-96497842D01*
X178921081Y-96495360D01*
X179092360Y-96373863D01*
X179237575Y-96222169D01*
X179272387Y-96168255D01*
X179348233Y-96050791D01*
X179348234Y-96050788D01*
X179351485Y-96045754D01*
X179391063Y-95947549D01*
X179427739Y-95856545D01*
X179427740Y-95856542D01*
X179429981Y-95850981D01*
X179431129Y-95845100D01*
X179431131Y-95845095D01*
X179469362Y-95649324D01*
X179469362Y-95649321D01*
X179470230Y-95644878D01*
X179470500Y-95639357D01*
X179470500Y-94484531D01*
X179455561Y-94327954D01*
X179396447Y-94126451D01*
X179300295Y-93939761D01*
X179250205Y-93875993D01*
X179174282Y-93779338D01*
X179174278Y-93779333D01*
X179170576Y-93774621D01*
X179126602Y-93736462D01*
X179016502Y-93640921D01*
X179016497Y-93640917D01*
X179011971Y-93636990D01*
X178830201Y-93531834D01*
X178713423Y-93491282D01*
X178637491Y-93464914D01*
X178637489Y-93464914D01*
X178631826Y-93462947D01*
X178625891Y-93462086D01*
X178625889Y-93462086D01*
X178429944Y-93433675D01*
X178429941Y-93433675D01*
X178424004Y-93432814D01*
X178214233Y-93442523D01*
X178112890Y-93466947D01*
X178015915Y-93490318D01*
X178015913Y-93490319D01*
X178010082Y-93491724D01*
X178004624Y-93494206D01*
X178004620Y-93494207D01*
X177914716Y-93535084D01*
X177818919Y-93578640D01*
X177647640Y-93700137D01*
X177502425Y-93851831D01*
X177499174Y-93856866D01*
X177448694Y-93935046D01*
X177388515Y-94028246D01*
X177386273Y-94033809D01*
X177346621Y-94132199D01*
X177310019Y-94223019D01*
X177308871Y-94228900D01*
X177308869Y-94228905D01*
X177275628Y-94399124D01*
X177269770Y-94429122D01*
X177269500Y-94434643D01*
X177269500Y-95589469D01*
X177284439Y-95746046D01*
X177343553Y-95947549D01*
X177439705Y-96134239D01*
X177443409Y-96138954D01*
X177565718Y-96294662D01*
X177565722Y-96294667D01*
X177569424Y-96299379D01*
X177573954Y-96303310D01*
X177573955Y-96303311D01*
X177723498Y-96433079D01*
X177723503Y-96433083D01*
X177728029Y-96437010D01*
X177797117Y-96476978D01*
X177846064Y-96528401D01*
X177859440Y-96598126D01*
X177832996Y-96664015D01*
X177823116Y-96675136D01*
X174300657Y-100197595D01*
X174238345Y-100231621D01*
X174211562Y-100234500D01*
X171446138Y-100234500D01*
X171378017Y-100214498D01*
X171331524Y-100160842D01*
X171321420Y-100090568D01*
X171350914Y-100025988D01*
X171357043Y-100019405D01*
X174971923Y-96404525D01*
X175034235Y-96370499D01*
X175105050Y-96375564D01*
X175143596Y-96398453D01*
X175188029Y-96437010D01*
X175193215Y-96440010D01*
X175193219Y-96440013D01*
X175323644Y-96515465D01*
X175369799Y-96542166D01*
X175430728Y-96563324D01*
X175562509Y-96609086D01*
X175562511Y-96609086D01*
X175568174Y-96611053D01*
X175574109Y-96611914D01*
X175574111Y-96611914D01*
X175770056Y-96640325D01*
X175770059Y-96640325D01*
X175775996Y-96641186D01*
X175985767Y-96631477D01*
X176145865Y-96592893D01*
X176184085Y-96583682D01*
X176184087Y-96583681D01*
X176189918Y-96582276D01*
X176195376Y-96579794D01*
X176195380Y-96579793D01*
X176375626Y-96497840D01*
X176381081Y-96495360D01*
X176552360Y-96373863D01*
X176697575Y-96222169D01*
X176732387Y-96168255D01*
X176808233Y-96050791D01*
X176808234Y-96050788D01*
X176811485Y-96045754D01*
X176851063Y-95947549D01*
X176887739Y-95856545D01*
X176887740Y-95856542D01*
X176889981Y-95850981D01*
X176891129Y-95845100D01*
X176891131Y-95845095D01*
X176929362Y-95649324D01*
X176929362Y-95649321D01*
X176930230Y-95644878D01*
X176930500Y-95639357D01*
X176930500Y-94484531D01*
X176915561Y-94327954D01*
X176856447Y-94126451D01*
X176760295Y-93939761D01*
X176710205Y-93875993D01*
X176634282Y-93779338D01*
X176634278Y-93779333D01*
X176630576Y-93774621D01*
X176586602Y-93736462D01*
X176476502Y-93640921D01*
X176476497Y-93640917D01*
X176471971Y-93636990D01*
X176290201Y-93531834D01*
X176173423Y-93491282D01*
X176097491Y-93464914D01*
X176097489Y-93464914D01*
X176091826Y-93462947D01*
X176085891Y-93462086D01*
X176085889Y-93462086D01*
X175889944Y-93433675D01*
X175889941Y-93433675D01*
X175884004Y-93432814D01*
X175674233Y-93442523D01*
X175572890Y-93466947D01*
X175475915Y-93490318D01*
X175475913Y-93490319D01*
X175470082Y-93491724D01*
X175464624Y-93494206D01*
X175464620Y-93494207D01*
X175374716Y-93535084D01*
X175278919Y-93578640D01*
X175107640Y-93700137D01*
X174962425Y-93851831D01*
X174959174Y-93856866D01*
X174908694Y-93935046D01*
X174848515Y-94028246D01*
X174846273Y-94033809D01*
X174806621Y-94132199D01*
X174770019Y-94223019D01*
X174768871Y-94228900D01*
X174768869Y-94228905D01*
X174735628Y-94399124D01*
X174729770Y-94429122D01*
X174729500Y-94434643D01*
X174729500Y-95391262D01*
X174709498Y-95459383D01*
X174692595Y-95480357D01*
X174605595Y-95567357D01*
X174543283Y-95601383D01*
X174472468Y-95596318D01*
X174415632Y-95553771D01*
X174390821Y-95487251D01*
X174390500Y-95478262D01*
X174390500Y-94484531D01*
X174375561Y-94327954D01*
X174316447Y-94126451D01*
X174220295Y-93939761D01*
X174170205Y-93875993D01*
X174094282Y-93779338D01*
X174094278Y-93779333D01*
X174090576Y-93774621D01*
X174046602Y-93736462D01*
X173936502Y-93640921D01*
X173936497Y-93640917D01*
X173931971Y-93636990D01*
X173750201Y-93531834D01*
X173633423Y-93491282D01*
X173557491Y-93464914D01*
X173557489Y-93464914D01*
X173551826Y-93462947D01*
X173545891Y-93462086D01*
X173545889Y-93462086D01*
X173349944Y-93433675D01*
X173349941Y-93433675D01*
X173344004Y-93432814D01*
X173134233Y-93442523D01*
X173032890Y-93466947D01*
X172935915Y-93490318D01*
X172935913Y-93490319D01*
X172930082Y-93491724D01*
X172924624Y-93494206D01*
X172924620Y-93494207D01*
X172834716Y-93535084D01*
X172738919Y-93578640D01*
X172567640Y-93700137D01*
X172422425Y-93851831D01*
X172419174Y-93856866D01*
X172368694Y-93935046D01*
X172308515Y-94028246D01*
X172306273Y-94033809D01*
X172266621Y-94132199D01*
X172230019Y-94223019D01*
X172228871Y-94228900D01*
X172228869Y-94228905D01*
X172195628Y-94399124D01*
X172189770Y-94429122D01*
X172189500Y-94434643D01*
X172189500Y-95391262D01*
X172169498Y-95459383D01*
X172152595Y-95480357D01*
X172065595Y-95567357D01*
X172003283Y-95601383D01*
X171932468Y-95596318D01*
X171875632Y-95553771D01*
X171850821Y-95487251D01*
X171850500Y-95478262D01*
X171850500Y-94484531D01*
X171835561Y-94327954D01*
X171776447Y-94126451D01*
X171680295Y-93939761D01*
X171630205Y-93875993D01*
X171554282Y-93779338D01*
X171554278Y-93779333D01*
X171550576Y-93774621D01*
X171506602Y-93736462D01*
X171396502Y-93640921D01*
X171396497Y-93640917D01*
X171391971Y-93636990D01*
X171210201Y-93531834D01*
X171093423Y-93491282D01*
X171017491Y-93464914D01*
X171017489Y-93464914D01*
X171011826Y-93462947D01*
X171005891Y-93462086D01*
X171005889Y-93462086D01*
X170809944Y-93433675D01*
X170809941Y-93433675D01*
X170804004Y-93432814D01*
X170594233Y-93442523D01*
X170492890Y-93466947D01*
X170395915Y-93490318D01*
X170395913Y-93490319D01*
X170390082Y-93491724D01*
X170384624Y-93494206D01*
X170384620Y-93494207D01*
X170294716Y-93535084D01*
X170198919Y-93578640D01*
X170027640Y-93700137D01*
X169882425Y-93851831D01*
X169879174Y-93856866D01*
X169828694Y-93935046D01*
X169768515Y-94028246D01*
X169766273Y-94033809D01*
X169726621Y-94132199D01*
X169690019Y-94223019D01*
X169688871Y-94228900D01*
X169688869Y-94228905D01*
X169655628Y-94399124D01*
X169649770Y-94429122D01*
X169649500Y-94434643D01*
X169649500Y-95391262D01*
X169629498Y-95459383D01*
X169612595Y-95480357D01*
X169525595Y-95567357D01*
X169463283Y-95601383D01*
X169392468Y-95596318D01*
X169335632Y-95553771D01*
X169310821Y-95487251D01*
X169310500Y-95478262D01*
X169310500Y-94484531D01*
X169295561Y-94327954D01*
X169236447Y-94126451D01*
X169140295Y-93939761D01*
X169090205Y-93875993D01*
X169014282Y-93779338D01*
X169014278Y-93779333D01*
X169010576Y-93774621D01*
X168966602Y-93736462D01*
X168856502Y-93640921D01*
X168856497Y-93640917D01*
X168851971Y-93636990D01*
X168670201Y-93531834D01*
X168553423Y-93491282D01*
X168477491Y-93464914D01*
X168477489Y-93464914D01*
X168471826Y-93462947D01*
X168465891Y-93462086D01*
X168465889Y-93462086D01*
X168269944Y-93433675D01*
X168269941Y-93433675D01*
X168264004Y-93432814D01*
X168054233Y-93442523D01*
X167952890Y-93466947D01*
X167855915Y-93490318D01*
X167855913Y-93490319D01*
X167850082Y-93491724D01*
X167844624Y-93494206D01*
X167844620Y-93494207D01*
X167754716Y-93535084D01*
X167658919Y-93578640D01*
X167487640Y-93700137D01*
X167342425Y-93851831D01*
X167339174Y-93856866D01*
X167288694Y-93935046D01*
X167228515Y-94028246D01*
X167226273Y-94033809D01*
X167186621Y-94132199D01*
X167150019Y-94223019D01*
X167148871Y-94228900D01*
X167148869Y-94228905D01*
X167115628Y-94399124D01*
X167109770Y-94429122D01*
X167109500Y-94434643D01*
X167109500Y-95391262D01*
X167089498Y-95459383D01*
X167072595Y-95480357D01*
X166985595Y-95567357D01*
X166923283Y-95601383D01*
X166852468Y-95596318D01*
X166795632Y-95553771D01*
X166770821Y-95487251D01*
X166770500Y-95478262D01*
X166770500Y-94484531D01*
X166755561Y-94327954D01*
X166696447Y-94126451D01*
X166600295Y-93939761D01*
X166550205Y-93875993D01*
X166474282Y-93779338D01*
X166474278Y-93779333D01*
X166470576Y-93774621D01*
X166426602Y-93736462D01*
X166316502Y-93640921D01*
X166316497Y-93640917D01*
X166311971Y-93636990D01*
X166130201Y-93531834D01*
X166013423Y-93491282D01*
X165937491Y-93464914D01*
X165937489Y-93464914D01*
X165931826Y-93462947D01*
X165925891Y-93462086D01*
X165925889Y-93462086D01*
X165729944Y-93433675D01*
X165729941Y-93433675D01*
X165724004Y-93432814D01*
X165514233Y-93442523D01*
X165412890Y-93466947D01*
X165315915Y-93490318D01*
X165315913Y-93490319D01*
X165310082Y-93491724D01*
X165304624Y-93494206D01*
X165304620Y-93494207D01*
X165214716Y-93535084D01*
X165118919Y-93578640D01*
X164947640Y-93700137D01*
X164802425Y-93851831D01*
X164799174Y-93856866D01*
X164748694Y-93935046D01*
X164688515Y-94028246D01*
X164686273Y-94033809D01*
X164646621Y-94132199D01*
X164610019Y-94223019D01*
X164608871Y-94228900D01*
X164608869Y-94228905D01*
X164575628Y-94399124D01*
X164569770Y-94429122D01*
X164569500Y-94434643D01*
X164569500Y-95391262D01*
X164549498Y-95459383D01*
X164532595Y-95480357D01*
X164445595Y-95567357D01*
X164383283Y-95601383D01*
X164312468Y-95596318D01*
X164255632Y-95553771D01*
X164230821Y-95487251D01*
X164230500Y-95478262D01*
X164230500Y-94484531D01*
X164215561Y-94327954D01*
X164156447Y-94126451D01*
X164060295Y-93939761D01*
X164010205Y-93875993D01*
X163934282Y-93779338D01*
X163934278Y-93779333D01*
X163930576Y-93774621D01*
X163886602Y-93736462D01*
X163776502Y-93640921D01*
X163776497Y-93640917D01*
X163771971Y-93636990D01*
X163590201Y-93531834D01*
X163473423Y-93491282D01*
X163397491Y-93464914D01*
X163397489Y-93464914D01*
X163391826Y-93462947D01*
X163385891Y-93462086D01*
X163385889Y-93462086D01*
X163189944Y-93433675D01*
X163189941Y-93433675D01*
X163184004Y-93432814D01*
X162974233Y-93442523D01*
X162872890Y-93466947D01*
X162775915Y-93490318D01*
X162775913Y-93490319D01*
X162770082Y-93491724D01*
X162764624Y-93494206D01*
X162764620Y-93494207D01*
X162674716Y-93535084D01*
X162578919Y-93578640D01*
X162407640Y-93700137D01*
X162262425Y-93851831D01*
X162259174Y-93856866D01*
X162208694Y-93935046D01*
X162148515Y-94028246D01*
X162146273Y-94033809D01*
X162106621Y-94132199D01*
X162070019Y-94223019D01*
X162068871Y-94228900D01*
X162068869Y-94228905D01*
X162035628Y-94399124D01*
X162029770Y-94429122D01*
X162029500Y-94434643D01*
X162029500Y-95391262D01*
X162009498Y-95459383D01*
X161992595Y-95480357D01*
X161905595Y-95567357D01*
X161843283Y-95601383D01*
X161772468Y-95596318D01*
X161715632Y-95553771D01*
X161690821Y-95487251D01*
X161690500Y-95478262D01*
X161690500Y-94484531D01*
X161675561Y-94327954D01*
X161616447Y-94126451D01*
X161520295Y-93939761D01*
X161470205Y-93875993D01*
X161394282Y-93779338D01*
X161394278Y-93779333D01*
X161390576Y-93774621D01*
X161346602Y-93736462D01*
X161236502Y-93640921D01*
X161236497Y-93640917D01*
X161231971Y-93636990D01*
X161050201Y-93531834D01*
X160933423Y-93491282D01*
X160857491Y-93464914D01*
X160857489Y-93464914D01*
X160851826Y-93462947D01*
X160845891Y-93462086D01*
X160845889Y-93462086D01*
X160649944Y-93433675D01*
X160649941Y-93433675D01*
X160644004Y-93432814D01*
X160434233Y-93442523D01*
X160332890Y-93466947D01*
X160235915Y-93490318D01*
X160235913Y-93490319D01*
X160230082Y-93491724D01*
X160224624Y-93494206D01*
X160224620Y-93494207D01*
X160134716Y-93535084D01*
X160038919Y-93578640D01*
X159867640Y-93700137D01*
X159722425Y-93851831D01*
X159719174Y-93856866D01*
X159668694Y-93935046D01*
X159608515Y-94028246D01*
X159606273Y-94033809D01*
X159566621Y-94132199D01*
X159530019Y-94223019D01*
X159528871Y-94228900D01*
X159528869Y-94228905D01*
X159495628Y-94399124D01*
X159489770Y-94429122D01*
X159489500Y-94434643D01*
X159489500Y-95589469D01*
X159504439Y-95746046D01*
X159563553Y-95947549D01*
X159659705Y-96134239D01*
X159663409Y-96138954D01*
X159785718Y-96294662D01*
X159785722Y-96294667D01*
X159789424Y-96299379D01*
X159793954Y-96303310D01*
X159793955Y-96303311D01*
X159943498Y-96433079D01*
X159943503Y-96433083D01*
X159948029Y-96437010D01*
X159994754Y-96464041D01*
X160043701Y-96515464D01*
X160057077Y-96585189D01*
X160030633Y-96651078D01*
X160020753Y-96662199D01*
X159515357Y-97167595D01*
X159453045Y-97201621D01*
X159426262Y-97204500D01*
X158446138Y-97204500D01*
X158378017Y-97184498D01*
X158331524Y-97130842D01*
X158321420Y-97060568D01*
X158350914Y-96995988D01*
X158357043Y-96989405D01*
X158374628Y-96971820D01*
X158385521Y-96950441D01*
X158395849Y-96933588D01*
X158404121Y-96922203D01*
X158404122Y-96922201D01*
X158409949Y-96914181D01*
X158413014Y-96904749D01*
X158417364Y-96891363D01*
X158424928Y-96873102D01*
X158431316Y-96860564D01*
X158431316Y-96860563D01*
X158435819Y-96851726D01*
X158439572Y-96828029D01*
X158444186Y-96808810D01*
X158451600Y-96785993D01*
X158451600Y-96644448D01*
X158471602Y-96576327D01*
X158525450Y-96529747D01*
X158595622Y-96497842D01*
X158601081Y-96495360D01*
X158772360Y-96373863D01*
X158917575Y-96222169D01*
X158952387Y-96168255D01*
X159028233Y-96050791D01*
X159028234Y-96050788D01*
X159031485Y-96045754D01*
X159071063Y-95947549D01*
X159107739Y-95856545D01*
X159107740Y-95856542D01*
X159109981Y-95850981D01*
X159111129Y-95845100D01*
X159111131Y-95845095D01*
X159149362Y-95649324D01*
X159149362Y-95649321D01*
X159150230Y-95644878D01*
X159150500Y-95639357D01*
X159150500Y-94484531D01*
X159135561Y-94327954D01*
X159076447Y-94126451D01*
X158980295Y-93939761D01*
X158930205Y-93875993D01*
X158854282Y-93779338D01*
X158854278Y-93779333D01*
X158850576Y-93774621D01*
X158806602Y-93736462D01*
X158696502Y-93640921D01*
X158696497Y-93640917D01*
X158691971Y-93636990D01*
X158510201Y-93531834D01*
X158393423Y-93491282D01*
X158317491Y-93464914D01*
X158317489Y-93464914D01*
X158311826Y-93462947D01*
X158305891Y-93462086D01*
X158305889Y-93462086D01*
X158109944Y-93433675D01*
X158109941Y-93433675D01*
X158104004Y-93432814D01*
X157894233Y-93442523D01*
X157792890Y-93466947D01*
X157695915Y-93490318D01*
X157695913Y-93490319D01*
X157690082Y-93491724D01*
X157684624Y-93494206D01*
X157684620Y-93494207D01*
X157594716Y-93535084D01*
X157498919Y-93578640D01*
X157327640Y-93700137D01*
X157182425Y-93851831D01*
X157179174Y-93856866D01*
X157128694Y-93935046D01*
X157068515Y-94028246D01*
X157066273Y-94033809D01*
X157004844Y-94186233D01*
X156960829Y-94241939D01*
X156893683Y-94265005D01*
X156824727Y-94248108D01*
X156775852Y-94196612D01*
X156766271Y-94171745D01*
X156745236Y-94093239D01*
X156741490Y-94082947D01*
X156649414Y-93885489D01*
X156643931Y-93875993D01*
X156518972Y-93697533D01*
X156511916Y-93689125D01*
X156357875Y-93535084D01*
X156349467Y-93528028D01*
X156171007Y-93403069D01*
X156161511Y-93397586D01*
X155964053Y-93305510D01*
X155953761Y-93301764D01*
X155781497Y-93255606D01*
X155767401Y-93255942D01*
X155764000Y-93263884D01*
X155764000Y-95165000D01*
X155743998Y-95233121D01*
X155690342Y-95279614D01*
X155638000Y-95291000D01*
X155382000Y-95291000D01*
X155313879Y-95270998D01*
X155267386Y-95217342D01*
X155256000Y-95165000D01*
X155256000Y-93269033D01*
X155252027Y-93255502D01*
X155243478Y-93254273D01*
X155066239Y-93301764D01*
X155055947Y-93305510D01*
X154858489Y-93397586D01*
X154848993Y-93403069D01*
X154670533Y-93528028D01*
X154662125Y-93535084D01*
X154508084Y-93689125D01*
X154501028Y-93697533D01*
X154376069Y-93875993D01*
X154370586Y-93885489D01*
X154278510Y-94082947D01*
X154274764Y-94093239D01*
X154253469Y-94172713D01*
X154216517Y-94233336D01*
X154152656Y-94264357D01*
X154082162Y-94255929D01*
X154027415Y-94210726D01*
X154010857Y-94175571D01*
X153998133Y-94132199D01*
X153996447Y-94126451D01*
X153900295Y-93939761D01*
X153850205Y-93875993D01*
X153774282Y-93779338D01*
X153774278Y-93779333D01*
X153770576Y-93774621D01*
X153726602Y-93736462D01*
X153616502Y-93640921D01*
X153616497Y-93640917D01*
X153611971Y-93636990D01*
X153430201Y-93531834D01*
X153313423Y-93491282D01*
X153237491Y-93464914D01*
X153237489Y-93464914D01*
X153231826Y-93462947D01*
X153225891Y-93462086D01*
X153225889Y-93462086D01*
X153029944Y-93433675D01*
X153029941Y-93433675D01*
X153024004Y-93432814D01*
X152814233Y-93442523D01*
X152712890Y-93466947D01*
X152615915Y-93490318D01*
X152615913Y-93490319D01*
X152610082Y-93491724D01*
X152604624Y-93494206D01*
X152604620Y-93494207D01*
X152514716Y-93535084D01*
X152418919Y-93578640D01*
X152355716Y-93623473D01*
X152352981Y-93625413D01*
X152285846Y-93648511D01*
X152216882Y-93631647D01*
X152190986Y-93611738D01*
X151070317Y-92491069D01*
X185835164Y-92491069D01*
X185848392Y-92692894D01*
X185898178Y-92888928D01*
X185982856Y-93072607D01*
X186099588Y-93237780D01*
X186244466Y-93378913D01*
X186412637Y-93491282D01*
X186417940Y-93493560D01*
X186417943Y-93493562D01*
X186593163Y-93568842D01*
X186598470Y-93571122D01*
X186795740Y-93615760D01*
X186801509Y-93615987D01*
X186801512Y-93615987D01*
X186877683Y-93618979D01*
X186997842Y-93623700D01*
X187084132Y-93611189D01*
X187192286Y-93595508D01*
X187192291Y-93595507D01*
X187198007Y-93594678D01*
X187203479Y-93592820D01*
X187203481Y-93592820D01*
X187384067Y-93531519D01*
X187384069Y-93531518D01*
X187389531Y-93529664D01*
X187553689Y-93437732D01*
X187560964Y-93433658D01*
X187560965Y-93433657D01*
X187566001Y-93430837D01*
X187628433Y-93378913D01*
X187659878Y-93352760D01*
X187721505Y-93301505D01*
X187850837Y-93146001D01*
X187854089Y-93140195D01*
X187881069Y-93092017D01*
X187949664Y-92969531D01*
X187964638Y-92925421D01*
X188012820Y-92783481D01*
X188012820Y-92783479D01*
X188014678Y-92778007D01*
X188015507Y-92772291D01*
X188015508Y-92772286D01*
X188043167Y-92581516D01*
X188043700Y-92577842D01*
X188045215Y-92520000D01*
X188026708Y-92318591D01*
X187971807Y-92123926D01*
X187882351Y-91942527D01*
X187864079Y-91918057D01*
X187764788Y-91785091D01*
X187764787Y-91785090D01*
X187761335Y-91780467D01*
X187738350Y-91759220D01*
X187617053Y-91647094D01*
X187617051Y-91647092D01*
X187612812Y-91643174D01*
X187585374Y-91625862D01*
X187446637Y-91538325D01*
X187441757Y-91535246D01*
X187253898Y-91460298D01*
X187055526Y-91420839D01*
X187049752Y-91420763D01*
X187049748Y-91420763D01*
X186947257Y-91419422D01*
X186853286Y-91418192D01*
X186847589Y-91419171D01*
X186847588Y-91419171D01*
X186659646Y-91451465D01*
X186659645Y-91451465D01*
X186653949Y-91452444D01*
X186464193Y-91522449D01*
X186290371Y-91625862D01*
X186138305Y-91759220D01*
X186013089Y-91918057D01*
X185918914Y-92097053D01*
X185858937Y-92290213D01*
X185835164Y-92491069D01*
X151070317Y-92491069D01*
X148955457Y-90376209D01*
X148921431Y-90313897D01*
X148926496Y-90243082D01*
X148969043Y-90186246D01*
X148986176Y-90175453D01*
X149073633Y-90129731D01*
X149079098Y-90126874D01*
X149083899Y-90123014D01*
X149083902Y-90123012D01*
X149234846Y-90001650D01*
X149234847Y-90001650D01*
X149239653Y-89997785D01*
X149372076Y-89839970D01*
X149375044Y-89834572D01*
X149375047Y-89834567D01*
X149468357Y-89664835D01*
X149471324Y-89659438D01*
X149533616Y-89463068D01*
X149534574Y-89454532D01*
X149546363Y-89349426D01*
X149551600Y-89302736D01*
X149551600Y-89295441D01*
X149990600Y-89295441D01*
X150005620Y-89448630D01*
X150065165Y-89645851D01*
X150161882Y-89827751D01*
X150228422Y-89909337D01*
X150288194Y-89982625D01*
X150288197Y-89982628D01*
X150292089Y-89987400D01*
X150296836Y-89991327D01*
X150296838Y-89991329D01*
X150446075Y-90114789D01*
X150446079Y-90114791D01*
X150450825Y-90118718D01*
X150632045Y-90216703D01*
X150828846Y-90277623D01*
X150834971Y-90278267D01*
X150834972Y-90278267D01*
X151027602Y-90298513D01*
X151027604Y-90298513D01*
X151033731Y-90299157D01*
X151120571Y-90291254D01*
X151232758Y-90281045D01*
X151232761Y-90281044D01*
X151238897Y-90280486D01*
X151436528Y-90222320D01*
X151446852Y-90216923D01*
X151613633Y-90129731D01*
X151619098Y-90126874D01*
X151623899Y-90123014D01*
X151623902Y-90123012D01*
X151774846Y-90001650D01*
X151774847Y-90001650D01*
X151779653Y-89997785D01*
X151912076Y-89839970D01*
X151915044Y-89834572D01*
X151915047Y-89834567D01*
X152008357Y-89664835D01*
X152011324Y-89659438D01*
X152073616Y-89463068D01*
X152074574Y-89454532D01*
X152078636Y-89418314D01*
X152081147Y-89395924D01*
X152108618Y-89330459D01*
X152167121Y-89290236D01*
X152238084Y-89288028D01*
X152298974Y-89324536D01*
X152330462Y-89388169D01*
X152331863Y-89398769D01*
X152337478Y-89461677D01*
X152339460Y-89472692D01*
X152395751Y-89678460D01*
X152399649Y-89688941D01*
X152491497Y-89881503D01*
X152497182Y-89891116D01*
X152621675Y-90064367D01*
X152628983Y-90072833D01*
X152692609Y-90134491D01*
X152727609Y-90196261D01*
X152725547Y-90233248D01*
X152756390Y-90226153D01*
X152819174Y-90247349D01*
X152967944Y-90347319D01*
X152977742Y-90352705D01*
X153173090Y-90438457D01*
X153183682Y-90442022D01*
X153309484Y-90472224D01*
X153323570Y-90471519D01*
X153327100Y-90462640D01*
X153327100Y-90462011D01*
X153835100Y-90462011D01*
X153839205Y-90475993D01*
X153848828Y-90477486D01*
X153849073Y-90477434D01*
X154052983Y-90414702D01*
X154063329Y-90410481D01*
X154252914Y-90312629D01*
X154262345Y-90306643D01*
X154431601Y-90176768D01*
X154439824Y-90169207D01*
X154583412Y-90011406D01*
X154590167Y-90002506D01*
X154703534Y-89821785D01*
X154708611Y-89811819D01*
X154788180Y-89613886D01*
X154791415Y-89603171D01*
X154833409Y-89400389D01*
X154866809Y-89337740D01*
X154928778Y-89303093D01*
X154999641Y-89307450D01*
X155056899Y-89349426D01*
X155082190Y-89413646D01*
X155085620Y-89448630D01*
X155145165Y-89645851D01*
X155241882Y-89827751D01*
X155308422Y-89909337D01*
X155368194Y-89982625D01*
X155368197Y-89982628D01*
X155372089Y-89987400D01*
X155376836Y-89991327D01*
X155376838Y-89991329D01*
X155526075Y-90114789D01*
X155526079Y-90114791D01*
X155530825Y-90118718D01*
X155712045Y-90216703D01*
X155908846Y-90277623D01*
X155914971Y-90278267D01*
X155914972Y-90278267D01*
X156107602Y-90298513D01*
X156107604Y-90298513D01*
X156113731Y-90299157D01*
X156200571Y-90291254D01*
X156312758Y-90281045D01*
X156312761Y-90281044D01*
X156318897Y-90280486D01*
X156516528Y-90222320D01*
X156526852Y-90216923D01*
X156693633Y-90129731D01*
X156699098Y-90126874D01*
X156703899Y-90123014D01*
X156703902Y-90123012D01*
X156854846Y-90001650D01*
X156854847Y-90001650D01*
X156859653Y-89997785D01*
X156992076Y-89839970D01*
X156995044Y-89834572D01*
X156995047Y-89834567D01*
X157088357Y-89664835D01*
X157091324Y-89659438D01*
X157153616Y-89463068D01*
X157154574Y-89454532D01*
X157166363Y-89349426D01*
X157171600Y-89302736D01*
X157171600Y-89295441D01*
X157610600Y-89295441D01*
X157625620Y-89448630D01*
X157685165Y-89645851D01*
X157781882Y-89827751D01*
X157848422Y-89909337D01*
X157908194Y-89982625D01*
X157908197Y-89982628D01*
X157912089Y-89987400D01*
X157916836Y-89991327D01*
X157916838Y-89991329D01*
X158066075Y-90114789D01*
X158066079Y-90114791D01*
X158070825Y-90118718D01*
X158252045Y-90216703D01*
X158448846Y-90277623D01*
X158454971Y-90278267D01*
X158454972Y-90278267D01*
X158647602Y-90298513D01*
X158647604Y-90298513D01*
X158653731Y-90299157D01*
X158740571Y-90291254D01*
X158852758Y-90281045D01*
X158852761Y-90281044D01*
X158858897Y-90280486D01*
X159056528Y-90222320D01*
X159066852Y-90216923D01*
X159233633Y-90129731D01*
X159239098Y-90126874D01*
X159243899Y-90123014D01*
X159243902Y-90123012D01*
X159394846Y-90001650D01*
X159394847Y-90001650D01*
X159399653Y-89997785D01*
X159532076Y-89839970D01*
X159535044Y-89834572D01*
X159535047Y-89834567D01*
X159628357Y-89664835D01*
X159631324Y-89659438D01*
X159693616Y-89463068D01*
X159694574Y-89454532D01*
X159706363Y-89349426D01*
X159711600Y-89302736D01*
X159711600Y-89295441D01*
X160150600Y-89295441D01*
X160165620Y-89448630D01*
X160225165Y-89645851D01*
X160321882Y-89827751D01*
X160388422Y-89909337D01*
X160448194Y-89982625D01*
X160448197Y-89982628D01*
X160452089Y-89987400D01*
X160456836Y-89991327D01*
X160456838Y-89991329D01*
X160606075Y-90114789D01*
X160606079Y-90114791D01*
X160610825Y-90118718D01*
X160792045Y-90216703D01*
X160988846Y-90277623D01*
X160994971Y-90278267D01*
X160994972Y-90278267D01*
X161187602Y-90298513D01*
X161187604Y-90298513D01*
X161193731Y-90299157D01*
X161280571Y-90291254D01*
X161392758Y-90281045D01*
X161392761Y-90281044D01*
X161398897Y-90280486D01*
X161596528Y-90222320D01*
X161606852Y-90216923D01*
X161773633Y-90129731D01*
X161779098Y-90126874D01*
X161783899Y-90123014D01*
X161783902Y-90123012D01*
X161934846Y-90001650D01*
X161934847Y-90001650D01*
X161939653Y-89997785D01*
X162072076Y-89839970D01*
X162075044Y-89834572D01*
X162075047Y-89834567D01*
X162168357Y-89664835D01*
X162171324Y-89659438D01*
X162233616Y-89463068D01*
X162234574Y-89454532D01*
X162246363Y-89349426D01*
X162251600Y-89302736D01*
X162251600Y-87691759D01*
X162236580Y-87538570D01*
X162177035Y-87341349D01*
X162080318Y-87159449D01*
X161970547Y-87024857D01*
X161954006Y-87004575D01*
X161954003Y-87004572D01*
X161950111Y-86999800D01*
X161931851Y-86984694D01*
X161796125Y-86872411D01*
X161796121Y-86872408D01*
X161791375Y-86868482D01*
X161610155Y-86770497D01*
X161413354Y-86709577D01*
X161407229Y-86708933D01*
X161407228Y-86708933D01*
X161214598Y-86688687D01*
X161214596Y-86688687D01*
X161208469Y-86688043D01*
X161121629Y-86695946D01*
X161009442Y-86706155D01*
X161009439Y-86706156D01*
X161003303Y-86706714D01*
X160805672Y-86764880D01*
X160800207Y-86767737D01*
X160771456Y-86782768D01*
X160623102Y-86860326D01*
X160618301Y-86864186D01*
X160618298Y-86864188D01*
X160479488Y-86975794D01*
X160462547Y-86989415D01*
X160330124Y-87147230D01*
X160327156Y-87152628D01*
X160327153Y-87152633D01*
X160308810Y-87186000D01*
X160230876Y-87327762D01*
X160168584Y-87524132D01*
X160167898Y-87530249D01*
X160167897Y-87530253D01*
X160166276Y-87544704D01*
X160150600Y-87684464D01*
X160150600Y-89295441D01*
X159711600Y-89295441D01*
X159711600Y-87691759D01*
X159696580Y-87538570D01*
X159637035Y-87341349D01*
X159540318Y-87159449D01*
X159430547Y-87024857D01*
X159414006Y-87004575D01*
X159414003Y-87004572D01*
X159410111Y-86999800D01*
X159391851Y-86984694D01*
X159256125Y-86872411D01*
X159256121Y-86872408D01*
X159251375Y-86868482D01*
X159070155Y-86770497D01*
X158873354Y-86709577D01*
X158867229Y-86708933D01*
X158867228Y-86708933D01*
X158674598Y-86688687D01*
X158674596Y-86688687D01*
X158668469Y-86688043D01*
X158581629Y-86695946D01*
X158469442Y-86706155D01*
X158469439Y-86706156D01*
X158463303Y-86706714D01*
X158265672Y-86764880D01*
X158260207Y-86767737D01*
X158231456Y-86782768D01*
X158083102Y-86860326D01*
X158078301Y-86864186D01*
X158078298Y-86864188D01*
X157939488Y-86975794D01*
X157922547Y-86989415D01*
X157790124Y-87147230D01*
X157787156Y-87152628D01*
X157787153Y-87152633D01*
X157768810Y-87186000D01*
X157690876Y-87327762D01*
X157628584Y-87524132D01*
X157627898Y-87530249D01*
X157627897Y-87530253D01*
X157626276Y-87544704D01*
X157610600Y-87684464D01*
X157610600Y-89295441D01*
X157171600Y-89295441D01*
X157171600Y-87691759D01*
X157156580Y-87538570D01*
X157097035Y-87341349D01*
X157000318Y-87159449D01*
X156890547Y-87024857D01*
X156874006Y-87004575D01*
X156874003Y-87004572D01*
X156870111Y-86999800D01*
X156851851Y-86984694D01*
X156716125Y-86872411D01*
X156716121Y-86872408D01*
X156711375Y-86868482D01*
X156530155Y-86770497D01*
X156333354Y-86709577D01*
X156327229Y-86708933D01*
X156327228Y-86708933D01*
X156134598Y-86688687D01*
X156134596Y-86688687D01*
X156128469Y-86688043D01*
X156041629Y-86695946D01*
X155929442Y-86706155D01*
X155929439Y-86706156D01*
X155923303Y-86706714D01*
X155725672Y-86764880D01*
X155720207Y-86767737D01*
X155691456Y-86782768D01*
X155543102Y-86860326D01*
X155538301Y-86864186D01*
X155538298Y-86864188D01*
X155399488Y-86975794D01*
X155382547Y-86989415D01*
X155250124Y-87147230D01*
X155247156Y-87152628D01*
X155247153Y-87152633D01*
X155228810Y-87186000D01*
X155150876Y-87327762D01*
X155088584Y-87524132D01*
X155087898Y-87530249D01*
X155087897Y-87530253D01*
X155086276Y-87544704D01*
X155081554Y-87586811D01*
X155081053Y-87591275D01*
X155053582Y-87656741D01*
X154995079Y-87696964D01*
X154924116Y-87699172D01*
X154863226Y-87662664D01*
X154831738Y-87599031D01*
X154830337Y-87588431D01*
X154824722Y-87525523D01*
X154822740Y-87514508D01*
X154766449Y-87308740D01*
X154762551Y-87298259D01*
X154670703Y-87105697D01*
X154665018Y-87096084D01*
X154540525Y-86922833D01*
X154533217Y-86914367D01*
X154380018Y-86765908D01*
X154371321Y-86758865D01*
X154194256Y-86639881D01*
X154184458Y-86634495D01*
X153989110Y-86548743D01*
X153978518Y-86545178D01*
X153852716Y-86514976D01*
X153838630Y-86515681D01*
X153835100Y-86524560D01*
X153835100Y-90462011D01*
X153327100Y-90462011D01*
X153327100Y-86525189D01*
X153322995Y-86511207D01*
X153313372Y-86509714D01*
X153313127Y-86509766D01*
X153109217Y-86572498D01*
X153098871Y-86576719D01*
X152909286Y-86674571D01*
X152899855Y-86680557D01*
X152730599Y-86810432D01*
X152722376Y-86817993D01*
X152578788Y-86975794D01*
X152572033Y-86984694D01*
X152458666Y-87165415D01*
X152453589Y-87175381D01*
X152374020Y-87373314D01*
X152370785Y-87384029D01*
X152328791Y-87586811D01*
X152295391Y-87649460D01*
X152233422Y-87684107D01*
X152162559Y-87679750D01*
X152105301Y-87637774D01*
X152080010Y-87573554D01*
X152077181Y-87544704D01*
X152077181Y-87544703D01*
X152076580Y-87538570D01*
X152017035Y-87341349D01*
X151920318Y-87159449D01*
X151810547Y-87024857D01*
X151794006Y-87004575D01*
X151794003Y-87004572D01*
X151790111Y-86999800D01*
X151771851Y-86984694D01*
X151636125Y-86872411D01*
X151636121Y-86872408D01*
X151631375Y-86868482D01*
X151450155Y-86770497D01*
X151253354Y-86709577D01*
X151247229Y-86708933D01*
X151247228Y-86708933D01*
X151054598Y-86688687D01*
X151054596Y-86688687D01*
X151048469Y-86688043D01*
X150961629Y-86695946D01*
X150849442Y-86706155D01*
X150849439Y-86706156D01*
X150843303Y-86706714D01*
X150645672Y-86764880D01*
X150640207Y-86767737D01*
X150611456Y-86782768D01*
X150463102Y-86860326D01*
X150458301Y-86864186D01*
X150458298Y-86864188D01*
X150319488Y-86975794D01*
X150302547Y-86989415D01*
X150170124Y-87147230D01*
X150167156Y-87152628D01*
X150167153Y-87152633D01*
X150148810Y-87186000D01*
X150070876Y-87327762D01*
X150008584Y-87524132D01*
X150007898Y-87530249D01*
X150007897Y-87530253D01*
X150006276Y-87544704D01*
X149990600Y-87684464D01*
X149990600Y-89295441D01*
X149551600Y-89295441D01*
X149551600Y-87691759D01*
X149536580Y-87538570D01*
X149477035Y-87341349D01*
X149380318Y-87159449D01*
X149270547Y-87024857D01*
X149254006Y-87004575D01*
X149254003Y-87004572D01*
X149250111Y-86999800D01*
X149231851Y-86984694D01*
X149096125Y-86872411D01*
X149096121Y-86872408D01*
X149091375Y-86868482D01*
X148910155Y-86770497D01*
X148713354Y-86709577D01*
X148707229Y-86708933D01*
X148707228Y-86708933D01*
X148514598Y-86688687D01*
X148514596Y-86688687D01*
X148508469Y-86688043D01*
X148421629Y-86695946D01*
X148309442Y-86706155D01*
X148309439Y-86706156D01*
X148303303Y-86706714D01*
X148105672Y-86764880D01*
X148100207Y-86767737D01*
X148071456Y-86782768D01*
X147923102Y-86860326D01*
X147918301Y-86864186D01*
X147918298Y-86864188D01*
X147779488Y-86975794D01*
X147762547Y-86989415D01*
X147630124Y-87147230D01*
X147627156Y-87152628D01*
X147627153Y-87152633D01*
X147608810Y-87186000D01*
X147530876Y-87327762D01*
X147468584Y-87524132D01*
X147467898Y-87530249D01*
X147467897Y-87530253D01*
X147466276Y-87544704D01*
X147450600Y-87684464D01*
X147450600Y-89295441D01*
X147465620Y-89448630D01*
X147525165Y-89645851D01*
X147621882Y-89827751D01*
X147625776Y-89832526D01*
X147625777Y-89832527D01*
X147639102Y-89848865D01*
X147666655Y-89914297D01*
X147654459Y-89984238D01*
X147606386Y-90036483D01*
X147541458Y-90054500D01*
X146922271Y-90054500D01*
X146854150Y-90034498D01*
X146807657Y-89980842D01*
X146797553Y-89910568D01*
X146824714Y-89849825D01*
X146824635Y-89849771D01*
X146824933Y-89849335D01*
X146825750Y-89847509D01*
X146832076Y-89839970D01*
X146835044Y-89834572D01*
X146835047Y-89834567D01*
X146928357Y-89664835D01*
X146931324Y-89659438D01*
X146993616Y-89463068D01*
X146994574Y-89454532D01*
X147006363Y-89349426D01*
X147011600Y-89302736D01*
X147011600Y-87691759D01*
X146996580Y-87538570D01*
X146937035Y-87341349D01*
X146840318Y-87159449D01*
X146730547Y-87024857D01*
X146714006Y-87004575D01*
X146714003Y-87004572D01*
X146710111Y-86999800D01*
X146691851Y-86984694D01*
X146556125Y-86872411D01*
X146556121Y-86872408D01*
X146551375Y-86868482D01*
X146370155Y-86770497D01*
X146173354Y-86709577D01*
X146167229Y-86708933D01*
X146167228Y-86708933D01*
X145974598Y-86688687D01*
X145974596Y-86688687D01*
X145968469Y-86688043D01*
X145881629Y-86695946D01*
X145769442Y-86706155D01*
X145769439Y-86706156D01*
X145763303Y-86706714D01*
X145565672Y-86764880D01*
X145560207Y-86767737D01*
X145531456Y-86782768D01*
X145383102Y-86860326D01*
X145378301Y-86864186D01*
X145378298Y-86864188D01*
X145239488Y-86975794D01*
X145222547Y-86989415D01*
X145090124Y-87147230D01*
X145087156Y-87152628D01*
X145087153Y-87152633D01*
X145068810Y-87186000D01*
X144990876Y-87327762D01*
X144928584Y-87524132D01*
X144927898Y-87530249D01*
X144927897Y-87530253D01*
X144926276Y-87544704D01*
X144910600Y-87684464D01*
X144910600Y-89295441D01*
X144925620Y-89448630D01*
X144985165Y-89645851D01*
X145081882Y-89827751D01*
X145085776Y-89832526D01*
X145085777Y-89832527D01*
X145099102Y-89848865D01*
X145126655Y-89914297D01*
X145114459Y-89984238D01*
X145066386Y-90036483D01*
X145001458Y-90054500D01*
X144382271Y-90054500D01*
X144314150Y-90034498D01*
X144267657Y-89980842D01*
X144257553Y-89910568D01*
X144284714Y-89849825D01*
X144284635Y-89849771D01*
X144284933Y-89849335D01*
X144285750Y-89847509D01*
X144292076Y-89839970D01*
X144295044Y-89834572D01*
X144295047Y-89834567D01*
X144388357Y-89664835D01*
X144391324Y-89659438D01*
X144453616Y-89463068D01*
X144454574Y-89454532D01*
X144466363Y-89349426D01*
X144471600Y-89302736D01*
X144471600Y-87691759D01*
X144456580Y-87538570D01*
X144397035Y-87341349D01*
X144300318Y-87159449D01*
X144190547Y-87024857D01*
X144174006Y-87004575D01*
X144174003Y-87004572D01*
X144170111Y-86999800D01*
X144151851Y-86984694D01*
X144016125Y-86872411D01*
X144016121Y-86872408D01*
X144011375Y-86868482D01*
X143830155Y-86770497D01*
X143633354Y-86709577D01*
X143627229Y-86708933D01*
X143627228Y-86708933D01*
X143434598Y-86688687D01*
X143434596Y-86688687D01*
X143428469Y-86688043D01*
X143341629Y-86695946D01*
X143229442Y-86706155D01*
X143229439Y-86706156D01*
X143223303Y-86706714D01*
X143025672Y-86764880D01*
X143020207Y-86767737D01*
X142991456Y-86782768D01*
X142843102Y-86860326D01*
X142838301Y-86864186D01*
X142838298Y-86864188D01*
X142699488Y-86975794D01*
X142682547Y-86989415D01*
X142586109Y-87104345D01*
X142527002Y-87143670D01*
X142456014Y-87144796D01*
X142400495Y-87112447D01*
X141418643Y-86130595D01*
X141384617Y-86068283D01*
X141389682Y-85997468D01*
X141432229Y-85940632D01*
X141498749Y-85915821D01*
X141507738Y-85915500D01*
X163684062Y-85915500D01*
X163752183Y-85935502D01*
X163773157Y-85952405D01*
X164513921Y-86693169D01*
X164547947Y-86755481D01*
X164542882Y-86826296D01*
X164500335Y-86883132D01*
X164433815Y-86907943D01*
X164364441Y-86892852D01*
X164344511Y-86879349D01*
X164336125Y-86872411D01*
X164336121Y-86872408D01*
X164331375Y-86868482D01*
X164150155Y-86770497D01*
X163953354Y-86709577D01*
X163947229Y-86708933D01*
X163947228Y-86708933D01*
X163754598Y-86688687D01*
X163754596Y-86688687D01*
X163748469Y-86688043D01*
X163661629Y-86695946D01*
X163549442Y-86706155D01*
X163549439Y-86706156D01*
X163543303Y-86706714D01*
X163345672Y-86764880D01*
X163340207Y-86767737D01*
X163311456Y-86782768D01*
X163163102Y-86860326D01*
X163158301Y-86864186D01*
X163158298Y-86864188D01*
X163019488Y-86975794D01*
X163002547Y-86989415D01*
X162870124Y-87147230D01*
X162867156Y-87152628D01*
X162867153Y-87152633D01*
X162848810Y-87186000D01*
X162770876Y-87327762D01*
X162708584Y-87524132D01*
X162707898Y-87530249D01*
X162707897Y-87530253D01*
X162706276Y-87544704D01*
X162690600Y-87684464D01*
X162690600Y-89295441D01*
X162705620Y-89448630D01*
X162765165Y-89645851D01*
X162861882Y-89827751D01*
X162928422Y-89909337D01*
X162988194Y-89982625D01*
X162988197Y-89982628D01*
X162992089Y-89987400D01*
X162996836Y-89991327D01*
X162996838Y-89991329D01*
X163146075Y-90114789D01*
X163146079Y-90114791D01*
X163150825Y-90118718D01*
X163332045Y-90216703D01*
X163528846Y-90277623D01*
X163534971Y-90278267D01*
X163534972Y-90278267D01*
X163727602Y-90298513D01*
X163727604Y-90298513D01*
X163733731Y-90299157D01*
X163820571Y-90291254D01*
X163932758Y-90281045D01*
X163932761Y-90281044D01*
X163938897Y-90280486D01*
X164136528Y-90222320D01*
X164146852Y-90216923D01*
X164313633Y-90129731D01*
X164319098Y-90126874D01*
X164323899Y-90123014D01*
X164323902Y-90123012D01*
X164474846Y-90001650D01*
X164474847Y-90001650D01*
X164479653Y-89997785D01*
X164612076Y-89839970D01*
X164615044Y-89834572D01*
X164615047Y-89834567D01*
X164708357Y-89664835D01*
X164711324Y-89659438D01*
X164773616Y-89463068D01*
X164774574Y-89454532D01*
X164786363Y-89349426D01*
X164791600Y-89302736D01*
X164791600Y-87691759D01*
X164776580Y-87538570D01*
X164717035Y-87341349D01*
X164620318Y-87159449D01*
X164610353Y-87147230D01*
X164600797Y-87135514D01*
X164573243Y-87070082D01*
X164585438Y-87000141D01*
X164633511Y-86947896D01*
X164702198Y-86929934D01*
X164769692Y-86951959D01*
X164787535Y-86966783D01*
X165217604Y-87396852D01*
X165251630Y-87459164D01*
X165249349Y-87511727D01*
X165251728Y-87512233D01*
X165250447Y-87518259D01*
X165248584Y-87524132D01*
X165247898Y-87530249D01*
X165247897Y-87530253D01*
X165246276Y-87544704D01*
X165230600Y-87684464D01*
X165230600Y-89295441D01*
X165245620Y-89448630D01*
X165305165Y-89645851D01*
X165401882Y-89827751D01*
X165468422Y-89909337D01*
X165528194Y-89982625D01*
X165528197Y-89982628D01*
X165532089Y-89987400D01*
X165536836Y-89991327D01*
X165536838Y-89991329D01*
X165686075Y-90114789D01*
X165686079Y-90114791D01*
X165690825Y-90118718D01*
X165872045Y-90216703D01*
X166068846Y-90277623D01*
X166074971Y-90278267D01*
X166074972Y-90278267D01*
X166267602Y-90298513D01*
X166267604Y-90298513D01*
X166273731Y-90299157D01*
X166360571Y-90291254D01*
X166472758Y-90281045D01*
X166472761Y-90281044D01*
X166478897Y-90280486D01*
X166676528Y-90222320D01*
X166686852Y-90216923D01*
X166853633Y-90129731D01*
X166859098Y-90126874D01*
X166863899Y-90123014D01*
X166863902Y-90123012D01*
X166919548Y-90078271D01*
X166985170Y-90051175D01*
X167055025Y-90063858D01*
X167106933Y-90112294D01*
X167124500Y-90176468D01*
X167124500Y-90181562D01*
X167104498Y-90249683D01*
X167087595Y-90270657D01*
X166320657Y-91037595D01*
X166258345Y-91071621D01*
X166231562Y-91074500D01*
X153098437Y-91074500D01*
X153030316Y-91054498D01*
X153009342Y-91037595D01*
X152836523Y-90864776D01*
X152802497Y-90802464D01*
X152800696Y-90792127D01*
X152786122Y-90681426D01*
X152785044Y-90673238D01*
X152724536Y-90527159D01*
X152719508Y-90520606D01*
X152719506Y-90520603D01*
X152648936Y-90428634D01*
X152623335Y-90362414D01*
X152626642Y-90346292D01*
X152615886Y-90350497D01*
X152546283Y-90336497D01*
X152528220Y-90324938D01*
X152513831Y-90313897D01*
X152502841Y-90305464D01*
X152356762Y-90244956D01*
X152342528Y-90243082D01*
X152208188Y-90225396D01*
X152200000Y-90224318D01*
X152191812Y-90225396D01*
X152057473Y-90243082D01*
X152043238Y-90244956D01*
X151897159Y-90305464D01*
X151771718Y-90401718D01*
X151675464Y-90527159D01*
X151614956Y-90673238D01*
X151594318Y-90830000D01*
X151614956Y-90986762D01*
X151675464Y-91132841D01*
X151680491Y-91139392D01*
X151766130Y-91250999D01*
X151771718Y-91258282D01*
X151897159Y-91354536D01*
X152043238Y-91415044D01*
X152051426Y-91416122D01*
X152162127Y-91430696D01*
X152227054Y-91459418D01*
X152234776Y-91466523D01*
X152521471Y-91753218D01*
X152521472Y-91753220D01*
X152616780Y-91848528D01*
X152638159Y-91859421D01*
X152655009Y-91869747D01*
X152674419Y-91883849D01*
X152683850Y-91886913D01*
X152683851Y-91886914D01*
X152697237Y-91891264D01*
X152715498Y-91898828D01*
X152728036Y-91905216D01*
X152736874Y-91909719D01*
X152760571Y-91913472D01*
X152779790Y-91918086D01*
X152802607Y-91925500D01*
X166527393Y-91925500D01*
X166550210Y-91918086D01*
X166569429Y-91913472D01*
X166593126Y-91909719D01*
X166601964Y-91905216D01*
X166614502Y-91898828D01*
X166632763Y-91891264D01*
X166646147Y-91886915D01*
X166646150Y-91886913D01*
X166655581Y-91883849D01*
X166674991Y-91869747D01*
X166691837Y-91859423D01*
X166713220Y-91848528D01*
X167898528Y-90663220D01*
X167909419Y-90641844D01*
X167919749Y-90624989D01*
X167928021Y-90613604D01*
X167928021Y-90613603D01*
X167933850Y-90605581D01*
X167941264Y-90582763D01*
X167948827Y-90564502D01*
X167954483Y-90553403D01*
X167955218Y-90551960D01*
X167959719Y-90543126D01*
X167961270Y-90533335D01*
X167961272Y-90533328D01*
X167963473Y-90519431D01*
X167968087Y-90500212D01*
X167972436Y-90486827D01*
X167972437Y-90486820D01*
X167975500Y-90477393D01*
X167975500Y-90175258D01*
X167995502Y-90107137D01*
X168049158Y-90060644D01*
X168119432Y-90050540D01*
X168181816Y-90078174D01*
X168226074Y-90114788D01*
X168226076Y-90114790D01*
X168230825Y-90118718D01*
X168412045Y-90216703D01*
X168608846Y-90277623D01*
X168614971Y-90278267D01*
X168614972Y-90278267D01*
X168807602Y-90298513D01*
X168807604Y-90298513D01*
X168813731Y-90299157D01*
X168900571Y-90291254D01*
X169012758Y-90281045D01*
X169012761Y-90281044D01*
X169018897Y-90280486D01*
X169216528Y-90222320D01*
X169226852Y-90216923D01*
X169393633Y-90129731D01*
X169399098Y-90126874D01*
X169403899Y-90123014D01*
X169403902Y-90123012D01*
X169554846Y-90001650D01*
X169554847Y-90001650D01*
X169559653Y-89997785D01*
X169692076Y-89839970D01*
X169695044Y-89834572D01*
X169695047Y-89834567D01*
X169788357Y-89664835D01*
X169791324Y-89659438D01*
X169853616Y-89463068D01*
X169854574Y-89454532D01*
X169866363Y-89349426D01*
X169871600Y-89302736D01*
X169871600Y-89295441D01*
X170310600Y-89295441D01*
X170325620Y-89448630D01*
X170385165Y-89645851D01*
X170481882Y-89827751D01*
X170548422Y-89909337D01*
X170608194Y-89982625D01*
X170608197Y-89982628D01*
X170612089Y-89987400D01*
X170616836Y-89991327D01*
X170616838Y-89991329D01*
X170766075Y-90114789D01*
X170766079Y-90114791D01*
X170770825Y-90118718D01*
X170952045Y-90216703D01*
X171148846Y-90277623D01*
X171154971Y-90278267D01*
X171154972Y-90278267D01*
X171347602Y-90298513D01*
X171347604Y-90298513D01*
X171353731Y-90299157D01*
X171440571Y-90291254D01*
X171552758Y-90281045D01*
X171552761Y-90281044D01*
X171558897Y-90280486D01*
X171756528Y-90222320D01*
X171766852Y-90216923D01*
X171933633Y-90129731D01*
X171939098Y-90126874D01*
X171943899Y-90123014D01*
X171943902Y-90123012D01*
X172094846Y-90001650D01*
X172094847Y-90001650D01*
X172099653Y-89997785D01*
X172232076Y-89839970D01*
X172235044Y-89834572D01*
X172235047Y-89834567D01*
X172328357Y-89664835D01*
X172331324Y-89659438D01*
X172393616Y-89463068D01*
X172394574Y-89454532D01*
X172406363Y-89349426D01*
X172411600Y-89302736D01*
X172411600Y-89295441D01*
X172850600Y-89295441D01*
X172865620Y-89448630D01*
X172925165Y-89645851D01*
X173021882Y-89827751D01*
X173088422Y-89909337D01*
X173148194Y-89982625D01*
X173148197Y-89982628D01*
X173152089Y-89987400D01*
X173156836Y-89991327D01*
X173156838Y-89991329D01*
X173306075Y-90114789D01*
X173306079Y-90114791D01*
X173310825Y-90118718D01*
X173492045Y-90216703D01*
X173688846Y-90277623D01*
X173694971Y-90278267D01*
X173694972Y-90278267D01*
X173887602Y-90298513D01*
X173887604Y-90298513D01*
X173893731Y-90299157D01*
X173980571Y-90291254D01*
X174092758Y-90281045D01*
X174092761Y-90281044D01*
X174098897Y-90280486D01*
X174296528Y-90222320D01*
X174306852Y-90216923D01*
X174473633Y-90129731D01*
X174479098Y-90126874D01*
X174483899Y-90123014D01*
X174483902Y-90123012D01*
X174634846Y-90001650D01*
X174634847Y-90001650D01*
X174639653Y-89997785D01*
X174772076Y-89839970D01*
X174775044Y-89834572D01*
X174775047Y-89834567D01*
X174868357Y-89664835D01*
X174871324Y-89659438D01*
X174933616Y-89463068D01*
X174934574Y-89454532D01*
X174946363Y-89349426D01*
X174951600Y-89302736D01*
X174951600Y-89295441D01*
X175390600Y-89295441D01*
X175405620Y-89448630D01*
X175465165Y-89645851D01*
X175561882Y-89827751D01*
X175628422Y-89909337D01*
X175688194Y-89982625D01*
X175688197Y-89982628D01*
X175692089Y-89987400D01*
X175696836Y-89991327D01*
X175696838Y-89991329D01*
X175846075Y-90114789D01*
X175846079Y-90114791D01*
X175850825Y-90118718D01*
X176032045Y-90216703D01*
X176228846Y-90277623D01*
X176234971Y-90278267D01*
X176234972Y-90278267D01*
X176427602Y-90298513D01*
X176427604Y-90298513D01*
X176433731Y-90299157D01*
X176520571Y-90291254D01*
X176632758Y-90281045D01*
X176632761Y-90281044D01*
X176638897Y-90280486D01*
X176836528Y-90222320D01*
X176846852Y-90216923D01*
X177013633Y-90129731D01*
X177019098Y-90126874D01*
X177023899Y-90123014D01*
X177023902Y-90123012D01*
X177174846Y-90001650D01*
X177174847Y-90001650D01*
X177179653Y-89997785D01*
X177312076Y-89839970D01*
X177315044Y-89834572D01*
X177315047Y-89834567D01*
X177408357Y-89664835D01*
X177411324Y-89659438D01*
X177473616Y-89463068D01*
X177474574Y-89454532D01*
X177486363Y-89349426D01*
X177491600Y-89302736D01*
X177491600Y-87691759D01*
X177476580Y-87538570D01*
X177417035Y-87341349D01*
X177320318Y-87159449D01*
X177210547Y-87024857D01*
X177194006Y-87004575D01*
X177194003Y-87004572D01*
X177190111Y-86999800D01*
X177171851Y-86984694D01*
X177036125Y-86872411D01*
X177036121Y-86872408D01*
X177031375Y-86868482D01*
X176850155Y-86770497D01*
X176653354Y-86709577D01*
X176647229Y-86708933D01*
X176647228Y-86708933D01*
X176454598Y-86688687D01*
X176454596Y-86688687D01*
X176448469Y-86688043D01*
X176361629Y-86695946D01*
X176249442Y-86706155D01*
X176249439Y-86706156D01*
X176243303Y-86706714D01*
X176045672Y-86764880D01*
X176040207Y-86767737D01*
X176011456Y-86782768D01*
X175863102Y-86860326D01*
X175858301Y-86864186D01*
X175858298Y-86864188D01*
X175719488Y-86975794D01*
X175702547Y-86989415D01*
X175570124Y-87147230D01*
X175567156Y-87152628D01*
X175567153Y-87152633D01*
X175548810Y-87186000D01*
X175470876Y-87327762D01*
X175408584Y-87524132D01*
X175407898Y-87530249D01*
X175407897Y-87530253D01*
X175406276Y-87544704D01*
X175390600Y-87684464D01*
X175390600Y-89295441D01*
X174951600Y-89295441D01*
X174951600Y-87691759D01*
X174936580Y-87538570D01*
X174877035Y-87341349D01*
X174780318Y-87159449D01*
X174670547Y-87024857D01*
X174654006Y-87004575D01*
X174654003Y-87004572D01*
X174650111Y-86999800D01*
X174631851Y-86984694D01*
X174496125Y-86872411D01*
X174496121Y-86872408D01*
X174491375Y-86868482D01*
X174310155Y-86770497D01*
X174113354Y-86709577D01*
X174107229Y-86708933D01*
X174107228Y-86708933D01*
X173914598Y-86688687D01*
X173914596Y-86688687D01*
X173908469Y-86688043D01*
X173821629Y-86695946D01*
X173709442Y-86706155D01*
X173709439Y-86706156D01*
X173703303Y-86706714D01*
X173505672Y-86764880D01*
X173500207Y-86767737D01*
X173471456Y-86782768D01*
X173323102Y-86860326D01*
X173318301Y-86864186D01*
X173318298Y-86864188D01*
X173179488Y-86975794D01*
X173162547Y-86989415D01*
X173030124Y-87147230D01*
X173027156Y-87152628D01*
X173027153Y-87152633D01*
X173008810Y-87186000D01*
X172930876Y-87327762D01*
X172868584Y-87524132D01*
X172867898Y-87530249D01*
X172867897Y-87530253D01*
X172866276Y-87544704D01*
X172850600Y-87684464D01*
X172850600Y-89295441D01*
X172411600Y-89295441D01*
X172411600Y-87691759D01*
X172396580Y-87538570D01*
X172337035Y-87341349D01*
X172240318Y-87159449D01*
X172130547Y-87024857D01*
X172114006Y-87004575D01*
X172114003Y-87004572D01*
X172110111Y-86999800D01*
X172091851Y-86984694D01*
X171956125Y-86872411D01*
X171956121Y-86872408D01*
X171951375Y-86868482D01*
X171770155Y-86770497D01*
X171573354Y-86709577D01*
X171567229Y-86708933D01*
X171567228Y-86708933D01*
X171374598Y-86688687D01*
X171374596Y-86688687D01*
X171368469Y-86688043D01*
X171281629Y-86695946D01*
X171169442Y-86706155D01*
X171169439Y-86706156D01*
X171163303Y-86706714D01*
X170965672Y-86764880D01*
X170960207Y-86767737D01*
X170931456Y-86782768D01*
X170783102Y-86860326D01*
X170778301Y-86864186D01*
X170778298Y-86864188D01*
X170639488Y-86975794D01*
X170622547Y-86989415D01*
X170490124Y-87147230D01*
X170487156Y-87152628D01*
X170487153Y-87152633D01*
X170468810Y-87186000D01*
X170390876Y-87327762D01*
X170328584Y-87524132D01*
X170327898Y-87530249D01*
X170327897Y-87530253D01*
X170326276Y-87544704D01*
X170310600Y-87684464D01*
X170310600Y-89295441D01*
X169871600Y-89295441D01*
X169871600Y-87691759D01*
X169856580Y-87538570D01*
X169797035Y-87341349D01*
X169700318Y-87159449D01*
X169590547Y-87024857D01*
X169574006Y-87004575D01*
X169574003Y-87004572D01*
X169570111Y-86999800D01*
X169551851Y-86984694D01*
X169416125Y-86872411D01*
X169416121Y-86872408D01*
X169411375Y-86868482D01*
X169230155Y-86770497D01*
X169033354Y-86709577D01*
X169027229Y-86708933D01*
X169027228Y-86708933D01*
X168834598Y-86688687D01*
X168834596Y-86688687D01*
X168828469Y-86688043D01*
X168741629Y-86695946D01*
X168629442Y-86706155D01*
X168629439Y-86706156D01*
X168623303Y-86706714D01*
X168617391Y-86708454D01*
X168589817Y-86716569D01*
X168518821Y-86716613D01*
X168459071Y-86678267D01*
X168429537Y-86613705D01*
X168439596Y-86543425D01*
X168465148Y-86506600D01*
X169766744Y-85205004D01*
X169829056Y-85170978D01*
X169855839Y-85168099D01*
X177940204Y-85168099D01*
X178008325Y-85188101D01*
G37*
G04 #@! TD.AperFunction*
G04 #@! TA.AperFunction,Conductor*
G36*
X158200683Y-101105502D02*
G01*
X158247176Y-101159158D01*
X158257280Y-101229432D01*
X158227786Y-101294012D01*
X158221657Y-101300595D01*
X157153944Y-102368308D01*
X157091632Y-102402334D01*
X157020817Y-102397269D01*
X156967206Y-102358849D01*
X156874006Y-102244576D01*
X156874005Y-102244575D01*
X156870111Y-102239800D01*
X156860053Y-102231479D01*
X156716125Y-102112411D01*
X156716121Y-102112409D01*
X156711375Y-102108482D01*
X156530155Y-102010497D01*
X156333354Y-101949577D01*
X156327229Y-101948933D01*
X156327228Y-101948933D01*
X156134598Y-101928687D01*
X156134596Y-101928687D01*
X156128469Y-101928043D01*
X156041629Y-101935946D01*
X155929442Y-101946155D01*
X155929439Y-101946156D01*
X155923303Y-101946714D01*
X155725672Y-102004880D01*
X155543102Y-102100326D01*
X155538301Y-102104186D01*
X155538298Y-102104188D01*
X155441868Y-102181720D01*
X155382547Y-102229415D01*
X155250124Y-102387230D01*
X155247156Y-102392628D01*
X155247153Y-102392633D01*
X155167323Y-102537845D01*
X155150876Y-102567762D01*
X155149013Y-102573635D01*
X155113061Y-102686972D01*
X155088584Y-102764132D01*
X155087898Y-102770249D01*
X155087897Y-102770253D01*
X155086276Y-102784704D01*
X155081554Y-102826811D01*
X155081053Y-102831275D01*
X155053582Y-102896741D01*
X154995079Y-102936964D01*
X154924116Y-102939172D01*
X154863226Y-102902664D01*
X154831738Y-102839031D01*
X154830337Y-102828431D01*
X154824722Y-102765523D01*
X154822740Y-102754508D01*
X154766449Y-102548740D01*
X154762551Y-102538259D01*
X154670703Y-102345697D01*
X154665018Y-102336084D01*
X154540525Y-102162833D01*
X154533217Y-102154367D01*
X154380018Y-102005908D01*
X154371321Y-101998865D01*
X154194256Y-101879881D01*
X154184458Y-101874495D01*
X153989110Y-101788743D01*
X153978518Y-101785178D01*
X153852716Y-101754976D01*
X153838630Y-101755681D01*
X153835100Y-101764560D01*
X153835100Y-103861600D01*
X153815098Y-103929721D01*
X153761442Y-103976214D01*
X153709100Y-103987600D01*
X153453100Y-103987600D01*
X153384979Y-103967598D01*
X153338486Y-103913942D01*
X153327100Y-103861600D01*
X153327100Y-101765189D01*
X153322995Y-101751207D01*
X153313372Y-101749714D01*
X153313127Y-101749766D01*
X153109217Y-101812498D01*
X153098871Y-101816719D01*
X152909286Y-101914571D01*
X152899855Y-101920557D01*
X152730599Y-102050432D01*
X152722376Y-102057993D01*
X152578788Y-102215794D01*
X152572033Y-102224694D01*
X152458666Y-102405415D01*
X152453589Y-102415381D01*
X152374020Y-102613314D01*
X152370785Y-102624029D01*
X152328791Y-102826811D01*
X152295391Y-102889460D01*
X152233422Y-102924107D01*
X152162559Y-102919750D01*
X152105301Y-102877774D01*
X152080010Y-102813554D01*
X152077181Y-102784704D01*
X152077181Y-102784703D01*
X152076580Y-102778570D01*
X152017035Y-102581349D01*
X151920318Y-102399449D01*
X151820990Y-102277661D01*
X151794006Y-102244575D01*
X151794003Y-102244572D01*
X151790111Y-102239800D01*
X151780053Y-102231479D01*
X151636125Y-102112411D01*
X151636121Y-102112409D01*
X151631375Y-102108482D01*
X151450155Y-102010497D01*
X151253354Y-101949577D01*
X151247231Y-101948934D01*
X151247229Y-101948933D01*
X151184443Y-101942334D01*
X151118786Y-101915320D01*
X151078157Y-101857099D01*
X151075454Y-101786154D01*
X151108519Y-101727929D01*
X151714043Y-101122405D01*
X151776355Y-101088379D01*
X151803138Y-101085500D01*
X158132562Y-101085500D01*
X158200683Y-101105502D01*
G37*
G04 #@! TD.AperFunction*
M02*
