G04 This is an RS-274x file exported by *
G04 gerbv version 2.7.0 *
G04 More information is available about gerbv at *
G04 http://gerbv.geda-project.org/ *
G04 --End of header info--*
%MOIN*%
%FSLAX36Y36*%
%IPPOS*%
G04 --Define apertures--*
%ADD10O,0.0593X0.1187*%
%ADD11O,0.0630X0.0945*%
%ADD12R,0.0630X0.0945*%
%ADD13C,0.0472*%
%ADD14R,0.0472X0.0472*%
%ADD15O,0.0630X0.0630*%
%ADD16R,0.0630X0.0630*%
%ADD17R,0.0354X0.0315*%
G04 --Start main section--*
G54D16*
G36*
G01X7183323Y-3788976D02*
G01X7183323Y-3753543D01*
G75*
G02X7193165Y-3743701I0009842J0000000D01*
G01X7213835Y-3743701D01*
G75*
G02X7223677Y-3753543I0000000J-009842D01*
G01X7223677Y-3788976D01*
G75*
G02X7213835Y-3798819I-009842J0000000D01*
G01X7193165Y-3798819D01*
G75*
G02X7183323Y-3788976I0000000J0009842D01*
G37*
G36*
G01X7111472Y-3788976D02*
G01X7111472Y-3753543D01*
G75*
G02X7121315Y-3743701I0009842J0000000D01*
G01X7141984Y-3743701D01*
G75*
G02X7151827Y-3753543I0000000J-009842D01*
G01X7151827Y-3788976D01*
G75*
G02X7141984Y-3798819I-009842J0000000D01*
G01X7121315Y-3798819D01*
G75*
G02X7111472Y-3788976I0000000J0009842D01*
G37*
G36*
G01X7183323Y-3683858D02*
G01X7183323Y-3648425D01*
G75*
G02X7193165Y-3638583I0009842J0000000D01*
G01X7213835Y-3638583D01*
G75*
G02X7223677Y-3648425I0000000J-009842D01*
G01X7223677Y-3683858D01*
G75*
G02X7213835Y-3693701I-009842J0000000D01*
G01X7193165Y-3693701D01*
G75*
G02X7183323Y-3683858I0000000J0009842D01*
G37*
G36*
G01X7111472Y-3683858D02*
G01X7111472Y-3648425D01*
G75*
G02X7121315Y-3638583I0009842J0000000D01*
G01X7141984Y-3638583D01*
G75*
G02X7151827Y-3648425I0000000J-009842D01*
G01X7151827Y-3683858D01*
G75*
G02X7141984Y-3693701I-009842J0000000D01*
G01X7121315Y-3693701D01*
G75*
G02X7111472Y-3683858I0000000J0009842D01*
G37*
G36*
G01X7151827Y-3546457D02*
G01X7151827Y-3581890D01*
G75*
G02X7141984Y-3591732I-009842J0000000D01*
G01X7121315Y-3591732D01*
G75*
G02X7111472Y-3581890I0000000J0009842D01*
G01X7111472Y-3546457D01*
G75*
G02X7121315Y-3536614I0009842J0000000D01*
G01X7141984Y-3536614D01*
G75*
G02X7151827Y-3546457I0000000J-009842D01*
G37*
G36*
G01X7223677Y-3546457D02*
G01X7223677Y-3581890D01*
G75*
G02X7213835Y-3591732I-009842J0000000D01*
G01X7193165Y-3591732D01*
G75*
G02X7183323Y-3581890I0000000J0009842D01*
G01X7183323Y-3546457D01*
G75*
G02X7193165Y-3536614I0009842J0000000D01*
G01X7213835Y-3536614D01*
G75*
G02X7223677Y-3546457I0000000J-009842D01*
G37*
G36*
G01X7151827Y-3446457D02*
G01X7151827Y-3481890D01*
G75*
G02X7141984Y-3491732I-009842J0000000D01*
G01X7121315Y-3491732D01*
G75*
G02X7111472Y-3481890I0000000J0009842D01*
G01X7111472Y-3446457D01*
G75*
G02X7121315Y-3436614I0009842J0000000D01*
G01X7141984Y-3436614D01*
G75*
G02X7151827Y-3446457I0000000J-009842D01*
G37*
G36*
G01X7223677Y-3446457D02*
G01X7223677Y-3481890D01*
G75*
G02X7213835Y-3491732I-009842J0000000D01*
G01X7193165Y-3491732D01*
G75*
G02X7183323Y-3481890I0000000J0009842D01*
G01X7183323Y-3446457D01*
G75*
G02X7193165Y-3436614I0009842J0000000D01*
G01X7213835Y-3436614D01*
G75*
G02X7223677Y-3446457I0000000J-009842D01*
G37*
G36*
G01X7151827Y-3346216D02*
G01X7151827Y-3381650D01*
G75*
G02X7141984Y-3391492I-009842J0000000D01*
G01X7121315Y-3391492D01*
G75*
G02X7111472Y-3381650I0000000J0009842D01*
G01X7111472Y-3346216D01*
G75*
G02X7121315Y-3336374I0009842J0000000D01*
G01X7141984Y-3336374D01*
G75*
G02X7151827Y-3346216I0000000J-009842D01*
G37*
G36*
G01X7223677Y-3346216D02*
G01X7223677Y-3381650D01*
G75*
G02X7213835Y-3391492I-009842J0000000D01*
G01X7193165Y-3391492D01*
G75*
G02X7183323Y-3381650I0000000J0009842D01*
G01X7183323Y-3346216D01*
G75*
G02X7193165Y-3336374I0009842J0000000D01*
G01X7213835Y-3336374D01*
G75*
G02X7223677Y-3346216I0000000J-009842D01*
G37*
G54D17*
G01X7026378Y-3922835D03*
G01X7105118Y-3960236D03*
G01X7105118Y-3885433D03*
G01X-500000Y0000000D02*
G01X6526378Y-3922835D03*
M02*
